<svg width="365" height="480" viewBox="0 0 365 480" fill="none" xmlns="http://www.w3.org/2000/svg">
<mask id="mask0_1203_16731" style="mask-type:alpha" maskUnits="userSpaceOnUse" x="0" y="0" width="365" height="480">
<path d="M0 9.99999C0 4.47714 4.47715 0 10 0H355C360.523 0 365 4.47715 365 10V470C365 475.523 360.523 480 355 480H10C4.47716 480 0 475.523 0 470V9.99999Z" fill="#202020"/>
</mask>
<g mask="url(#mask0_1203_16731)">
<g opacity="0.6">
<path d="M119.13 316.651C224.153 661.63 313.894 851.823 388.278 887.906" stroke="#BBA3FF" stroke-width="0.5" stroke-miterlimit="10"/>
<path d="M123.465 280.372C219.052 643.968 304.014 846.47 378.147 888.015" stroke="#BBA3FF" stroke-width="0.5" stroke-miterlimit="10"/>
<path d="M127.432 244.03C214.116 626.501 293.968 840.914 367.523 887.526" stroke="#BBA3FF" stroke-width="0.5" stroke-miterlimit="10"/>
<path d="M131.487 208.565C209.306 609.572 284.417 835.956 357.024 887.576" stroke="#BBA3FF" stroke-width="0.5" stroke-miterlimit="10"/>
<path d="M135.464 173.775C204.254 593.121 274.866 830.998 346.729 887.486" stroke="#BBA3FF" stroke-width="0.5" stroke-miterlimit="10"/>
<path d="M139.327 139.998C199.697 577.264 265.277 826.377 336.066 887.337" stroke="#BBA3FF" stroke-width="0.5" stroke-miterlimit="10"/>
<path d="M143.237 107.432C195.265 561.942 256.055 821.814 325.974 887.106" stroke="#BBA3FF" stroke-width="0.5" stroke-miterlimit="10"/>
<path d="M146.587 76.4963C190.185 547.376 246.427 817.53 315.312 886.957" stroke="#BBA3FF" stroke-width="0.5" stroke-miterlimit="10"/>
<path d="M150.111 47.3092C185.56 533.744 237.127 813.643 305.016 886.867" stroke="#BBA3FF" stroke-width="0.5" stroke-miterlimit="10"/>
<path d="M153.035 20.0887C180.616 521.264 227.79 810.094 294.353 886.717" stroke="#BBA3FF" stroke-width="0.5" stroke-miterlimit="10"/>
<path d="M155.894 -4.90607C175.596 509.46 218.25 806.684 284.059 886.627" stroke="#BBA3FF" stroke-width="0.5" stroke-miterlimit="10"/>
<path d="M158.48 -27.537C170.787 499.065 209.037 803.67 273.598 886.338" stroke="#BBA3FF" stroke-width="0.5" stroke-miterlimit="10"/>
<path d="M160.797 -47.8036C165.7 489.485 199.623 800.796 262.935 886.188" stroke="#BBA3FF" stroke-width="0.5" stroke-miterlimit="10"/>
<path d="M162.97 -65.1697C160.622 481.455 190.538 798.319 252.805 886.296" stroke="#BBA3FF" stroke-width="0.5" stroke-miterlimit="10"/>
<path d="M164.466 -79.8911C155.06 474.38 181.045 796.121 242.345 886.008" stroke="#BBA3FF" stroke-width="0.5" stroke-miterlimit="10"/>
<path d="M165.817 -91.7128C149.547 468.516 171.515 794.261 231.885 885.719" stroke="#BBA3FF" stroke-width="0.5" stroke-miterlimit="10"/>
<path d="M166.822 -100.496C144.045 464.201 162.314 792.796 221.222 885.569" stroke="#BBA3FF" stroke-width="0.5" stroke-miterlimit="10"/>
<path d="M167.644 -106.039C138.592 461.098 153.075 791.671 211.093 885.678" stroke="#BBA3FF" stroke-width="0.5" stroke-miterlimit="10"/>
<path d="M167.749 -108.601C132.412 459.427 143.225 790.963 200.429 885.529" stroke="#BBA3FF" stroke-width="0.5" stroke-miterlimit="10"/>
<path d="M167.709 -108.263C126.28 458.968 133.945 790.174 189.968 885.24" stroke="#BBA3FF" stroke-width="0.5" stroke-miterlimit="10"/>
<path d="M167.286 -104.549C120.161 460.056 124.223 790.002 179.674 885.149" stroke="#BBA3FF" stroke-width="0.5" stroke-miterlimit="10"/>
<path d="M166.513 -97.7939C113.885 462.497 114.663 790.028 169.011 884.999" stroke="#BBA3FF" stroke-width="0.5" stroke-miterlimit="10"/>
<path d="M165.393 -87.9979C107.456 466.289 105.23 790.591 158.715 884.909" stroke="#BBA3FF" stroke-width="0.5" stroke-miterlimit="10"/>
<path d="M164.129 -75.3028C101.114 470.954 96.0008 791.014 148.421 884.818" stroke="#BBA3FF" stroke-width="0.5" stroke-miterlimit="10"/>
<path d="M162.149 -59.6243C94.2113 477.251 85.958 791.996 137.758 884.67" stroke="#BBA3FF" stroke-width="0.5" stroke-miterlimit="10"/>
<path d="M160.064 -41.3864C87.3955 484.419 76.4862 792.895 127.297 884.38" stroke="#BBA3FF" stroke-width="0.5" stroke-miterlimit="10"/>
<path d="M157.834 -20.245C80.4249 492.941 66.9369 794.472 117.166 884.489" stroke="#BBA3FF" stroke-width="0.5" stroke-miterlimit="10"/>
<path d="M154.967 3.20032C73.3399 502.474 57.021 795.989 106.504 884.339" stroke="#BBA3FF" stroke-width="0.5" stroke-miterlimit="10"/>
<path d="M152.033 28.8711C65.9745 512.823 47.27 797.704 96.0455 884.05" stroke="#BBA3FF" stroke-width="0.5" stroke-miterlimit="10"/>
<path d="M148.826 56.9058C58.6556 524.383 37.6428 799.955 85.7491 883.96" stroke="#BBA3FF" stroke-width="0.5" stroke-miterlimit="10"/>
<path d="M145.429 86.6309C51.3001 536.283 27.8527 802.01 75.29 883.672" stroke="#BBA3FF" stroke-width="0.5" stroke-miterlimit="10"/>
<path d="M141.837 118.043C43.6629 548.996 18.0616 804.062 64.6264 883.522" stroke="#BBA3FF" stroke-width="0.5" stroke-miterlimit="10"/>
<path d="M138.053 151.144C36.317 562.442 8.39711 806.651 54.3315 883.431" stroke="#BBA3FF" stroke-width="0.5" stroke-miterlimit="10"/>
<path d="M134.152 185.259C28.7287 576.367 -1.43264 809.042 43.8326 883.48" stroke="#BBA3FF" stroke-width="0.5" stroke-miterlimit="10"/>
<path d="M130.136 220.387C21.1022 590.63 -11.262 811.433 33.3728 883.192" stroke="#BBA3FF" stroke-width="0.5" stroke-miterlimit="10"/>
<path d="M126.042 256.191C13.4756 604.893 -20.7232 813.883 23.0777 883.101" stroke="#BBA3FF" stroke-width="0.5" stroke-miterlimit="10"/>
<path d="M121.911 292.332C5.85003 619.155 -30.513 815.935 12.6188 882.812" stroke="#BBA3FF" stroke-width="0.5" stroke-miterlimit="10"/>
<path d="M117.74 328.812C-1.61255 633.617 -40.1397 818.187 2.32295 882.722" stroke="#BBA3FF" stroke-width="0.5" stroke-miterlimit="10"/>
<path d="M113.57 365.291C-9.27726 648.217 -49.7654 820.439 -8.33983 882.573" stroke="#BBA3FF" stroke-width="0.5" stroke-miterlimit="10"/>
<path d="M109.641 401.292C-16.4974 662.2 -59.1882 822.55 -18.6351 882.482" stroke="#BBA3FF" stroke-width="0.5" stroke-miterlimit="10"/>
<path d="M105.421 436.56C-23.8436 675.647 -68.7373 824.126 -29.0952 882.193" stroke="#BBA3FF" stroke-width="0.5" stroke-miterlimit="10"/>
<path d="M101.482 471.013C-30.948 688.618 -78.083 825.562 -39.594 882.242" stroke="#BBA3FF" stroke-width="0.5" stroke-miterlimit="10"/>
<path d="M101.482 471.014C-136.478 600.463 -252.545 697.894 -247.659 763.327" stroke="#BBA3FF" stroke-width="0.5" stroke-miterlimit="10"/>
<path d="M105.421 436.56C-137.869 581.498 -256.945 687.219 -251.11 754.18" stroke="#BBA3FF" stroke-width="0.5" stroke-miterlimit="10"/>
<path d="M109.641 401.293C-139.018 562.056 -260.609 676.663 -254.928 744.975" stroke="#BBA3FF" stroke-width="0.5" stroke-miterlimit="10"/>
<path d="M113.57 365.291C-140.701 542.357 -264.807 665.85 -258.748 735.769" stroke="#BBA3FF" stroke-width="0.5" stroke-miterlimit="10"/>
<path d="M117.74 328.812C-141.774 522.239 -268.598 654.757 -262.364 726.424" stroke="#BBA3FF" stroke-width="0.5" stroke-miterlimit="10"/>
<path d="M121.911 292.332C-142.846 502.121 -272.388 643.664 -266.347 717.019" stroke="#BBA3FF" stroke-width="0.5" stroke-miterlimit="10"/>
<path d="M126.042 256.191C-143.92 482.004 -276.015 632.77 -270.003 708.012" stroke="#BBA3FF" stroke-width="0.5" stroke-miterlimit="10"/>
<path d="M130.136 220.387C-144.828 462.084 -279.438 621.736 -273.822 698.807" stroke="#BBA3FF" stroke-width="0.5" stroke-miterlimit="10"/>
<path d="M134.152 185.259C-145.774 442.502 -283.025 610.503 -277.438 689.461" stroke="#BBA3FF" stroke-width="0.5" stroke-miterlimit="10"/>
<path d="M138.053 151.144C-146.759 423.257 -286.448 599.469 -281.256 680.255" stroke="#BBA3FF" stroke-width="0.5" stroke-miterlimit="10"/>
<path d="M141.837 118.043C-147.579 404.212 -289.871 588.435 -284.872 670.911" stroke="#BBA3FF" stroke-width="0.5" stroke-miterlimit="10"/>
<path d="M145.429 86.6309C-148.477 385.842 -293.128 577.6 -288.691 661.706" stroke="#BBA3FF" stroke-width="0.5" stroke-miterlimit="10"/>
<path d="M119.13 316.651C-154.044 470.59 -291.258 582.539 -292.511 652.499" stroke="#BBA3FF" stroke-width="0.5" stroke-miterlimit="10"/>
<path d="M123.466 280.371C-155.524 450.753 -295.087 571.785 -296.127 643.155" stroke="#BBA3FF" stroke-width="0.5" stroke-miterlimit="10"/>
<path d="M127.432 244.03C-156.8 430.773 -299.247 560.632 -299.946 633.947" stroke="#BBA3FF" stroke-width="0.5" stroke-miterlimit="10"/>
<path d="M131.487 208.565C-158.114 411.133 -303.076 549.878 -303.765 624.742" stroke="#BBA3FF" stroke-width="0.5" stroke-miterlimit="10"/>
<path d="M135.464 173.775C-159.265 391.691 -306.867 538.786 -307.585 615.537" stroke="#BBA3FF" stroke-width="0.5" stroke-miterlimit="10"/>
<path d="M139.327 139.998C-160.452 372.587 -310.493 527.892 -311.2 606.192" stroke="#BBA3FF" stroke-width="0.5" stroke-miterlimit="10"/>
<path d="M143.237 107.432C-161.312 353.878 -313.751 517.056 -314.816 596.847" stroke="#BBA3FF" stroke-width="0.5" stroke-miterlimit="10"/>
<path d="M146.587 76.4963C-162.616 335.787 -317.58 506.3 -318.635 587.641" stroke="#BBA3FF" stroke-width="0.5" stroke-miterlimit="10"/>
<path d="M150.111 47.3092C-163.262 318.489 -320.839 495.465 -322.455 578.436" stroke="#BBA3FF" stroke-width="0.5" stroke-miterlimit="10"/>
<path d="M153.035 20.0887C-164.721 301.748 -324.503 484.908 -326.274 569.229" stroke="#BBA3FF" stroke-width="0.5" stroke-miterlimit="10"/>
<path d="M155.894 -4.90607C-165.926 286.08 -327.799 474.41 -329.889 559.884" stroke="#BBA3FF" stroke-width="0.5" stroke-miterlimit="10"/>
<path d="M158.48 -27.537C-167.047 271.286 -331.136 464.249 -333.71 550.679" stroke="#BBA3FF" stroke-width="0.5" stroke-miterlimit="10"/>
<path d="M160.797 -47.8036C-168.281 257.504 -334.267 453.949 -337.325 541.333" stroke="#BBA3FF" stroke-width="0.5" stroke-miterlimit="10"/>
<path d="M162.97 -65.1697C-169.467 244.934 -337.438 443.987 -340.979 532.325" stroke="#BBA3FF" stroke-width="0.5" stroke-miterlimit="10"/>
<path d="M164.466 -79.8911C-170.934 233.181 -340.812 434.165 -344.963 522.922" stroke="#BBA3FF" stroke-width="0.5" stroke-miterlimit="10"/>
<path d="M165.817 -91.7128C-172.556 222.777 -344.021 424.541 -348.58 513.577" stroke="#BBA3FF" stroke-width="0.5" stroke-miterlimit="10"/>
<path d="M166.822 -100.496C-174.128 213.584 -347.065 415.114 -352.398 504.371" stroke="#BBA3FF" stroke-width="0.5" stroke-miterlimit="10"/>
<path d="M167.644 -106.039C-175.65 205.605 -350.148 406.026 -356.052 495.364" stroke="#BBA3FF" stroke-width="0.5" stroke-miterlimit="10"/>
<path d="M167.749 -108.601C-177.532 199.115 -353.435 397.077 -360.036 485.961" stroke="#BBA3FF" stroke-width="0.5" stroke-miterlimit="10"/>
<path d="M167.709 -108.263C-179.288 193.161 -356.354 388.187 -363.653 476.615" stroke="#BBA3FF" stroke-width="0.5" stroke-miterlimit="10"/>
<path d="M167.286 -104.549C-181.273 189.233 -359.513 379.773 -367.471 467.409" stroke="#BBA3FF" stroke-width="0.5" stroke-miterlimit="10"/>
<path d="M166.513 -97.7939C-183.173 186.179 -362.306 371.418 -371.291 458.203" stroke="#BBA3FF" stroke-width="0.5" stroke-miterlimit="10"/>
<path d="M165.393 -87.9979C-185.024 184.338 -365.137 363.402 -374.907 448.858" stroke="#BBA3FF" stroke-width="0.5" stroke-miterlimit="10"/>
<path d="M164.129 -75.3028C-186.825 183.706 -367.599 355.444 -378.358 439.711" stroke="#BBA3FF" stroke-width="0.5" stroke-miterlimit="10"/>
<path d="M162.149 -59.6243C-189.149 184.37 -370.469 347.766 -382.38 430.646" stroke="#BBA3FF" stroke-width="0.5" stroke-miterlimit="10"/>
<path d="M160.065 -41.3845C-191.018 185.964 -373.135 339.948 -386.16 421.103" stroke="#BBA3FF" stroke-width="0.5" stroke-miterlimit="10"/>
<path d="M157.834 -20.2442C-192.635 188.631 -375.308 332.724 -389.612 411.956" stroke="#BBA3FF" stroke-width="0.5" stroke-miterlimit="10"/>
<path d="M154.966 3.20038C-194.736 192.25 -377.645 325.301 -393.8 402.691" stroke="#BBA3FF" stroke-width="0.5" stroke-miterlimit="10"/>
<path d="M152.032 28.8704C-196.34 196.465 -379.612 317.937 -397.415 393.345" stroke="#BBA3FF" stroke-width="0.5" stroke-miterlimit="10"/>
<path d="M148.827 56.907C-197.898 201.893 -381.251 310.971 -401.069 384.339" stroke="#BBA3FF" stroke-width="0.5" stroke-miterlimit="10"/>
<path d="M145.428 86.6297C-198.961 207.913 -382.523 304.061 -405.053 374.934" stroke="#BBA3FF" stroke-width="0.5" stroke-miterlimit="10"/>
<path d="M141.836 118.041C-200.102 214.609 -383.427 297.21 -408.67 365.588" stroke="#BBA3FF" stroke-width="0.5" stroke-miterlimit="10"/>
<path d="M138.053 151.144C-200.418 222.298 -384 290.758 -412.324 356.582" stroke="#BBA3FF" stroke-width="0.5" stroke-miterlimit="10"/>
<path d="M134.152 185.259C-200.774 230.323 -384.206 284.362 -415.94 347.236" stroke="#BBA3FF" stroke-width="0.5" stroke-miterlimit="10"/>
<path d="M130.136 220.387C-200.635 238.944 -384.044 278.026 -419.759 338.031" stroke="#BBA3FF" stroke-width="0.5" stroke-miterlimit="10"/>
<path d="M126.042 256.191C-200.003 248.158 -383.388 272.284 -423.579 328.825" stroke="#BBA3FF" stroke-width="0.5" stroke-miterlimit="10"/>
<path d="M121.911 292.331C-199.447 258.047 -382.401 266.937 -427.194 319.479" stroke="#BBA3FF" stroke-width="0.5" stroke-miterlimit="10"/>
<path d="M117.739 328.812C-198.524 267.997 -381.454 261.93 -431.014 310.275" stroke="#BBA3FF" stroke-width="0.5" stroke-miterlimit="10"/>
<path d="M113.57 365.29C-196.243 279.192 -378.375 257.948 -432.459 301.617" stroke="#BBA3FF" stroke-width="0.5" stroke-miterlimit="10"/>
<path d="M109.641 401.292C-188.723 292.082 -366.657 257.062 -424.326 296.034" stroke="#BBA3FF" stroke-width="0.5" stroke-miterlimit="10"/>
<path d="M105.421 436.56C-181.203 304.972 -355.142 256.315 -416.193 290.45" stroke="#BBA3FF" stroke-width="0.5" stroke-miterlimit="10"/>
<path d="M101.482 471.013C-173.886 318.002 -343.666 255.906 -408.06 284.866" stroke="#BBA3FF" stroke-width="0.5" stroke-miterlimit="10"/>
<path d="M97.659 504.452C-166.531 330.693 -332.393 255.636 -399.926 279.281" stroke="#BBA3FF" stroke-width="0.5" stroke-miterlimit="10"/>
<path d="M93.9902 536.54C-159.708 343.128 -321.691 255.447 -391.997 273.837" stroke="#BBA3FF" stroke-width="0.5" stroke-miterlimit="10"/>
<path d="M90.5154 566.94C-153.176 354.829 -311.192 255.399 -383.863 268.253" stroke="#BBA3FF" stroke-width="0.5" stroke-miterlimit="10"/>
<path d="M87.2712 595.313C-146.935 365.796 -301.188 254.755 -375.526 262.529" stroke="#BBA3FF" stroke-width="0.5" stroke-miterlimit="10"/>
<path d="M84.2204 621.996C-140.985 376.027 -291.387 254.251 -367.597 257.084" stroke="#BBA3FF" stroke-width="0.5" stroke-miterlimit="10"/>
<path d="M81.6433 646.177C-134.88 384.91 -281.916 253.351 -359.095 251.559" stroke="#BBA3FF" stroke-width="0.5" stroke-miterlimit="10"/>
<path d="M78.9691 667.932C-129.598 392.799 -272.976 252.193 -351.329 245.916" stroke="#BBA3FF" stroke-width="0.5" stroke-miterlimit="10"/>
<path d="M76.7665 687.187C-124.368 399.48 -264.165 250.502 -343.198 240.333" stroke="#BBA3FF" stroke-width="0.5" stroke-miterlimit="10"/>
<path d="M74.8754 703.736C-118.98 404.807 -255.516 248.609 -335.063 234.748" stroke="#BBA3FF" stroke-width="0.5" stroke-miterlimit="10"/>
<path d="M73.2915 717.586C-113.846 409.064 -247.198 246.323 -326.931 229.165" stroke="#BBA3FF" stroke-width="0.5" stroke-miterlimit="10"/>
<path d="M72.0561 728.394C-108.886 411.572 -239.006 243.499 -318.797 223.58" stroke="#BBA3FF" stroke-width="0.5" stroke-miterlimit="10"/>
<path d="M71.1676 736.164C-103.772 412.731 -230.939 240.141 -310.867 218.136" stroke="#BBA3FF" stroke-width="0.5" stroke-miterlimit="10"/>
<path d="M70.8294 740.753C-98.5045 412.537 -222.835 236.443 -302.367 212.61" stroke="#BBA3FF" stroke-width="0.5" stroke-miterlimit="10"/>
<path d="M70.4733 742.242C-93.4093 410.595 -215.223 232.151 -294.397 206.827" stroke="#BBA3FF" stroke-width="0.5" stroke-miterlimit="10"/>
<path d="M70.8305 740.753C-88.3652 407.444 -207.41 227.72 -286.264 201.244" stroke="#BBA3FF" stroke-width="0.5" stroke-miterlimit="10"/>
<path d="M71.1676 736.163C-83.1275 402.602 -199.518 222.613 -278.131 195.659" stroke="#BBA3FF" stroke-width="0.5" stroke-miterlimit="10"/>
<path d="M72.0558 728.394C-77.9387 396.55 -191.956 217.11 -269.998 190.075" stroke="#BBA3FF" stroke-width="0.5" stroke-miterlimit="10"/>
<path d="M73.2911 717.586C-72.5957 389.146 -184.356 211.269 -261.865 184.491" stroke="#BBA3FF" stroke-width="0.5" stroke-miterlimit="10"/>
<path d="M74.875 703.737C-67.0587 380.053 -176.717 205.09 -253.934 179.047" stroke="#BBA3FF" stroke-width="0.5" stroke-miterlimit="10"/>
<path d="M76.7667 687.187C-61.7749 369.889 -169.204 198.376 -245.801 173.463" stroke="#BBA3FF" stroke-width="0.5" stroke-miterlimit="10"/>
<path d="M78.9684 667.933C-56.297 358.036 -161.855 191.464 -237.667 167.879" stroke="#BBA3FF" stroke-width="0.5" stroke-miterlimit="10"/>
<path d="M81.6427 646.176C-50.5396 345.367 -154.265 184.073 -229.167 162.352" stroke="#BBA3FF" stroke-width="0.5" stroke-miterlimit="10"/>
<path d="M84.2205 621.997C-45.1979 331.429 -147.004 176.287 -221.401 156.711" stroke="#BBA3FF" stroke-width="0.5" stroke-miterlimit="10"/>
<path d="M87.2706 595.313C-39.7031 316.14 -139.87 167.965 -213.268 151.127" stroke="#BBA3FF" stroke-width="0.5" stroke-miterlimit="10"/>
<path d="M90.5149 566.94C-34.1299 300.174 -132.735 159.642 -205.134 145.542" stroke="#BBA3FF" stroke-width="0.5" stroke-miterlimit="10"/>
<path d="M93.9903 536.541C-28.8095 283.137 -125.726 150.784 -197.001 139.958" stroke="#BBA3FF" stroke-width="0.5" stroke-miterlimit="10"/>
<path d="M97.6595 504.452C-23.3726 265.087 -119.046 141.529 -188.867 134.374" stroke="#BBA3FF" stroke-width="0.5" stroke-miterlimit="10"/>
<path d="M101.482 471.012C-18.1889 245.964 -112.329 131.936 -180.734 128.789" stroke="#BBA3FF" stroke-width="0.5" stroke-miterlimit="10"/>
<path d="M105.421 436.56C-13.1695 226.644 -105.776 122.146 -172.601 123.206" stroke="#BBA3FF" stroke-width="0.5" stroke-miterlimit="10"/>
<path d="M109.64 401.292C-8.27611 206.787 -99.5907 112.297 -164.303 117.819" stroke="#BBA3FF" stroke-width="0.5" stroke-miterlimit="10"/>
<path d="M113.57 365.29C-4.04085 186.138 -93.899 101.853 -156.537 112.177" stroke="#BBA3FF" stroke-width="0.5" stroke-miterlimit="10"/>
<path d="M117.74 328.811C-0.136018 165.094 -88.741 91.153 -148.201 106.453" stroke="#BBA3FF" stroke-width="0.5" stroke-miterlimit="10"/>
<path d="M121.91 292.332C3.40044 143.99 -84.1161 80.1958 -140.068 100.869" stroke="#BBA3FF" stroke-width="0.5" stroke-miterlimit="10"/>
<path d="M126.042 256.19C6.16254 123.106 -79.8976 69.5178 -132.138 95.4246" stroke="#BBA3FF" stroke-width="0.5" stroke-miterlimit="10"/>
<path d="M130.136 220.387C8.18874 102.106 -76.415 58.7229 -124.005 89.8406" stroke="#BBA3FF" stroke-width="0.5" stroke-miterlimit="10"/>
<path d="M134.153 185.26C9.60626 81.526 -73.7057 48.1499 -115.87 84.258" stroke="#BBA3FF" stroke-width="0.5" stroke-miterlimit="10"/>
<path d="M138.053 151.144C10.5386 61.898 -71.4044 37.8536 -107.737 78.6727" stroke="#BBA3FF" stroke-width="0.5" stroke-miterlimit="10"/>
<path d="M141.837 118.043C10.6178 43.1678 -69.753 28.3153 -99.6049 73.089" stroke="#BBA3FF" stroke-width="0.5" stroke-miterlimit="10"/>
<path d="M145.428 86.6299C10.7472 25.6485 -68.1773 19.4521 -91.4714 67.5047" stroke="#BBA3FF" stroke-width="0.5" stroke-miterlimit="10"/>
<path d="M119.13 316.651C45.7136 142.64 -21.5983 57.815 -83.338 61.9193" stroke="#BBA3FF" stroke-width="0.5" stroke-miterlimit="10"/>
<path d="M123.465 280.37C50.5188 121.911 -15.5014 47.093 -75.0407 56.5342" stroke="#BBA3FF" stroke-width="0.5" stroke-miterlimit="10"/>
<path d="M127.433 244.031C54.2982 100.33 -10.4688 35.8571 -67.0716 50.7523" stroke="#BBA3FF" stroke-width="0.5" stroke-miterlimit="10"/>
<path d="M131.487 208.565C57.4667 79.1677 -6.00859 24.7021 -58.9388 45.1685" stroke="#BBA3FF" stroke-width="0.5" stroke-miterlimit="10"/>
<path d="M135.465 173.775C60.0647 58.086 -2.0802 13.2897 -50.8051 39.584" stroke="#BBA3FF" stroke-width="0.5" stroke-miterlimit="10"/>
<path d="M139.327 139.998C61.3161 37.3067 0.704792 2.04019 -42.6719 34.0003" stroke="#BBA3FF" stroke-width="0.5" stroke-miterlimit="10"/>
<path d="M143.237 107.431C62.1221 17.143 2.91841 -9.12969 -34.3741 28.6134" stroke="#BBA3FF" stroke-width="0.5" stroke-miterlimit="10"/>
<path d="M146.587 76.4961C61.2634 -1.5652 3.54457 -19.5196 -26.4051 22.8312" stroke="#BBA3FF" stroke-width="0.5" stroke-miterlimit="10"/>
<path d="M150.111 47.3102C60.2495 -18.9203 4.2574 -29.0337 -18.2722 17.249" stroke="#BBA3FF" stroke-width="0.5" stroke-miterlimit="10"/>
<path d="M153.035 20.0886C58.8775 -34.7884 4.4861 -37.5969 -10.1396 11.6632" stroke="#BBA3FF" stroke-width="0.5" stroke-miterlimit="10"/>
<path d="M155.895 -4.9058C57.645 -48.569 4.9315 -44.748 -2.00378 6.07971" stroke="#BBA3FF" stroke-width="0.5" stroke-miterlimit="10"/>
<path d="M158.48 -27.5367C57.1537 -60.684 6.23394 -51.247 6.12685 0.495324" stroke="#BBA3FF" stroke-width="0.5" stroke-miterlimit="10"/>
<path d="M160.798 -47.8032C57.4132 -71.1327 8.56774 -56.8947 14.0586 -4.94943" stroke="#BBA3FF" stroke-width="0.5" stroke-miterlimit="10"/>
<path d="M162.971 -65.1687C58.4559 -80.2521 11.5973 -62.0868 22.1919 -10.5331" stroke="#BBA3FF" stroke-width="0.5" stroke-miterlimit="10"/>
<path d="M164.466 -79.8912C60.4859 -88.1831 15.8947 -66.9056 30.3243 -16.1173" stroke="#BBA3FF" stroke-width="0.5" stroke-miterlimit="10"/>
<path d="M154.966 3.20035C155.858 -47.2133 151.112 -48.3124 140.893 0.101153" stroke="#BBA3FF" stroke-width="0.5" stroke-miterlimit="10"/>
<path d="M152.031 28.8712C204.634 14.5432 203.847 6.67985 149.795 5.81697" stroke="#BBA3FF" stroke-width="0.5" stroke-miterlimit="10"/>
<path d="M148.827 56.9067C207.445 44.0517 210.655 29.0863 158.66 11.8708" stroke="#BBA3FF" stroke-width="0.5" stroke-miterlimit="10"/>
<path d="M145.428 86.6291C210.028 64.0646 217.148 41.1234 167.194 17.5263" stroke="#BBA3FF" stroke-width="0.5" stroke-miterlimit="10"/>
<path d="M141.838 118.042C212.805 82.3902 224.28 50.8563 176.098 23.2421" stroke="#BBA3FF" stroke-width="0.5" stroke-miterlimit="10"/>
<path d="M138.053 151.144C215.949 100.775 231.45 60.2516 184.961 29.2958" stroke="#BBA3FF" stroke-width="0.5" stroke-miterlimit="10"/>
<path d="M134.152 185.258C219.093 119.158 239.065 69.029 193.659 35.1504" stroke="#BBA3FF" stroke-width="0.5" stroke-miterlimit="10"/>
<path d="M130.136 220.386C222.403 137.74 246.313 77.7484 202.194 40.8073" stroke="#BBA3FF" stroke-width="0.5" stroke-miterlimit="10"/>
<path d="M126.043 256.19C225.713 156.323 253.929 86.5266 211.097 46.5231" stroke="#BBA3FF" stroke-width="0.5" stroke-miterlimit="10"/>
<path d="M121.911 292.332C228.819 175.045 261.379 95.1065 219.796 52.3785" stroke="#BBA3FF" stroke-width="0.5" stroke-miterlimit="10"/>
<path d="M117.74 328.812C232.089 193.965 268.995 103.885 228.699 58.0947" stroke="#BBA3FF" stroke-width="0.5" stroke-miterlimit="10"/>
<path d="M113.569 365.291C235.321 213.223 276.61 112.663 237.397 63.95" stroke="#BBA3FF" stroke-width="0.5" stroke-miterlimit="10"/>
<path d="M109.642 401.293C238.631 231.805 284.226 121.441 246.466 69.8633" stroke="#BBA3FF" stroke-width="0.5" stroke-miterlimit="10"/>
<path d="M105.421 436.56C241.774 250.189 291.676 130.02 254.999 75.5201" stroke="#BBA3FF" stroke-width="0.5" stroke-miterlimit="10"/>
<path d="M101.483 471.013C245.123 268.433 299.331 138.461 263.699 81.3753" stroke="#BBA3FF" stroke-width="0.5" stroke-miterlimit="10"/>
<path d="M97.6592 504.453C248.548 286.002 306.781 147.041 272.397 87.231" stroke="#BBA3FF" stroke-width="0.5" stroke-miterlimit="10"/>
<path d="M93.9905 536.542C252.012 303.234 314.27 155.284 281.3 92.9473" stroke="#BBA3FF" stroke-width="0.5" stroke-miterlimit="10"/>
<path d="M90.5159 566.94C255.389 319.591 321.926 163.723 290 98.8015" stroke="#BBA3FF" stroke-width="0.5" stroke-miterlimit="10"/>
<path d="M87.2707 595.313C259.044 335.133 329.452 171.627 298.698 104.657" stroke="#BBA3FF" stroke-width="0.5" stroke-miterlimit="10"/>
<path d="M84.2212 621.997C262.576 350.139 336.982 179.532 307.601 110.373" stroke="#BBA3FF" stroke-width="0.5" stroke-miterlimit="10"/>
<path d="M81.6429 646.176C266.425 363.992 344.712 187.296 316.299 116.227" stroke="#BBA3FF" stroke-width="0.5" stroke-miterlimit="10"/>
<path d="M78.9701 667.934C270.19 376.972 352.28 194.863 325.204 121.943" stroke="#BBA3FF" stroke-width="0.5" stroke-miterlimit="10"/>
<path d="M76.7675 687.187C274.27 388.799 360.049 202.29 333.902 127.798" stroke="#BBA3FF" stroke-width="0.5" stroke-miterlimit="10"/>
<path d="M74.8754 703.736C278.303 399.413 367.49 209.319 342.601 133.652" stroke="#BBA3FF" stroke-width="0.5" stroke-miterlimit="10"/>
<path d="M73.292 717.586C282.451 409.016 375.133 216.211 351.503 139.369" stroke="#BBA3FF" stroke-width="0.5" stroke-miterlimit="10"/>
<path d="M72.0558 728.395C286.754 417.267 382.777 223.102 360.202 145.224" stroke="#BBA3FF" stroke-width="0.5" stroke-miterlimit="10"/>
<path d="M71.1678 736.164C291.173 424.506 390.295 229.458 368.901 151.08" stroke="#BBA3FF" stroke-width="0.5" stroke-miterlimit="10"/>
<path d="M70.831 740.752C295.747 430.391 398.016 235.672 377.804 156.795" stroke="#BBA3FF" stroke-width="0.5" stroke-miterlimit="10"/>
<path d="M70.4721 742.242C300.27 435.065 405.572 241.689 386.502 162.649" stroke="#BBA3FF" stroke-width="0.5" stroke-miterlimit="10"/>
<path d="M70.8313 740.753C305.154 438.251 413.168 247.37 395.203 168.505" stroke="#BBA3FF" stroke-width="0.5" stroke-miterlimit="10"/>
<path d="M71.1676 736.163C309.783 440.363 420.762 253.048 404.104 174.22" stroke="#BBA3FF" stroke-width="0.5" stroke-miterlimit="10"/>
<path d="M72.0563 728.395C314.772 440.985 428.396 258.391 412.804 180.077" stroke="#BBA3FF" stroke-width="0.5" stroke-miterlimit="10"/>
<path d="M73.2922 717.586C319.672 440.732 435.865 263.533 421.504 185.931" stroke="#BBA3FF" stroke-width="0.5" stroke-miterlimit="10"/>
<path d="M74.8747 703.736C324.726 439.129 443.169 268.478 430.405 191.645" stroke="#BBA3FF" stroke-width="0.5" stroke-miterlimit="10"/>
<path d="M76.7682 687.187C329.695 436.653 450.474 273.425 439.106 197.502" stroke="#BBA3FF" stroke-width="0.5" stroke-miterlimit="10"/>
<path d="M78.9684 667.933C334.981 433.023 457.816 278.032 447.804 203.356" stroke="#BBA3FF" stroke-width="0.5" stroke-miterlimit="10"/>
<path d="M81.6442 646.176C340.016 428.321 464.957 282.779 456.707 209.072" stroke="#BBA3FF" stroke-width="0.5" stroke-miterlimit="10"/>
<path d="M84.2199 621.997C344.555 423.025 471.562 287.27 465.405 214.927" stroke="#BBA3FF" stroke-width="0.5" stroke-miterlimit="10"/>
<path d="M87.2713 595.313C349.251 416.378 478.208 291.422 474.105 220.782" stroke="#BBA3FF" stroke-width="0.5" stroke-miterlimit="10"/>
<path d="M90.5146 566.941C353.78 409.534 484.611 296.053 482.804 226.638" stroke="#BBA3FF" stroke-width="0.5" stroke-miterlimit="10"/>
<path d="M93.9906 536.54C358.058 401.615 490.685 300.285 491.707 232.353" stroke="#BBA3FF" stroke-width="0.5" stroke-miterlimit="10"/>
<path d="M97.6585 504.453C361.842 393.104 496.023 304.403 500.405 238.209" stroke="#BBA3FF" stroke-width="0.5" stroke-miterlimit="10"/>
<path d="M101.482 471.013C365.297 384.196 501.197 308.321 509.144 243.726" stroke="#BBA3FF" stroke-width="0.5" stroke-miterlimit="10"/>
<path d="M105.42 436.561C368.256 374.694 505.797 312.321 518.007 249.779" stroke="#BBA3FF" stroke-width="0.5" stroke-miterlimit="10"/>
<path d="M109.641 401.292C370.723 364.596 509.664 316.202 526.707 255.634" stroke="#BBA3FF" stroke-width="0.5" stroke-miterlimit="10"/>
<path d="M113.57 365.291C372.656 354.243 513.404 319.549 535.609 261.35" stroke="#BBA3FF" stroke-width="0.5" stroke-miterlimit="10"/>
<path d="M117.74 328.812C374.134 342.957 516.446 322.441 544.308 267.205" stroke="#BBA3FF" stroke-width="0.5" stroke-miterlimit="10"/>
<path d="M121.912 292.332C375.283 331.274 518.995 324.738 553.009 273.06" stroke="#BBA3FF" stroke-width="0.5" stroke-miterlimit="10"/>
<path d="M126.043 256.191C376.469 319.254 521.784 326.558 561.91 278.776" stroke="#BBA3FF" stroke-width="0.5" stroke-miterlimit="10"/>
<path d="M130.136 220.386C377.733 306.558 524.612 328.038 570.609 284.63" stroke="#BBA3FF" stroke-width="0.5" stroke-miterlimit="10"/>
<path d="M134.152 185.259C379.365 293.921 527.682 329.043 579.308 290.486" stroke="#BBA3FF" stroke-width="0.5" stroke-miterlimit="10"/>
<path d="M138.053 151.144C381.53 281.54 531.528 329.827 588.211 296.201" stroke="#BBA3FF" stroke-width="0.5" stroke-miterlimit="10"/>
<path d="M141.837 118.043C384.062 269.22 535.576 330.472 596.91 302.057" stroke="#BBA3FF" stroke-width="0.5" stroke-miterlimit="10"/>
<path d="M145.429 86.6306C387.091 257.493 540.362 331.234 605.61 307.913" stroke="#BBA3FF" stroke-width="0.5" stroke-miterlimit="10"/>
<path d="M119.129 316.652C407.205 365.071 572.032 363.958 614.511 313.627" stroke="#BBA3FF" stroke-width="0.5" stroke-miterlimit="10"/>
<path d="M123.465 280.371C406.107 353.376 571.317 366.94 618.562 320.807" stroke="#BBA3FF" stroke-width="0.5" stroke-miterlimit="10"/>
<path d="M127.432 244.031C400.969 342.584 563.705 371.23 615.844 329.831" stroke="#BBA3FF" stroke-width="0.5" stroke-miterlimit="10"/>
<path d="M131.487 208.565C395.871 331.455 556.172 374.847 613.29 339.055" stroke="#BBA3FF" stroke-width="0.5" stroke-miterlimit="10"/>
<path d="M135.465 173.775C390.977 320.187 549.211 378.382 610.369 348.22" stroke="#BBA3FF" stroke-width="0.5" stroke-miterlimit="10"/>
<path d="M139.326 139.998C386.246 309.117 542.286 381.58 607.815 357.443" stroke="#BBA3FF" stroke-width="0.5" stroke-miterlimit="10"/>
<path d="M143.237 107.432C382.417 298.362 536.303 384.754 605.262 366.666" stroke="#BBA3FF" stroke-width="0.5" stroke-miterlimit="10"/>
<path d="M146.587 76.4972C378.511 288.283 530.687 387.988 602.341 375.832" stroke="#BBA3FF" stroke-width="0.5" stroke-miterlimit="10"/>
<path d="M150.111 47.3096C375.63 279.055 525.603 391.478 599.826 384.717" stroke="#BBA3FF" stroke-width="0.5" stroke-miterlimit="10"/>
<path d="M153.036 20.0887C372.674 270.502 520.685 395.165 596.905 393.881" stroke="#BBA3FF" stroke-width="0.5" stroke-miterlimit="10"/>
<path d="M155.894 -4.90571C370.134 263.22 516.299 399.111 594.148 403.245" stroke="#BBA3FF" stroke-width="0.5" stroke-miterlimit="10"/>
<path d="M158.481 -27.5364C367.847 257.009 512.205 403.79 591.595 412.468" stroke="#BBA3FF" stroke-width="0.5" stroke-miterlimit="10"/>
<path d="M160.797 -47.8034C365.974 252.068 508.477 408.527 588.876 421.492" stroke="#BBA3FF" stroke-width="0.5" stroke-miterlimit="10"/>
<path d="M162.97 -65.1693C364.114 248.677 505.244 413.859 586.323 430.716" stroke="#BBA3FF" stroke-width="0.5" stroke-miterlimit="10"/>
<path d="M164.466 -79.8911C362.137 246.299 501.604 419.471 583.401 439.881" stroke="#BBA3FF" stroke-width="0.5" stroke-miterlimit="10"/>
<path d="M165.817 -91.7128C360.374 245.331 498.662 425.538 580.682 448.906" stroke="#BBA3FF" stroke-width="0.5" stroke-miterlimit="10"/>
<path d="M166.822 -100.496C358.418 246.051 495.643 432.278 578.129 458.129" stroke="#BBA3FF" stroke-width="0.5" stroke-miterlimit="10"/>
<path d="M167.644 -106.039C356.841 248.38 492.955 439.418 575.577 467.353" stroke="#BBA3FF" stroke-width="0.5" stroke-miterlimit="10"/>
<path d="M167.749 -108.601C354.944 251.861 489.858 446.835 572.452 476.658" stroke="#BBA3FF" stroke-width="0.5" stroke-miterlimit="10"/>
<path d="M167.709 -108.263C352.892 256.693 487.09 454.648 569.936 485.543" stroke="#BBA3FF" stroke-width="0.5" stroke-miterlimit="10"/>
<path d="M167.286 -104.549C351.016 263.272 484.247 463.137 567.18 494.905" stroke="#BBA3FF" stroke-width="0.5" stroke-miterlimit="10"/>
<path d="M166.513 -97.7939C348.985 271.203 481.566 471.824 564.462 503.93" stroke="#BBA3FF" stroke-width="0.5" stroke-miterlimit="10"/>
<path d="M165.393 -87.9979C346.964 280.683 479.013 481.048 561.704 513.294" stroke="#BBA3FF" stroke-width="0.5" stroke-miterlimit="10"/>
<path d="M164.129 -75.3028C344.992 291.374 476.789 490.667 559.355 522.377" stroke="#BBA3FF" stroke-width="0.5" stroke-miterlimit="10"/>
<path d="M162.149 -59.6243C342.663 303.558 474.158 500.567 556.433 531.543" stroke="#BBA3FF" stroke-width="0.5" stroke-miterlimit="10"/>
<path d="M160.064 -41.3864C340.585 316.81 471.692 510.662 553.715 540.566" stroke="#BBA3FF" stroke-width="0.5" stroke-miterlimit="10"/>
<path d="M157.834 -20.245C338.353 331.417 469.516 521.495 551.161 549.791" stroke="#BBA3FF" stroke-width="0.5" stroke-miterlimit="10"/>
<path d="M154.967 3.20032C335.967 347.373 466.936 532.605 548.24 558.955" stroke="#BBA3FF" stroke-width="0.5" stroke-miterlimit="10"/>
<path d="M152.033 28.8711C333.505 364.005 464.723 543.774 545.523 567.981" stroke="#BBA3FF" stroke-width="0.5" stroke-miterlimit="10"/>
<path d="M148.826 56.9058C331.05 382.186 462.43 555.618 542.765 577.343" stroke="#BBA3FF" stroke-width="0.5" stroke-miterlimit="10"/>
<path d="M145.429 86.6309C328.723 400.904 460.305 567.662 540.212 586.568" stroke="#BBA3FF" stroke-width="0.5" stroke-miterlimit="10"/>
<path d="M141.837 118.043C326.648 420.692 458.546 579.763 537.494 595.592" stroke="#BBA3FF" stroke-width="0.5" stroke-miterlimit="10"/>
<path d="M138.053 151.144C324.293 441.295 456.546 592.34 534.737 604.955" stroke="#BBA3FF" stroke-width="0.5" stroke-miterlimit="10"/>
<path d="M134.152 185.258C322.266 462.295 454.875 605.315 532.019 613.979" stroke="#BBA3FF" stroke-width="0.5" stroke-miterlimit="10"/>
<path d="M130.137 220.387C320.366 483.832 453.408 618.151 529.465 623.203" stroke="#BBA3FF" stroke-width="0.5" stroke-miterlimit="10"/>
<path d="M126.042 256.191C318.427 505.707 452.105 631.185 526.543 632.369" stroke="#BBA3FF" stroke-width="0.5" stroke-miterlimit="10"/>
<path d="M121.911 292.333C316.818 527.977 450.803 644.218 523.826 641.394" stroke="#BBA3FF" stroke-width="0.5" stroke-miterlimit="10"/>
<path d="M117.74 328.812C315.373 550.445 450.032 657.508 521.272 650.617" stroke="#BBA3FF" stroke-width="0.5" stroke-miterlimit="10"/>
<path d="M113.57 365.291C314.133 572.775 449.06 670.938 518.351 659.782" stroke="#BBA3FF" stroke-width="0.5" stroke-miterlimit="10"/>
<path d="M109.641 401.292C313.297 594.823 448.86 684.146 516 668.864" stroke="#BBA3FF" stroke-width="0.5" stroke-miterlimit="10"/>
<path d="M105.42 436.561C312.297 616.676 448.128 697.1 513.077 678.03" stroke="#BBA3FF" stroke-width="0.5" stroke-miterlimit="10"/>
<path d="M101.482 471.013C311.541 638.05 447.969 709.971 510.361 687.055" stroke="#BBA3FF" stroke-width="0.5" stroke-miterlimit="10"/>
<path d="M97.659 504.452C311.025 658.947 447.809 722.842 507.604 696.418" stroke="#BBA3FF" stroke-width="0.5" stroke-miterlimit="10"/>
<path d="M93.9908 536.54C310.423 678.969 447.485 735.515 505.05 705.64" stroke="#BBA3FF" stroke-width="0.5" stroke-miterlimit="10"/>
<path d="M90.5142 566.94C310.099 698.178 447.236 747.513 502.128 714.806" stroke="#BBA3FF" stroke-width="0.5" stroke-miterlimit="10"/>
<path d="M87.272 595.312C309.526 716.313 447.029 759.172 499.615 723.691" stroke="#BBA3FF" stroke-width="0.5" stroke-miterlimit="10"/>
</g>
</g>
</svg>
