<svg width="493" height="632" viewBox="0 0 493 632" fill="none" xmlns="http://www.w3.org/2000/svg">
<g opacity="0.6">
<path d="M151.12 99.3829C34.4239 172.3 -15.1168 230.586 2.28449 273.645" stroke="#EBFFC2" stroke-width="0.5" stroke-miterlimit="10"/>
<path d="M129.455 78.665C25.7907 162.089 -14.2781 223.954 9.03971 263.867" stroke="#EBFFC2" stroke-width="0.5" stroke-miterlimit="10"/>
<path d="M108.817 58.9231C18.3837 152.849 -12.622 217.904 15.795 253.887" stroke="#EBFFC2" stroke-width="0.5" stroke-miterlimit="10"/>
<path d="M89.4016 40.3551C11.9859 144.187 -10.3655 212.04 22.7515 244.104" stroke="#EBFFC2" stroke-width="0.5" stroke-miterlimit="10"/>
<path d="M71.211 22.9588C6.79856 136.096 -7.10758 206.351 29.5021 234.125" stroke="#EBFFC2" stroke-width="0.5" stroke-miterlimit="10"/>
<path d="M54.2494 6.73631C2.81152 127.978 -3.24817 200.649 36.2603 224.346" stroke="#EBFFC2" stroke-width="0.5" stroke-miterlimit="10"/>
<path d="M38.7184 -8.11918C0.0317492 120.23 1.40017 194.527 43.0137 214.367" stroke="#EBFFC2" stroke-width="0.5" stroke-miterlimit="10"/>
<path d="M24.6171 -21.6051C-1.9457 112.664 6.63698 187.991 49.9707 204.584" stroke="#EBFFC2" stroke-width="0.5" stroke-miterlimit="10"/>
<path d="M11.9457 -33.7223C-2.92102 105.276 12.068 181.25 56.7227 194.606" stroke="#EBFFC2" stroke-width="0.5" stroke-miterlimit="10"/>
<path d="M0.910389 -44.2785C-3.09686 97.8654 17.8945 174.297 63.4805 184.826" stroke="#EBFFC2" stroke-width="0.5" stroke-miterlimit="10"/>
<path d="M-8.49114 -53.2684C-2.26151 91.0347 23.9147 167.142 70.2324 174.848" stroke="#EBFFC2" stroke-width="0.5" stroke-miterlimit="10"/>
<path d="M-16.2567 -60.6952C-0.816768 84.5894 30.3305 159.776 76.9902 165.07" stroke="#EBFFC2" stroke-width="0.5" stroke-miterlimit="10"/>
<path d="M-22.1872 -66.5645C1.43644 78.5241 36.9463 152.404 83.9434 155.086" stroke="#EBFFC2" stroke-width="0.5" stroke-miterlimit="10"/>
<path d="M-26.678 -70.664C4.3023 73.0464 43.5617 145.034 90.7012 145.307" stroke="#EBFFC2" stroke-width="0.5" stroke-miterlimit="10"/>
<path d="M-29.3357 -73.2044C8.17428 67.9454 50.3706 137.458 97.4529 135.329" stroke="#EBFFC2" stroke-width="0.5" stroke-miterlimit="10"/>
<path d="M-30.1534 -73.9866C12.6648 63.6302 57.5841 130.072 104.21 125.55" stroke="#EBFFC2" stroke-width="0.5" stroke-miterlimit="10"/>
<path d="M-29.3351 -73.2061C18.1688 59.8907 64.7987 122.686 110.963 115.57" stroke="#EBFFC2" stroke-width="0.5" stroke-miterlimit="10"/>
<path d="M-26.6794 -70.6653C24.2839 56.739 72.4201 115.691 117.919 105.786" stroke="#EBFFC2" stroke-width="0.5" stroke-miterlimit="10"/>
<path d="M-22.1895 -66.5648C31.6154 54.3602 80.4357 108.488 124.87 95.8034" stroke="#EBFFC2" stroke-width="0.5" stroke-miterlimit="10"/>
<path d="M-16.2568 -60.695C39.3678 52.7734 88.6631 101.68 131.429 86.0309" stroke="#EBFFC2" stroke-width="0.5" stroke-miterlimit="10"/>
<path d="M-8.49102 -53.2681C48.3355 51.9572 97.2977 95.2625 138.186 76.2519" stroke="#EBFFC2" stroke-width="0.5" stroke-miterlimit="10"/>
<path d="M0.910947 -44.2782C58.521 51.9127 106.532 88.8294 144.94 66.272" stroke="#EBFFC2" stroke-width="0.5" stroke-miterlimit="10"/>
<path d="M11.9451 -33.7233C69.7257 52.8467 116.373 82.7839 151.891 56.2886" stroke="#EBFFC2" stroke-width="0.5" stroke-miterlimit="10"/>
<path d="M24.6168 -21.605C82.7437 54.3381 127.423 77.1099 158.649 46.51" stroke="#EBFFC2" stroke-width="0.5" stroke-miterlimit="10"/>
<path d="M38.7174 -8.11775C97.5755 56.5883 139.873 71.6034 165.406 36.7322" stroke="#EBFFC2" stroke-width="0.5" stroke-miterlimit="10"/>
<path d="M54.2485 6.73553C115.007 58.9744 154.31 65.6465 172.158 26.752" stroke="#EBFFC2" stroke-width="0.5" stroke-miterlimit="10"/>
<path d="M71.2124 22.9596C135.425 60.8909 171.325 58.8292 179.116 16.9698" stroke="#EBFFC2" stroke-width="0.5" stroke-miterlimit="10"/>
<path d="M89.4017 40.3545C158.18 60.3453 190.273 49.359 185.869 6.99025" stroke="#EBFFC2" stroke-width="0.5" stroke-miterlimit="10"/>
<path d="M108.817 58.9227C181.263 56.7872 209.134 36.2852 192.627 -2.78843" stroke="#EBFFC2" stroke-width="0.5" stroke-miterlimit="10"/>
<path d="M129.457 78.6649C202.305 51.4761 225.548 21.0674 199.379 -12.7661" stroke="#EBFFC2" stroke-width="0.5" stroke-miterlimit="10"/>
<path d="M151.121 99.3824C220.365 46.6351 238.769 5.92408 206.336 -22.5504" stroke="#EBFFC2" stroke-width="0.5" stroke-miterlimit="10"/>
<path d="M173.601 120.883C236.062 43.254 249.228 -7.74976 213.089 -32.5292" stroke="#EBFFC2" stroke-width="0.5" stroke-miterlimit="10"/>
<path d="M197.102 143.36C251.212 42.0899 258.726 -19.7978 219.845 -42.3077" stroke="#EBFFC2" stroke-width="0.5" stroke-miterlimit="10"/>
<path d="M221.216 166.424C265.592 42.1458 267.455 -30.6258 226.602 -52.0867" stroke="#EBFFC2" stroke-width="0.5" stroke-miterlimit="10"/>
<path d="M245.947 190.075C280.004 43.4047 275.807 -40.6417 233.357 -62.0644" stroke="#EBFFC2" stroke-width="0.5" stroke-miterlimit="10"/>
<path d="M271.287 214.31C294.436 45.6625 284.179 -49.6587 240.312 -71.8489" stroke="#EBFFC2" stroke-width="0.5" stroke-miterlimit="10"/>
<path d="M297.033 238.738C310.357 51.6925 294.278 -53.3065 248.99 -76.4644" stroke="#EBFFC2" stroke-width="0.5" stroke-miterlimit="10"/>
<path d="M322.992 263.76C327.604 63.0997 306.758 -49.1981 260.459 -72.9328" stroke="#EBFFC2" stroke-width="0.5" stroke-miterlimit="10"/>
<path d="M349.151 288.78C345.25 74.4994 319.442 -44.8922 271.921 -69.5994" stroke="#EBFFC2" stroke-width="0.5" stroke-miterlimit="10"/>
<path d="M375.311 313.798C362.703 86.102 331.933 -40.3833 283.185 -66.2633" stroke="#EBFFC2" stroke-width="0.5" stroke-miterlimit="10"/>
<path d="M401.469 338.816C380.159 97.905 344.621 -35.8791 294.653 -62.7316" stroke="#EBFFC2" stroke-width="0.5" stroke-miterlimit="10"/>
<path d="M427.424 363.64C397.616 109.709 357.112 -31.3694 306.116 -59.3993" stroke="#EBFFC2" stroke-width="0.5" stroke-miterlimit="10"/>
<path d="M453.174 388.266C414.872 121.516 369.81 -26.4652 317.584 -55.8681" stroke="#EBFFC2" stroke-width="0.5" stroke-miterlimit="10"/>
<path d="M478.516 412.504C432.129 133.325 382.305 -21.7549 329.252 -52.3401" stroke="#EBFFC2" stroke-width="0.5" stroke-miterlimit="10"/>
<path d="M503.244 436.153C449.177 144.737 394.804 -16.8458 340.515 -49.0042" stroke="#EBFFC2" stroke-width="0.5" stroke-miterlimit="10"/>
<path d="M527.357 459.216C465.824 156.158 407.297 -12.1366 351.981 -45.4725" stroke="#EBFFC2" stroke-width="0.5" stroke-miterlimit="10"/>
<path d="M550.861 481.694C482.269 167.385 420.002 -7.03146 363.65 -41.9454" stroke="#EBFFC2" stroke-width="0.5" stroke-miterlimit="10"/>
<path d="M573.34 503.194C498.303 178.22 432.295 -2.31714 374.912 -38.6088" stroke="#EBFFC2" stroke-width="0.5" stroke-miterlimit="10"/>
<path d="M595.004 523.914C514.135 188.862 444.591 2.39842 386.576 -35.2806" stroke="#EBFFC2" stroke-width="0.5" stroke-miterlimit="10"/>
<path d="M615.641 543.454C529.354 198.915 456.886 7.11279 398.039 -31.9487" stroke="#EBFFC2" stroke-width="0.5" stroke-miterlimit="10"/>
<path d="M635.061 562.222C544.168 208.778 468.987 12.0314 409.308 -28.4127" stroke="#EBFFC2" stroke-width="0.5" stroke-miterlimit="10"/>
<path d="M653.25 579.619C558.569 218.05 481.078 16.551 420.777 -24.8799" stroke="#EBFFC2" stroke-width="0.5" stroke-miterlimit="10"/>
<path d="M670.211 595.841C572.36 226.936 492.972 21.2746 432.443 -21.353" stroke="#EBFFC2" stroke-width="0.5" stroke-miterlimit="10"/>
<path d="M685.742 610.695C585.538 235.235 504.862 25.7973 443.705 -18.0173" stroke="#EBFFC2" stroke-width="0.5" stroke-miterlimit="10"/>
<path d="M699.844 624.182C598.109 243.149 516.549 30.1264 455.169 -14.6846" stroke="#EBFFC2" stroke-width="0.5" stroke-miterlimit="10"/>
<path d="M712.512 636.099C610.264 250.27 528.238 34.4537 466.833 -11.3585" stroke="#EBFFC2" stroke-width="0.5" stroke-miterlimit="10"/>
<path d="M723.545 646.655C621.601 256.811 539.717 38.5874 478.299 -7.82551" stroke="#EBFFC2" stroke-width="0.5" stroke-miterlimit="10"/>
<path d="M732.953 655.846C632.135 262.97 551.007 42.9254 489.57 -4.28841" stroke="#EBFFC2" stroke-width="0.5" stroke-miterlimit="10"/>
<path d="M478.515 412.504C650.369 265.539 731.453 164.825 722.173 110.552" stroke="#EBFFC2" stroke-width="0.5" stroke-miterlimit="10"/>
<path d="M453.173 388.266C636.586 265.468 726.35 176.967 722.459 122.565" stroke="#EBFFC2" stroke-width="0.5" stroke-miterlimit="10"/>
<path d="M427.423 363.64C621.996 265.016 720.438 188.73 722.744 134.58" stroke="#EBFFC2" stroke-width="0.5" stroke-miterlimit="10"/>
<path d="M401.47 338.816C606.999 264.173 714.119 200.1 723.032 146.594" stroke="#EBFFC2" stroke-width="0.5" stroke-miterlimit="10"/>
<path d="M375.309 313.798C591.585 262.739 707.584 210.876 723.316 158.609" stroke="#EBFFC2" stroke-width="0.5" stroke-miterlimit="10"/>
<path d="M349.151 288.78C576.154 260.505 701.041 221.251 723.603 170.623" stroke="#EBFFC2" stroke-width="0.5" stroke-miterlimit="10"/>
<path d="M322.992 263.76C561.113 257.858 694.679 230.818 723.889 182.636" stroke="#EBFFC2" stroke-width="0.5" stroke-miterlimit="10"/>
<path d="M297.034 238.739C546.257 254.609 688.701 239.778 724.17 194.451" stroke="#EBFFC2" stroke-width="0.5" stroke-miterlimit="10"/>
<path d="M271.288 214.311C531.8 251.348 682.923 248.731 724.461 206.665" stroke="#EBFFC2" stroke-width="0.5" stroke-miterlimit="10"/>
<path d="M245.946 190.074C518.131 247.668 677.733 257.27 724.746 218.679" stroke="#EBFFC2" stroke-width="0.5" stroke-miterlimit="10"/>
<path d="M221.218 166.424C504.868 244.179 672.739 265.604 725.028 230.493" stroke="#EBFFC2" stroke-width="0.5" stroke-miterlimit="10"/>
<path d="M197.103 143.36C492.406 240.871 668.343 273.923 725.313 242.507" stroke="#EBFFC2" stroke-width="0.5" stroke-miterlimit="10"/>
<path d="M173.6 120.883C480.348 237.755 664.351 282.434 725.598 254.521" stroke="#EBFFC2" stroke-width="0.5" stroke-miterlimit="10"/>
<path d="M151.121 99.3826C469.1 235.018 660.755 290.734 725.886 266.535" stroke="#EBFFC2" stroke-width="0.5" stroke-miterlimit="10"/>
<path d="M129.457 78.6643C458.454 232.469 657.362 299.23 726.171 278.55" stroke="#EBFFC2" stroke-width="0.5" stroke-miterlimit="10"/>
<path d="M151.121 99.3827C468.017 248.268 659.863 311.993 726.458 290.564" stroke="#EBFFC2" stroke-width="0.5" stroke-miterlimit="10"/>
<path d="M129.456 78.6632C457.57 245.712 656.668 320.483 726.742 302.577" stroke="#EBFFC2" stroke-width="0.5" stroke-miterlimit="10"/>
<path d="M108.817 58.9223C447.539 243.748 653.676 328.97 727.029 314.591" stroke="#EBFFC2" stroke-width="0.5" stroke-miterlimit="10"/>
<path d="M89.4013 40.3552C438.314 242.167 650.886 337.653 727.314 326.606" stroke="#EBFFC2" stroke-width="0.5" stroke-miterlimit="10"/>
<path d="M71.2127 22.96C429.702 241.172 648.496 346.325 727.6 338.621" stroke="#EBFFC2" stroke-width="0.5" stroke-miterlimit="10"/>
<path d="M54.2497 6.73679C421.703 240.762 646.315 355.393 727.886 350.635" stroke="#EBFFC2" stroke-width="0.5" stroke-miterlimit="10"/>
<path d="M38.7191 -8.1179C414.519 240.934 644.335 364.456 728.168 362.449" stroke="#EBFFC2" stroke-width="0.5" stroke-miterlimit="10"/>
<path d="M24.617 -21.6044C407.945 241.692 642.558 373.715 728.453 374.463" stroke="#EBFFC2" stroke-width="0.5" stroke-miterlimit="10"/>
<path d="M11.9456 -33.7227C402.185 243.032 640.98 382.968 728.738 386.477" stroke="#EBFFC2" stroke-width="0.5" stroke-miterlimit="10"/>
<path d="M0.911133 -44.2774C397.039 244.959 639.812 392.613 729.025 398.491" stroke="#EBFFC2" stroke-width="0.5" stroke-miterlimit="10"/>
<path d="M-8.49045 -53.2683C392.709 247.667 638.643 402.258 729.311 410.505" stroke="#EBFFC2" stroke-width="0.5" stroke-miterlimit="10"/>
<path d="M-16.2571 -60.6956C388.997 251.162 637.678 412.098 729.596 422.519" stroke="#EBFFC2" stroke-width="0.5" stroke-miterlimit="10"/>
<path d="M-22.1873 -66.564C386.1 255.238 636.924 422.334 729.883 434.533" stroke="#EBFFC2" stroke-width="0.5" stroke-miterlimit="10"/>
<path d="M-26.6793 -70.6639C384.018 260.096 636.364 432.365 730.168 446.548" stroke="#EBFFC2" stroke-width="0.5" stroke-miterlimit="10"/>
<path d="M-29.3349 -73.2049C382.75 265.536 636.014 442.792 730.455 458.562" stroke="#EBFFC2" stroke-width="0.5" stroke-miterlimit="10"/>
<path d="M-30.153 -73.9867C382.104 271.963 635.866 453.414 730.74 470.576" stroke="#EBFFC2" stroke-width="0.5" stroke-miterlimit="10"/>
<path d="M-29.3363 -73.2048C382.27 278.971 635.719 464.036 731.025 482.59" stroke="#EBFFC2" stroke-width="0.5" stroke-miterlimit="10"/>
<path d="M-26.6793 -70.6652C383.249 286.56 635.981 475.048 731.307 494.403" stroke="#EBFFC2" stroke-width="0.5" stroke-miterlimit="10"/>
<path d="M-22.1868 -66.5653C385.048 294.931 636.444 486.056 731.594 506.417" stroke="#EBFFC2" stroke-width="0.5" stroke-miterlimit="10"/>
<path d="M-16.2561 -60.6968C387.462 304.09 636.91 497.264 731.879 518.431" stroke="#EBFFC2" stroke-width="0.5" stroke-miterlimit="10"/>
<path d="M-8.49087 -53.2695C390.693 314.03 637.575 508.468 732.164 530.445" stroke="#EBFFC2" stroke-width="0.5" stroke-miterlimit="10"/>
<path d="M0.911242 -44.2786C394.54 324.556 638.451 520.067 732.451 542.459" stroke="#EBFFC2" stroke-width="0.5" stroke-miterlimit="10"/>
<path d="M11.9463 -33.724C399.197 335.664 639.525 531.662 732.736 554.473" stroke="#EBFFC2" stroke-width="0.5" stroke-miterlimit="10"/>
<path d="M24.6176 -21.6053C403.252 346.587 638.576 542.103 730.789 564.939" stroke="#EBFFC2" stroke-width="0.5" stroke-miterlimit="10"/>
<path d="M38.7194 -8.11921C402.436 354.219 629.295 546.532 719.498 568.815" stroke="#EBFFC2" stroke-width="0.5" stroke-miterlimit="10"/>
<path d="M54.251 6.73632C402.236 362.64 620.223 551.358 708.211 572.893" stroke="#EBFFC2" stroke-width="0.5" stroke-miterlimit="10"/>
<path d="M71.212 22.9587C402.644 371.445 611.149 556.183 696.918 576.769" stroke="#EBFFC2" stroke-width="0.5" stroke-miterlimit="10"/>
<path d="M89.4003 40.3552C403.666 380.837 602.277 561.004 685.631 580.847" stroke="#EBFFC2" stroke-width="0.5" stroke-miterlimit="10"/>
<path d="M108.818 58.923C405.105 390.82 593.411 566.025 674.342 584.723" stroke="#EBFFC2" stroke-width="0.5" stroke-miterlimit="10"/>
<path d="M129.458 78.6649C406.944 400.995 584.743 571.042 663.055 588.801" stroke="#EBFFC2" stroke-width="0.5" stroke-miterlimit="10"/>
<path d="M151.12 99.3829C409.196 411.759 576.078 576.257 651.762 592.677" stroke="#EBFFC2" stroke-width="0.5" stroke-miterlimit="10"/>
<path d="M173.6 120.882C411.853 422.714 567.41 581.272 640.475 596.753" stroke="#EBFFC2" stroke-width="0.5" stroke-miterlimit="10"/>
<path d="M197.103 143.361C414.919 434.062 558.946 586.485 629.184 600.631" stroke="#EBFFC2" stroke-width="0.5" stroke-miterlimit="10"/>
<path d="M221.217 166.424C418.185 445.402 550.278 591.5 617.896 604.707" stroke="#EBFFC2" stroke-width="0.5" stroke-miterlimit="10"/>
<path d="M245.946 190.073C421.46 457.144 541.815 596.711 606.605 608.583" stroke="#EBFFC2" stroke-width="0.5" stroke-miterlimit="10"/>
<path d="M271.287 214.311C425.134 468.878 533.142 601.527 595.318 612.661" stroke="#EBFFC2" stroke-width="0.5" stroke-miterlimit="10"/>
<path d="M297.031 238.738C428.807 480.61 524.467 606.343 584.025 616.537" stroke="#EBFFC2" stroke-width="0.5" stroke-miterlimit="10"/>
<path d="M322.99 263.762C432.477 492.143 515.59 610.964 572.738 620.615" stroke="#EBFFC2" stroke-width="0.5" stroke-miterlimit="10"/>
<path d="M349.152 288.779C435.944 503.48 506.91 615.379 561.449 624.491" stroke="#EBFFC2" stroke-width="0.5" stroke-miterlimit="10"/>
<path d="M375.31 313.799C439.599 514.412 497.813 619.204 550.162 628.569" stroke="#EBFFC2" stroke-width="0.5" stroke-miterlimit="10"/>
<path d="M401.468 338.817C442.84 524.752 488.707 622.627 538.869 632.445" stroke="#EBFFC2" stroke-width="0.5" stroke-miterlimit="10"/>
<path d="M427.422 363.638C446.062 534.291 479.382 625.253 527.582 636.521" stroke="#EBFFC2" stroke-width="0.5" stroke-miterlimit="10"/>
<path d="M453.172 388.267C449.265 543.03 470.438 627.071 516.295 640.598" stroke="#EBFFC2" stroke-width="0.5" stroke-miterlimit="10"/>
<path d="M478.516 412.503C452.837 550.357 461.667 627.681 505.006 644.475" stroke="#EBFFC2" stroke-width="0.5" stroke-miterlimit="10"/>
<path d="M503.243 436.154C456.567 556.079 453.454 626.677 493.718 648.552" stroke="#EBFFC2" stroke-width="0.5" stroke-miterlimit="10"/>
<path d="M527.359 459.217C461.467 560.569 446.425 625.041 482.426 652.429" stroke="#EBFFC2" stroke-width="0.5" stroke-miterlimit="10"/>
<path d="M550.861 481.695C467.755 564.627 441.183 622.964 471.339 656.502" stroke="#EBFFC2" stroke-width="0.5" stroke-miterlimit="10"/>
<path d="M573.34 503.195C474.85 569.065 437.152 621.457 459.847 660.383" stroke="#EBFFC2" stroke-width="0.5" stroke-miterlimit="10"/>
<path d="M595.005 523.912C482.57 574.488 433.756 621.337 448.562 664.458" stroke="#EBFFC2" stroke-width="0.5" stroke-miterlimit="10"/>
<path d="M615.64 543.455C489.916 581.126 430.39 622.621 437.469 668.332" stroke="#EBFFC2" stroke-width="0.5" stroke-miterlimit="10"/>
<path d="M635.059 562.222C496.09 588.79 426.464 625.519 425.982 672.412" stroke="#EBFFC2" stroke-width="0.5" stroke-miterlimit="10"/>
<path d="M653.249 579.617C501.072 596.685 421.552 628.842 414.692 676.289" stroke="#EBFFC2" stroke-width="0.5" stroke-miterlimit="10"/>
<path d="M670.212 595.841C504.861 604.809 416.059 632.981 403.606 680.362" stroke="#EBFFC2" stroke-width="0.5" stroke-miterlimit="10"/>
<path d="M685.742 610.695C507.445 612.761 409.57 637.343 392.312 684.238" stroke="#EBFFC2" stroke-width="0.5" stroke-miterlimit="10"/>
<path d="M699.844 624.183C508.824 620.342 402.685 641.716 380.826 688.32" stroke="#EBFFC2" stroke-width="0.5" stroke-miterlimit="10"/>
<path d="M712.512 636.1C509.392 627.34 395.002 646.107 369.736 692.192" stroke="#EBFFC2" stroke-width="0.5" stroke-miterlimit="10"/>
<path d="M712.511 636.099C431.807 623.387 271.029 639.859 230.179 685.716" stroke="#EBFFC2" stroke-width="0.5" stroke-miterlimit="10"/>
<path d="M699.845 624.182C421.97 612.804 263.011 630.234 222.965 676.272" stroke="#EBFFC2" stroke-width="0.5" stroke-miterlimit="10"/>
<path d="M685.743 610.696C411.318 601.64 254.588 620.419 215.75 666.828" stroke="#EBFFC2" stroke-width="0.5" stroke-miterlimit="10"/>
<path d="M670.21 595.84C400.058 590.088 246.161 610.402 208.529 657.183" stroke="#EBFFC2" stroke-width="0.5" stroke-miterlimit="10"/>
<path d="M653.25 579.619C387.983 577.756 237.137 600.402 201.112 647.545" stroke="#EBFFC2" stroke-width="0.5" stroke-miterlimit="10"/>
<path d="M635.06 562.223C375.092 564.842 228.106 590.2 193.896 638.101" stroke="#EBFFC2" stroke-width="0.5" stroke-miterlimit="10"/>
<path d="M615.641 543.454C361.795 551.536 218.672 579.807 186.677 628.456" stroke="#EBFFC2" stroke-width="0.5" stroke-miterlimit="10"/>
<path d="M595.004 523.914C347.494 538.055 209.047 569.82 179.462 619.013" stroke="#EBFFC2" stroke-width="0.5" stroke-miterlimit="10"/>
<path d="M573.34 503.194C332.783 524.181 199.013 559.441 172.041 609.372" stroke="#EBFFC2" stroke-width="0.5" stroke-miterlimit="10"/>
<path d="M550.861 481.695C317.466 509.923 188.791 549.468 164.828 599.929" stroke="#EBFFC2" stroke-width="0.5" stroke-miterlimit="10"/>
<path d="M527.359 459.216C301.54 495.277 178.359 539.098 157.609 590.284" stroke="#EBFFC2" stroke-width="0.5" stroke-miterlimit="10"/>
<path d="M503.243 436.153C285.218 480.843 167.536 529.14 150.193 580.845" stroke="#EBFFC2" stroke-width="0.5" stroke-miterlimit="10"/>
<path d="M478.516 412.503C268.495 466.217 156.716 519.182 142.98 571.401" stroke="#EBFFC2" stroke-width="0.5" stroke-miterlimit="10"/>
<path d="M453.174 388.266C251.366 451.4 145.694 509.227 135.76 561.756" stroke="#EBFFC2" stroke-width="0.5" stroke-miterlimit="10"/>
<path d="M427.424 363.64C234.038 436.59 134.279 499.484 128.541 552.113" stroke="#EBFFC2" stroke-width="0.5" stroke-miterlimit="10"/>
<path d="M401.47 338.817C216.52 422.184 123.072 490.136 121.326 542.669" stroke="#EBFFC2" stroke-width="0.5" stroke-miterlimit="10"/>
<path d="M375.311 313.797C199.002 407.776 111.87 480.986 113.912 533.229" stroke="#EBFFC2" stroke-width="0.5" stroke-miterlimit="10"/>
<path d="M349.151 288.779C181.491 393.77 100.671 472.039 106.696 523.785" stroke="#EBFFC2" stroke-width="0.5" stroke-miterlimit="10"/>
<path d="M322.991 263.762C164.181 379.761 89.673 463.087 99.4756 514.142" stroke="#EBFFC2" stroke-width="0.5" stroke-miterlimit="10"/>
<path d="M297.033 238.738C147.073 365.744 78.6809 454.334 92.2569 504.497" stroke="#EBFFC2" stroke-width="0.5" stroke-miterlimit="10"/>
<path d="M271.287 214.311C130.177 352.325 68.0964 445.973 85.0418 495.053" stroke="#EBFFC2" stroke-width="0.5" stroke-miterlimit="10"/>
<path d="M245.945 190.074C113.68 338.895 57.5072 437.41 77.6224 485.413" stroke="#EBFFC2" stroke-width="0.5" stroke-miterlimit="10"/>
<path d="M221.217 166.424C97.7866 325.652 47.5215 429.034 70.4073 475.969" stroke="#EBFFC2" stroke-width="0.5" stroke-miterlimit="10"/>
<path d="M197.102 143.361C82.3029 312.801 37.5318 420.459 63.193 466.526" stroke="#EBFFC2" stroke-width="0.5" stroke-miterlimit="10"/>
<path d="M173.6 120.882C67.2133 299.738 27.9364 411.672 55.7741 456.885" stroke="#EBFFC2" stroke-width="0.5" stroke-miterlimit="10"/>
<path d="M151.121 99.3825C52.7379 287.262 18.7459 403.077 48.7602 447.437" stroke="#EBFFC2" stroke-width="0.5" stroke-miterlimit="10"/>
<path d="M129.457 78.6634C38.8588 274.771 9.55296 394.481 41.3399 437.797" stroke="#EBFFC2" stroke-width="0.5" stroke-miterlimit="10"/>
<path d="M151.12 99.3821C45.2323 274.018 6.3022 383.74 34.1257 428.353" stroke="#EBFFC2" stroke-width="0.5" stroke-miterlimit="10"/>
<path d="M129.456 78.665C31.1583 261.734 -3.09519 374.951 26.9048 418.71" stroke="#EBFFC2" stroke-width="0.5" stroke-miterlimit="10"/>
<path d="M108.816 58.923C17.6851 249.434 -12.0914 366.15 19.4864 409.07" stroke="#EBFFC2" stroke-width="0.5" stroke-miterlimit="10"/>
<path d="M89.4005 40.3551C4.82378 237.721 -20.8892 357.345 12.2711 399.626" stroke="#EBFFC2" stroke-width="0.5" stroke-miterlimit="10"/>
<path d="M71.211 22.96C-7.23471 226.19 -29.2882 348.531 5.05547 390.183" stroke="#EBFFC2" stroke-width="0.5" stroke-miterlimit="10"/>
<path d="M54.2502 6.73637C-18.8868 214.848 -37.6894 339.515 -2.16242 380.537" stroke="#EBFFC2" stroke-width="0.5" stroke-miterlimit="10"/>
<path d="M38.7184 -8.11792C-29.9273 204.093 -45.8926 330.496 -9.37723 371.094" stroke="#EBFFC2" stroke-width="0.5" stroke-miterlimit="10"/>
<path d="M24.6172 -21.6052C-40.1645 193.519 -53.9009 321.27 -16.5966 361.449" stroke="#EBFFC2" stroke-width="0.5" stroke-miterlimit="10"/>
<path d="M11.9451 -33.7231C-49.7903 183.532 -61.7112 312.041 -24.0124 352.01" stroke="#EBFFC2" stroke-width="0.5" stroke-miterlimit="10"/>
<path d="M0.911473 -44.2786C-58.6044 173.925 -69.3182 302.806 -31.2298 342.365" stroke="#EBFFC2" stroke-width="0.5" stroke-miterlimit="10"/>
<path d="M-8.49111 -53.2691C-66.8094 164.906 -76.7295 293.568 -38.4462 332.921" stroke="#EBFFC2" stroke-width="0.5" stroke-miterlimit="10"/>
</g>
</svg>
