<svg width="29" height="24" viewBox="0 0 29 24" fill="none" xmlns="http://www.w3.org/2000/svg">
<path d="M9.13124 23.8785C19.9043 23.8785 25.7983 14.951 25.7983 7.21144C25.7983 6.96046 25.7927 6.70391 25.7816 6.45293C26.9282 5.62375 27.9176 4.59669 28.7035 3.42002C27.6357 3.89511 26.5019 4.2054 25.341 4.34027C26.5634 3.60755 27.4786 2.45648 27.9171 1.10044C26.7671 1.78195 25.5095 2.2627 24.1982 2.52208C23.3146 1.58326 22.1464 0.961645 20.8741 0.75335C19.6019 0.545054 18.2964 0.761678 17.1596 1.36973C16.0228 1.97778 15.118 2.94339 14.585 4.11727C14.052 5.29114 13.9206 6.60791 14.211 7.86398C11.8825 7.74713 9.60452 7.14224 7.52478 6.08854C5.44504 5.03483 3.60995 3.55582 2.13847 1.7474C1.39059 3.03683 1.16174 4.56265 1.49843 6.01476C1.83511 7.46686 2.71207 8.73629 3.95108 9.56504C3.02091 9.53551 2.11111 9.28507 1.29686 8.83442V8.90692C1.29603 10.2601 1.76383 11.5718 2.62075 12.619C3.47767 13.6663 4.67082 14.3845 5.99738 14.6515C5.13572 14.8873 4.23137 14.9216 3.35431 14.7519C3.72864 15.9156 4.45695 16.9335 5.43759 17.6633C6.41824 18.3932 7.60228 18.7987 8.82449 18.8233C6.74955 20.4532 4.18639 21.3372 1.54784 21.3331C1.07992 21.3323 0.612452 21.3037 0.147949 21.2472C2.82843 22.9668 5.94655 23.8802 9.13124 23.8785Z" fill="#BBA3FF"/>
</svg>
