<svg width="19" height="19" viewBox="0 0 19 19" fill="none" xmlns="http://www.w3.org/2000/svg">
<path d="M18.6215 9.72761C18.6215 9.08601 18.5594 8.4237 18.4559 7.8028H9.49414V11.4662H14.627C14.42 12.6459 13.737 13.6807 12.7229 14.343L15.786 16.7232C17.5867 15.0467 18.6215 12.6045 18.6215 9.72761V9.72761Z" fill="#4280EF"/>
<path d="M9.49454 19C12.061 19 14.2135 18.1514 15.7864 16.7026L12.7233 14.3432C11.8747 14.9227 10.7778 15.2538 9.49454 15.2538C7.01091 15.2538 4.92052 13.5774 4.15473 11.3421L1.00879 13.7636C2.62315 16.9717 5.89327 19 9.49454 19Z" fill="#34A353"/>
<path d="M4.15492 11.3213C3.76167 10.1416 3.76167 8.85836 4.15492 7.67863L1.00898 5.23639C-0.336326 7.92699 -0.336326 11.0936 1.00898 13.7635L4.15492 11.3213Z" fill="#F6B704"/>
<path d="M9.49454 3.76685C10.8398 3.76685 12.1645 4.26357 13.1372 5.19494L15.8485 2.46294C14.1307 0.848575 11.854 0 9.49454 0C5.89327 0 2.62315 2.0283 1.00879 5.23633L4.15473 7.67857C4.92052 5.4226 7.01091 3.76685 9.49454 3.76685V3.76685Z" fill="#E54335"/>
</svg>
