<?xml version="1.0" encoding="UTF-8"?>
<svg id="Layer_1" data-name="Layer 1" xmlns="http://www.w3.org/2000/svg" xmlns:xlink="http://www.w3.org/1999/xlink" viewBox="0 0 500 500">
  <defs>
    <style>
      .cls-1, .cls-2 {
        fill: none;
      }

      .cls-3 {
        clip-path: url(#clippath);
      }

      .cls-4 {
        clip-path: url(#clippath-1);
      }

      .cls-5 {
        clip-path: url(#clippath-4);
      }

      .cls-6 {
        clip-path: url(#clippath-3);
      }

      .cls-7 {
        clip-path: url(#clippath-2);
      }

      .cls-8 {
        clip-path: url(#clippath-5);
      }

      .cls-2 {
        stroke: #bba3ff;
        stroke-miterlimit: 10;
      }
    </style>
    <clipPath id="clippath">
      <rect class="cls-1" y="-650" width="500" height="500"/>
    </clipPath>
    <clipPath id="clippath-1">
      <rect class="cls-1" x="-650" width="500" height="500"/>
    </clipPath>
    <clipPath id="clippath-2">
      <rect class="cls-1" width="500" height="500"/>
    </clipPath>
    <clipPath id="clippath-3">
      <rect class="cls-1" x="-1300" y="650" width="500" height="500"/>
    </clipPath>
    <clipPath id="clippath-4">
      <rect class="cls-1" y="650" width="500" height="500"/>
    </clipPath>
    <clipPath id="clippath-5">
      <rect class="cls-1" x="-650" y="-650" width="500" height="500"/>
    </clipPath>
  </defs>
  <g class="cls-3">
    <g>
      <path class="cls-2" d="M252.13-427.06C497.25-277.82,623.59-129.67,631.1,17.45"/>
      <path class="cls-2" d="M473.61-229.74c144.22,91.77,189.59,185.28,136.07,280.54"/>
      <path class="cls-2" d="M439.78-259.88c151.67,125.01,201.16,239.68,148.51,344.04"/>
      <path class="cls-2" d="M406.25-289.75C564.68-132.58,618.2,3.17,566.87,117.52"/>
      <path class="cls-2" d="M373.33-319.08c164.57,188.47,221.93,345.11,172.12,469.95"/>
      <path class="cls-2" d="M341.22-347.68C511.37-128.61,572.3,48.69,524.03,184.23"/>
      <path class="cls-2" d="M310.17-375.34C477.55-146.19,536.04,36.99,485.68,174.2"/>
      <path class="cls-2" d="M280.39-401.87C444.36-163.12,499.99,25.56,447.36,164.13"/>
      <path class="cls-2" d="M252.13-427.06C411.94-179.26,464.25,14.46,409.01,154.07"/>
      <path class="cls-2" d="M225.55-450.73C380.44-194.45,428.79,3.8,370.66,144.01"/>
      <path class="cls-2" d="M200.91-472.68C349.91-208.57,393.7-6.36,332.31,133.95"/>
      <path class="cls-2" d="M178.33-492.8C320.45-221.56,359.02-15.98,293.96,123.89"/>
      <path class="cls-2" d="M157.98-510.93C292.19-233.2,324.74-24.95,255.63,113.83"/>
      <path class="cls-2" d="M140.05-526.9C265.13-243.49,290.88-33.27,217.29,103.79"/>
      <path class="cls-2" d="M124.66-540.61C239.39-252.24,257.47-40.8,178.93,93.73"/>
      <path class="cls-2" d="M111.9-551.98C214.91-259.4,224.47-47.5,140.58,83.67"/>
      <path class="cls-2" d="M101.87-560.92c89.9,296.05,90,507.58,.37,634.53"/>
      <path class="cls-2" d="M94.67-567.33C169.9-268.56,159.67-58.24,63.91,63.54"/>
      <path class="cls-2" d="M90.32-571.21C149.32-270.42,127.75-62.2,25.56,53.48"/>
      <path class="cls-2" d="M88.87-572.5C129.93-270.44,96.06-65.16-12.79,43.42"/>
      <path class="cls-2" d="M90.32-571.21C111.65-268.62,64.52-67.09-51.14,33.39"/>
      <path class="cls-2" d="M94.67-567.33C94.37-264.98,33-68.11-89.49,23.33"/>
      <path class="cls-2" d="M101.87-560.92C77.98-259.65,1.41-68.24-127.81,13.26"/>
      <path class="cls-2" d="M111.9-551.98C62.35-252.72-30.33-67.67-166.16,3.2"/>
    </g>
  </g>
  <g class="cls-4">
    <g>
      <path class="cls-2" d="M-17.81-115.67c165.43-27.86,247.57,17.5,246.37,136.07"/>
      <path class="cls-2" d="M-11.03-115.67c167.74,1.58,240.6,60.64,218.68,177.14"/>
      <path class="cls-2" d="M-8.77-115.67C160.17-83.46,225.33-10.71,186.71,102.56"/>
      <path class="cls-2" d="M-11.03-115.67C157.7-53.43,216.62,33,165.78,143.65"/>
      <path class="cls-2" d="M-17.81-115.67C149.86-25.15,204.07,74.98,144.84,184.75"/>
      <path class="cls-2" d="M-29.02-115.67C137.57,1.04,188.55,114.85,123.88,225.82"/>
      <path class="cls-2" d="M-44.66-115.67C121.6,25.29,170.79,152.81,102.97,266.89"/>
      <path class="cls-2" d="M-64.53-115.67C102.5,47.93,151.34,189.13,82.04,307.98"/>
      <path class="cls-2" d="M-88.51-115.67C80.62,69.24,130.5,224.14,61.1,349.07"/>
      <path class="cls-2" d="M-116.44-115.67C56.32,89.54,108.53,258.13,40.17,390.17"/>
      <path class="cls-2" d="M-148.13-115.67C29.76,109.04,85.55,291.33,19.23,431.26"/>
      <path class="cls-2" d="M-183.32-115.67C1.14,127.95,61.69,323.95-1.68,472.33"/>
    </g>
  </g>
  <g class="cls-7">
    <g>
      <path class="cls-2" d="M3.4,228.75c-126.5,168.42-246.54,221.3-360.14,158.68"/>
      <path class="cls-2" d="M18.24,243.59c-148.84,145.62-273.86,178.36-374.98,98.29"/>
      <path class="cls-2" d="M35.95,261.29c-174.08,119.06-304.99,130.71-392.69,35.01"/>
      <path class="cls-2" d="M56.35,281.7c-200.47,88.39-338.19,78.06-413.09-30.93"/>
      <path class="cls-2" d="M79.32,304.67c-226.44,54.1-371.79,20.96-436.06-99.48"/>
      <path class="cls-2" d="M104.66,330c-251.05,17.21-404.83-39.59-461.4-170.36"/>
      <path class="cls-2" d="M132.24,357.58c-274.15-21.36-437.14-102.51-488.97-243.52"/>
      <path class="cls-2" d="M161.79,387.13C-134.18,326.29-307.01,220.09-356.74,68.52"/>
      <path class="cls-2" d="M193.11,418.46C-123.69,317.6-306.98,185.74-356.74,22.94"/>
      <path class="cls-2" d="M226.02,451.37C-91.11,324.57-270.92,177.08-313.4,8.86"/>
      <path class="cls-2" d="M260.25,485.59C-57.28,332.21-234.06,168.63-270.09-5.23"/>
      <path class="cls-2" d="M295.52,520.87C-22.33,340.47-196.41,160.4-226.75-19.31"/>
      <path class="cls-2" d="M331.59,556.94C13.57,349.26-158.11,152.47-183.41-33.36"/>
      <path class="cls-2" d="M368.22,593.56C50.23,358.47-119.21,144.8-140.07-47.45"/>
      <path class="cls-2" d="M405.11,630.45C87.45,368.05-79.85,137.4-96.74-61.53"/>
      <path class="cls-2" d="M441.99,667.34C125.03,377.82-40.13,130.19-53.43-75.61"/>
      <path class="cls-2" d="M478.62,703.97C162.74,387.66-.15,123.11-10.09-89.7"/>
      <path class="cls-2" d="M514.69,740.03C200.45,397.37,40,116.07,33.25-103.78"/>
      <path class="cls-2" d="M549.96,775.31C237.97,406.78,80.14,109.06,76.59-117.87"/>
      <path class="cls-2" d="M584.19,809.53C275.05,415.79,120.29,101.95,119.93-131.92"/>
      <path class="cls-2" d="M617.1,842.44C311.58,424.19,160.31,94.72,163.23-146"/>
      <path class="cls-2" d="M648.42,873.77C347.42,431.82,200.12,87.21,206.57-160.09"/>
      <path class="cls-2" d="M677.97,903.32C382.4,438.57,239.71,79.41,249.91-174.17"/>
      <path class="cls-2" d="M705.55,930.9C416.39,444.26,278.94,71.22,293.25-188.26"/>
      <path class="cls-2" d="M730.89,956.24C449.27,448.8,317.83,62.6,336.59-202.34"/>
      <path class="cls-2" d="M753.86,979.21C480.96,452.03,356.3,53.48,379.9-216.43"/>
      <path class="cls-2" d="M774.26,999.61C511.3,453.87,394.31,43.84,423.24-230.48"/>
      <path class="cls-2" d="M791.97,1017.31C533.15,480.23,419.19,76.58,450.02-193.62"/>
      <path class="cls-2" d="M-17.4,207.95C152.01-45.21,316.75-166.8,476.81-156.76"/>
      <path class="cls-2" d="M-8.51,216.84C173.8-26.48,344.52-138.73,503.6-119.91"/>
      <path class="cls-2" d="M3.4,228.75C196.8-5.52,372.46-109.44,530.35-83.05"/>
      <path class="cls-2" d="M18.24,243.59C220.89,17.55,400.53-79.04,557.14-46.2"/>
      <path class="cls-2" d="M35.95,261.29C246.03,42.56,428.67-47.64,583.93-9.34"/>
      <path class="cls-2" d="M56.35,281.7C272.09,69.34,456.87-15.36,610.71,27.55"/>
      <path class="cls-2" d="M79.32,304.67C299.04,97.81,485.1,17.74,637.5,64.41"/>
      <path class="cls-2" d="M104.66,330C326.79,127.82,513.34,51.57,664.29,101.26"/>
      <path class="cls-2" d="M132.24,357.58C355.32,159.18,541.61,86.03,691.04,138.12"/>
      <path class="cls-2" d="M161.79,387.13C384.51,191.79,569.87,121.07,717.83,174.98"/>
      <path class="cls-2" d="M193.11,418.46c221.2-192.97,405.03-261.85,551.5-206.63"/>
      <path class="cls-2" d="M226.02,451.37c218.61-191.23,400.39-258.79,545.38-202.68"/>
      <path class="cls-2" d="M260.25,485.59c215.08-190.01,394.4-256.68,537.94-200.05"/>
      <path class="cls-2" d="M295.52,520.87c210.87-189.15,387.36-255.3,529.45-198.43"/>
      <path class="cls-2" d="M331.59,556.94c206.1-188.63,379.49-254.51,520.14-197.64"/>
      <path class="cls-2" d="M368.22,593.56c200.93-188.3,371.03-254.11,510.3-197.41"/>
      <path class="cls-2" d="M405.11,630.45c195.57-188.03,362.31-253.85,500.2-197.45"/>
      <path class="cls-2" d="M441.99,667.34c161.21-186.09,306.73-251.91,436.52-197.48"/>
      <path class="cls-2" d="M478.62,703.97c125.94-183.2,250.3-248.95,373.11-197.25"/>
      <path class="cls-2" d="M-17.4,207.95C321.16,492.5,503.73,739.54,530.35,949.06"/>
      <path class="cls-2" d="M-8.51,216.84C316.29,518.6,486.98,774.95,503.6,985.92"/>
      <path class="cls-2" d="M3.4,228.75c309.46,317.72,467.29,582.43,473.41,794.03"/>
      <path class="cls-2" d="M18.24,243.59c292.65,332.6,436.55,604.61,431.78,816.04"/>
      <path class="cls-2" d="M35.95,261.29c274.28,346.39,403.38,624.78,387.29,835.19"/>
      <path class="cls-2" d="M56.35,281.7c246.58,335.03,354.45,601.95,323.55,800.74"/>
      <path class="cls-2" d="M79.32,304.67c217.75,323.45,303.51,578.02,257.27,763.69"/>
      <path class="cls-2" d="M104.66,330c187.8,312,250.66,553.44,188.59,724.26"/>
      <path class="cls-2" d="M132.24,357.58c156.51,301.01,195.73,528.56,117.68,682.6"/>
      <path class="cls-2" d="M161.79,387.13c123.77,290.97,138.71,503.98,44.79,638.97"/>
      <path class="cls-2" d="M193.11,418.46c89.05,282.18,79.08,480.02-29.88,593.55"/>
      <path class="cls-2" d="M226.02,451.37c51.7,274.71,16.32,456.92-106.09,546.56"/>
      <path class="cls-2" d="M260.25,485.59c11.02,268.2-50.18,434.28-183.66,498.29"/>
    </g>
  </g>
  <g class="cls-6">
    <g>
      <path class="cls-2" d="M-916.06,323.34C-467.38,228.17-152.22,247.38,29.41,381.06"/>
      <path class="cls-2" d="M-916.69,322.71C-447.62,248.67-121.68,282.68,61.2,424.8"/>
      <path class="cls-2" d="M-913.57,325.84c486.92-54.56,822.42-6.99,1006.56,142.74"/>
      <path class="cls-2" d="M-906.69,332.71c502.34-36.75,846.17,23.12,1031.43,179.61"/>
      <path class="cls-2" d="M-896.15,343.26C-380.64,322.6-29.75,393.56,156.53,556.06"/>
      <path class="cls-2" d="M-882.01,357.39C-355.49,351.14,1.3,431.98,188.32,599.8"/>
      <path class="cls-2" d="M-864.4,375.01c507.57,6.99,847.88,96.5,1020.93,268.53"/>
      <path class="cls-2" d="M-843.39,396.02C-356.35,414.76-33.62,511.85,124.74,687.28"/>
      <path class="cls-2" d="M-819.17,420.23C-354.05,449.44-49.98,553.05,92.99,731.01"/>
      <path class="cls-2" d="M-791.91,447.49C-349.99,485.96-65.6,595.07,61.2,774.79"/>
      <path class="cls-2" d="M-761.84,477.56C-344.17,524.31-80.4,637.95,29.41,818.53"/>
    </g>
  </g>
  <g class="cls-5">
    <g>
      <path class="cls-2" d="M191.56,1259.75C-15.32,926.85-92.08,668.03-38.81,483.24"/>
      <path class="cls-2" d="M198.98,1242.97C-.55,897.19-71.53,631.13-13.94,444.74"/>
      <path class="cls-2" d="M208.07,1222.39C15.28,865.87-50.42,593.83,10.9,406.29"/>
      <path class="cls-2" d="M218.78,1198.17C32.14,832.99-28.87,556.19,35.74,367.8"/>
      <path class="cls-2" d="M230.99,1170.53C49.88,798.53-6.92,518.15,60.57,329.32"/>
      <path class="cls-2" d="M244.67,1139.59C77.32,784.83,30.69,518.63,104.84,341.05"/>
      <path class="cls-2" d="M259.66,1105.65C105.53,769.37,68.66,518.41,149.12,352.79"/>
      <path class="cls-2" d="M275.91,1068.9C134.45,752.25,106.96,517.46,193.38,364.5"/>
      <path class="cls-2" d="M293.25,1029.66c-129.23-296.12-147.73-513.96-55.57-653.43"/>
      <path class="cls-2" d="M311.57,988.19c-117.36-275-127.22-475.08-29.62-600.22"/>
      <path class="cls-2" d="M330.75,944.8c-105.78-253.51-107.28-435.19-4.52-545.09"/>
      <path class="cls-2" d="M350.62,899.83c-94.31-232.13-87.69-394.92,19.88-488.38"/>
      <path class="cls-2" d="M371.06,853.57c-82.74-211.32-68.14-354.78,43.71-430.38"/>
      <path class="cls-2" d="M391.92,806.37c-70.68-191.79-48.29-315.6,67.11-371.47"/>
      <path class="cls-2" d="M413.03,758.62c-57.42-174.4-27.34-278.41,90.28-311.98"/>
      <path class="cls-2" d="M434.24,710.6c-41.65-160.21-3.88-244.29,113.33-252.23"/>
      <path class="cls-2" d="M455.4,662.72c-20.88-149.81,24.58-214.01,136.48-192.62"/>
      <path class="cls-2" d="M476.38,615.26c8.12-141.8,61.38-186.29,159.78-133.42"/>
      <path class="cls-2" d="M239.96,1150.24c119.46-364.17,266.29-583.08,440.47-656.66"/>
    </g>
  </g>
  <g class="cls-8">
    <g>
      <path class="cls-2" d="M131.8-217.55C18.17,139.72-124.92,353.42-297.47,423.61"/>
      <path class="cls-2" d="M82.84-198.02C-28.96,143.46-169.85,344.59-339.85,405.4"/>
      <path class="cls-2" d="M34.33-178.67C-76.02,147.27-214.87,335.9-382.23,387.19"/>
      <path class="cls-2" d="M-416.53,1.15C-228.68-420.71-35.01-677.1,164.44-768.06"/>
      <path class="cls-2" d="M-422.83,3.66C-217.88-404.83-14.27-648.86,188.01-728.42"/>
      <path class="cls-2" d="M-424.93,4.5C-204.74-389.61,7.41-620.69,211.57-688.79"/>
      <path class="cls-2" d="M-422.83,3.66C-189.28-375.07,30.06-592.69,235.15-649.19"/>
      <path class="cls-2" d="M-416.53,1.15C-171.41-361.23,53.67-564.78,258.75-609.54"/>
      <path class="cls-2" d="M-147.79-106.03c333.69-46.43,558.93-6.18,675.74,120.65"/>
      <path class="cls-2" d="M-188.7-89.72C152.24-127.13,381-80.8,497.53,49.28"/>
      <path class="cls-2" d="M-227.15-74.38C120.05-102.25,351.47-49.45,467.12,83.95"/>
      <path class="cls-2" d="M-262.8-60.16C89.48-77.83,322.64-18.23,436.7,118.62"/>
      <path class="cls-2" d="M-295.48-47.13C60.65-53.94,294.6,12.86,406.29,153.29"/>
      <path class="cls-2" d="M-324.93-35.39C33.83-30.59,267.44,43.85,375.89,187.93"/>
      <path class="cls-2" d="M-350.87-25.04C9.06-7.78,241.18,74.76,345.51,222.61"/>
      <path class="cls-2" d="M-373.13-16.16C-13.43,14.45,215.96,105.6,315.09,257.28"/>
      <path class="cls-2" d="M-391.6-8.79C-33.62,36.19,191.83,136.45,284.68,291.95"/>
      <path class="cls-2" d="M-406.12-3C-51.33,57.43,168.81,167.33,254.27,326.62"/>
      <path class="cls-2" d="M-416.53,1.15C-66.56,78.26,146.95,198.29,223.87,361.26"/>
      <path class="cls-2" d="M-422.83,3.66C-79.19,98.71,126.24,229.44,193.45,395.93"/>
      <path class="cls-2" d="M-424.93,4.5C-89.3,118.87,106.68,260.87,163.04,430.59"/>
      <path class="cls-2" d="M-422.83,3.66C-96.9,138.84,88.26,292.68,132.66,465.28"/>
      <path class="cls-2" d="M-416.53,1.15C-102.11,158.71,70.8,324.95,102.24,499.95"/>
      <path class="cls-2" d="M-406.12-3C-105.08,178.53,54.25,357.74,71.84,534.59"/>
      <path class="cls-2" d="M-391.6-8.79C-106.01,198.4,38.33,391.07,41.43,569.25"/>
      <path class="cls-2" d="M-373.13-16.16C-112.19,191.28,11.87,380.35-.95,551.04"/>
    </g>
  </g>
</svg>