<?xml version="1.0" standalone="no"?>
<!DOCTYPE svg PUBLIC "-//W3C//DTD SVG 1.1//EN" "http://www.w3.org/Graphics/SVG/1.1/DTD/svg11.dtd">
<svg width="500.0px" height="500px" version="1.1" xmlns="http://www.w3.org/2000/svg">
<path d="M305.97388149405 120.7826238559634 L444.64104594226495 182.42928405883774 " stroke="rgb(187, 163, 255)" stroke-width="0.2px" fill="none"/>
<path d="M306.928275995323 118.57264514475486 L441.43496189773236 180.1217275809555 " stroke="rgb(187, 163, 255)" stroke-width="0.2px" fill="none"/>
<path d="M307.8826829142299 116.36264159827864 L438.22885301793207 177.81418352070716 " stroke="rgb(187, 163, 255)" stroke-width="0.2px" fill="none"/>
<path d="M308.83708362431986 114.15265046943624 L435.0227689733994 175.5066394604588 " stroke="rgb(187, 163, 255)" stroke-width="0.2px" fill="none"/>
<path d="M309.7914905432268 111.94263450532615 L431.8166600935991 173.19909540021038 " stroke="rgb(187, 163, 255)" stroke-width="0.2px" fill="none"/>
<path d="M310.74588504449986 109.73264337648381 L428.61057604906654 170.8915389223282 " stroke="rgb(187, 163, 255)" stroke-width="0.2px" fill="none"/>
<path d="M311.7002857545898 107.52263983000753 L425.40449200453395 168.5839948620798 " stroke="rgb(187, 163, 255)" stroke-width="0.2px" fill="none"/>
<path d="M312.6546926734967 105.31262386589752 L422.1983831247336 166.27645080183146 " stroke="rgb(187, 163, 255)" stroke-width="0.2px" fill="none"/>
<path d="M313.60908717476974 103.10263273705512 L418.992299080201 163.9689067415831 " stroke="rgb(187, 163, 255)" stroke-width="0.2px" fill="none"/>
<path d="M314.56349409367664 100.8926291905789 L415.7862150356684 161.66135026370088 " stroke="rgb(187, 163, 255)" stroke-width="0.2px" fill="none"/>
<path d="M315.51788859494974 98.68265047937037 L412.5801061558682 159.3538062034525 " stroke="rgb(187, 163, 255)" stroke-width="0.2px" fill="none"/>
<path d="M316.4722893050397 96.47263451526028 L409.3740221113355 157.0462621432041 " stroke="rgb(187, 163, 255)" stroke-width="0.2px" fill="none"/>
<path d="M317.4267024327635 94.26263096878407 L406.1679380668029 154.73870566532193 " stroke="rgb(187, 163, 255)" stroke-width="0.2px" fill="none"/>
<path d="M313.8467917304519 102.52578397489454 L402.96182918700265 152.43116160507353 " stroke="rgb(187, 163, 255)" stroke-width="0.2px" fill="none"/>
<path d="M307.2440191708398 117.77106204545251 L399.75564580139934 150.12354303902214 " stroke="rgb(187, 163, 255)" stroke-width="0.2px" fill="none"/>
<path d="M300.64123729800235 133.01635253364435 L396.5496362626697 147.8160734845768 " stroke="rgb(187, 163, 255)" stroke-width="0.2px" fill="none"/>
<path d="M294.03847405161565 148.26161197775156 L393.3434528770664 145.50845491852544 " stroke="rgb(187, 163, 255)" stroke-width="0.2px" fill="none"/>
<path d="M287.4356921787782 163.5069024659434 L390.1373688325338 143.20089844064321 " stroke="rgb(187, 163, 255)" stroke-width="0.2px" fill="none"/>
<path d="M280.8329165147576 178.7521743276845 L386.9312847880012 140.89335438039484 " stroke="rgb(187, 163, 255)" stroke-width="0.2px" fill="none"/>
<path d="M274.2301486117582 193.9974337717917 L383.72517590820087 138.58581032014644 " stroke="rgb(187, 163, 255)" stroke-width="0.2px" fill="none"/>
<path d="M267.627368291125 209.24272115557508 L380.5190918636683 136.2782662598981 " stroke="rgb(187, 163, 255)" stroke-width="0.2px" fill="none"/>
<path d="M261.0245902987981 224.48800388274574 L377.312982983868 133.9707221996497 " stroke="rgb(187, 163, 255)" stroke-width="0.2px" fill="none"/>
<path d="M254.4218239480029 239.7332586702403 L374.1068989393354 131.6631657217675 " stroke="rgb(187, 163, 255)" stroke-width="0.2px" fill="none"/>
<path d="M247.81904071698673 254.9785530389427 L370.90081489480275 129.35562166151914 " stroke="rgb(187, 163, 255)" stroke-width="0.2px" fill="none"/>
<path d="M241.2162625306343 270.2238365422155 L367.6947060150025 127.04806518363692 " stroke="rgb(187, 163, 255)" stroke-width="0.2px" fill="none"/>
<path d="M234.92701970330796 284.7464610985334 L364.48862197046986 124.74052112338858 " stroke="rgb(187, 163, 255)" stroke-width="0.2px" fill="none"/>
<path d="M229.89188493969502 296.3785492081027 L361.2825379259372 122.43297706314021 " stroke="rgb(187, 163, 255)" stroke-width="0.2px" fill="none"/>
<path d="M224.85673310183552 308.0106714661649 L358.076429046137 120.1254330028918 " stroke="rgb(187, 163, 255)" stroke-width="0.2px" fill="none"/>
<path d="M219.82159833822257 319.6427595757342 L354.87034500160433 117.81788894264345 " stroke="rgb(187, 163, 255)" stroke-width="0.2px" fill="none"/>
<path d="M214.78646512681385 331.2748414764865 L351.6642485394379 115.51034488239509 " stroke="rgb(187, 163, 255)" stroke-width="0.2px" fill="none"/>
<path d="M209.75131639336283 342.90695442132335 L348.4581582860884 113.20278840451287 " stroke="rgb(187, 163, 255)" stroke-width="0.2px" fill="none"/>
<path d="M204.71617697313718 354.5390549485264 L345.25206803273886 110.89523192663064 " stroke="rgb(187, 163, 255)" stroke-width="0.2px" fill="none"/>
<path d="M199.68104065732 366.1711368492787 L342.04597157057236 108.58768786638228 " stroke="rgb(187, 163, 255)" stroke-width="0.2px" fill="none"/>
<path d="M194.64589502827744 377.80324358529873 L338.8398813172229 106.28014380613394 " stroke="rgb(187, 163, 255)" stroke-width="0.2px" fill="none"/>
<path d="M189.6107556080518 389.43532548605106 L335.63378485505643 103.97259974588552 " stroke="rgb(187, 163, 255)" stroke-width="0.2px" fill="none"/>
<path d="M184.57562239664307 401.067432222071 L332.4276946017069 101.66505568563716 " stroke="rgb(187, 163, 255)" stroke-width="0.2px" fill="none"/>
<path d="M179.54046434996667 412.69955137572487 L329.22159813954045 99.35751162538881 " stroke="rgb(187, 163, 255)" stroke-width="0.2px" fill="none"/>
<path d="M174.50533734737485 424.33163327647713 L326.0155078861909 97.04995514750658 " stroke="rgb(187, 163, 255)" stroke-width="0.2px" fill="none"/>
<path d="M176.29101792808302 420.2130642448638 L322.80941142402446 94.74241108725823 " stroke="rgb(187, 163, 255)" stroke-width="0.2px" fill="none"/>
<path d="M179.7819066134331 412.15680143607455 L319.6033211706749 92.434854609376 " stroke="rgb(187, 163, 255)" stroke-width="0.2px" fill="none"/>
<path d="M183.2728015076001 404.1005634625528 L316.3972309173254 90.12731054912764 " stroke="rgb(187, 163, 255)" stroke-width="0.2px" fill="none"/>
<path d="M186.76367156649943 396.0443379066651 L313.19113445515893 87.81976648887924 " stroke="rgb(187, 163, 255)" stroke-width="0.2px" fill="none"/>
<path d="M190.2545664606664 387.9880750978758 L309.9850442018094 85.51222242863088 " stroke="rgb(187, 163, 255)" stroke-width="0.2px" fill="none"/>
<path d="M193.74544893719954 379.931849541988 L306.77894773964294 83.20467836838252 " stroke="rgb(187, 163, 255)" stroke-width="0.2px" fill="none"/>
<path d="M197.23633762254963 371.8755991508325 L303.5728574862934 80.8971218905003 " stroke="rgb(187, 163, 255)" stroke-width="0.2px" fill="none"/>
<path d="M200.72722009908279 363.81937359494475 L300.3666678918732 78.58951574208278 " stroke="rgb(187, 163, 255)" stroke-width="0.2px" fill="none"/>
<path d="M204.21811499324977 355.76311078615544 L297.1605745341152 76.28195926420057 " stroke="rgb(187, 163, 255)" stroke-width="0.2px" fill="none"/>
<path d="M207.70899746978293 347.7068728126338 L293.9544811763572 73.9744152039522 " stroke="rgb(187, 163, 255)" stroke-width="0.2px" fill="none"/>
<path d="M211.19989857276684 339.6505975862106 L290.7483909230077 71.66685872606998 " stroke="rgb(187, 163, 255)" stroke-width="0.2px" fill="none"/>
<path d="M214.69077794489152 331.5943782391398 L287.54229756524967 69.35931466582163 " stroke="rgb(187, 163, 255)" stroke-width="0.2px" fill="none"/>
<path d="M219.66235460192544 320.1161880745018 L284.33620420749173 67.05177060557321 " stroke="rgb(187, 163, 255)" stroke-width="0.2px" fill="none"/>
<path d="M226.8549756341189 303.5050758320063 L281.13011084973374 64.74422654532486 " stroke="rgb(187, 163, 255)" stroke-width="0.2px" fill="none"/>
<path d="M234.04759356190388 286.8939697983277 L277.9240174919757 62.4366824850765 " stroke="rgb(187, 163, 255)" stroke-width="0.2px" fill="none"/>
<path d="M241.24025572750944 270.28275666255723 L274.71792413421775 60.12912600719428 " stroke="rgb(187, 163, 255)" stroke-width="0.2px" fill="none"/>
<path d="M248.43287443139656 253.67164674836806 L271.51183077645976 57.82158194694592 " stroke="rgb(187, 163, 255)" stroke-width="0.2px" fill="none"/>
<path d="M255.62549585164106 237.06052984925984 L268.30573897090596 55.51403788669751 " stroke="rgb(187, 163, 255)" stroke-width="0.2px" fill="none"/>
<path d="M262.8181141674771 220.44942148727492 L265.09964561314797 53.20648140881534 " stroke="rgb(187, 163, 255)" stroke-width="0.2px" fill="none"/>
<path d="M270.0107328713642 203.83831855800477 L261.89355225539003 50.89893734856693 " stroke="rgb(187, 163, 255)" stroke-width="0.2px" fill="none"/>
<path d="M277.20335390355774 187.22719079346695 L258.6874596737341 48.59139328831857 " stroke="rgb(187, 163, 255)" stroke-width="0.2px" fill="none"/>
<path d="M284.39597338354696 170.6160785509714 L255.48136631597612 46.28384922807022 " stroke="rgb(187, 163, 255)" stroke-width="0.2px" fill="none"/>
<path d="M291.5886394296631 154.00487317622213 L252.27527334626922 43.976292750187994 " stroke="rgb(187, 163, 255)" stroke-width="0.2px" fill="none"/>
<path d="M298.78125580524386 137.39375472490966 L249.06918037656226 41.66874868993964 " stroke="rgb(187, 163, 255)" stroke-width="0.2px" fill="none"/>
<path d="M306.1647591525412 120.34063059724848 L245.88383998935066 44.00486572564183 " stroke="rgb(187, 163, 255)" stroke-width="0.2px" fill="none"/>
<path d="M307.11915986263114 118.13065188603989 L242.69849339332208 46.340970343710154 " stroke="rgb(187, 163, 255)" stroke-width="0.2px" fill="none"/>
<path d="M308.0735667815381 115.92062350429599 L239.51314679729356 48.67707496177853 " stroke="rgb(187, 163, 255)" stroke-width="0.2px" fill="none"/>
<path d="M309.02796749162803 113.71064479308745 L236.327800201265 51.013179579846856 " stroke="rgb(187, 163, 255)" stroke-width="0.2px" fill="none"/>
<path d="M309.982368201718 111.50062882897738 L233.14245360523648 53.34928419791524 " stroke="rgb(187, 163, 255)" stroke-width="0.2px" fill="none"/>
<path d="M310.9367627029911 109.29063770013502 L229.95711942684179 55.68538881598356 " stroke="rgb(187, 163, 255)" stroke-width="0.2px" fill="none"/>
<path d="M311.891169621898 107.08062173602495 L226.7717728308132 58.02149343405194 " stroke="rgb(187, 163, 255)" stroke-width="0.2px" fill="none"/>
<path d="M312.8455703319879 104.87063060718255 L223.58642623478468 60.35759805212027 " stroke="rgb(187, 163, 255)" stroke-width="0.2px" fill="none"/>
<path d="M313.7999772508948 102.66063947834014 L220.40107963875613 62.69370267018864 " stroke="rgb(187, 163, 255)" stroke-width="0.2px" fill="none"/>
<path d="M314.75437175216786 100.45063593186393 L217.21568337219225 65.02983212352464 " stroke="rgb(187, 163, 255)" stroke-width="0.2px" fill="none"/>
<path d="M315.70877246225785 98.24064480302158 L214.0303367761637 67.36593674159302 " stroke="rgb(187, 163, 255)" stroke-width="0.2px" fill="none"/>
<path d="M316.66317938116475 96.0306164212777 L210.84499018013517 69.70204135966135 " stroke="rgb(187, 163, 255)" stroke-width="0.2px" fill="none"/>
<path d="M317.6175800912547 93.8206377100691 L207.65964358410662 72.03814597772973 " stroke="rgb(187, 163, 255)" stroke-width="0.2px" fill="none"/>
<path d="M312.5262508779267 105.5748346219526 L204.4742969880781 74.37425059579806 " stroke="rgb(187, 163, 255)" stroke-width="0.2px" fill="none"/>
<path d="M305.9234721094977 120.82011269251058 L201.28895039204951 76.71035521386644 " stroke="rgb(187, 163, 255)" stroke-width="0.2px" fill="none"/>
<path d="M299.32069023666025 136.06539076306856 L198.10361621365482 79.04645983193475 " stroke="rgb(187, 163, 255)" stroke-width="0.2px" fill="none"/>
<path d="M292.7179145726397 151.31066262480962 L194.9182696176263 81.38256445000313 " stroke="rgb(187, 163, 255)" stroke-width="0.2px" fill="none"/>
<path d="M286.1151389086191 166.55594690418457 L191.73292302159774 83.71866906807146 " stroke="rgb(187, 163, 255)" stroke-width="0.2px" fill="none"/>
<path d="M279.5123601401901 181.80123739237635 L188.54757642556922 86.05477368613984 " stroke="rgb(187, 163, 255)" stroke-width="0.2px" fill="none"/>
<path d="M272.9095906849865 197.0465030453005 L185.36222982954064 88.39087830420816 " stroke="rgb(187, 163, 255)" stroke-width="0.2px" fill="none"/>
<path d="M266.30681346876173 212.2917749070416 L182.17688323351211 90.72698292227655 " stroke="rgb(187, 163, 255)" stroke-width="0.2px" fill="none"/>
<path d="M259.7040362525369 227.53705452980384 L178.99148696694823 93.06311237561255 " stroke="rgb(187, 163, 255)" stroke-width="0.2px" fill="none"/>
<path d="M253.10126349889927 242.78232716764697 L175.80614037091968 95.39921699368092 " stroke="rgb(187, 163, 255)" stroke-width="0.2px" fill="none"/>
<path d="M246.49848958110852 258.0275990293881 L172.62079377489115 97.73532161174924 " stroke="rgb(187, 163, 255)" stroke-width="0.2px" fill="none"/>
<path d="M239.8957061560668 273.27289339809045 L169.4354471788626 100.07142622981763 " stroke="rgb(187, 163, 255)" stroke-width="0.2px" fill="none"/>
<path d="M233.91999461323044 287.0728768578022 L166.2501130004679 102.40753084788595 " stroke="rgb(187, 163, 255)" stroke-width="0.2px" fill="none"/>
<path d="M228.88485829741325 298.704961862963 L163.06476640443935 104.74363546595433 " stroke="rgb(187, 163, 255)" stroke-width="0.2px" fill="none"/>
<path d="M223.84971111616647 310.3370779122083 L159.8794198084108 107.07974008402266 " stroke="rgb(187, 163, 255)" stroke-width="0.2px" fill="none"/>
<path d="M218.81457169594083 321.9691784394114 L156.69407321238228 109.41584470209104 " stroke="rgb(187, 163, 255)" stroke-width="0.2px" fill="none"/>
<path d="M213.779444693349 333.60124792252986 L153.50872661635373 111.75194932015935 " stroke="rgb(187, 163, 255)" stroke-width="0.2px" fill="none"/>
<path d="M208.74428354226416 345.2333794938175 L150.3233800203252 114.08805393822774 " stroke="rgb(187, 163, 255)" stroke-width="0.2px" fill="none"/>
<path d="M203.709147226447 356.8654738122037 L147.13803342429662 116.42415855629606 " stroke="rgb(187, 163, 255)" stroke-width="0.2px" fill="none"/>
<path d="M198.67402022385517 368.49754329532215 L143.9526868282681 118.76026317436444 " stroke="rgb(187, 163, 255)" stroke-width="0.2px" fill="none"/>
<path d="M193.6388683859957 380.1296624489759 L140.76734023223955 121.09636779243277 " stroke="rgb(187, 163, 255)" stroke-width="0.2px" fill="none"/>
<path d="M188.60372896577005 391.76176918499596 L137.58199363621102 123.43247241050115 " stroke="rgb(187, 163, 255)" stroke-width="0.2px" fill="none"/>
<path d="M183.56859575436133 403.3938386681144 L134.39664704018247 125.76857702856947 " stroke="rgb(187, 163, 255)" stroke-width="0.2px" fill="none"/>
<path d="M178.53345012531878 415.0259578217682 L131.21130044415395 128.10468164663786 " stroke="rgb(187, 163, 255)" stroke-width="0.2px" fill="none"/>
<path d="M173.4983107050931 426.6580645577882 L128.02595384812537 130.4407862647062 " stroke="rgb(187, 163, 255)" stroke-width="0.2px" fill="none"/>
<path d="M176.9891993904432 418.60180174899887 L124.84060725209683 132.77689088277455 " stroke="rgb(187, 163, 255)" stroke-width="0.2px" fill="none"/>
<path d="M180.48009428461017 410.5455513578434 L121.6552234031668 135.11303275374442 " stroke="rgb(187, 163, 255)" stroke-width="0.2px" fill="none"/>
<path d="M183.97097676114333 402.4893258019556 L118.46987680713825 137.44913737181275 " stroke="rgb(187, 163, 255)" stroke-width="0.2px" fill="none"/>
<path d="M187.46185302885957 394.433087828434 L115.28453021110971 139.78524198988111 " stroke="rgb(187, 163, 255)" stroke-width="0.2px" fill="none"/>
<path d="M190.95274792302658 386.37683743727854 L112.09918361508117 142.12134660794945 " stroke="rgb(187, 163, 255)" stroke-width="0.2px" fill="none"/>
<path d="M194.44362419074278 378.3206118813908 L108.91384943668646 144.45745122601784 " stroke="rgb(187, 163, 255)" stroke-width="0.2px" fill="none"/>
<path d="M197.93451598050132 370.2643490726014 L105.72850284065792 146.79355584408614 " stroke="rgb(187, 163, 255)" stroke-width="0.2px" fill="none"/>
<path d="M201.4253984570345 362.2081110990798 L102.54315624462937 149.12966046215453 " stroke="rgb(187, 163, 255)" stroke-width="0.2px" fill="none"/>
<path d="M204.9162995600184 354.1518482902905 L99.35780964860083 151.46576508022287 " stroke="rgb(187, 163, 255)" stroke-width="0.2px" fill="none"/>
<path d="M208.4071789321431 346.0956165255858 L96.1724630525723 153.80186969829123 " stroke="rgb(187, 163, 255)" stroke-width="0.2px" fill="none"/>
<path d="M211.8980738263101 338.0393599256134 L92.98711645654375 156.13797431635956 " stroke="rgb(187, 163, 255)" stroke-width="0.2px" fill="none"/>
<path d="M215.38895630284324 329.9831281609087 L89.80176986051521 158.47407893442795 " stroke="rgb(187, 163, 255)" stroke-width="0.2px" fill="none"/>
<path d="M221.10087849792328 316.7939681095295 L86.61642326448667 160.81018355249626 " stroke="rgb(187, 163, 255)" stroke-width="0.2px" fill="none"/>
<path d="M228.29349487350407 300.18285897144244 L83.43107666845812 163.14628817056465 " stroke="rgb(187, 163, 255)" stroke-width="0.2px" fill="none"/>
<path d="M235.48611590569752 283.5717467289469 L80.24573007242958 165.48239278863298 " stroke="rgb(187, 163, 255)" stroke-width="0.2px" fill="none"/>
<path d="M242.6787796235073 266.9605351453807 L77.06033380586568 167.81852845078592 " stroke="rgb(187, 163, 255)" stroke-width="0.2px" fill="none"/>
<path d="M249.87139823038163 250.34942450359577 L73.87498720983714 170.1546330688543 " stroke="rgb(187, 163, 255)" stroke-width="0.2px" fill="none"/>
<path d="M257.06401935958786 233.73830910818538 L70.6896406138086 172.49073768692264 " stroke="rgb(187, 163, 255)" stroke-width="0.2px" fill="none"/>
<path d="M264.25664039178133 217.1271953134857 L67.5043064354139 174.826842304991 " stroke="rgb(187, 163, 255)" stroke-width="0.2px" fill="none"/>
<path d="M271.44925987177055 200.5160830709901 L64.31895983938536 177.16294692305934 " stroke="rgb(187, 163, 255)" stroke-width="0.2px" fill="none"/>
<path d="M278.6418840083725 183.90495220204383 L61.13361324335682 179.49905154112773 " stroke="rgb(187, 163, 255)" stroke-width="0.2px" fill="none"/>
<path d="M285.8345407412632 167.2937654537453 L57.948266647328275 181.83515615919603 " stroke="rgb(187, 163, 255)" stroke-width="0.2px" fill="none"/>
<path d="M293.0271602212524 150.6826470024329 L54.76292005129973 184.17126077726442 " stroke="rgb(187, 163, 255)" stroke-width="0.2px" fill="none"/>
<path d="M300.2197765968332 134.07154096875422 L51.577573455271185 186.50736539533276 " stroke="rgb(187, 163, 255)" stroke-width="0.2px" fill="none"/>
<path d="M306.3556368110324 119.89864975616732 L52.81501550217408 190.2587139503672 " stroke="rgb(187, 163, 255)" stroke-width="0.2px" fill="none"/>
<path d="M307.3100375211224 117.6886462096911 L54.05245754907697 194.01005629658474 " stroke="rgb(187, 163, 255)" stroke-width="0.2px" fill="none"/>
<path d="M308.26443823121235 115.4786426632149 L55.28989959597987 197.76139864280228 " stroke="rgb(187, 163, 255)" stroke-width="0.2px" fill="none"/>
<path d="M309.21884515011925 113.26862669910481 L56.52734164288275 201.51274098901985 " stroke="rgb(187, 163, 255)" stroke-width="0.2px" fill="none"/>
<path d="M310.17324586020925 111.05863557026247 L57.76478368978565 205.2640584999697 " stroke="rgb(187, 163, 255)" stroke-width="0.2px" fill="none"/>
<path d="M311.12764657029925 108.84863202378625 L59.00221331905471 209.01540084618725 " stroke="rgb(187, 163, 255)" stroke-width="0.2px" fill="none"/>
<path d="M312.0820472803892 106.63864089494385 L60.2396553659576 212.7667431924048 " stroke="rgb(187, 163, 255)" stroke-width="0.2px" fill="none"/>
<path d="M313.03644799047913 104.42862493083376 L61.477097412860495 216.51808553862233 " stroke="rgb(187, 163, 255)" stroke-width="0.2px" fill="none"/>
<path d="M313.99085490938603 102.21863380199136 L62.714539459763394 220.26942788483984 " stroke="rgb(187, 163, 255)" stroke-width="0.2px" fill="none"/>
<path d="M314.9452494106591 100.00863025551516 L63.952006341933945 224.02081990159272 " stroke="rgb(187, 163, 255)" stroke-width="0.2px" fill="none"/>
<path d="M315.899656329566 97.79861429140513 L65.18944838883685 227.7721622478103 " stroke="rgb(187, 163, 255)" stroke-width="0.2px" fill="none"/>
<path d="M316.85405703965597 95.5886479978304 L66.42689043573974 231.52350459402783 " stroke="rgb(187, 163, 255)" stroke-width="0.2px" fill="none"/>
<path d="M317.8084577497459 93.37861961608651 L67.66433248264262 235.27484694024537 " stroke="rgb(187, 163, 255)" stroke-width="0.2px" fill="none"/>
<path d="M311.20568519013386 108.6239101042783 L68.90177452954553 239.02617686882905 " stroke="rgb(187, 163, 255)" stroke-width="0.2px" fill="none"/>
<path d="M304.60291263052176 123.86916333956866 L70.13921657644842 242.7775192150466 " stroke="rgb(187, 163, 255)" stroke-width="0.2px" fill="none"/>
<path d="M298.00013386209275 139.11445382776043 L71.3766586233513 246.52886156126414 " stroke="rgb(187, 163, 255)" stroke-width="0.2px" fill="none"/>
<path d="M291.39736440688915 154.35971948068462 L72.6141006702542 250.28020390748168 " stroke="rgb(187, 163, 255)" stroke-width="0.2px" fill="none"/>
<path d="M284.79458874286854 169.60499755124258 L73.8515427171571 254.03153383606536 " stroke="rgb(187, 163, 255)" stroke-width="0.2px" fill="none"/>
<path d="M278.1918068700311 184.85028803943442 L75.08898476405999 257.7828761822829 " stroke="rgb(187, 163, 255)" stroke-width="0.2px" fill="none"/>
<path d="M271.58904051923594 200.09554437913317 L76.32642681096289 261.53421852850045 " stroke="rgb(187, 163, 255)" stroke-width="0.2px" fill="none"/>
<path d="M264.9862601986027 215.34082555409967 L77.56386885786577 265.285560874718 " stroke="rgb(187, 163, 255)" stroke-width="0.2px" fill="none"/>
<path d="M258.38348220627574 230.58610983347455 L78.8013233224025 269.0369528914709 " stroke="rgb(187, 163, 255)" stroke-width="0.2px" fill="none"/>
<path d="M251.78071236302108 245.83137199393917 L80.03876536930541 272.78829523768843 " stroke="rgb(187, 163, 255)" stroke-width="0.2px" fill="none"/>
<path d="M245.17793631094946 261.0766504525482 L81.2762074162083 276.53963758390597 " stroke="rgb(187, 163, 255)" stroke-width="0.2px" fill="none"/>
<path d="M238.57515288590778 276.321947149557 L82.51364946311118 280.29096751248966 " stroke="rgb(187, 163, 255)" stroke-width="0.2px" fill="none"/>
<path d="M232.91296486654022 289.3992988258879 L83.75109151001408 284.04230985870714 " stroke="rgb(187, 163, 255)" stroke-width="0.2px" fill="none"/>
<path d="M227.87783010292728 301.0313807266402 L84.98853355691698 287.7936522049247 " stroke="rgb(187, 163, 255)" stroke-width="0.2px" fill="none"/>
<path d="M222.8426782650678 312.66350298470246 L86.22597560381986 291.5449945511422 " stroke="rgb(187, 163, 255)" stroke-width="0.2px" fill="none"/>
<path d="M217.80754505365906 324.2955910942717 L87.46340523308892 295.29632447972597 " stroke="rgb(187, 163, 255)" stroke-width="0.2px" fill="none"/>
<path d="M212.7723932157996 335.9277164567425 L88.70084727999182 299.0476668259435 " stroke="rgb(187, 163, 255)" stroke-width="0.2px" fill="none"/>
<path d="M207.7372600043909 347.55979835749474 L89.9382893268947 302.79900917216105 " stroke="rgb(187, 163, 255)" stroke-width="0.2px" fill="none"/>
<path d="M202.70211747975677 359.1918926758809 L91.1757313737976 306.5503515183786 " stroke="rgb(187, 163, 255)" stroke-width="0.2px" fill="none"/>
<path d="M197.66699358157342 370.8239621589994 L92.41317342070049 310.3016938645962 " stroke="rgb(187, 163, 255)" stroke-width="0.2px" fill="none"/>
<path d="M192.63184174371395 382.45609373028697 L93.65061546760339 314.0530237931798 " stroke="rgb(187, 163, 255)" stroke-width="0.2px" fill="none"/>
<path d="M187.5967023234883 394.0881756310393 L94.88805751450629 317.80436613939736 " stroke="rgb(187, 163, 255)" stroke-width="0.2px" fill="none"/>
<path d="M182.56155048562883 405.720307202327 L96.12549956140917 321.5557084856149 " stroke="rgb(187, 163, 255)" stroke-width="0.2px" fill="none"/>
<path d="M177.526423483037 417.3523518501778 L97.36294160831206 325.30704462301554 " stroke="rgb(187, 163, 255)" stroke-width="0.2px" fill="none"/>
<path d="M174.19648595863637 425.0468144795571 L98.60038365521497 329.0583869692331 " stroke="rgb(187, 163, 255)" stroke-width="0.2px" fill="none"/>
<path d="M177.6873622263526 416.99057650603544 L99.83782570211785 332.8097231066337 " stroke="rgb(187, 163, 255)" stroke-width="0.2px" fill="none"/>
<path d="M181.17825712051962 408.93432611488004 L101.07529258428842 336.5611213322035 " stroke="rgb(187, 163, 255)" stroke-width="0.2px" fill="none"/>
<path d="M184.66915201468657 400.8780757237245 L102.3127346311913 340.31245746960417 " stroke="rgb(187, 163, 255)" stroke-width="0.2px" fill="none"/>
<path d="M188.16003449121973 392.82182533256906 L103.5501766780942 344.0637998158217 " stroke="rgb(187, 163, 255)" stroke-width="0.2px" fill="none"/>
<path d="M191.6509169677529 384.7655997766813 L104.78760630736326 347.8151421620392 " stroke="rgb(187, 163, 255)" stroke-width="0.2px" fill="none"/>
<path d="M195.1418118619199 376.7093493855258 L106.02504835426616 351.56647829943984 " stroke="rgb(187, 163, 255)" stroke-width="0.2px" fill="none"/>
<path d="M198.6326912340446 368.6530989943704 L107.26249040116905 355.3178268544743 " stroke="rgb(187, 163, 255)" stroke-width="0.2px" fill="none"/>
<path d="M202.12358923262002 360.5968486032148 L108.49993244807193 359.06915678305796 " stroke="rgb(187, 163, 255)" stroke-width="0.2px" fill="none"/>
<path d="M205.61447170915318 352.5406106296932 L109.73737449497484 362.8204991292755 " stroke="rgb(187, 163, 255)" stroke-width="0.2px" fill="none"/>
<path d="M209.1053572900948 344.4843726561716 L110.97481654187773 366.57182905785925 " stroke="rgb(187, 163, 255)" stroke-width="0.2px" fill="none"/>
<path d="M212.59625528867025 336.4281098473823 L112.21225858878061 370.3231714040768 " stroke="rgb(187, 163, 255)" stroke-width="0.2px" fill="none"/>
<path d="M216.08713155638648 328.3718780826776 L113.44970063568351 374.07451375029433 " stroke="rgb(187, 163, 255)" stroke-width="0.2px" fill="none"/>
<path d="M222.5394023939211 313.471754353374 L114.68714268258641 377.82585609651187 " stroke="rgb(187, 163, 255)" stroke-width="0.2px" fill="none"/>
<path d="M229.73202187391036 296.8606327976532 L115.9245847294893 381.57719844272935 " stroke="rgb(187, 163, 255)" stroke-width="0.2px" fill="none"/>
<path d="M236.9246413538996 280.24952365956614 L117.1620267763922 385.3285407889469 " stroke="rgb(187, 163, 255)" stroke-width="0.2px" fill="none"/>
<path d="M244.11730313145407 263.63831207599986 L118.39948124092892 389.0799328056998 " stroke="rgb(187, 163, 255)" stroke-width="0.2px" fill="none"/>
<path d="M251.3099242606603 247.0271973111725 L119.6369232878318 392.83127515191734 " stroke="rgb(187, 163, 255)" stroke-width="0.2px" fill="none"/>
<path d="M258.5025432555857 230.41608759100885 L120.8743653347347 396.582605080501 " stroke="rgb(187, 163, 255)" stroke-width="0.2px" fill="none"/>
<path d="M265.69515963116646 213.80498155733025 L122.1118073816376 400.33394742671857 " stroke="rgb(187, 163, 255)" stroke-width="0.2px" fill="none"/>
<path d="M272.88778221556413 197.19386931483467 L123.34924942854049 404.0852897729361 " stroke="rgb(187, 163, 255)" stroke-width="0.2px" fill="none"/>
<path d="M280.0803985911449 180.58275707233918 L124.58669147544337 407.83663211915365 " stroke="rgb(187, 163, 255)" stroke-width="0.2px" fill="none"/>
<path d="M287.2730677416695 163.97152686232218 L125.82413352234629 411.58796204773734 " stroke="rgb(187, 163, 255)" stroke-width="0.2px" fill="none"/>
<path d="M294.4656810128418 147.36044566391126 L127.06157556924916 415.3393043939549 " stroke="rgb(187, 163, 255)" stroke-width="0.2px" fill="none"/>
<path d="M301.6583035972395 130.749314794965 L128.29901761615207 419.0906467401724 " stroke="rgb(187, 163, 255)" stroke-width="0.2px" fill="none"/>
<path d="M306.54651446952363 119.45664407981855 L132.24914144479666 419.07300128249324 " stroke="rgb(187, 163, 255)" stroke-width="0.2px" fill="none"/>
<path d="M307.5009151796136 117.2466529509762 L136.19926527344126 419.0553434071802 " stroke="rgb(187, 163, 255)" stroke-width="0.2px" fill="none"/>
<path d="M308.4553220985205 115.03663698686611 L140.14938910208585 419.03769794950097 " stroke="rgb(187, 163, 255)" stroke-width="0.2px" fill="none"/>
<path d="M309.4097228086105 112.82664585802371 L144.09951293073047 419.02005249182173 " stroke="rgb(187, 163, 255)" stroke-width="0.2px" fill="none"/>
<path d="M310.36412351870047 110.6166423115475 L148.0496615946427 419.0023946165087 " stroke="rgb(187, 163, 255)" stroke-width="0.2px" fill="none"/>
<path d="M311.3185242287904 108.40663876507128 L151.999810258555 418.9847491588295 " stroke="rgb(187, 163, 255)" stroke-width="0.2px" fill="none"/>
<path d="M312.2729311476973 106.19662280096121 L155.94993408719958 418.9671037011503 " stroke="rgb(187, 163, 255)" stroke-width="0.2px" fill="none"/>
<path d="M313.2273380666042 103.98663167211886 L159.90005791584423 418.9494582434711 " stroke="rgb(187, 163, 255)" stroke-width="0.2px" fill="none"/>
<path d="M314.1817325678773 101.77664054327646 L163.85018174448882 418.931800368158 " stroke="rgb(187, 163, 255)" stroke-width="0.2px" fill="none"/>
<path d="M315.13613327796725 99.56662457916637 L167.8003428260349 418.91415491047877 " stroke="rgb(187, 163, 255)" stroke-width="0.2px" fill="none"/>
<path d="M316.0905339880572 97.35663345032403 L171.7504666546795 418.89650945279953 " stroke="rgb(187, 163, 255)" stroke-width="0.2px" fill="none"/>
<path d="M317.0449346981472 95.14662990384775 L175.70059048332413 418.8788515774865 " stroke="rgb(187, 163, 255)" stroke-width="0.2px" fill="none"/>
<path d="M316.4879044795869 96.42768268077839 L179.65071431196873 418.8612061198073 " stroke="rgb(187, 163, 255)" stroke-width="0.2px" fill="none"/>
<path d="M309.8851257111579 111.67296075133638 L183.60085055824715 418.84356066212814 " stroke="rgb(187, 163, 255)" stroke-width="0.2px" fill="none"/>
<path d="M303.2823531515458 126.91822640426054 L187.55097438689174 418.8259027868151 " stroke="rgb(187, 163, 255)" stroke-width="0.2px" fill="none"/>
<path d="M296.67957438311674 142.16350447481852 L191.50109821553636 418.80825732913587 " stroke="rgb(187, 163, 255)" stroke-width="0.2px" fill="none"/>
<path d="M290.07679871909625 157.40879496301037 L195.45122204418095 418.79061187145663 " stroke="rgb(187, 163, 255)" stroke-width="0.2px" fill="none"/>
<path d="M283.47403236830104 172.65405440711757 L199.40135829045937 418.77295399614354 " stroke="rgb(187, 163, 255)" stroke-width="0.2px" fill="none"/>
<path d="M276.87125670428054 187.89933247767559 L203.35148211910396 418.75530853846436 " stroke="rgb(187, 163, 255)" stroke-width="0.2px" fill="none"/>
<path d="M270.2684872490769 203.14459502619127 L207.30160594774858 418.7376630807851 " stroke="rgb(187, 163, 255)" stroke-width="0.2px" fill="none"/>
<path d="M263.6656976152182 218.3898979320169 L211.25172977639318 418.72001762310595 " stroke="rgb(187, 163, 255)" stroke-width="0.2px" fill="none"/>
<path d="M257.06292660781037 233.63516668934952 L215.20189085793928 418.7023597477929 " stroke="rgb(187, 163, 255)" stroke-width="0.2px" fill="none"/>
<path d="M250.46016127564923 248.88041846944841 L219.15201468658387 418.6847142901137 " stroke="rgb(187, 163, 255)" stroke-width="0.2px" fill="none"/>
<path d="M243.8573822646883 264.12570265181057 L223.1021385152285 418.66706883243444 " stroke="rgb(187, 163, 255)" stroke-width="0.2px" fill="none"/>
<path d="M237.2546034962593 279.3709884833897 L227.0522623438731 418.6494109571214 " stroke="rgb(187, 163, 255)" stroke-width="0.2px" fill="none"/>
<path d="M231.90594132866696 291.7257083763397 L231.00242342541918 418.6317654994422 " stroke="rgb(187, 163, 255)" stroke-width="0.2px" fill="none"/>
<path d="M226.87078793860323 303.35782752999353 L234.95254725406377 418.61412004176304 " stroke="rgb(187, 163, 255)" stroke-width="0.2px" fill="none"/>
<path d="M221.83565162278606 314.9899218483797 L238.9026710827084 418.59646216644995 " stroke="rgb(187, 163, 255)" stroke-width="0.2px" fill="none"/>
<path d="M216.80051530696886 326.62200995794893 L242.85280732898684 418.5788167087707 " stroke="rgb(187, 163, 255)" stroke-width="0.2px" fill="none"/>
<path d="M211.76536657351787 338.25412911160277 L246.80293115763143 418.5611712510915 " stroke="rgb(187, 163, 255)" stroke-width="0.2px" fill="none"/>
<path d="M206.73023336210915 349.8862110123551 L250.75305498627603 418.5435257934123 " stroke="rgb(187, 163, 255)" stroke-width="0.2px" fill="none"/>
<path d="M201.69510015070043 361.5182867042904 L254.70317881492062 418.52586791809927 " stroke="rgb(187, 163, 255)" stroke-width="0.2px" fill="none"/>
<path d="M196.65996073047475 373.15038102267664 L258.6533026435652 418.50822246042003 " stroke="rgb(187, 163, 255)" stroke-width="0.2px" fill="none"/>
<path d="M191.6248151014322 384.7825001763304 L262.6034388898437 418.49057700274085 " stroke="rgb(187, 163, 255)" stroke-width="0.2px" fill="none"/>
<path d="M186.58967568120656 396.41459449471654 L266.5535627184883 418.4729191274278 " stroke="rgb(187, 163, 255)" stroke-width="0.2px" fill="none"/>
<path d="M181.55452384334708 408.04671364837037 L270.5037175912174 418.4552736697486 " stroke="rgb(187, 163, 255)" stroke-width="0.2px" fill="none"/>
<path d="M176.51938442312144 419.6787955491227 L274.45384141986204 418.4376282120693 " stroke="rgb(187, 163, 255)" stroke-width="0.2px" fill="none"/>
<path d="M174.8946674209965 423.435564401326 L278.4039714573236 418.41997033675625 " stroke="rgb(187, 163, 255)" stroke-width="0.2px" fill="none"/>
<path d="M178.3855498975297 415.3793140101705 L282.3540952859682 418.40232487907707 " stroke="rgb(187, 163, 255)" stroke-width="0.2px" fill="none"/>
<path d="M181.87644479169668 407.32306361901504 L286.3042253234297 418.3846794213979 " stroke="rgb(187, 163, 255)" stroke-width="0.2px" fill="none"/>
<path d="M185.36732726822981 399.26682564549344 L290.25434915207427 418.36702154608486 " stroke="rgb(187, 163, 255)" stroke-width="0.2px" fill="none"/>
<path d="M188.858209744763 391.21058767197184 L294.2045040248035 418.3493760884056 " stroke="rgb(187, 163, 255)" stroke-width="0.2px" fill="none"/>
<path d="M192.34909843011306 383.1543372808163 L298.154634062265 418.3317306307264 " stroke="rgb(187, 163, 255)" stroke-width="0.2px" fill="none"/>
<path d="M195.83998711546315 375.0980993072947 L302.1047578909096 418.3140851730472 " stroke="rgb(187, 163, 255)" stroke-width="0.2px" fill="none"/>
<path d="M199.33086648758783 367.0418613337731 L306.0548817195542 418.29642729773417 " stroke="rgb(187, 163, 255)" stroke-width="0.2px" fill="none"/>
<path d="M202.8217644861633 358.9855985249838 L310.0050117570157 418.2787818400549 " stroke="rgb(187, 163, 255)" stroke-width="0.2px" fill="none"/>
<path d="M206.312643858288 350.929372969096 L313.9551355856603 418.2611363823757 " stroke="rgb(187, 163, 255)" stroke-width="0.2px" fill="none"/>
<path d="M209.80352943922958 342.8731349955744 L317.9052656231218 418.24347850706266 " stroke="rgb(187, 163, 255)" stroke-width="0.2px" fill="none"/>
<path d="M213.29442433339656 334.8168659779681 L321.8553894517664 418.2258330493834 " stroke="rgb(187, 163, 255)" stroke-width="0.2px" fill="none"/>
<path d="M216.7853099143382 326.7606342132634 L325.80551948922795 418.2081875917042 " stroke="rgb(187, 163, 255)" stroke-width="0.2px" fill="none"/>
<path d="M223.97792318551052 310.1495281795849 L329.7556681531402 418.19052971639115 " stroke="rgb(187, 163, 255)" stroke-width="0.2px" fill="none"/>
<path d="M231.1705473221124 293.53840972827237 L333.70579819060174 418.172884258712 " stroke="rgb(187, 163, 255)" stroke-width="0.2px" fill="none"/>
<path d="M238.36316447379534 276.9273005901853 L337.6559282280632 418.1552388010328 " stroke="rgb(187, 163, 255)" stroke-width="0.2px" fill="none"/>
<path d="M245.5558270274519 260.3160905588233 L341.6060520567079 418.1375809257197 " stroke="rgb(187, 163, 255)" stroke-width="0.2px" fill="none"/>
<path d="M252.74844573133905 243.7049802565831 L345.5561758853525 418.11993546804047 " stroke="rgb(187, 163, 255)" stroke-width="0.2px" fill="none"/>
<path d="M259.9410671515835 227.09386452162806 L349.50630592281397 418.10229001036123 " stroke="rgb(187, 163, 255)" stroke-width="0.2px" fill="none"/>
<path d="M267.13368973598125 210.48274296590714 L353.4564297514586 418.08464455268205 " stroke="rgb(187, 163, 255)" stroke-width="0.2px" fill="none"/>
<path d="M274.3263045593578 193.87164934986234 L357.40658462418776 418.066986677369 " stroke="rgb(187, 163, 255)" stroke-width="0.2px" fill="none"/>
<path d="M281.5189224871428 177.26053710736684 L361.3567084528324 418.0493412196898 " stroke="rgb(187, 163, 255)" stroke-width="0.2px" fill="none"/>
<path d="M288.7115947420758 160.6493131061668 L365.3068446991108 418.0316957620106 " stroke="rgb(187, 163, 255)" stroke-width="0.2px" fill="none"/>
<path d="M295.9042111176566 144.0382070724882 L369.2569685277554 418.01403788669757 " stroke="rgb(187, 163, 255)" stroke-width="0.2px" fill="none"/>
<path d="M303.09683370205425 127.42708862117574 L373.2070923564 417.99639242901833 " stroke="rgb(187, 163, 255)" stroke-width="0.2px" fill="none"/>
<path d="M306.7373983368318 119.01463840346976 L374.4109571214137 414.23413498266007 " stroke="rgb(187, 163, 255)" stroke-width="0.2px" fill="none"/>
<path d="M307.6917990469218 116.80463485699354 L375.61484672169496 410.47186511866784 " stroke="rgb(187, 163, 255)" stroke-width="0.2px" fill="none"/>
<path d="M308.64619975701174 114.59464372815114 L376.81871148670865 406.70962008994337 " stroke="rgb(187, 163, 255)" stroke-width="0.2px" fill="none"/>
<path d="M309.6006004671017 112.38464018167494 L378.0225762517223 402.9473750612189 " stroke="rgb(187, 163, 255)" stroke-width="0.2px" fill="none"/>
<path d="M310.5550073860086 110.17463663519872 L379.226441016736 399.18513003249444 " stroke="rgb(187, 163, 255)" stroke-width="0.2px" fill="none"/>
<path d="M311.5094018872817 107.96464550635632 L380.4303306170173 395.4228601685023 " stroke="rgb(187, 163, 255)" stroke-width="0.2px" fill="none"/>
<path d="M312.4638150150055 105.7546419598801 L381.63419538203095 391.66061513977786 " stroke="rgb(187, 163, 255)" stroke-width="0.2px" fill="none"/>
<path d="M313.4182095162785 103.54463841340389 L382.83806014704464 387.8983701110534 " stroke="rgb(187, 163, 255)" stroke-width="0.2px" fill="none"/>
<path d="M314.37260401755157 101.33463486692767 L384.0419373296922 384.13612508232893 " stroke="rgb(187, 163, 255)" stroke-width="0.2px" fill="none"/>
<path d="M315.32700472764157 99.12465615571914 L385.2458145123396 380.37388005360447 " stroke="rgb(187, 163, 255)" stroke-width="0.2px" fill="none"/>
<path d="M316.28141164654846 96.91464019160905 L386.4496792773533 376.6116101896123 " stroke="rgb(187, 163, 255)" stroke-width="0.2px" fill="none"/>
<path d="M317.2358123566384 94.70463664513285 L387.65354404236695 372.8493651608878 " stroke="rgb(187, 163, 255)" stroke-width="0.2px" fill="none"/>
<path d="M315.16735120942786 99.47673332783647 L388.8574212250145 369.08712013216336 " stroke="rgb(187, 163, 255)" stroke-width="0.2px" fill="none"/>
<path d="M308.5645662321819 114.72202381602831 L390.061298407662 365.3248751034389 " stroke="rgb(187, 163, 255)" stroke-width="0.2px" fill="none"/>
<path d="M301.96179367256985 129.96728946895243 L391.2651631726756 361.56263007471443 " stroke="rgb(187, 163, 255)" stroke-width="0.2px" fill="none"/>
<path d="M295.3590180085493 145.21256753951045 L392.46904035532316 357.80036021072226 " stroke="rgb(187, 163, 255)" stroke-width="0.2px" fill="none"/>
<path d="M288.75624855334564 160.45784561006843 L393.67291753797065 354.0381213908147 " stroke="rgb(187, 163, 255)" stroke-width="0.2px" fill="none"/>
<path d="M282.15346978491664 175.70312368062642 L394.8767823029843 350.27586394445643 " stroke="rgb(187, 163, 255)" stroke-width="0.2px" fill="none"/>
<path d="M275.5506987775088 190.94838933355058 L396.0806594856318 346.51361891573197 " stroke="rgb(187, 163, 255)" stroke-width="0.2px" fill="none"/>
<path d="M268.9479184568755 206.19367671733391 L397.28452425064546 342.7513738870075 " stroke="rgb(187, 163, 255)" stroke-width="0.2px" fill="none"/>
<path d="M262.345142792855 221.43895168348342 L398.48840143329295 338.9891164406492 " stroke="rgb(187, 163, 255)" stroke-width="0.2px" fill="none"/>
<path d="M255.74237488985557 236.6842111275907 L399.6922661983066 335.2268589942908 " stroke="rgb(187, 163, 255)" stroke-width="0.2px" fill="none"/>
<path d="M249.13960553166473 251.9294754223361 L400.89614338095413 331.46461396556634 " stroke="rgb(187, 163, 255)" stroke-width="0.2px" fill="none"/>
<path d="M242.536820457406 267.1747734775236 L402.1000205636016 327.7023689368419 " stroke="rgb(187, 163, 255)" stroke-width="0.2px" fill="none"/>
<path d="M235.93404789779393 282.42004223485617 L403.30388532861525 323.9401114904836 " stroke="rgb(187, 163, 255)" stroke-width="0.2px" fill="none"/>
<path d="M230.89891002977254 294.05213655324235 L404.5077625112628 320.17785404412535 " stroke="rgb(187, 163, 255)" stroke-width="0.2px" fill="none"/>
<path d="M225.8637628485257 305.6842463936708 L405.7116272762765 316.41560901540083 " stroke="rgb(187, 163, 255)" stroke-width="0.2px" fill="none"/>
<path d="M220.82862498050432 317.31634071205696 L406.9155044589239 312.65336398667637 " stroke="rgb(187, 163, 255)" stroke-width="0.2px" fill="none"/>
<path d="M215.79349487350405 328.9484101951754 L408.1193692239376 308.8911189579519 " stroke="rgb(187, 163, 255)" stroke-width="0.2px" fill="none"/>
<path d="M210.7583399312361 340.580541766463 L409.32324640658516 305.1288490939598 " stroke="rgb(187, 163, 255)" stroke-width="0.2px" fill="none"/>
<path d="M205.72320671982737 352.2126360848492 L410.5271235892326 301.3666040652353 " stroke="rgb(187, 163, 255)" stroke-width="0.2px" fill="none"/>
<path d="M200.6880704040102 363.84471798560145 L411.7309883542463 297.604346618877 " stroke="rgb(187, 163, 255)" stroke-width="0.2px" fill="none"/>
<path d="M195.652934088193 375.4767998863538 L412.9348531192599 293.8421015901525 " stroke="rgb(187, 163, 255)" stroke-width="0.2px" fill="none"/>
<path d="M190.61778225033353 387.10891904000766 L414.13873030190746 290.07984414379416 " stroke="rgb(187, 163, 255)" stroke-width="0.2px" fill="none"/>
<path d="M185.5826428301079 398.74100094075993 L415.34260748455495 286.3175991150697 " stroke="rgb(187, 163, 255)" stroke-width="0.2px" fill="none"/>
<path d="M180.5474909922484 410.3731449296814 L416.5464722495686 282.55534787752833 " stroke="rgb(187, 163, 255)" stroke-width="0.2px" fill="none"/>
<path d="M175.51236398965662 422.00522683043374 L417.7503494322161 278.79309663998697 " stroke="rgb(187, 163, 255)" stroke-width="0.2px" fill="none"/>
<path d="M175.59284267453978 421.82431432309494 L418.9542266148636 275.0308454024456 " stroke="rgb(187, 163, 255)" stroke-width="0.2px" fill="none"/>
<path d="M179.08372515107294 413.7680763495733 L420.15809137987725 271.26859416490424 " stroke="rgb(187, 163, 255)" stroke-width="0.2px" fill="none"/>
<path d="M182.57462004523993 405.711813540784 L421.3619685625248 267.5063429273628 " stroke="rgb(187, 163, 255)" stroke-width="0.2px" fill="none"/>
<path d="M186.06550252177308 397.6555755672623 L422.5658333275384 263.74409789863836 " stroke="rgb(187, 163, 255)" stroke-width="0.2px" fill="none"/>
<path d="M189.55639120712314 389.5993251761069 L423.7697105101859 259.98184045228004 " stroke="rgb(187, 163, 255)" stroke-width="0.2px" fill="none"/>
<path d="M193.04727989247323 381.54308720258524 L424.97357527519955 256.2195954235556 " stroke="rgb(187, 163, 255)" stroke-width="0.2px" fill="none"/>
<path d="M196.53816236900636 373.48684922906364 L426.1774524578471 252.45733797719728 " stroke="rgb(187, 163, 255)" stroke-width="0.2px" fill="none"/>
<path d="M200.02904174113107 365.43062367317583 L427.3813172228608 248.69509294847282 " stroke="rgb(187, 163, 255)" stroke-width="0.2px" fill="none"/>
<path d="M203.51993973970653 357.3743608643866 L428.5851944055082 244.93283550211447 " stroke="rgb(187, 163, 255)" stroke-width="0.2px" fill="none"/>
<path d="M207.0108222162397 349.3181228908649 L429.78907158815576 241.1705842645731 " stroke="rgb(187, 163, 255)" stroke-width="0.2px" fill="none"/>
<path d="M210.50172021481515 341.2618538732587 L430.99293635316945 237.4083330270317 " stroke="rgb(187, 163, 255)" stroke-width="0.2px" fill="none"/>
<path d="M213.99260269134828 333.205622108554 L432.1968135358169 233.64608489389877 " stroke="rgb(187, 163, 255)" stroke-width="0.2px" fill="none"/>
<path d="M218.22382760151913 323.438420457108 L433.4006783008306 229.88383365635738 " stroke="rgb(187, 163, 255)" stroke-width="0.2px" fill="none"/>
<path d="M225.4164501859168 306.82729579697866 L434.60455548347807 226.12158241881596 " stroke="rgb(187, 163, 255)" stroke-width="0.2px" fill="none"/>
<path d="M232.60906966590605 290.2161928677085 L435.80842024849176 222.3593311812746 " stroke="rgb(187, 163, 255)" stroke-width="0.2px" fill="none"/>
<path d="M239.80169069809952 273.60507596860026 L437.01229743113925 218.59707994373323 " stroke="rgb(187, 163, 255)" stroke-width="0.2px" fill="none"/>
<path d="M246.99435305773056 256.9938628328299 L438.2161621961529 214.83482870619181 " stroke="rgb(187, 163, 255)" stroke-width="0.2px" fill="none"/>
<path d="M254.18697156759217 240.38275291864065 L439.4200393788004 211.07257746865042 " stroke="rgb(187, 163, 255)" stroke-width="0.2px" fill="none"/>
<path d="M261.3795910475814 223.77164145224725 L440.6239165614479 207.3103293355175 " stroke="rgb(187, 163, 255)" stroke-width="0.2px" fill="none"/>
<path d="M268.57221052757063 207.16053231416015 L441.82778132646155 203.54807809797614 " stroke="rgb(187, 163, 255)" stroke-width="0.2px" fill="none"/>
<path d="M275.7648331119683 190.54941075843928 L443.0316585091091 199.78582686043472 " stroke="rgb(187, 163, 255)" stroke-width="0.2px" fill="none"/>
<path d="M282.9574867404506 173.93822401014074 L444.2355232741227 196.02357562289336 " stroke="rgb(187, 163, 255)" stroke-width="0.2px" fill="none"/>
<path d="M290.15011242925675 157.32709935001137 L445.4394004567702 192.261324385352 " stroke="rgb(187, 163, 255)" stroke-width="0.2px" fill="none"/>
<path d="M297.34273190924597 140.71598089869892 L446.6432652217839 188.49907314781055 " stroke="rgb(187, 163, 255)" stroke-width="0.2px" fill="none"/>
<path d="M304.53535449364364 124.1048624473865 L447.8471424044314 184.73682191026919 " stroke="rgb(187, 163, 255)" stroke-width="0.2px" fill="none"/>
</svg>