<?xml version="1.0" standalone="no"?>
<!DOCTYPE svg PUBLIC "-//W3C//DTD SVG 1.1//EN" "http://www.w3.org/Graphics/SVG/1.1/DTD/svg11.dtd">
<svg width="500.0px" height="500px" version="1.1" xmlns="http://www.w3.org/2000/svg">
<path d="M249.30013594825522 451.07244894614024 L444.64104594226495 182.42928405883774 " stroke="rgb(187, 163, 255)" stroke-width="0.2px" fill="none"/>
<path d="M249.35584300584225 434.46839612847975 L441.43496189773236 180.1217275809555 " stroke="rgb(187, 163, 255)" stroke-width="0.2px" fill="none"/>
<path d="M249.41155239173563 417.8643557284532 L438.22885301793207 177.81418352070716 " stroke="rgb(187, 163, 255)" stroke-width="0.2px" fill="none"/>
<path d="M249.46726100152688 401.26032774606034 L435.0227689733994 175.5066394604588 " stroke="rgb(187, 163, 255)" stroke-width="0.2px" fill="none"/>
<path d="M249.52297038742026 384.6562625107661 L431.8166600935991 173.19909540021038 " stroke="rgb(187, 163, 255)" stroke-width="0.2px" fill="none"/>
<path d="M249.5786789972115 368.0522221107395 L428.61057604906654 170.8915389223282 " stroke="rgb(187, 163, 255)" stroke-width="0.2px" fill="none"/>
<path d="M249.63438760700274 351.44818791952974 L425.40449200453395 168.5839948620798 " stroke="rgb(187, 163, 255)" stroke-width="0.2px" fill="none"/>
<path d="M249.69009582874293 334.84412268423546 L422.1983831247336 166.27645080183146 " stroke="rgb(187, 163, 255)" stroke-width="0.2px" fill="none"/>
<path d="M249.7458044385342 318.2400822842089 L418.992299080201 163.9689067415831 " stroke="rgb(187, 163, 255)" stroke-width="0.2px" fill="none"/>
<path d="M249.80151343637652 301.63604498859064 L415.7862150356684 161.66135026370088 " stroke="rgb(187, 163, 255)" stroke-width="0.2px" fill="none"/>
<path d="M249.8572224342188 285.03198906652176 L412.5801061558682 159.3538062034525 " stroke="rgb(187, 163, 255)" stroke-width="0.2px" fill="none"/>
<path d="M249.91293114102282 268.4279502186994 L409.3740221113355 157.0462621432041 " stroke="rgb(187, 163, 255)" stroke-width="0.2px" fill="none"/>
<path d="M249.9686397993205 251.8239234004598 L406.1679380668029 154.73870566532193 " stroke="rgb(187, 163, 255)" stroke-width="0.2px" fill="none"/>
<path d="M250.02495546648456 235.54201388440475 L402.96182918700265 152.43116160507353 " stroke="rgb(187, 163, 255)" stroke-width="0.2px" fill="none"/>
<path d="M250.08167601642057 219.4748948971472 L399.75564580139934 150.12354303902214 " stroke="rgb(187, 163, 255)" stroke-width="0.2px" fill="none"/>
<path d="M250.13839646934383 203.40777125327702 L396.5496362626697 147.8160734845768 " stroke="rgb(187, 163, 255)" stroke-width="0.2px" fill="none"/>
<path d="M250.19511634019054 187.340669340266 L393.3434528770664 145.50845491852544 " stroke="rgb(187, 163, 255)" stroke-width="0.2px" fill="none"/>
<path d="M250.25183659908822 171.27354880080426 L390.1373688325338 143.20089844064321 " stroke="rgb(187, 163, 255)" stroke-width="0.2px" fill="none"/>
<path d="M250.308557246037 155.2064220525256 L386.9312847880012 140.89335438039484 " stroke="rgb(187, 163, 255)" stroke-width="0.2px" fill="none"/>
<path d="M250.36527789298586 139.13932634833154 L383.72517590820087 138.58581032014644 " stroke="rgb(187, 163, 255)" stroke-width="0.2px" fill="none"/>
<path d="M250.4219977638325 123.07219960005284 L380.5190918636683 136.2782662598981 " stroke="rgb(187, 163, 255)" stroke-width="0.2px" fill="none"/>
<path d="M250.47871841078128 107.00507285177419 L377.312982983868 133.9707221996497 " stroke="rgb(187, 163, 255)" stroke-width="0.2px" fill="none"/>
<path d="M250.53543828162793 90.93795852112935 L374.1068989393354 131.6631657217675 " stroke="rgb(187, 163, 255)" stroke-width="0.2px" fill="none"/>
<path d="M250.59215815247467 74.8708441904845 L370.90081489480275 129.35562166151914 " stroke="rgb(187, 163, 255)" stroke-width="0.2px" fill="none"/>
<path d="M250.64887879942344 58.80371744220586 L367.6947060150025 127.04806518363692 " stroke="rgb(187, 163, 255)" stroke-width="0.2px" fill="none"/>
<path d="M250.6901255224099 47.284847109125174 L364.48862197046986 124.74052112338858 " stroke="rgb(187, 163, 255)" stroke-width="0.2px" fill="none"/>
<path d="M250.66947189293415 53.95885342523044 L361.2825379259372 122.43297706314021 " stroke="rgb(187, 163, 255)" stroke-width="0.2px" fill="none"/>
<path d="M250.64881826345848 60.63287215896956 L358.076429046137 120.1254330028918 " stroke="rgb(187, 163, 255)" stroke-width="0.2px" fill="none"/>
<path d="M250.62816308177855 67.30691572797632 L354.87034500160433 117.81788894264345 " stroke="rgb(187, 163, 255)" stroke-width="0.2px" fill="none"/>
<path d="M250.60751100450713 73.98092204408164 L351.6642485394379 115.51034488239509 " stroke="rgb(187, 163, 255)" stroke-width="0.2px" fill="none"/>
<path d="M250.58685504672508 80.65496561308838 L348.4581582860884 113.20278840451287 " stroke="rgb(187, 163, 255)" stroke-width="0.2px" fill="none"/>
<path d="M250.56620219335153 87.32897192919364 L345.25206803273886 110.89523192663064 " stroke="rgb(187, 163, 255)" stroke-width="0.2px" fill="none"/>
<path d="M250.5455485638758 94.0029782452989 L342.04597157057236 108.58768786638228 " stroke="rgb(187, 163, 255)" stroke-width="0.2px" fill="none"/>
<path d="M250.524894158298 100.67703423193952 L338.8398813172229 106.28014380613394 " stroke="rgb(187, 163, 255)" stroke-width="0.2px" fill="none"/>
<path d="M250.50424208102658 107.35105296567865 L335.63378485505643 103.97259974588552 " stroke="rgb(187, 163, 255)" stroke-width="0.2px" fill="none"/>
<path d="M250.4835884515509 114.0250468641501 L332.4276946017069 101.66505568563716 " stroke="rgb(187, 163, 255)" stroke-width="0.2px" fill="none"/>
<path d="M250.46293404597307 120.69909043315685 L329.22159813954045 99.35751162538881 " stroke="rgb(187, 163, 255)" stroke-width="0.2px" fill="none"/>
<path d="M250.44228041649734 127.3731215845298 L326.0155078861909 97.04995514750658 " stroke="rgb(187, 163, 255)" stroke-width="0.2px" fill="none"/>
<path d="M250.3825624631817 144.86142168993072 L322.80941142402446 94.74241108725823 " stroke="rgb(187, 163, 255)" stroke-width="0.2px" fill="none"/>
<path d="M250.31307687670184 165.05334491319078 L319.6033211706749 92.434854609376 " stroke="rgb(187, 163, 255)" stroke-width="0.2px" fill="none"/>
<path d="M250.24359167827305 185.24521846591557 L316.3972309173254 90.12731054912764 " stroke="rgb(187, 163, 255)" stroke-width="0.2px" fill="none"/>
<path d="M250.17410686789526 205.43708580982346 L313.19113445515893 87.81976648887924 " stroke="rgb(187, 163, 255)" stroke-width="0.2px" fill="none"/>
<path d="M250.10462225154302 225.62900437647087 L309.9850442018094 85.51222242863088 " stroke="rgb(187, 163, 255)" stroke-width="0.2px" fill="none"/>
<path d="M250.03513700460783 245.82088530216572 L306.77894773964294 83.20467836838252 " stroke="rgb(187, 163, 255)" stroke-width="0.2px" fill="none"/>
<path d="M249.96565214572365 266.0127530341246 L303.5728574862934 80.8971218905003 " stroke="rgb(187, 163, 255)" stroke-width="0.2px" fill="none"/>
<path d="M249.89616723833313 286.204623482441 L300.3666678918732 78.58951574208278 " stroke="rgb(187, 163, 255)" stroke-width="0.2px" fill="none"/>
<path d="M249.82668242795535 306.39654670570104 L297.1605745341152 76.28195926420057 " stroke="rgb(187, 163, 255)" stroke-width="0.2px" fill="none"/>
<path d="M249.75719761757762 326.5884140496089 L293.9544811763572 73.9744152039522 " stroke="rgb(187, 163, 255)" stroke-width="0.2px" fill="none"/>
<path d="M249.6877112549956 346.780343481686 L290.7483909230077 71.66685872606998 " stroke="rgb(187, 163, 255)" stroke-width="0.2px" fill="none"/>
<path d="M249.61822760877104 366.97219840796004 L287.54229756524967 69.35931466582163 " stroke="rgb(187, 163, 255)" stroke-width="0.2px" fill="none"/>
<path d="M249.56762031817954 381.40943620962156 L284.33620420749173 67.05177060557321 " stroke="rgb(187, 163, 255)" stroke-width="0.2px" fill="none"/>
<path d="M249.54532988934398 387.2146800273784 L281.13011084973374 64.74422654532486 " stroke="rgb(187, 163, 255)" stroke-width="0.2px" fill="none"/>
<path d="M249.52303868440634 393.0199238451352 L277.9240174919757 62.4366824850765 " stroke="rgb(187, 163, 255)" stroke-width="0.2px" fill="none"/>
<path d="M249.5007482555708 398.82520491579356 L274.71792413421775 60.12912600719428 " stroke="rgb(187, 163, 255)" stroke-width="0.2px" fill="none"/>
<path d="M249.47845782673528 404.63044873355034 L271.51183077645976 57.82158194694592 " stroke="rgb(187, 163, 255)" stroke-width="0.2px" fill="none"/>
<path d="M249.45616739789972 410.43569255130717 L268.30573897090596 55.51403788669751 " stroke="rgb(187, 163, 255)" stroke-width="0.2px" fill="none"/>
<path d="M249.4338769690642 416.2409239514302 L265.09964561314797 53.20648140881534 " stroke="rgb(187, 163, 255)" stroke-width="0.2px" fill="none"/>
<path d="M249.41158576412656 422.046167769187 L261.89355225539003 50.89893734856693 " stroke="rgb(187, 163, 255)" stroke-width="0.2px" fill="none"/>
<path d="M249.38929611139312 427.85142400457767 L258.6874596737341 48.59139328831857 " stroke="rgb(187, 163, 255)" stroke-width="0.2px" fill="none"/>
<path d="M249.36700645865972 433.6566802399683 L255.48136631597612 46.28384922807022 " stroke="rgb(187, 163, 255)" stroke-width="0.2px" fill="none"/>
<path d="M249.34471680592628 439.4619488929928 L252.27527334626922 43.976292750187994 " stroke="rgb(187, 163, 255)" stroke-width="0.2px" fill="none"/>
<path d="M249.32242560098862 445.2671678754819 L249.06918037656226 41.66874868993964 " stroke="rgb(187, 163, 255)" stroke-width="0.2px" fill="none"/>
<path d="M249.31127611800923 447.7516383826082 L245.88383998935066 44.00486572564183 " stroke="rgb(187, 163, 255)" stroke-width="0.2px" fill="none"/>
<path d="M249.3669847278005 431.1475855649477 L242.69849339332208 46.340970343710154 " stroke="rgb(187, 163, 255)" stroke-width="0.2px" fill="none"/>
<path d="M249.42269411369386 414.5435327472872 L239.51314679729356 48.67707496177853 " stroke="rgb(187, 163, 255)" stroke-width="0.2px" fill="none"/>
<path d="M249.47840349958724 397.9395047648945 L236.327800201265 51.013179579846856 " stroke="rgb(187, 163, 255)" stroke-width="0.2px" fill="none"/>
<path d="M249.53411133327637 381.335451947234 L233.14245360523648 53.34928419791524 " stroke="rgb(187, 163, 255)" stroke-width="0.2px" fill="none"/>
<path d="M249.58982071916975 364.73141154720736 L229.95711942684179 55.68538881598356 " stroke="rgb(187, 163, 255)" stroke-width="0.2px" fill="none"/>
<path d="M249.64552855285888 348.1273711471807 L226.7717728308132 58.02149343405194 " stroke="rgb(187, 163, 255)" stroke-width="0.2px" fill="none"/>
<path d="M249.70123716265013 331.5233183295203 L223.58642623478468 60.35759805212027 " stroke="rgb(187, 163, 255)" stroke-width="0.2px" fill="none"/>
<path d="M249.75694693659455 314.9192779294937 L220.40107963875613 62.69370267018864 " stroke="rgb(187, 163, 255)" stroke-width="0.2px" fill="none"/>
<path d="M249.81265515833476 298.3152406338755 L217.21568337219225 65.02983212352464 " stroke="rgb(187, 163, 255)" stroke-width="0.2px" fill="none"/>
<path d="M249.86836415617708 281.71118471180654 L214.0303367761637 67.36593674159302 " stroke="rgb(187, 163, 255)" stroke-width="0.2px" fill="none"/>
<path d="M249.92407276596833 265.10715672941376 L210.84499018013517 69.70204135966135 " stroke="rgb(187, 163, 255)" stroke-width="0.2px" fill="none"/>
<path d="M249.9797816425447 248.50308470322602 L207.65964358410662 72.03814597772973 " stroke="rgb(187, 163, 255)" stroke-width="0.2px" fill="none"/>
<path d="M250.03629965408197 232.3286034359096 L204.4742969880781 74.37425059579806 " stroke="rgb(187, 163, 255)" stroke-width="0.2px" fill="none"/>
<path d="M250.0930199129797 216.26147203101826 L201.28895039204951 76.71035521386644 " stroke="rgb(187, 163, 255)" stroke-width="0.2px" fill="none"/>
<path d="M250.14974036590297 200.19435459596497 L198.10361621365482 79.04645983193475 " stroke="rgb(187, 163, 255)" stroke-width="0.2px" fill="none"/>
<path d="M250.20646062480068 184.12725268295398 L194.9182696176263 81.38256445000313 " stroke="rgb(187, 163, 255)" stroke-width="0.2px" fill="none"/>
<path d="M250.26318088369842 168.06012593467528 L191.73292302159774 83.71866906807146 " stroke="rgb(187, 163, 255)" stroke-width="0.2px" fill="none"/>
<path d="M250.3199015306472 151.99299918639664 L188.54757642556922 86.05477368613984 " stroke="rgb(187, 163, 255)" stroke-width="0.2px" fill="none"/>
<path d="M250.37662062539178 135.9258910645687 L185.36222982954064 88.39087830420816 " stroke="rgb(187, 163, 255)" stroke-width="0.2px" fill="none"/>
<path d="M250.4333420484427 119.85876431629006 L182.17688323351211 90.72698292227655 " stroke="rgb(187, 163, 255)" stroke-width="0.2px" fill="none"/>
<path d="M250.4900626953915 103.79164998564522 L178.99148696694823 93.06311237561255 " stroke="rgb(187, 163, 255)" stroke-width="0.2px" fill="none"/>
<path d="M250.54678256623814 87.72454807263419 L175.80614037091968 95.39921699368092 " stroke="rgb(187, 163, 255)" stroke-width="0.2px" fill="none"/>
<path d="M250.6035032131869 71.65740890672173 L172.62079377489115 97.73532161174924 " stroke="rgb(187, 163, 255)" stroke-width="0.2px" fill="none"/>
<path d="M250.6602238601357 55.590282158443024 L169.4354471788626 100.07142622981763 " stroke="rgb(187, 163, 255)" stroke-width="0.2px" fill="none"/>
<path d="M250.68599355475135 48.619655822926546 L166.2501130004679 102.40753084788595 " stroke="rgb(187, 163, 255)" stroke-width="0.2px" fill="none"/>
<path d="M250.66533992527562 55.29364972139794 L163.06476640443935 104.74363546595433 " stroke="rgb(187, 163, 255)" stroke-width="0.2px" fill="none"/>
<path d="M250.64468629579994 61.967693290404746 L159.8794198084108 107.07974008402266 " stroke="rgb(187, 163, 255)" stroke-width="0.2px" fill="none"/>
<path d="M250.62403266632427 68.64171202414387 L156.69407321238228 109.41584470209104 " stroke="rgb(187, 163, 255)" stroke-width="0.2px" fill="none"/>
<path d="M250.6033790368486 75.31573075788295 L153.50872661635373 111.75194932015935 " stroke="rgb(187, 163, 255)" stroke-width="0.2px" fill="none"/>
<path d="M250.58272540737292 81.98976190925589 L150.3233800203252 114.08805393822774 " stroke="rgb(187, 163, 255)" stroke-width="0.2px" fill="none"/>
<path d="M250.5620717778972 88.66378064299502 L147.13803342429662 116.42415855629606 " stroke="rgb(187, 163, 255)" stroke-width="0.2px" fill="none"/>
<path d="M250.5414181484215 95.33779937673414 L143.9526868282681 118.76026317436444 " stroke="rgb(187, 163, 255)" stroke-width="0.2px" fill="none"/>
<path d="M250.52076451894584 102.0118429457409 L140.76734023223955 121.09636779243277 " stroke="rgb(187, 163, 255)" stroke-width="0.2px" fill="none"/>
<path d="M250.50011011336804 108.68584926184616 L137.58199363621102 123.43247241050115 " stroke="rgb(187, 163, 255)" stroke-width="0.2px" fill="none"/>
<path d="M250.4794588121987 115.35986799558529 L134.39664704018247 125.76857702856947 " stroke="rgb(187, 163, 255)" stroke-width="0.2px" fill="none"/>
<path d="M250.45880363051876 122.0339239822259 L131.21130044415395 128.10468164663786 " stroke="rgb(187, 163, 255)" stroke-width="0.2px" fill="none"/>
<path d="M250.4381507771452 128.70791788069735 L128.02595384812537 130.4407862647062 " stroke="rgb(187, 163, 255)" stroke-width="0.2px" fill="none"/>
<path d="M250.36866480261426 148.89981005987286 L124.84060725209683 132.77689088277455 " stroke="rgb(187, 163, 255)" stroke-width="0.2px" fill="none"/>
<path d="M250.2991799922365 169.09172086549913 L121.6552234031668 135.11303275374442 " stroke="rgb(187, 163, 255)" stroke-width="0.2px" fill="none"/>
<path d="M250.22969518185872 189.2835944182239 L118.46987680713825 137.44913737181275 " stroke="rgb(187, 163, 255)" stroke-width="0.2px" fill="none"/>
<path d="M250.16021017745544 209.47545865772332 L115.28453021110971 139.78524198988111 " stroke="rgb(187, 163, 255)" stroke-width="0.2px" fill="none"/>
<path d="M250.09072497902662 229.66738964200457 L112.09918361508117 142.12134660794945 " stroke="rgb(187, 163, 255)" stroke-width="0.2px" fill="none"/>
<path d="M250.02124007163607 249.8592578469007 L108.91384943668646 144.45745122601784 " stroke="rgb(187, 163, 255)" stroke-width="0.2px" fill="none"/>
<path d="M249.95175516424555 270.0511320908414 L105.72850284065792 146.79355584408614 " stroke="rgb(187, 163, 255)" stroke-width="0.2px" fill="none"/>
<path d="M249.88227015984228 290.2430025391578 L102.54315624462937 149.12966046215453 " stroke="rgb(187, 163, 255)" stroke-width="0.2px" fill="none"/>
<path d="M249.81278515543897 310.43492886682634 L99.35780964860083 151.46576508022287 " stroke="rgb(187, 163, 255)" stroke-width="0.2px" fill="none"/>
<path d="M249.74330034506121 330.6267837931004 L96.1724630525723 153.80186969829123 " stroke="rgb(187, 163, 255)" stroke-width="0.2px" fill="none"/>
<path d="M249.6738151466324 350.8187194339943 L92.98711645654375 156.13797431635956 " stroke="rgb(187, 163, 255)" stroke-width="0.2px" fill="none"/>
<path d="M249.6043307243057 371.0105867779022 L89.80176986051521 158.47407893442795 " stroke="rgb(187, 163, 255)" stroke-width="0.2px" fill="none"/>
<path d="M249.56316161153072 382.57048497317294 L86.61642326448667 160.81018355249626 " stroke="rgb(187, 163, 255)" stroke-width="0.2px" fill="none"/>
<path d="M249.54087195879728 388.37572879092977 L83.43107666845812 163.14628817056465 " stroke="rgb(187, 163, 255)" stroke-width="0.2px" fill="none"/>
<path d="M249.51858075385965 394.18097260868655 L80.24573007242958 165.48239278863298 " stroke="rgb(187, 163, 255)" stroke-width="0.2px" fill="none"/>
<path d="M249.49629110112622 399.98625367934494 L77.06033380586568 167.81852845078592 " stroke="rgb(187, 163, 255)" stroke-width="0.2px" fill="none"/>
<path d="M249.47399912008646 405.7914974971018 L73.87498720983714 170.1546330688543 " stroke="rgb(187, 163, 255)" stroke-width="0.2px" fill="none"/>
<path d="M249.45171024345515 411.5967288972247 L70.6896406138086 172.49073768692264 " stroke="rgb(187, 163, 255)" stroke-width="0.2px" fill="none"/>
<path d="M249.4294190385175 417.4019851326154 L67.5043064354139 174.826842304991 " stroke="rgb(187, 163, 255)" stroke-width="0.2px" fill="none"/>
<path d="M249.40712783357986 423.20722895037215 L64.31895983938536 177.16294692305934 " stroke="rgb(187, 163, 255)" stroke-width="0.2px" fill="none"/>
<path d="M249.38483818084646 429.01251002103055 L61.13361324335682 179.49905154112773 " stroke="rgb(187, 163, 255)" stroke-width="0.2px" fill="none"/>
<path d="M249.36254852811302 434.81775383878727 L57.948266647328275 181.83515615919603 " stroke="rgb(187, 163, 255)" stroke-width="0.2px" fill="none"/>
<path d="M249.3402573231754 440.6229976565441 L54.76292005129973 184.17126077726442 " stroke="rgb(187, 163, 255)" stroke-width="0.2px" fill="none"/>
<path d="M249.31796767044196 446.42824147430093 L51.577573455271185 186.50736539533276 " stroke="rgb(187, 163, 255)" stroke-width="0.2px" fill="none"/>
<path d="M249.32241939217172 444.4308402367099 L52.81501550217408 190.2587139503672 " stroke="rgb(187, 163, 255)" stroke-width="0.2px" fill="none"/>
<path d="M249.37812800196298 427.8267750014156 L54.05245754907697 194.01005629658474 " stroke="rgb(187, 163, 255)" stroke-width="0.2px" fill="none"/>
<path d="M249.43383583565213 411.222734601389 L55.28989959597987 197.76139864280228 " stroke="rgb(187, 163, 255)" stroke-width="0.2px" fill="none"/>
<path d="M249.48954522154548 394.61869420136236 L56.52734164288275 201.51274098901985 " stroke="rgb(187, 163, 255)" stroke-width="0.2px" fill="none"/>
<path d="M249.5452530552346 378.01464138370187 L57.76478368978565 205.2640584999697 " stroke="rgb(187, 163, 255)" stroke-width="0.2px" fill="none"/>
<path d="M249.60096166502586 361.4106134013091 L59.00221331905471 209.01540084618725 " stroke="rgb(187, 163, 255)" stroke-width="0.2px" fill="none"/>
<path d="M249.65667105091927 344.80656058364866 L60.2396553659576 212.7667431924048 " stroke="rgb(187, 163, 255)" stroke-width="0.2px" fill="none"/>
<path d="M249.7123796607105 328.2025015571713 L61.477097412860495 216.51808553862233 " stroke="rgb(187, 163, 255)" stroke-width="0.2px" fill="none"/>
<path d="M249.76808827050175 311.59845494832774 L62.714539459763394 220.26942788483984 " stroke="rgb(187, 163, 255)" stroke-width="0.2px" fill="none"/>
<path d="M249.8237972683441 294.99440523507576 L63.952006341933945 224.02081990159272 " stroke="rgb(187, 163, 255)" stroke-width="0.2px" fill="none"/>
<path d="M249.87950607216086 278.390371043866 L65.18944838883685 227.7721622478103 " stroke="rgb(187, 163, 255)" stroke-width="0.2px" fill="none"/>
<path d="M249.93521468195212 261.7863190023077 L66.42689043573974 231.52350459402783 " stroke="rgb(187, 163, 255)" stroke-width="0.2px" fill="none"/>
<path d="M249.9909234130093 245.18227782617896 L67.66433248264262 235.27484694024537 " stroke="rgb(187, 163, 255)" stroke-width="0.2px" fill="none"/>
<path d="M250.04764364765387 229.11514797349182 L68.90177452954553 239.02617686882905 " stroke="rgb(187, 163, 255)" stroke-width="0.2px" fill="none"/>
<path d="M250.10436400356434 213.04805537370618 L70.13921657644842 242.7775192150466 " stroke="rgb(187, 163, 255)" stroke-width="0.2px" fill="none"/>
<path d="M250.16108465051312 196.9809255210191 L71.3766586233513 246.52886156126414 " stroke="rgb(187, 163, 255)" stroke-width="0.2px" fill="none"/>
<path d="M250.21780490941086 180.91382360800807 L72.6141006702542 250.28020390748168 " stroke="rgb(187, 163, 255)" stroke-width="0.2px" fill="none"/>
<path d="M250.27452516830863 164.84670306854633 L73.8515427171571 254.03153383606536 " stroke="rgb(187, 163, 255)" stroke-width="0.2px" fill="none"/>
<path d="M250.33124503915528 148.77957011145077 L75.08898476405999 257.7828761822829 " stroke="rgb(187, 163, 255)" stroke-width="0.2px" fill="none"/>
<path d="M250.38796568610405 132.71246819843975 L76.32642681096289 261.53421852850045 " stroke="rgb(187, 163, 255)" stroke-width="0.2px" fill="none"/>
<path d="M250.44468633305283 116.64536628542876 L77.56386885786577 265.285560874718 " stroke="rgb(187, 163, 255)" stroke-width="0.2px" fill="none"/>
<path d="M250.5014054277974 100.57822711951626 L78.8013233224025 269.0369528914709 " stroke="rgb(187, 163, 255)" stroke-width="0.2px" fill="none"/>
<path d="M250.5581260747462 84.51113762413908 L80.03876536930541 272.78829523768843 " stroke="rgb(187, 163, 255)" stroke-width="0.2px" fill="none"/>
<path d="M250.61484827389924 68.44399845822657 L81.2762074162083 276.53963758390597 " stroke="rgb(187, 163, 255)" stroke-width="0.2px" fill="none"/>
<path d="M250.67156736864376 52.37688412758173 L82.51364946311118 280.29096751248966 " stroke="rgb(187, 163, 255)" stroke-width="0.2px" fill="none"/>
<path d="M250.6818646915013 49.95445211909405 L83.75109151001408 284.04230985870714 " stroke="rgb(187, 163, 255)" stroke-width="0.2px" fill="none"/>
<path d="M250.66120795761714 56.6284460175655 L84.98853355691698 287.7936522049247 " stroke="rgb(187, 163, 255)" stroke-width="0.2px" fill="none"/>
<path d="M250.64055588034566 63.30251442183993 L86.22597560381986 291.5449945511422 " stroke="rgb(187, 163, 255)" stroke-width="0.2px" fill="none"/>
<path d="M250.61990069866573 69.97650832031138 L87.46340523308892 295.29632447972597 " stroke="rgb(187, 163, 255)" stroke-width="0.2px" fill="none"/>
<path d="M250.59924862139425 76.65055188931814 L88.70084727999182 299.0476668259435 " stroke="rgb(187, 163, 255)" stroke-width="0.2px" fill="none"/>
<path d="M250.57859421581645 83.32457062305726 L89.9382893268947 302.79900917216105 " stroke="rgb(187, 163, 255)" stroke-width="0.2px" fill="none"/>
<path d="M250.55794213854503 89.99857693916252 L91.1757313737976 306.5503515183786 " stroke="rgb(187, 163, 255)" stroke-width="0.2px" fill="none"/>
<path d="M250.53728850906936 96.67259567290165 L92.41317342070049 310.3016938645962 " stroke="rgb(187, 163, 255)" stroke-width="0.2px" fill="none"/>
<path d="M250.51663332738943 103.34665165954226 L93.65061546760339 314.0530237931798 " stroke="rgb(187, 163, 255)" stroke-width="0.2px" fill="none"/>
<path d="M250.49598047401582 110.02067039328134 L94.88805751450629 317.80436613939736 " stroke="rgb(187, 163, 255)" stroke-width="0.2px" fill="none"/>
<path d="M250.47532606843802 116.69468912702047 L96.12549956140917 321.5557084856149 " stroke="rgb(187, 163, 255)" stroke-width="0.2px" fill="none"/>
<path d="M250.45467243896235 123.36869544312573 L97.36294160831206 325.30704462301554 " stroke="rgb(187, 163, 255)" stroke-width="0.2px" fill="none"/>
<path d="M250.42425311657775 132.7462814153718 L98.60038365521497 329.0583869692331 " stroke="rgb(187, 163, 255)" stroke-width="0.2px" fill="none"/>
<path d="M250.35476869425105 152.93816117691355 L99.83782570211785 332.8097231066337 " stroke="rgb(187, 163, 255)" stroke-width="0.2px" fill="none"/>
<path d="M250.285282331669 173.1300968178075 L101.07529258428842 336.5611213322035 " stroke="rgb(187, 163, 255)" stroke-width="0.2px" fill="none"/>
<path d="M250.21579790934234 193.32196416171533 L102.3127346311913 340.31245746960417 " stroke="rgb(187, 163, 255)" stroke-width="0.2px" fill="none"/>
<path d="M250.14631309896455 213.51383771444011 L103.5501766780942 344.0637998158217 " stroke="rgb(187, 163, 255)" stroke-width="0.2px" fill="none"/>
<path d="M250.0768279975485 233.70576093770023 L104.78760630736326 347.8151421620392 " stroke="rgb(187, 163, 255)" stroke-width="0.2px" fill="none"/>
<path d="M250.00734309015797 253.8976302218634 L106.02504835426616 351.56647829943984 " stroke="rgb(187, 163, 255)" stroke-width="0.2px" fill="none"/>
<path d="M249.93785827978022 274.0895049387413 L107.26249040116905 355.3178268544743 " stroke="rgb(187, 163, 255)" stroke-width="0.2px" fill="none"/>
<path d="M249.8683730813514 294.281425057593 L108.49993244807193 359.06915678305796 " stroke="rgb(187, 163, 255)" stroke-width="0.2px" fill="none"/>
<path d="M249.79888827097363 314.4732986103177 L109.73737449497484 362.8204991292755 " stroke="rgb(187, 163, 255)" stroke-width="0.2px" fill="none"/>
<path d="M249.7294038486469 334.6651597454087 L110.97481654187773 366.57182905785925 " stroke="rgb(187, 163, 255)" stroke-width="0.2px" fill="none"/>
<path d="M249.65991748606493 354.85709538630266 L112.21225858878061 370.3231714040768 " stroke="rgb(187, 163, 255)" stroke-width="0.2px" fill="none"/>
<path d="M249.59043306373823 375.04896273021046 L113.44970063568351 374.07451375029433 " stroke="rgb(187, 163, 255)" stroke-width="0.2px" fill="none"/>
<path d="M249.55870445708615 383.7315213190905 L114.68714268258641 377.82585609651187 " stroke="rgb(187, 163, 255)" stroke-width="0.2px" fill="none"/>
<path d="M249.53641325214852 389.5367651368473 L115.9245847294893 381.57719844272935 " stroke="rgb(187, 163, 255)" stroke-width="0.2px" fill="none"/>
<path d="M249.5141235994151 395.3420213722379 L117.1620267763922 385.3285407889469 " stroke="rgb(187, 163, 255)" stroke-width="0.2px" fill="none"/>
<path d="M249.49183161837533 401.14730244289626 L118.39948124092892 389.0799328056998 " stroke="rgb(187, 163, 255)" stroke-width="0.2px" fill="none"/>
<path d="M249.4695419656419 406.9525462606531 L119.6369232878318 392.83127515191734 " stroke="rgb(187, 163, 255)" stroke-width="0.2px" fill="none"/>
<path d="M249.44725153680636 412.7577900784099 L120.8743653347347 396.582605080501 " stroke="rgb(187, 163, 255)" stroke-width="0.2px" fill="none"/>
<path d="M249.42496110797083 418.56300906089905 L122.1118073816376 400.33394742671857 " stroke="rgb(187, 163, 255)" stroke-width="0.2px" fill="none"/>
<path d="M249.40267145523742 424.3682901315574 L123.34924942854049 404.0852897729361 " stroke="rgb(187, 163, 255)" stroke-width="0.2px" fill="none"/>
<path d="M249.38038025029977 430.17352153168036 L124.58669147544337 407.83663211915365 " stroke="rgb(187, 163, 255)" stroke-width="0.2px" fill="none"/>
<path d="M249.35809059756633 435.97882743760636 L125.82413352234629 411.58796204773734 " stroke="rgb(187, 163, 255)" stroke-width="0.2px" fill="none"/>
<path d="M249.33580094483293 441.7840340024617 L127.06157556924916 415.3393043939549 " stroke="rgb(187, 163, 255)" stroke-width="0.2px" fill="none"/>
<path d="M249.31350973989527 447.5892778202185 L128.29901761615207 419.0906467401724 " stroke="rgb(187, 163, 255)" stroke-width="0.2px" fill="none"/>
<path d="M249.33356111412996 441.10999242027634 L132.24914144479666 419.07300128249324 " stroke="rgb(187, 163, 255)" stroke-width="0.2px" fill="none"/>
<path d="M249.389268171717 424.50597685551736 L136.19926527344126 419.0553434071802 " stroke="rgb(187, 163, 255)" stroke-width="0.2px" fill="none"/>
<path d="M249.44497755761037 407.90192403785693 L140.14938910208585 419.03769794950097 " stroke="rgb(187, 163, 255)" stroke-width="0.2px" fill="none"/>
<path d="M249.50068616740162 391.29788363783024 L144.09951293073047 419.02005249182173 " stroke="rgb(187, 163, 255)" stroke-width="0.2px" fill="none"/>
<path d="M249.55639477719288 374.69384323780366 L148.0496615946427 419.0023946165087 " stroke="rgb(187, 163, 255)" stroke-width="0.2px" fill="none"/>
<path d="M249.61210493918836 358.08979042014323 L151.999810258555 418.9847491588295 " stroke="rgb(187, 163, 255)" stroke-width="0.2px" fill="none"/>
<path d="M249.6678127728775 341.4857251848489 L155.94993408719958 418.9671037011503 " stroke="rgb(187, 163, 255)" stroke-width="0.2px" fill="none"/>
<path d="M249.7235209946177 324.88170341127307 L159.90005791584423 418.9494582434711 " stroke="rgb(187, 163, 255)" stroke-width="0.2px" fill="none"/>
<path d="M249.77923038051105 308.2776568024295 L163.85018174448882 418.931800368158 " stroke="rgb(187, 163, 255)" stroke-width="0.2px" fill="none"/>
<path d="M249.8349389903023 291.67360708917744 L167.8003428260349 418.91415491047877 " stroke="rgb(187, 163, 255)" stroke-width="0.2px" fill="none"/>
<path d="M249.8906476000936 275.06957134576356 L171.7504666546795 418.89650945279953 " stroke="rgb(187, 163, 255)" stroke-width="0.2px" fill="none"/>
<path d="M249.94635640391036 258.465517752001 L175.70059048332413 418.8788515774865 " stroke="rgb(187, 163, 255)" stroke-width="0.2px" fill="none"/>
<path d="M250.002267382328 241.96886660158174 L179.65071431196873 418.8612061198073 " stroke="rgb(187, 163, 255)" stroke-width="0.2px" fill="none"/>
<path d="M250.05898783525126 225.9017313161798 L183.60085055824715 418.84356066212814 " stroke="rgb(187, 163, 255)" stroke-width="0.2px" fill="none"/>
<path d="M250.11570828817455 209.83462940316878 L187.55097438689174 418.8259027868151 " stroke="rgb(187, 163, 255)" stroke-width="0.2px" fill="none"/>
<path d="M250.1724285470723 193.76750886370704 L191.50109821553636 418.80825732913587 " stroke="rgb(187, 163, 255)" stroke-width="0.2px" fill="none"/>
<path d="M250.22914841791894 177.7003883242453 L195.45122204418095 418.79061187145663 " stroke="rgb(187, 163, 255)" stroke-width="0.2px" fill="none"/>
<path d="M250.2858694529188 161.63328020241735 L199.40135829045937 418.77295399614354 " stroke="rgb(187, 163, 255)" stroke-width="0.2px" fill="none"/>
<path d="M250.34259009986758 145.5661596629556 L203.35148211910396 418.75530853846436 " stroke="rgb(187, 163, 255)" stroke-width="0.2px" fill="none"/>
<path d="M250.39930997071426 129.49905774994463 L207.30160594774858 418.7376630807851 " stroke="rgb(187, 163, 255)" stroke-width="0.2px" fill="none"/>
<path d="M250.4560298415609 113.43190616639825 L211.25172977639318 418.72001762310595 " stroke="rgb(187, 163, 255)" stroke-width="0.2px" fill="none"/>
<path d="M250.51275048850974 97.36481667102109 L215.20189085793928 418.7023597477929 " stroke="rgb(187, 163, 255)" stroke-width="0.2px" fill="none"/>
<path d="M250.56947191156058 81.2977023403763 L219.15201468658387 418.6847142901137 " stroke="rgb(187, 163, 255)" stroke-width="0.2px" fill="none"/>
<path d="M250.62619023020304 65.23058800973148 L223.1021385152285 418.66706883243444 " stroke="rgb(187, 163, 255)" stroke-width="0.2px" fill="none"/>
<path d="M250.68291087715184 49.16346126145277 L227.0522623438731 418.6494109571214 " stroke="rgb(187, 163, 255)" stroke-width="0.2px" fill="none"/>
<path d="M250.67773272384275 51.28923599762775 L231.00242342541918 418.6317654994422 " stroke="rgb(187, 163, 255)" stroke-width="0.2px" fill="none"/>
<path d="M250.65707909436708 57.963267149000686 L234.95254725406377 418.61412004176304 " stroke="rgb(187, 163, 255)" stroke-width="0.2px" fill="none"/>
<path d="M250.6364254648914 64.63731071800744 L238.9026710827084 418.59646216644995 " stroke="rgb(187, 163, 255)" stroke-width="0.2px" fill="none"/>
<path d="M250.61577028321148 71.31131703411275 L242.85280732898684 418.5788167087707 " stroke="rgb(187, 163, 255)" stroke-width="0.2px" fill="none"/>
<path d="M250.59511820594 77.98534818548569 L246.80293115763143 418.5611712510915 " stroke="rgb(187, 163, 255)" stroke-width="0.2px" fill="none"/>
<path d="M250.57446457646432 84.65936691922477 L250.75305498627603 418.5435257934123 " stroke="rgb(187, 163, 255)" stroke-width="0.2px" fill="none"/>
<path d="M250.55381094698865 91.3333856529639 L254.70317881492062 418.52586791809927 " stroke="rgb(187, 163, 255)" stroke-width="0.2px" fill="none"/>
<path d="M250.53315731751292 98.00739196906916 L258.6533026435652 418.50822246042003 " stroke="rgb(187, 163, 255)" stroke-width="0.2px" fill="none"/>
<path d="M250.51250368803724 104.68144795570977 L262.6034388898437 418.49057700274085 " stroke="rgb(187, 163, 255)" stroke-width="0.2px" fill="none"/>
<path d="M250.49185005856157 111.35544185418122 L266.5535627184883 418.4729191274278 " stroke="rgb(187, 163, 255)" stroke-width="0.2px" fill="none"/>
<path d="M250.47119565298377 118.02948542318798 L270.5037175912174 418.4552736697486 " stroke="rgb(187, 163, 255)" stroke-width="0.2px" fill="none"/>
<path d="M250.45054124740597 124.70351657456091 L274.45384141986204 418.4376282120693 " stroke="rgb(187, 163, 255)" stroke-width="0.2px" fill="none"/>
<path d="M250.41035467990818 136.78468220294786 L278.4039714573236 418.41997033675625 " stroke="rgb(187, 163, 255)" stroke-width="0.2px" fill="none"/>
<path d="M250.34087025758146 156.9765371292219 L282.3540952859682 418.40232487907707 " stroke="rgb(187, 163, 255)" stroke-width="0.2px" fill="none"/>
<path d="M250.27138544720367 177.1684665612989 L286.3042253234297 418.3846794213979 " stroke="rgb(187, 163, 255)" stroke-width="0.2px" fill="none"/>
<path d="M250.201901024877 197.3603463228406 L290.25434915207427 418.36702154608486 " stroke="rgb(187, 163, 255)" stroke-width="0.2px" fill="none"/>
<path d="M250.13241582644818 217.55221056233998 L294.2045040248035 418.3493760884056 " stroke="rgb(187, 163, 255)" stroke-width="0.2px" fill="none"/>
<path d="M250.06293101607042 237.74413456170223 L298.154634062265 418.3317306307264 " stroke="rgb(187, 163, 255)" stroke-width="0.2px" fill="none"/>
<path d="M249.99344610867988 257.9360096666312 L302.1047578909096 418.3140851730472 " stroke="rgb(187, 163, 255)" stroke-width="0.2px" fill="none"/>
<path d="M249.92396120128936 278.12787468223274 L306.0548817195542 418.29642729773417 " stroke="rgb(187, 163, 255)" stroke-width="0.2px" fill="none"/>
<path d="M249.85447619688605 298.3197979054929 L310.0050117570157 418.2787818400549 " stroke="rgb(187, 163, 255)" stroke-width="0.2px" fill="none"/>
<path d="M249.78499099845723 318.51167456262607 L313.9551355856603 418.2611363823757 " stroke="rgb(187, 163, 255)" stroke-width="0.2px" fill="none"/>
<path d="M249.71550657613054 338.7035419065339 L317.9052656231218 418.24347850706266 " stroke="rgb(187, 163, 255)" stroke-width="0.2px" fill="none"/>
<path d="M249.6460206015996 358.8954465033433 L321.8553894517664 418.2258330493834 " stroke="rgb(187, 163, 255)" stroke-width="0.2px" fill="none"/>
<path d="M249.576536955375 379.087326264885 L325.80551948922795 418.2081875917042 " stroke="rgb(187, 163, 255)" stroke-width="0.2px" fill="none"/>
<path d="M249.55424575043736 384.8925949179095 L329.7556681531402 418.19052971639115 " stroke="rgb(187, 163, 255)" stroke-width="0.2px" fill="none"/>
<path d="M249.53195532160183 390.69781390039867 L333.70579819060174 418.172884258712 " stroke="rgb(187, 163, 255)" stroke-width="0.2px" fill="none"/>
<path d="M249.50966489276627 396.50307013578936 L337.6559282280632 418.1552388010328 " stroke="rgb(187, 163, 255)" stroke-width="0.2px" fill="none"/>
<path d="M249.48737446393073 402.30835120644764 L341.6060520567079 418.1375809257197 " stroke="rgb(187, 163, 255)" stroke-width="0.2px" fill="none"/>
<path d="M249.4650840350952 408.11359502420447 L345.5561758853525 418.11993546804047 " stroke="rgb(187, 163, 255)" stroke-width="0.2px" fill="none"/>
<path d="M249.4427943823618 413.9188512595951 L349.50630592281397 418.10229001036123 " stroke="rgb(187, 163, 255)" stroke-width="0.2px" fill="none"/>
<path d="M249.4205016252199 419.72409507735193 L353.4564297514586 418.08464455268205 " stroke="rgb(187, 163, 255)" stroke-width="0.2px" fill="none"/>
<path d="M249.3982135246907 425.52930164220726 L357.40658462418776 418.066986677369 " stroke="rgb(187, 163, 255)" stroke-width="0.2px" fill="none"/>
<path d="M249.37592231975307 431.3345578775979 L361.3567084528324 418.0493412196898 " stroke="rgb(187, 163, 255)" stroke-width="0.2px" fill="none"/>
<path d="M249.35363266701967 437.1398389482562 L365.3068446991108 418.0316957620106 " stroke="rgb(187, 163, 255)" stroke-width="0.2px" fill="none"/>
<path d="M249.33134146208204 442.9451076012807 L369.2569685277554 418.01403788669757 " stroke="rgb(187, 163, 255)" stroke-width="0.2px" fill="none"/>
<path d="M249.3090518093486 448.75035141903754 L373.2070923564 417.99639242901833 " stroke="rgb(187, 163, 255)" stroke-width="0.2px" fill="none"/>
<path d="M249.344701283884 437.7892066920119 L374.4109571214137 414.23413498266007 " stroke="rgb(187, 163, 255)" stroke-width="0.2px" fill="none"/>
<path d="M249.40040989367526 421.1851787096191 L375.61484672169496 410.47186511866784 " stroke="rgb(187, 163, 255)" stroke-width="0.2px" fill="none"/>
<path d="M249.45611850346648 404.5811258919586 L376.81871148670865 406.70962008994337 " stroke="rgb(187, 163, 255)" stroke-width="0.2px" fill="none"/>
<path d="M249.511828665462 387.9770606566644 L378.0225762517223 402.9473750612189 " stroke="rgb(187, 163, 255)" stroke-width="0.2px" fill="none"/>
<path d="M249.56753727525324 371.3730450919054 L379.226441016736 399.18513003249444 " stroke="rgb(187, 163, 255)" stroke-width="0.2px" fill="none"/>
<path d="M249.6232466611466 354.76896743897726 L380.4303306170173 395.4228601685023 " stroke="rgb(187, 163, 255)" stroke-width="0.2px" fill="none"/>
<path d="M249.67895449483575 338.1649456654014 L381.63419538203095 391.66061513977786 " stroke="rgb(187, 163, 255)" stroke-width="0.2px" fill="none"/>
<path d="M249.73466349267807 321.560886638924 L382.83806014704464 387.8983701110534 " stroke="rgb(187, 163, 255)" stroke-width="0.2px" fill="none"/>
<path d="M249.79037171441826 304.9568462388974 L384.0419373296922 384.13612508232893 " stroke="rgb(187, 163, 255)" stroke-width="0.2px" fill="none"/>
<path d="M249.84608071226057 288.3528058388708 L385.2458145123396 380.37388005360447 " stroke="rgb(187, 163, 255)" stroke-width="0.2px" fill="none"/>
<path d="M249.90178951607737 271.7487514690061 L386.4496792773533 376.6116101896123 " stroke="rgb(187, 163, 255)" stroke-width="0.2px" fill="none"/>
<path d="M249.95749807736223 255.14472348661332 L387.65354404236695 372.8493651608878 " stroke="rgb(187, 163, 255)" stroke-width="0.2px" fill="none"/>
<path d="M250.0136114729127 238.75544373545276 L388.8574212250145 369.08712013216336 " stroke="rgb(187, 163, 255)" stroke-width="0.2px" fill="none"/>
<path d="M250.07033192583594 222.6883115544593 L390.061298407662 365.3248751034389 " stroke="rgb(187, 163, 255)" stroke-width="0.2px" fill="none"/>
<path d="M250.12705218473369 206.6211879105891 L391.2651631726756 361.56263007471443 " stroke="rgb(187, 163, 255)" stroke-width="0.2px" fill="none"/>
<path d="M250.18377205558033 190.55409220639496 L392.46904035532316 357.80036021072226 " stroke="rgb(187, 163, 255)" stroke-width="0.2px" fill="none"/>
<path d="M250.24049270252914 174.48695924929942 L393.67291753797065 354.0381213908147 " stroke="rgb(187, 163, 255)" stroke-width="0.2px" fill="none"/>
<path d="M250.29721296142688 158.41985112747147 L394.8767823029843 350.27586394445643 " stroke="rgb(187, 163, 255)" stroke-width="0.2px" fill="none"/>
<path d="M250.35393360837566 142.35273679682663 L396.0806594856318 346.51361891573197 " stroke="rgb(187, 163, 255)" stroke-width="0.2px" fill="none"/>
<path d="M250.4106534792223 126.285610048548 L397.28452425064546 342.7513738870075 " stroke="rgb(187, 163, 255)" stroke-width="0.2px" fill="none"/>
<path d="M250.46737335006895 110.21849571790315 L398.48840143329295 338.9891164406492 " stroke="rgb(187, 163, 255)" stroke-width="0.2px" fill="none"/>
<path d="M250.52409477311988 94.15138138725831 L399.6922661983066 335.2268589942908 " stroke="rgb(187, 163, 255)" stroke-width="0.2px" fill="none"/>
<path d="M250.5808146439666 78.08429189188115 L400.89614338095413 331.46461396556634 " stroke="rgb(187, 163, 255)" stroke-width="0.2px" fill="none"/>
<path d="M250.6375337387111 62.01714030833483 L402.1000205636016 327.7023689368419 " stroke="rgb(187, 163, 255)" stroke-width="0.2px" fill="none"/>
<path d="M250.6942528334557 45.95005081295766 L403.30388532861525 323.9401114904836 " stroke="rgb(187, 163, 255)" stroke-width="0.2px" fill="none"/>
<path d="M250.67360075618421 52.624057129062926 L404.5077625112628 320.17785404412535 " stroke="rgb(187, 163, 255)" stroke-width="0.2px" fill="none"/>
<path d="M250.65294867891274 59.29808828043587 L405.7116272762765 316.41560901540083 " stroke="rgb(187, 163, 255)" stroke-width="0.2px" fill="none"/>
<path d="M250.63229504943706 65.9721194318088 L406.9155044589239 312.65336398667637 " stroke="rgb(187, 163, 255)" stroke-width="0.2px" fill="none"/>
<path d="M250.61163986775713 72.64613816554794 L408.1193692239376 308.8911189579519 " stroke="rgb(187, 163, 255)" stroke-width="0.2px" fill="none"/>
<path d="M250.5909877904857 79.32015689928701 L409.32324640658516 305.1288490939598 " stroke="rgb(187, 163, 255)" stroke-width="0.2px" fill="none"/>
<path d="M250.57033260880578 85.99417563302613 L410.5271235892326 301.3666040652353 " stroke="rgb(187, 163, 255)" stroke-width="0.2px" fill="none"/>
<path d="M250.54967975543224 92.66819436676526 L411.7309883542463 297.604346618877 " stroke="rgb(187, 163, 255)" stroke-width="0.2px" fill="none"/>
<path d="M250.52902534985444 99.34221310050434 L412.9348531192599 293.8421015901525 " stroke="rgb(187, 163, 255)" stroke-width="0.2px" fill="none"/>
<path d="M250.5083717203787 106.01624425187728 L414.13873030190746 290.07984414379416 " stroke="rgb(187, 163, 255)" stroke-width="0.2px" fill="none"/>
<path d="M250.48771886700516 112.6902505679826 L415.34260748455495 286.3175991150697 " stroke="rgb(187, 163, 255)" stroke-width="0.2px" fill="none"/>
<path d="M250.46706446142736 119.36429413698934 L416.5464722495686 282.55534787752833 " stroke="rgb(187, 163, 255)" stroke-width="0.2px" fill="none"/>
<path d="M250.44641083195168 126.0383004530946 L417.7503494322161 278.79309663998697 " stroke="rgb(187, 163, 255)" stroke-width="0.2px" fill="none"/>
<path d="M250.39645857154497 140.8230581552562 L418.9542266148636 275.0308454024456 " stroke="rgb(187, 163, 255)" stroke-width="0.2px" fill="none"/>
<path d="M250.32697414921822 161.0149192903471 L420.15809137987725 271.26859416490424 " stroke="rgb(187, 163, 255)" stroke-width="0.2px" fill="none"/>
<path d="M250.25748933884046 181.20684872242416 L421.3619685625248 267.5063429273628 " stroke="rgb(187, 163, 255)" stroke-width="0.2px" fill="none"/>
<path d="M250.18800452846267 201.39871296192356 L422.5658333275384 263.74409789863836 " stroke="rgb(187, 163, 255)" stroke-width="0.2px" fill="none"/>
<path d="M250.11851894198284 221.59062997636676 L423.7697105101859 259.98184045228004 " stroke="rgb(187, 163, 255)" stroke-width="0.2px" fill="none"/>
<path d="M250.0490340830987 241.7825128423169 L424.97357527519955 256.2195954235556 " stroke="rgb(187, 163, 255)" stroke-width="0.2px" fill="none"/>
<path d="M249.97954912720178 261.9743809623269 L426.1774524578471 252.45733797719728 " stroke="rgb(187, 163, 255)" stroke-width="0.2px" fill="none"/>
<path d="M249.910064316824 282.1662506345411 L427.3813172228608 248.69509294847282 " stroke="rgb(187, 163, 255)" stroke-width="0.2px" fill="none"/>
<path d="M249.84057931242072 302.35817696220965 L428.5851944055082 244.93283550211447 " stroke="rgb(187, 163, 255)" stroke-width="0.2px" fill="none"/>
<path d="M249.77109372594083 322.55004430611757 L429.78907158815576 241.1705842645731 " stroke="rgb(187, 163, 255)" stroke-width="0.2px" fill="none"/>
<path d="M249.7016096916652 342.7419737381946 L430.99293635316945 237.4083330270317 " stroke="rgb(187, 163, 255)" stroke-width="0.2px" fill="none"/>
<path d="M249.63212449323635 362.93382245565164 L432.1968135358169 233.64608489389877 " stroke="rgb(187, 163, 255)" stroke-width="0.2px" fill="none"/>
<path d="M249.5720782487262 380.2483874460702 L433.4006783008306 229.88383365635738 " stroke="rgb(187, 163, 255)" stroke-width="0.2px" fill="none"/>
<path d="M249.54978859599277 386.0536188461932 L434.60455548347807 226.12158241881596 " stroke="rgb(187, 163, 255)" stroke-width="0.2px" fill="none"/>
<path d="M249.5274973910551 391.8588874992177 L435.80842024849176 222.3593311812746 " stroke="rgb(187, 163, 255)" stroke-width="0.2px" fill="none"/>
<path d="M249.5052069622196 397.6641064817069 L437.01229743113925 218.59707994373323 " stroke="rgb(187, 163, 255)" stroke-width="0.2px" fill="none"/>
<path d="M249.48291498117985 403.4694123876328 L438.2161621961529 214.83482870619181 " stroke="rgb(187, 163, 255)" stroke-width="0.2px" fill="none"/>
<path d="M249.46062610454854 409.2746437877558 L439.4200393788004 211.07257746865042 " stroke="rgb(187, 163, 255)" stroke-width="0.2px" fill="none"/>
<path d="M249.438335675713 415.0798876055126 L440.6239165614479 207.3103293355175 " stroke="rgb(187, 163, 255)" stroke-width="0.2px" fill="none"/>
<path d="M249.4160467990817 420.8851438409033 L441.82778132646155 203.54807809797614 " stroke="rgb(187, 163, 255)" stroke-width="0.2px" fill="none"/>
<path d="M249.39375559414404 426.6903752410263 L443.0316585091091 199.78582686043472 " stroke="rgb(187, 163, 255)" stroke-width="0.2px" fill="none"/>
<path d="M249.3714643892064 432.4956438940508 L444.2355232741227 196.02357562289336 " stroke="rgb(187, 163, 255)" stroke-width="0.2px" fill="none"/>
<path d="M249.34917318426875 438.3009001294414 L445.4394004567702 192.261324385352 " stroke="rgb(187, 163, 255)" stroke-width="0.2px" fill="none"/>
<path d="M249.32688353153532 444.1061315295644 L446.6432652217839 188.49907314781055 " stroke="rgb(187, 163, 255)" stroke-width="0.2px" fill="none"/>
<path d="M249.3045938788019 449.91138776495507 L447.8471424044314 184.73682191026919 " stroke="rgb(187, 163, 255)" stroke-width="0.2px" fill="none"/>
</svg>