<?xml version="1.0" standalone="no"?>
<!DOCTYPE svg PUBLIC "-//W3C//DTD SVG 1.1//EN" "http://www.w3.org/Graphics/SVG/1.1/DTD/svg11.dtd">
<svg width="500.0px" height="500px" version="1.1" xmlns="http://www.w3.org/2000/svg">
<path d="M297.8087532894312 438.6592978771807 L444.64104594226495 182.42928405883774 " stroke="rgb(187, 163, 255)" stroke-width="0.2px" fill="none"/>
<path d="M294.6920327467905 426.3683859956906 L441.43496189773236 180.1217275809555 " stroke="rgb(187, 163, 255)" stroke-width="0.2px" fill="none"/>
<path d="M291.5753122041499 414.07747411420047 L438.22885301793207 177.81418352070716 " stroke="rgb(187, 163, 255)" stroke-width="0.2px" fill="none"/>
<path d="M288.45860097473457 401.7865622327104 L435.0227689733994 175.5066394604588 " stroke="rgb(187, 163, 255)" stroke-width="0.2px" fill="none"/>
<path d="M285.3418804320939 389.4956503512204 L431.8166600935991 173.19909540021038 " stroke="rgb(187, 163, 255)" stroke-width="0.2px" fill="none"/>
<path d="M282.2251629938617 377.2047384697303 L428.61057604906654 170.8915389223282 " stroke="rgb(187, 163, 255)" stroke-width="0.2px" fill="none"/>
<path d="M279.108448660038 364.9138265882402 L425.40449200453395 168.5839948620798 " stroke="rgb(187, 163, 255)" stroke-width="0.2px" fill="none"/>
<path d="M275.99172966960157 352.6229147067501 L422.1983831247336 166.27645080183146 " stroke="rgb(187, 163, 255)" stroke-width="0.2px" fill="none"/>
<path d="M272.8750153357778 340.3319966164431 L418.992299080201 163.9689067415831 " stroke="rgb(187, 163, 255)" stroke-width="0.2px" fill="none"/>
<path d="M269.7582994497498 328.0410971525869 L415.7862150356684 161.66135026370088 " stroke="rgb(187, 163, 255)" stroke-width="0.2px" fill="none"/>
<path d="M266.64157890710914 315.75017906227987 L412.5801061558682 159.3538062034525 " stroke="rgb(187, 163, 255)" stroke-width="0.2px" fill="none"/>
<path d="M263.52486612548967 303.4592733896068 L409.3740221113355 157.0462621432041 " stroke="rgb(187, 163, 255)" stroke-width="0.2px" fill="none"/>
<path d="M260.40815101556376 291.1683677169336 L406.1679380668029 154.73870566532193 " stroke="rgb(187, 163, 255)" stroke-width="0.2px" fill="none"/>
<path d="M256.6788119403993 276.45330398466973 L402.96182918700265 152.43116160507353 " stroke="rgb(187, 163, 255)" stroke-width="0.2px" fill="none"/>
<path d="M252.5410597987921 260.1221449686728 L399.75564580139934 150.12354303902214 " stroke="rgb(187, 163, 255)" stroke-width="0.2px" fill="none"/>
<path d="M248.40330649303172 243.79098090801216 L396.5496362626697 147.8160734845768 " stroke="rgb(187, 163, 255)" stroke-width="0.2px" fill="none"/>
<path d="M244.26555803790956 227.45983702600648 L393.3434528770664 145.50845491852544 " stroke="rgb(187, 163, 255)" stroke-width="0.2px" fill="none"/>
<path d="M240.12780647837891 211.12868033831595 L390.1373688325338 143.20089844064321 " stroke="rgb(187, 163, 255)" stroke-width="0.2px" fill="none"/>
<path d="M235.99005297859298 194.7975143374 L386.9312847880012 140.89335438039484 " stroke="rgb(187, 163, 255)" stroke-width="0.2px" fill="none"/>
<path d="M231.85230646372608 178.46638248497715 L383.72517590820087 138.58581032014644 " stroke="rgb(187, 163, 255)" stroke-width="0.2px" fill="none"/>
<path d="M227.71455063563383 162.13520717083586 L380.5190918636683 136.2782662598981 " stroke="rgb(187, 163, 255)" stroke-width="0.2px" fill="none"/>
<path d="M223.57680256856273 145.80405669196222 L377.312982983868 133.9707221996497 " stroke="rgb(187, 163, 255)" stroke-width="0.2px" fill="none"/>
<path d="M219.4390545014916 129.47289379545472 L374.1068989393354 131.6631657217675 " stroke="rgb(187, 163, 255)" stroke-width="0.2px" fill="none"/>
<path d="M215.30129712119512 113.14174331658111 L370.90081489480275 129.35562166151914 " stroke="rgb(187, 163, 255)" stroke-width="0.2px" fill="none"/>
<path d="M211.1635428453071 96.81056800243981 L367.6947060150025 127.04806518363692 " stroke="rgb(187, 163, 255)" stroke-width="0.2px" fill="none"/>
<path d="M207.96523534396349 84.18519957124393 L364.48862197046986 124.74052112338858 " stroke="rgb(187, 163, 255)" stroke-width="0.2px" fill="none"/>
<path d="M208.52468079230465 86.38290966022372 L361.2825379259372 122.43297706314021 " stroke="rgb(187, 163, 255)" stroke-width="0.2px" fill="none"/>
<path d="M209.08413244946271 88.5806073315697 L358.076429046137 120.1254330028918 " stroke="rgb(187, 163, 255)" stroke-width="0.2px" fill="none"/>
<path d="M209.64357789780385 90.77831742054948 L354.87034500160433 117.81788894264345 " stroke="rgb(187, 163, 255)" stroke-width="0.2px" fill="none"/>
<path d="M210.20302024173657 92.97602750952927 L351.6642485394379 115.51034488239509 " stroke="rgb(187, 163, 255)" stroke-width="0.2px" fill="none"/>
<path d="M210.76246879448618 95.17372518087525 L348.4581582860884 113.20278840451287 " stroke="rgb(187, 163, 255)" stroke-width="0.2px" fill="none"/>
<path d="M211.32190803401042 97.37141043458736 L345.25206803273886 110.89523192663064 " stroke="rgb(187, 163, 255)" stroke-width="0.2px" fill="none"/>
<path d="M211.88135969116848 99.56914535883482 L342.04597157057236 108.58768786638228 " stroke="rgb(187, 163, 255)" stroke-width="0.2px" fill="none"/>
<path d="M212.44080203510117 101.76683061254698 L338.8398813172229 106.28014380613394 " stroke="rgb(187, 163, 255)" stroke-width="0.2px" fill="none"/>
<path d="M213.0002505878508 103.96454070152677 L335.63378485505643 103.97259974588552 " stroke="rgb(187, 163, 255)" stroke-width="0.2px" fill="none"/>
<path d="M213.55969293178347 106.16225079050656 L332.4276946017069 101.66505568563716 " stroke="rgb(187, 163, 255)" stroke-width="0.2px" fill="none"/>
<path d="M214.1191414845331 108.35994846185254 L329.22159813954045 99.35751162538881 " stroke="rgb(187, 163, 255)" stroke-width="0.2px" fill="none"/>
<path d="M214.67858693287425 110.55765855083233 L326.0155078861909 97.04995514750658 " stroke="rgb(187, 163, 255)" stroke-width="0.2px" fill="none"/>
<path d="M218.37728161604082 125.1487011651714 L322.80941142402446 94.74241108725823 " stroke="rgb(187, 163, 255)" stroke-width="0.2px" fill="none"/>
<path d="M222.86079869724122 142.838142103428 L319.6033211706749 92.434854609376 " stroke="rgb(187, 163, 255)" stroke-width="0.2px" fill="none"/>
<path d="M227.3443002563993 160.52755199759994 L316.3972309173254 90.12731054912764 " stroke="rgb(187, 163, 255)" stroke-width="0.2px" fill="none"/>
<path d="M231.8278018155574 178.2169308476873 L313.19113445515893 87.81976648887924 " stroke="rgb(187, 163, 255)" stroke-width="0.2px" fill="none"/>
<path d="M236.31131734455357 195.90637178594383 L309.9850442018094 85.51222242863088 " stroke="rgb(187, 163, 255)" stroke-width="0.2px" fill="none"/>
<path d="M240.7948243364265 213.59578168011578 L306.77894773964294 83.20467836838252 " stroke="rgb(187, 163, 255)" stroke-width="0.2px" fill="none"/>
<path d="M245.278328611942 231.28517294783703 L303.5728574862934 80.8971218905003 " stroke="rgb(187, 163, 255)" stroke-width="0.2px" fill="none"/>
<path d="M249.76183007408733 248.97456149920077 L300.3666678918732 78.58951574208278 " stroke="rgb(187, 163, 255)" stroke-width="0.2px" fill="none"/>
<path d="M254.2453480284026 266.6640129148359 L297.1605745341152 76.28195926420057 " stroke="rgb(187, 163, 255)" stroke-width="0.2px" fill="none"/>
<path d="M258.7288491995097 284.3533995259444 L293.9544811763572 73.9744152039522 " stroke="rgb(187, 163, 255)" stroke-width="0.2px" fill="none"/>
<path d="M263.2123670568122 302.04284356860944 L290.7483909230077 71.66685872606998 " stroke="rgb(187, 163, 255)" stroke-width="0.2px" fill="none"/>
<path d="M267.69587016817445 319.73224104514753 L287.54229756524967 69.35931466582163 " stroke="rgb(187, 163, 255)" stroke-width="0.2px" fill="none"/>
<path d="M271.2705747775008 333.83985896548194 L284.33620420749173 67.05177060557321 " stroke="rgb(187, 163, 255)" stroke-width="0.2px" fill="none"/>
<path d="M273.48208706648796 342.574795133877 L281.13011084973374 64.74422654532486 " stroke="rgb(187, 163, 255)" stroke-width="0.2px" fill="none"/>
<path d="M275.6936024598836 351.30974371990584 L277.9240174919757 62.4366824850765 " stroke="rgb(187, 163, 255)" stroke-width="0.2px" fill="none"/>
<path d="M277.90512095768764 360.04472335001935 L274.71792413421775 60.12912600719428 " stroke="rgb(187, 163, 255)" stroke-width="0.2px" fill="none"/>
<path d="M280.11663635108323 368.7796719360482 L271.51183077645976 57.82158194694592 " stroke="rgb(187, 163, 255)" stroke-width="0.2px" fill="none"/>
<path d="M282.32814864007037 377.51462052207705 L268.30573897090596 55.51403788669751 " stroke="rgb(187, 163, 255)" stroke-width="0.2px" fill="none"/>
<path d="M284.5396578246491 386.2495691081059 L265.09964561314797 53.20648140881534 " stroke="rgb(187, 163, 255)" stroke-width="0.2px" fill="none"/>
<path d="M286.7511732180447 394.98450527650095 L261.89355225539003 50.89893734856693 " stroke="rgb(187, 163, 255)" stroke-width="0.2px" fill="none"/>
<path d="M288.96268550703184 403.71946628016366 L258.6874596737341 48.59139328831857 " stroke="rgb(187, 163, 255)" stroke-width="0.2px" fill="none"/>
<path d="M291.174197796019 412.4544024485587 L255.48136631597612 46.28384922807022 " stroke="rgb(187, 163, 255)" stroke-width="0.2px" fill="none"/>
<path d="M293.3857287114569 421.1894007051229 L252.27527334626922 43.976292750187994 " stroke="rgb(187, 163, 255)" stroke-width="0.2px" fill="none"/>
<path d="M295.5972316872187 429.9243368735179 L249.06918037656226 41.66874868993964 " stroke="rgb(187, 163, 255)" stroke-width="0.2px" fill="none"/>
<path d="M297.1854004885594 436.2011030832488 L245.88383998935066 44.00486572564183 " stroke="rgb(187, 163, 255)" stroke-width="0.2px" fill="none"/>
<path d="M294.06868615473564 423.9101912017588 L242.69849339332208 46.340970343710154 " stroke="rgb(187, 163, 255)" stroke-width="0.2px" fill="none"/>
<path d="M290.95196561209497 411.6192917379025 L239.51314679729356 48.67707496177853 " stroke="rgb(187, 163, 255)" stroke-width="0.2px" fill="none"/>
<path d="M287.83525127827124 399.32837985641237 L236.327800201265 51.013179579846856 " stroke="rgb(187, 163, 255)" stroke-width="0.2px" fill="none"/>
<path d="M284.71853694444746 387.0374679749223 L233.14245360523648 53.34928419791524 " stroke="rgb(187, 163, 255)" stroke-width="0.2px" fill="none"/>
<path d="M281.6018164018068 374.7465560934323 L229.95711942684179 55.68538881598356 " stroke="rgb(187, 163, 255)" stroke-width="0.2px" fill="none"/>
<path d="M278.4851051723915 362.45564421194223 L226.7717728308132 58.02149343405194 " stroke="rgb(187, 163, 255)" stroke-width="0.2px" fill="none"/>
<path d="M275.36838773415934 350.16473233045207 L223.58642623478468 60.35759805212027 " stroke="rgb(187, 163, 255)" stroke-width="0.2px" fill="none"/>
<path d="M272.2516702959271 337.8738142401451 L220.40107963875613 62.69370267018864 " stroke="rgb(187, 163, 255)" stroke-width="0.2px" fill="none"/>
<path d="M269.1349575143076 325.5829147762889 L217.21568337219225 65.02983212352464 " stroke="rgb(187, 163, 255)" stroke-width="0.2px" fill="none"/>
<path d="M266.01823852387116 313.2920028947988 L214.0303367761637 67.36593674159302 " stroke="rgb(187, 163, 255)" stroke-width="0.2px" fill="none"/>
<path d="M262.90152574225164 301.001106535351 L210.84499018013517 69.70204135966135 " stroke="rgb(187, 163, 255)" stroke-width="0.2px" fill="none"/>
<path d="M259.78480287130463 288.7101667141848 L207.65964358410662 72.03814597772973 " stroke="rgb(187, 163, 255)" stroke-width="0.2px" fill="none"/>
<path d="M255.85126473290165 273.1870828916795 L204.4742969880781 74.37425059579806 " stroke="rgb(187, 163, 255)" stroke-width="0.2px" fill="none"/>
<path d="M251.71351065103914 256.8559184429678 L201.28895039204951 76.71035521386644 " stroke="rgb(187, 163, 255)" stroke-width="0.2px" fill="none"/>
<path d="M247.57575734527876 240.52475399425612 L198.10361621365482 79.04645983193475 " stroke="rgb(187, 163, 255)" stroke-width="0.2px" fill="none"/>
<path d="M243.43801005430976 224.19361593301628 L194.9182696176263 81.38256445000313 " stroke="rgb(187, 163, 255)" stroke-width="0.2px" fill="none"/>
<path d="M239.30025655452383 207.8624514843046 L191.73292302159774 83.71866906807146 " stroke="rgb(187, 163, 255)" stroke-width="0.2px" fill="none"/>
<path d="M235.1625015025337 191.53128548338867 L188.54757642556922 86.05477368613984 " stroke="rgb(187, 163, 255)" stroke-width="0.2px" fill="none"/>
<path d="M231.02475653987102 175.200141213332 L185.36222982954064 88.39087830420816 " stroke="rgb(187, 163, 255)" stroke-width="0.2px" fill="none"/>
<path d="M226.88700536839147 158.86898452564142 L182.17688323351211 90.72698292227655 " stroke="rgb(187, 163, 255)" stroke-width="0.2px" fill="none"/>
<path d="M222.74924798809496 142.537821629134 L178.99148696694823 93.06311237561255 " stroke="rgb(187, 163, 255)" stroke-width="0.2px" fill="none"/>
<path d="M218.6115030254323 126.20668356789416 L175.80614037091968 95.39921699368092 " stroke="rgb(187, 163, 255)" stroke-width="0.2px" fill="none"/>
<path d="M214.47374564513584 109.87550825375287 L172.62079377489115 97.73532161174924 " stroke="rgb(187, 163, 255)" stroke-width="0.2px" fill="none"/>
<path d="M210.3359975780647 93.54434535724538 L169.4354471788626 100.07142622981763 " stroke="rgb(187, 163, 255)" stroke-width="0.2px" fill="none"/>
<path d="M208.07712132922327 84.62473413845962 L166.2501130004679 102.40753084788595 " stroke="rgb(187, 163, 255)" stroke-width="0.2px" fill="none"/>
<path d="M208.63656367315593 86.82243180980554 L163.06476640443935 104.74363546595433 " stroke="rgb(187, 163, 255)" stroke-width="0.2px" fill="none"/>
<path d="M209.1960091214971 89.02015431641918 L159.8794198084108 107.07974008402266 " stroke="rgb(187, 163, 255)" stroke-width="0.2px" fill="none"/>
<path d="M209.75546077865516 91.21786440539897 L156.69407321238228 109.41584470209104 " stroke="rgb(187, 163, 255)" stroke-width="0.2px" fill="none"/>
<path d="M210.31490622699633 93.41556207674495 L153.50872661635373 111.75194932015935 " stroke="rgb(187, 163, 255)" stroke-width="0.2px" fill="none"/>
<path d="M210.87435477974594 95.61325974809093 L150.3233800203252 114.08805393822774 " stroke="rgb(187, 163, 255)" stroke-width="0.2px" fill="none"/>
<path d="M211.43379712367863 97.81096983707072 L147.13803342429662 116.42415855629606 " stroke="rgb(187, 163, 255)" stroke-width="0.2px" fill="none"/>
<path d="M211.99324567642824 100.00865509078282 L143.9526868282681 118.76026317436444 " stroke="rgb(187, 163, 255)" stroke-width="0.2px" fill="none"/>
<path d="M212.55269422917786 102.2063900150303 L140.76734023223955 121.09636779243277 " stroke="rgb(187, 163, 255)" stroke-width="0.2px" fill="none"/>
<path d="M213.11214278192747 104.40408768637627 L137.58199363621102 123.43247241050115 " stroke="rgb(187, 163, 255)" stroke-width="0.2px" fill="none"/>
<path d="M213.6715851258602 106.60177294008838 L134.39664704018247 125.76857702856947 " stroke="rgb(187, 163, 255)" stroke-width="0.2px" fill="none"/>
<path d="M214.23103678301825 108.79949544670204 L131.21130044415395 128.10468164663786 " stroke="rgb(187, 163, 255)" stroke-width="0.2px" fill="none"/>
<path d="M214.79047912695094 110.99720553568181 L128.02595384812537 130.4407862647062 " stroke="rgb(187, 163, 255)" stroke-width="0.2px" fill="none"/>
<path d="M219.27398068610904 128.68658438576918 L124.84060725209683 132.77689088277455 " stroke="rgb(187, 163, 255)" stroke-width="0.2px" fill="none"/>
<path d="M223.7575008717179 146.3760253240257 L121.6552234031668 135.11303275374442 " stroke="rgb(187, 163, 255)" stroke-width="0.2px" fill="none"/>
<path d="M228.241002430876 164.06542900938075 L118.46987680713825 137.44913737181275 " stroke="rgb(187, 163, 255)" stroke-width="0.2px" fill="none"/>
<path d="M232.72450399003412 181.7548140682851 L115.28453021110971 139.78524198988111 " stroke="rgb(187, 163, 255)" stroke-width="0.2px" fill="none"/>
<path d="M237.20801951903027 199.44426121535852 L112.09918361508117 142.12134660794945 " stroke="rgb(187, 163, 255)" stroke-width="0.2px" fill="none"/>
<path d="M241.69152573480108 217.1336555874882 L108.91384943668646 144.45745122601784 " stroke="rgb(187, 163, 255)" stroke-width="0.2px" fill="none"/>
<path d="M246.17502923421443 234.82305306402628 L105.72850284065792 146.79355584408614 " stroke="rgb(187, 163, 255)" stroke-width="0.2px" fill="none"/>
<path d="M250.65853113291726 252.5124414213646 L102.54315624462937 149.12966046215453 " stroke="rgb(187, 163, 255)" stroke-width="0.2px" fill="none"/>
<path d="M255.142048262624 270.2018883744125 L99.35780964860083 151.46576508022287 " stroke="rgb(187, 163, 255)" stroke-width="0.2px" fill="none"/>
<path d="M259.62555137398635 287.8912796421337 L96.1724630525723 153.80186969829123 " stroke="rgb(187, 163, 255)" stroke-width="0.2px" fill="none"/>
<path d="M264.1090661268804 305.5807205803903 L92.98711645654375 156.13797431635956 " stroke="rgb(187, 163, 255)" stroke-width="0.2px" fill="none"/>
<path d="M268.59256768603854 323.2701180569284 L89.80176986051521 158.47407893442795 " stroke="rgb(187, 163, 255)" stroke-width="0.2px" fill="none"/>
<path d="M271.7128815814701 335.58683999034406 L86.61642326448667 160.81018355249626 " stroke="rgb(187, 163, 255)" stroke-width="0.2px" fill="none"/>
<path d="M273.92438766164037 344.321782367556 L83.43107666845812 163.14628817056465 " stroke="rgb(187, 163, 255)" stroke-width="0.2px" fill="none"/>
<path d="M276.13590305503595 353.05672474476796 L80.24573007242958 165.48239278863298 " stroke="rgb(187, 163, 255)" stroke-width="0.2px" fill="none"/>
<path d="M278.34742776165695 361.7917230013322 L77.06033380586568 167.81852845078592 " stroke="rgb(187, 163, 255)" stroke-width="0.2px" fill="none"/>
<path d="M280.5589400506441 370.526671587361 L73.87498720983714 170.1546330688543 " stroke="rgb(187, 163, 255)" stroke-width="0.2px" fill="none"/>
<path d="M282.77044923522277 379.2616077557561 L70.6896406138086 172.49073768692264 " stroke="rgb(187, 163, 255)" stroke-width="0.2px" fill="none"/>
<path d="M284.9819677330268 387.9965563417849 L67.5043064354139 174.826842304991 " stroke="rgb(187, 163, 255)" stroke-width="0.2px" fill="none"/>
<path d="M287.19347691760555 396.73150492781383 L64.31895983938536 177.16294692305934 " stroke="rgb(187, 163, 255)" stroke-width="0.2px" fill="none"/>
<path d="M289.4049892065927 405.4664535138427 L61.13361324335682 179.49905154112773 " stroke="rgb(187, 163, 255)" stroke-width="0.2px" fill="none"/>
<path d="M291.6165077043967 414.20143935277304 L57.948266647328275 181.83515615919603 " stroke="rgb(187, 163, 255)" stroke-width="0.2px" fill="none"/>
<path d="M293.82801999338386 422.93638793880194 L54.76292005129973 184.17126077726442 " stroke="rgb(187, 163, 255)" stroke-width="0.2px" fill="none"/>
<path d="M296.0395353867795 431.6713365248308 L51.577573455271185 186.50736539533276 " stroke="rgb(187, 163, 255)" stroke-width="0.2px" fill="none"/>
<path d="M296.5620601053214 433.7429331245846 L52.81501550217408 190.2587139503672 " stroke="rgb(187, 163, 255)" stroke-width="0.2px" fill="none"/>
<path d="M293.44534577149767 421.4520088254607 L54.05245754907697 194.01005629658474 " stroke="rgb(187, 163, 255)" stroke-width="0.2px" fill="none"/>
<path d="M290.328625228857 409.1611093616045 L55.28989959597987 197.76139864280228 " stroke="rgb(187, 163, 255)" stroke-width="0.2px" fill="none"/>
<path d="M287.2119046862163 396.8701850624806 L56.52734164288275 201.51274098901985 " stroke="rgb(187, 163, 255)" stroke-width="0.2px" fill="none"/>
<path d="M284.0951965612095 384.5792980162582 L57.76478368978565 205.2640584999697 " stroke="rgb(187, 163, 255)" stroke-width="0.2px" fill="none"/>
<path d="M280.9784791229773 372.28836129950037 L59.00221331905471 209.01540084618725 " stroke="rgb(187, 163, 255)" stroke-width="0.2px" fill="none"/>
<path d="M277.8617616847451 359.99747425327797 L60.2396553659576 212.7667431924048 " stroke="rgb(187, 163, 255)" stroke-width="0.2px" fill="none"/>
<path d="M274.74504269430867 347.7065375365203 L61.477097412860495 216.51808553862233 " stroke="rgb(187, 163, 255)" stroke-width="0.2px" fill="none"/>
<path d="M271.62832370387224 335.4156318638471 L62.714539459763394 220.26942788483984 " stroke="rgb(187, 163, 255)" stroke-width="0.2px" fill="none"/>
<path d="M268.51161092225266 323.1247261911739 L63.952006341933945 224.02081990159272 " stroke="rgb(187, 163, 255)" stroke-width="0.2px" fill="none"/>
<path d="M265.3948950362247 310.8338205185008 L65.18944838883685 227.7721622478103 " stroke="rgb(187, 163, 255)" stroke-width="0.2px" fill="none"/>
<path d="M262.2781775979925 298.5428993237853 L66.42689043573974 231.52350459402783 " stroke="rgb(187, 163, 255)" stroke-width="0.2px" fill="none"/>
<path d="M259.16146171196453 286.25199054670367 L67.66433248264262 235.27484694024537 " stroke="rgb(187, 163, 255)" stroke-width="0.2px" fill="none"/>
<path d="M255.0237058838723 269.9208198891751 L68.90177452954553 239.02617686882905 " stroke="rgb(187, 163, 255)" stroke-width="0.2px" fill="none"/>
<path d="M250.88596140627345 253.58969075310966 L70.13921657644842 242.7775192150466 " stroke="rgb(187, 163, 255)" stroke-width="0.2px" fill="none"/>
<path d="M246.74820625727054 237.25852125973418 L71.3766586233513 246.52886156126414 " stroke="rgb(187, 163, 255)" stroke-width="0.2px" fill="none"/>
<path d="M242.6104601304547 220.9273824223923 L72.6141006702542 250.28020390748168 " stroke="rgb(187, 163, 255)" stroke-width="0.2px" fill="none"/>
<path d="M238.47270585456664 204.59621642147636 L73.8515427171571 254.03153383606536 " stroke="rgb(187, 163, 255)" stroke-width="0.2px" fill="none"/>
<path d="M234.33495313088284 188.26506283819427 L75.08898476405999 257.7828761822829 " stroke="rgb(187, 163, 255)" stroke-width="0.2px" fill="none"/>
<path d="M230.19720351160748 171.93391235932066 L76.32642681096289 261.53421852850045 " stroke="rgb(187, 163, 255)" stroke-width="0.2px" fill="none"/>
<path d="M226.05945699674064 155.60275567163006 L77.56386885786577 265.285560874718 " stroke="rgb(187, 163, 255)" stroke-width="0.2px" fill="none"/>
<path d="M221.92169961644413 139.27158656630567 L78.8013233224025 269.0369528914709 " stroke="rgb(187, 163, 255)" stroke-width="0.2px" fill="none"/>
<path d="M217.78395465378148 122.94046092269973 L80.03876536930541 272.78829523768843 " stroke="rgb(187, 163, 255)" stroke-width="0.2px" fill="none"/>
<path d="M213.64620037789342 106.60927319092461 L81.2762074162083 276.53963758390597 " stroke="rgb(187, 163, 255)" stroke-width="0.2px" fill="none"/>
<path d="M209.50845231082232 90.27812271205099 L82.51364946311118 280.29096751248966 " stroke="rgb(187, 163, 255)" stroke-width="0.2px" fill="none"/>
<path d="M208.18901352329996 85.0642811233091 L83.75109151001408 284.04230985870714 " stroke="rgb(187, 163, 255)" stroke-width="0.2px" fill="none"/>
<path d="M208.7484589716411 87.26199121228889 L84.98853355691698 287.7936522049247 " stroke="rgb(187, 163, 255)" stroke-width="0.2px" fill="none"/>
<path d="M209.30790441998226 89.45968888363487 L86.22597560381986 291.5449945511422 " stroke="rgb(187, 163, 255)" stroke-width="0.2px" fill="none"/>
<path d="M209.86735918154878 91.65739897261466 L87.46340523308892 295.29632447972597 " stroke="rgb(187, 163, 255)" stroke-width="0.2px" fill="none"/>
<path d="M210.42679531666457 93.85510906159445 L88.70084727999182 299.0476668259435 " stroke="rgb(187, 163, 255)" stroke-width="0.2px" fill="none"/>
<path d="M210.98624697382263 96.05280673294043 L89.9382893268947 302.79900917216105 " stroke="rgb(187, 163, 255)" stroke-width="0.2px" fill="none"/>
<path d="M211.54568931775532 98.25050440428635 L91.1757313737976 306.5503515183786 " stroke="rgb(187, 163, 255)" stroke-width="0.2px" fill="none"/>
<path d="M212.10513787050493 100.44821449326619 L92.41317342070049 310.3016938645962 " stroke="rgb(187, 163, 255)" stroke-width="0.2px" fill="none"/>
<path d="M212.6645833188461 102.64591216461211 L93.65061546760339 314.0530237931798 " stroke="rgb(187, 163, 255)" stroke-width="0.2px" fill="none"/>
<path d="M213.22403187159568 104.84363467122576 L94.88805751450629 317.80436613939736 " stroke="rgb(187, 163, 255)" stroke-width="0.2px" fill="none"/>
<path d="M213.7834742155284 107.04131992493787 L96.12549956140917 321.5557084856149 " stroke="rgb(187, 163, 255)" stroke-width="0.2px" fill="none"/>
<path d="M214.34291966386957 109.23903001391766 L97.36294160831206 325.30704462301554 " stroke="rgb(187, 163, 255)" stroke-width="0.2px" fill="none"/>
<path d="M215.68717819701916 114.53506392101193 L98.60038365521497 329.0583869692331 " stroke="rgb(187, 163, 255)" stroke-width="0.2px" fill="none"/>
<path d="M220.17067975617726 132.22445518873315 L99.83782570211785 332.8097231066337 " stroke="rgb(187, 163, 255)" stroke-width="0.2px" fill="none"/>
<path d="M224.65419683737767 149.9139147534404 L101.07529258428842 336.5611213322035 " stroke="rgb(187, 163, 255)" stroke-width="0.2px" fill="none"/>
<path d="M229.13769994874 167.60329981234474 L102.3127346311913 340.31245746960417 " stroke="rgb(187, 163, 255)" stroke-width="0.2px" fill="none"/>
<path d="M233.62120461230657 185.29270349769976 L103.5501766780942 344.0637998158217 " stroke="rgb(187, 163, 255)" stroke-width="0.2px" fill="none"/>
<path d="M238.10471858909852 202.98213512273094 L104.78760630736326 347.8151421620392 " stroke="rgb(187, 163, 255)" stroke-width="0.2px" fill="none"/>
<path d="M242.58822402876717 220.67153259926903 L106.02504835426616 351.56647829943984 " stroke="rgb(187, 163, 255)" stroke-width="0.2px" fill="none"/>
<path d="M247.07173140869116 238.36093861293045 L107.26249040116905 355.3178268544743 " stroke="rgb(187, 163, 255)" stroke-width="0.2px" fill="none"/>
<path d="M251.55524499743203 256.0503721782169 L108.49993244807193 359.06915678305796 " stroke="rgb(187, 163, 255)" stroke-width="0.2px" fill="none"/>
<path d="M256.0387496609986 273.739770042806 L109.73737449497484 362.8204991292755 " stroke="rgb(187, 163, 255)" stroke-width="0.2px" fill="none"/>
<path d="M260.5222512201567 291.42915665391456 L110.97481654187773 366.57182905785925 " stroke="rgb(187, 163, 255)" stroke-width="0.2px" fill="none"/>
<path d="M265.00576985356133 309.1186162186219 L112.21225858878061 370.3231714040768 " stroke="rgb(187, 163, 255)" stroke-width="0.2px" fill="none"/>
<path d="M269.48927141271946 326.80799506870926 L113.44970063568351 374.07451375029433 " stroke="rgb(187, 163, 255)" stroke-width="0.2px" fill="none"/>
<path d="M272.1551852810309 337.3338396416569 L114.68714268258641 377.82585609651187 " stroke="rgb(187, 163, 255)" stroke-width="0.2px" fill="none"/>
<path d="M274.36669136120116 346.0687633924181 L115.9245847294893 381.57719844272935 " stroke="rgb(187, 163, 255)" stroke-width="0.2px" fill="none"/>
<path d="M276.57820675459675 354.803711978447 L117.1620267763922 385.3285407889469 " stroke="rgb(187, 163, 255)" stroke-width="0.2px" fill="none"/>
<path d="M278.7897283568093 363.53871023501114 L118.39948124092892 389.0799328056998 " stroke="rgb(187, 163, 255)" stroke-width="0.2px" fill="none"/>
<path d="M281.00124064579643 372.27365882104004 L119.6369232878318 392.83127515191734 " stroke="rgb(187, 163, 255)" stroke-width="0.2px" fill="none"/>
<path d="M283.2127529347836 381.0085949894351 L120.8743653347347 396.582605080501 " stroke="rgb(187, 163, 255)" stroke-width="0.2px" fill="none"/>
<path d="M285.42426211936225 389.7435311578301 L122.1118073816376 400.33394742671857 " stroke="rgb(187, 163, 255)" stroke-width="0.2px" fill="none"/>
<path d="M287.63577440834945 398.478479743859 L123.34924942854049 404.0852897729361 " stroke="rgb(187, 163, 255)" stroke-width="0.2px" fill="none"/>
<path d="M289.84729601056193 407.2134407475217 L124.58669147544337 407.83663211915365 " stroke="rgb(187, 163, 255)" stroke-width="0.2px" fill="none"/>
<path d="M292.0588114039576 415.9484390040859 L125.82413352234629 411.58796204773734 " stroke="rgb(187, 163, 255)" stroke-width="0.2px" fill="none"/>
<path d="M294.2703236929447 424.68337517248096 L127.06157556924916 415.3393043939549 " stroke="rgb(187, 163, 255)" stroke-width="0.2px" fill="none"/>
<path d="M296.48184219074875 433.41831134087596 L128.29901761615207 419.0906467401724 " stroke="rgb(187, 163, 255)" stroke-width="0.2px" fill="none"/>
<path d="M295.93871040885807 431.2847383306528 L132.24914144479666 419.07300128249324 " stroke="rgb(187, 163, 255)" stroke-width="0.2px" fill="none"/>
<path d="M292.82199917944274 418.9938388667965 L136.19926527344126 419.0553434071802 " stroke="rgb(187, 163, 255)" stroke-width="0.2px" fill="none"/>
<path d="M289.705284845619 406.7029269853065 L140.14938910208585 419.03769794950097 " stroke="rgb(187, 163, 255)" stroke-width="0.2px" fill="none"/>
<path d="M286.5885674073868 394.4120275214502 L144.09951293073047 419.02005249182173 " stroke="rgb(187, 163, 255)" stroke-width="0.2px" fill="none"/>
<path d="M283.47185307356307 382.12110322232627 L148.0496615946427 419.0023946165087 " stroke="rgb(187, 163, 255)" stroke-width="0.2px" fill="none"/>
<path d="M280.3551356353309 369.8301913408362 L151.999810258555 418.9847491588295 " stroke="rgb(187, 163, 255)" stroke-width="0.2px" fill="none"/>
<path d="M277.2384150926902 357.5392670417124 L155.94993408719958 418.9671037011503 " stroke="rgb(187, 163, 255)" stroke-width="0.2px" fill="none"/>
<path d="M274.1216992066622 345.248367577856 L159.90005791584423 418.9494582434711 " stroke="rgb(187, 163, 255)" stroke-width="0.2px" fill="none"/>
<path d="M271.00498642504266 332.9574619051829 L163.85018174448882 418.931800368158 " stroke="rgb(187, 163, 255)" stroke-width="0.2px" fill="none"/>
<path d="M267.88826588240204 320.666537606059 L167.8003428260349 418.91415491047877 " stroke="rgb(187, 163, 255)" stroke-width="0.2px" fill="none"/>
<path d="M264.7715515485783 308.3756319333859 L171.7504666546795 418.89650945279953 " stroke="rgb(187, 163, 255)" stroke-width="0.2px" fill="none"/>
<path d="M261.6548341103461 296.08472626071267 L175.70059048332413 418.8788515774865 " stroke="rgb(187, 163, 255)" stroke-width="0.2px" fill="none"/>
<path d="M258.3339110120074 282.9857616926924 L179.65071431196873 418.8612061198073 " stroke="rgb(187, 163, 255)" stroke-width="0.2px" fill="none"/>
<path d="M254.19615828832355 266.6545987961849 L183.60085055824715 418.84356066212814 " stroke="rgb(187, 163, 255)" stroke-width="0.2px" fill="none"/>
<path d="M250.05841063355666 250.32345811560046 L187.55097438689174 418.8259027868151 " stroke="rgb(187, 163, 255)" stroke-width="0.2px" fill="none"/>
<path d="M245.92065904977287 233.99229939064188 L191.50109821553636 418.80825732913587 " stroke="rgb(187, 163, 255)" stroke-width="0.2px" fill="none"/>
<path d="M241.7829039977827 217.6611349419302 L195.45122204418095 418.79061187145663 " stroke="rgb(187, 163, 255)" stroke-width="0.2px" fill="none"/>
<path d="M237.64515825901793 201.32999688069037 L199.40135829045937 418.77295399614354 " stroke="rgb(187, 163, 255)" stroke-width="0.2px" fill="none"/>
<path d="M233.50740320702778 184.99882156654905 L203.35148211910396 418.75530853846436 " stroke="rgb(187, 163, 255)" stroke-width="0.2px" fill="none"/>
<path d="M229.3696566921609 168.66768971412623 L207.30160594774858 418.7376630807851 " stroke="rgb(187, 163, 255)" stroke-width="0.2px" fill="none"/>
<path d="M225.23189620745595 152.33648956471723 L211.25172977639318 418.72001762310595 " stroke="rgb(187, 163, 255)" stroke-width="0.2px" fill="none"/>
<path d="M221.0941512447933 136.0053639211113 L215.20189085793928 418.7023597477929 " stroke="rgb(187, 163, 255)" stroke-width="0.2px" fill="none"/>
<path d="M216.95640317772217 119.67421344223766 L219.15201468658387 418.6847142901137 " stroke="rgb(187, 163, 255)" stroke-width="0.2px" fill="none"/>
<path d="M212.81864890183414 103.34306296336399 L223.1021385152285 418.66706883243444 " stroke="rgb(187, 163, 255)" stroke-width="0.2px" fill="none"/>
<path d="M208.68088841712918 87.01188764922269 L227.0522623438731 418.6494109571214 " stroke="rgb(187, 163, 255)" stroke-width="0.2px" fill="none"/>
<path d="M208.3009088217851 85.5038281081586 L231.00242342541918 418.6317654994422 " stroke="rgb(187, 163, 255)" stroke-width="0.2px" fill="none"/>
<path d="M208.8603511657178 87.70152577950452 L234.95254725406377 418.61412004176304 " stroke="rgb(187, 163, 255)" stroke-width="0.2px" fill="none"/>
<path d="M209.41979661405892 89.89924828611817 L238.9026710827084 418.59646216644995 " stroke="rgb(187, 163, 255)" stroke-width="0.2px" fill="none"/>
<path d="M209.97923895799164 92.09693353983029 L242.85280732898684 418.5788167087707 " stroke="rgb(187, 163, 255)" stroke-width="0.2px" fill="none"/>
<path d="M210.53868751074125 94.29464362881012 L246.80293115763143 418.5611712510915 " stroke="rgb(187, 163, 255)" stroke-width="0.2px" fill="none"/>
<path d="M211.09813295908242 96.49234130015604 L250.75305498627603 418.5435257934123 " stroke="rgb(187, 163, 255)" stroke-width="0.2px" fill="none"/>
<path d="M211.65757840742356 98.69005138913583 L254.70317881492062 418.52586791809927 " stroke="rgb(187, 163, 255)" stroke-width="0.2px" fill="none"/>
<path d="M212.21702385576472 100.88774906048181 L258.6533026435652 418.50822246042003 " stroke="rgb(187, 163, 255)" stroke-width="0.2px" fill="none"/>
<path d="M212.77647240851434 103.08547156709547 L262.6034388898437 418.49057700274085 " stroke="rgb(187, 163, 255)" stroke-width="0.2px" fill="none"/>
<path d="M213.3359178568555 105.28315682080758 L266.5535627184883 418.4729191274278 " stroke="rgb(187, 163, 255)" stroke-width="0.2px" fill="none"/>
<path d="M213.8953633051966 107.48086690978737 L270.5037175912174 418.4552736697486 " stroke="rgb(187, 163, 255)" stroke-width="0.2px" fill="none"/>
<path d="M214.45480564912933 109.67856458113334 L274.45384141986204 418.4376282120693 " stroke="rgb(187, 163, 255)" stroke-width="0.2px" fill="none"/>
<path d="M216.58388347590432 118.07295955924351 L278.4039714573236 418.41997033675625 " stroke="rgb(187, 163, 255)" stroke-width="0.2px" fill="none"/>
<path d="M221.06738193065397 135.76235082696476 L282.3540952859682 418.40232487907707 " stroke="rgb(187, 163, 255)" stroke-width="0.2px" fill="none"/>
<path d="M225.55089901185437 153.4517917652213 L286.3042253234297 418.3846794213979 " stroke="rgb(187, 163, 255)" stroke-width="0.2px" fill="none"/>
<path d="M230.03440367542095 171.14119545057633 L290.25434915207427 418.36702154608486 " stroke="rgb(187, 163, 255)" stroke-width="0.2px" fill="none"/>
<path d="M234.5179036823748 188.83056809184677 L294.2045040248035 418.3493760884056 " stroke="rgb(187, 163, 255)" stroke-width="0.2px" fill="none"/>
<path d="M239.00142231577942 206.52001834332873 L298.154634062265 418.3317306307264 " stroke="rgb(187, 163, 255)" stroke-width="0.2px" fill="none"/>
<path d="M243.48492542714175 224.20941271545837 L302.1047578909096 418.3140851730472 " stroke="rgb(187, 163, 255)" stroke-width="0.2px" fill="none"/>
<path d="M247.96842815045306 241.8988016548732 L306.0548817195542 418.29642729773417 " stroke="rgb(187, 163, 255)" stroke-width="0.2px" fill="none"/>
<path d="M252.45194600775557 259.5882526824572 L310.0050117570157 418.2787818400549 " stroke="rgb(187, 163, 255)" stroke-width="0.2px" fill="none"/>
<path d="M256.93544795496473 277.27764239797426 L313.9551355856603 418.2611363823757 " stroke="rgb(187, 163, 255)" stroke-width="0.2px" fill="none"/>
<path d="M261.4189518424292 294.96703677010396 L317.9052656231218 418.24347850706266 " stroke="rgb(187, 163, 255)" stroke-width="0.2px" fill="none"/>
<path d="M265.9024658192211 312.65647460395195 L321.8553894517664 418.2258330493834 " stroke="rgb(187, 163, 255)" stroke-width="0.2px" fill="none"/>
<path d="M270.3859704827877 330.3458658716732 L325.80551948922795 418.2081875917042 " stroke="rgb(187, 163, 255)" stroke-width="0.2px" fill="none"/>
<path d="M272.5974827717748 339.080820666519 L329.7556681531402 418.19052971639115 " stroke="rgb(187, 163, 255)" stroke-width="0.2px" fill="none"/>
<path d="M274.8089966129662 347.815756834914 L333.70579819060174 418.172884258712 " stroke="rgb(187, 163, 255)" stroke-width="0.2px" fill="none"/>
<path d="M277.0205104541576 356.550699212126 L337.6559282280632 418.1552388010328 " stroke="rgb(187, 163, 255)" stroke-width="0.2px" fill="none"/>
<path d="M279.23203516077854 365.285709886324 L341.6060520567079 418.1375809257197 " stroke="rgb(187, 163, 255)" stroke-width="0.2px" fill="none"/>
<path d="M281.4435381365403 374.0206336370852 L345.5561758853525 418.11993546804047 " stroke="rgb(187, 163, 255)" stroke-width="0.2px" fill="none"/>
<path d="M283.6550535299359 382.7555946407479 L349.50630592281397 418.10229001036123 " stroke="rgb(187, 163, 255)" stroke-width="0.2px" fill="none"/>
<path d="M285.86656581892305 391.49054322677677 L353.4564297514586 418.08464455268205 " stroke="rgb(187, 163, 255)" stroke-width="0.2px" fill="none"/>
<path d="M288.0780750035018 400.225466977538 L357.40658462418776 418.066986677369 " stroke="rgb(187, 163, 255)" stroke-width="0.2px" fill="none"/>
<path d="M290.28958729248893 408.960403145933 L361.3567084528324 418.0493412196898 " stroke="rgb(187, 163, 255)" stroke-width="0.2px" fill="none"/>
<path d="M292.50111199910987 417.6954262377649 L365.3068446991108 418.0316957620106 " stroke="rgb(187, 163, 255)" stroke-width="0.2px" fill="none"/>
<path d="M294.7126273925055 426.43036240615993 L369.2569685277554 418.01403788669757 " stroke="rgb(187, 163, 255)" stroke-width="0.2px" fill="none"/>
<path d="M296.92413968149265 435.16532340982263 L373.2070923564 417.99639242901833 " stroke="rgb(187, 163, 255)" stroke-width="0.2px" fill="none"/>
<path d="M295.31537313002855 428.8265683719886 L374.4109571214137 414.23413498266007 " stroke="rgb(187, 163, 255)" stroke-width="0.2px" fill="none"/>
<path d="M292.1986556917963 416.5356564904985 L375.61484672169496 410.47186511866784 " stroke="rgb(187, 163, 255)" stroke-width="0.2px" fill="none"/>
<path d="M289.08193514915564 404.24471977374077 L376.81871148670865 406.70962008994337 " stroke="rgb(187, 163, 255)" stroke-width="0.2px" fill="none"/>
<path d="M285.9652270241488 391.9538203098845 L378.0225762517223 402.9473750612189 " stroke="rgb(187, 163, 255)" stroke-width="0.2px" fill="none"/>
<path d="M282.8485033770997 379.66292084602827 L379.226441016736 399.18513003249444 " stroke="rgb(187, 163, 255)" stroke-width="0.2px" fill="none"/>
<path d="M279.73178904327597 367.3720089645383 L380.4303306170173 395.4228601685023 " stroke="rgb(187, 163, 255)" stroke-width="0.2px" fill="none"/>
<path d="M276.6150747094522 355.0811095006819 L381.63419538203095 391.66061513977786 " stroke="rgb(187, 163, 255)" stroke-width="0.2px" fill="none"/>
<path d="M273.49835727122 342.7901852015581 L382.83806014704464 387.8983701110534 " stroke="rgb(187, 163, 255)" stroke-width="0.2px" fill="none"/>
<path d="M270.3816444896005 330.4992795288849 L384.0419373296922 384.13612508232893 " stroke="rgb(187, 163, 255)" stroke-width="0.2px" fill="none"/>
<path d="M267.26492239475556 318.20835522976097 L385.2458145123396 380.37388005360447 " stroke="rgb(187, 163, 255)" stroke-width="0.2px" fill="none"/>
<path d="M264.1482080609319 305.9174433482709 L386.4496792773533 376.6116101896123 " stroke="rgb(187, 163, 255)" stroke-width="0.2px" fill="none"/>
<path d="M261.03149217490386 293.6265407800062 L387.65354404236695 372.8493651608878 " stroke="rgb(187, 163, 255)" stroke-width="0.2px" fill="none"/>
<path d="M257.5063618642544 279.7195359430895 L388.8574212250145 369.08712013216336 " stroke="rgb(187, 163, 255)" stroke-width="0.2px" fill="none"/>
<path d="M253.36860952862168 263.3883714943778 L390.061298407662 365.3248751034389 " stroke="rgb(187, 163, 255)" stroke-width="0.2px" fill="none"/>
<path d="M249.2308571929889 247.0572140305851 L391.2651631726756 361.56263007471443 " stroke="rgb(187, 163, 255)" stroke-width="0.2px" fill="none"/>
<path d="M245.09310757371355 230.7260658800178 L392.46904035532316 357.80036021072226 " stroke="rgb(187, 163, 255)" stroke-width="0.2px" fill="none"/>
<path d="M240.95535640223397 214.39490919232728 L393.67291753797065 354.0381213908147 " stroke="rgb(187, 163, 255)" stroke-width="0.2px" fill="none"/>
<path d="M236.81760135024382 198.06374319141133 L394.8767823029843 350.27586394445643 " stroke="rgb(187, 163, 255)" stroke-width="0.2px" fill="none"/>
<path d="M232.67985483537694 181.73259892135468 L396.0806594856318 346.51361891573197 " stroke="rgb(187, 163, 255)" stroke-width="0.2px" fill="none"/>
<path d="M228.5420959028762 165.4014360248472 L397.28452425064546 342.7513738870075 " stroke="rgb(187, 163, 255)" stroke-width="0.2px" fill="none"/>
<path d="M224.40434628360086 149.0702731283397 L398.48840143329295 338.9891164406492 " stroke="rgb(187, 163, 255)" stroke-width="0.2px" fill="none"/>
<path d="M220.266599768734 132.73915369355066 L399.6922661983066 335.2268589942908 " stroke="rgb(187, 163, 255)" stroke-width="0.2px" fill="none"/>
<path d="M216.12885170166288 116.40799079704323 L400.89614338095413 331.46461396556634 " stroke="rgb(187, 163, 255)" stroke-width="0.2px" fill="none"/>
<path d="M211.99109432136638 100.07682790053573 L402.1000205636016 327.7023689368419 " stroke="rgb(187, 163, 255)" stroke-width="0.2px" fill="none"/>
<path d="M207.8533431498868 83.74565258639444 L403.30388532861525 323.9401114904836 " stroke="rgb(187, 163, 255)" stroke-width="0.2px" fill="none"/>
<path d="M208.4127917026364 85.94336267537422 L404.5077625112628 320.17785404412535 " stroke="rgb(187, 163, 255)" stroke-width="0.2px" fill="none"/>
<path d="M208.97224335979448 88.14108518198788 L405.7116272762765 316.41560901540083 " stroke="rgb(187, 163, 255)" stroke-width="0.2px" fill="none"/>
<path d="M209.53167949491024 90.33877043569998 L406.9155044589239 312.65336398667637 " stroke="rgb(187, 163, 255)" stroke-width="0.2px" fill="none"/>
<path d="M210.09113115206836 92.53649294231364 L408.1193692239376 308.8911189579519 " stroke="rgb(187, 163, 255)" stroke-width="0.2px" fill="none"/>
<path d="M210.65057349600102 94.73417819602575 L409.32324640658516 305.1288490939598 " stroke="rgb(187, 163, 255)" stroke-width="0.2px" fill="none"/>
<path d="M211.21002204875063 96.93190070263941 L410.5271235892326 301.3666040652353 " stroke="rgb(187, 163, 255)" stroke-width="0.2px" fill="none"/>
<path d="M211.76947060150025 99.12958595635152 L411.7309883542463 297.604346618877 " stroke="rgb(187, 163, 255)" stroke-width="0.2px" fill="none"/>
<path d="M212.3289160498414 101.32729604533131 L412.9348531192599 293.8421015901525 " stroke="rgb(187, 163, 255)" stroke-width="0.2px" fill="none"/>
<path d="M212.8883583937741 103.5250061343111 L414.13873030190746 290.07984414379416 " stroke="rgb(187, 163, 255)" stroke-width="0.2px" fill="none"/>
<path d="M213.44781005093216 105.72270380565708 L415.34260748455495 286.3175991150697 " stroke="rgb(187, 163, 255)" stroke-width="0.2px" fill="none"/>
<path d="M214.00725239486488 107.92041389463685 L416.5464722495686 282.55534787752833 " stroke="rgb(187, 163, 255)" stroke-width="0.2px" fill="none"/>
<path d="M214.56669784320601 110.11811156598283 L417.7503494322161 278.79309663998697 " stroke="rgb(187, 163, 255)" stroke-width="0.2px" fill="none"/>
<path d="M217.48057633715564 121.6108303622075 L418.9542266148636 275.0308454024456 " stroke="rgb(187, 163, 255)" stroke-width="0.2px" fill="none"/>
<path d="M221.96408410513067 139.30020921229485 L420.15809137987725 271.26859416490424 " stroke="rgb(187, 163, 255)" stroke-width="0.2px" fill="none"/>
<path d="M226.44759808192262 156.98966256818525 L421.3619685625248 267.5063429273628 " stroke="rgb(187, 163, 255)" stroke-width="0.2px" fill="none"/>
<path d="M230.93110584989762 174.6790724623572 L422.5658333275384 263.74409789863836 " stroke="rgb(187, 163, 255)" stroke-width="0.2px" fill="none"/>
<path d="M235.41461982668957 192.36850098297992 L423.7697105101859 259.98184045228004 " stroke="rgb(187, 163, 255)" stroke-width="0.2px" fill="none"/>
<path d="M239.89812060974555 210.0578922507011 L424.97357527519955 256.2195954235556 " stroke="rgb(187, 163, 255)" stroke-width="0.2px" fill="none"/>
<path d="M244.38162837772057 227.74729904046458 L426.1774524578471 252.45733797719728 " stroke="rgb(187, 163, 255)" stroke-width="0.2px" fill="none"/>
<path d="M248.86512916077658 245.4366813830115 L427.3813172228608 248.69509294847282 " stroke="rgb(187, 163, 255)" stroke-width="0.2px" fill="none"/>
<path d="M253.34864701807908 263.1261327986466 L428.5851944055082 244.93283550211447 " stroke="rgb(187, 163, 255)" stroke-width="0.2px" fill="none"/>
<path d="M257.83214935333933 280.81551630534665 L429.78907158815576 241.1705842645731 " stroke="rgb(187, 163, 255)" stroke-width="0.2px" fill="none"/>
<path d="M262.31566798674396 298.50497276564545 L430.99293635316945 237.4083330270317 " stroke="rgb(187, 163, 255)" stroke-width="0.2px" fill="none"/>
<path d="M266.7991679936978 316.19435161573284 L432.1968135358169 233.64608489389877 " stroke="rgb(187, 163, 255)" stroke-width="0.2px" fill="none"/>
<path d="M270.82827107794 332.092865522986 L433.4006783008306 229.88383365635738 " stroke="rgb(187, 163, 255)" stroke-width="0.2px" fill="none"/>
<path d="M273.03978491913136 340.82780790019797 L434.60455548347807 226.12158241881596 " stroke="rgb(187, 163, 255)" stroke-width="0.2px" fill="none"/>
<path d="M275.251300312527 349.5627502774099 L435.80842024849176 222.3593311812746 " stroke="rgb(187, 163, 255)" stroke-width="0.2px" fill="none"/>
<path d="M277.46280794490144 358.2976988634388 L437.01229743113925 218.59707994373323 " stroke="rgb(187, 163, 255)" stroke-width="0.2px" fill="none"/>
<path d="M279.67433575593094 367.03269712000304 L438.2161621961529 214.83482870619181 " stroke="rgb(187, 163, 255)" stroke-width="0.2px" fill="none"/>
<path d="M281.8858480449181 375.7676457060319 L439.4200393788004 211.07257746865042 " stroke="rgb(187, 163, 255)" stroke-width="0.2px" fill="none"/>
<path d="M284.09735722949677 384.50258187442694 L440.6239165614479 207.3103293355175 " stroke="rgb(187, 163, 255)" stroke-width="0.2px" fill="none"/>
<path d="M286.3088695184839 393.23754287808964 L441.82778132646155 203.54807809797614 " stroke="rgb(187, 163, 255)" stroke-width="0.2px" fill="none"/>
<path d="M288.52038180747104 401.97246662885084 L443.0316585091091 199.78582686043472 " stroke="rgb(187, 163, 255)" stroke-width="0.2px" fill="none"/>
<path d="M290.73190030527513 410.7074524677812 L444.2355232741227 196.02357562289336 " stroke="rgb(187, 163, 255)" stroke-width="0.2px" fill="none"/>
<path d="M292.94341880307917 419.4424010538101 L445.4394004567702 192.261324385352 " stroke="rgb(187, 163, 255)" stroke-width="0.2px" fill="none"/>
<path d="M295.1549248832494 428.1773620574728 L446.6432652217839 188.49907314781055 " stroke="rgb(187, 163, 255)" stroke-width="0.2px" fill="none"/>
<path d="M297.36644338105344 436.9122982258678 L447.8471424044314 184.73682191026919 " stroke="rgb(187, 163, 255)" stroke-width="0.2px" fill="none"/>
</svg>