<?xml version="1.0" standalone="no"?>
<!DOCTYPE svg PUBLIC "-//W3C//DTD SVG 1.1//EN" "http://www.w3.org/Graphics/SVG/1.1/DTD/svg11.dtd">
<svg width="500.0px" height="500px" version="1.1" xmlns="http://www.w3.org/2000/svg">
<path d="M240.66540853270257 199.15975459775308 L444.64104594226495 182.42928405883774 " stroke="rgb(187, 163, 255)" stroke-width="0.2px" fill="none"/>
<path d="M238.14732892350042 185.4771984923999 L441.43496189773236 180.1217275809555 " stroke="rgb(187, 163, 255)" stroke-width="0.2px" fill="none"/>
<path d="M235.62925241870673 171.79464859586363 L438.22885301793207 177.81418352070716 " stroke="rgb(187, 163, 255)" stroke-width="0.2px" fill="none"/>
<path d="M233.11117358560668 158.11209869932736 L435.0227689733994 175.5066394604588 " stroke="rgb(187, 163, 255)" stroke-width="0.2px" fill="none"/>
<path d="M230.59309320030238 144.42953638515726 L431.8166600935991 173.19909540021038 " stroke="rgb(187, 163, 255)" stroke-width="0.2px" fill="none"/>
<path d="M228.07501591940658 130.7469926974379 L428.61057604906654 170.8915389223282 " stroke="rgb(187, 163, 255)" stroke-width="0.2px" fill="none"/>
<path d="M225.55694019071498 117.0644365920847 L425.40449200453395 168.5839948620798 " stroke="rgb(187, 163, 255)" stroke-width="0.2px" fill="none"/>
<path d="M223.03885825320648 103.38188048673153 L422.1983831247336 166.27645080183146 " stroke="rgb(187, 163, 255)" stroke-width="0.2px" fill="none"/>
<path d="M220.52078562892336 89.69934921664596 L418.992299080201 163.9689067415831 " stroke="rgb(187, 163, 255)" stroke-width="0.2px" fill="none"/>
<path d="M218.00270369141484 76.01679311129278 L415.7862150356684 161.66135026370088 " stroke="rgb(187, 163, 255)" stroke-width="0.2px" fill="none"/>
<path d="M215.48462796272324 62.33424942357346 L412.5801061558682 159.3538062034525 " stroke="rgb(187, 163, 255)" stroke-width="0.2px" fill="none"/>
<path d="M212.96654912962322 48.65168090058641 L409.3740221113355 157.0462621432041 " stroke="rgb(187, 163, 255)" stroke-width="0.2px" fill="none"/>
<path d="M210.44847029652317 34.96912479523323 L406.1679380668029 154.73870566532193 " stroke="rgb(187, 163, 255)" stroke-width="0.2px" fill="none"/>
<path d="M210.64252066045918 36.03152787560116 L402.96182918700265 152.43116160507353 " stroke="rgb(187, 163, 255)" stroke-width="0.2px" fill="none"/>
<path d="M212.6446809562174 46.9238789111821 L399.75564580139934 150.12354303902214 " stroke="rgb(187, 163, 255)" stroke-width="0.2px" fill="none"/>
<path d="M214.64682572993334 57.81622994676311 L396.5496362626697 147.8160734845768 " stroke="rgb(187, 163, 255)" stroke-width="0.2px" fill="none"/>
<path d="M216.64897981687466 68.70859339997793 L393.3434528770664 145.50845491852544 " stroke="rgb(187, 163, 255)" stroke-width="0.2px" fill="none"/>
<path d="M218.65112769499905 79.60094443555893 L390.1373688325338 143.20089844064321 " stroke="rgb(187, 163, 255)" stroke-width="0.2px" fill="none"/>
<path d="M220.65327867753192 90.49330788877374 L386.9312847880012 140.89335438039484 " stroke="rgb(187, 163, 255)" stroke-width="0.2px" fill="none"/>
<path d="M222.65542655565633 101.38567134198861 L383.72517590820087 138.58581032014644 " stroke="rgb(187, 163, 255)" stroke-width="0.2px" fill="none"/>
<path d="M224.65757753818917 112.27802237756957 L380.5190918636683 136.2782662598981 " stroke="rgb(187, 163, 255)" stroke-width="0.2px" fill="none"/>
<path d="M226.6597254163136 123.17041066605205 L377.312982983868 133.9707221996497 " stroke="rgb(187, 163, 255)" stroke-width="0.2px" fill="none"/>
<path d="M228.66187639884643 134.06274928399924 L374.1068989393354 131.6631657217675 " stroke="rgb(187, 163, 255)" stroke-width="0.2px" fill="none"/>
<path d="M230.66402893358352 144.95512515484788 L370.90081489480275 129.35562166151914 " stroke="rgb(187, 163, 255)" stroke-width="0.2px" fill="none"/>
<path d="M232.66618146832064 155.84748860806275 L367.6947060150025 127.04806518363692 " stroke="rgb(187, 163, 255)" stroke-width="0.2px" fill="none"/>
<path d="M235.01899711712213 168.64425143026307 L364.48862197046986 124.74052112338858 " stroke="rgb(187, 163, 255)" stroke-width="0.2px" fill="none"/>
<path d="M238.7744667743855 189.05863035485626 L361.2825379259372 122.43297706314021 " stroke="rgb(187, 163, 255)" stroke-width="0.2px" fill="none"/>
<path d="M242.52994729707848 209.47305274116783 L358.076429046137 120.1254330028918 " stroke="rgb(187, 163, 255)" stroke-width="0.2px" fill="none"/>
<path d="M246.28541967069924 229.88743942678212 L354.87034500160433 117.81788894264345 " stroke="rgb(187, 163, 255)" stroke-width="0.2px" fill="none"/>
<path d="M250.04089170477533 250.30181983082 L351.6642485394379 115.51034488239509 " stroke="rgb(187, 163, 255)" stroke-width="0.2px" fill="none"/>
<path d="M253.79637411921723 270.7162578119334 L348.4581582860884 113.20278840451287 " stroke="rgb(187, 163, 255)" stroke-width="0.2px" fill="none"/>
<path d="M257.55184610478693 291.13064294534354 L345.25206803273886 110.89523192663064 " stroke="rgb(187, 163, 255)" stroke-width="0.2px" fill="none"/>
<path d="M261.3073165381524 311.5450156611198 L342.04597157057236 108.58768786638228 " stroke="rgb(187, 163, 255)" stroke-width="0.2px" fill="none"/>
<path d="M265.0627993891518 331.95945046506523 L338.8398813172229 106.28014380613394 " stroke="rgb(187, 163, 255)" stroke-width="0.2px" fill="none"/>
<path d="M268.81826904641514 352.37383559847535 L335.63378485505643 103.97259974588552 " stroke="rgb(187, 163, 255)" stroke-width="0.2px" fill="none"/>
<path d="M272.5737464646997 372.7882207318854 L332.4276946017069 101.66505568563716 " stroke="rgb(187, 163, 255)" stroke-width="0.2px" fill="none"/>
<path d="M276.32922698739264 393.20266174464774 L329.22159813954045 99.35751162538881 " stroke="rgb(187, 163, 255)" stroke-width="0.2px" fill="none"/>
<path d="M280.08469509245174 413.6170406692409 L326.0155078861909 97.04995514750658 " stroke="rgb(187, 163, 255)" stroke-width="0.2px" fill="none"/>
<path d="M281.0908804400412 419.07947086972115 L322.80941142402446 94.74241108725823 " stroke="rgb(187, 163, 255)" stroke-width="0.2px" fill="none"/>
<path d="M281.4097404416505 420.8038952627224 L319.6033211706749 92.434854609376 " stroke="rgb(187, 163, 255)" stroke-width="0.2px" fill="none"/>
<path d="M281.72860354766834 422.52833207335743 L316.3972309173254 90.12731054912764 " stroke="rgb(187, 163, 255)" stroke-width="0.2px" fill="none"/>
<path d="M282.04746044486916 424.2527688839925 L313.19113445515893 87.81976648887924 " stroke="rgb(187, 163, 255)" stroke-width="0.2px" fill="none"/>
<path d="M282.36632665529544 425.97719327699366 L309.9850442018094 85.51222242863088 " stroke="rgb(187, 163, 255)" stroke-width="0.2px" fill="none"/>
<path d="M282.68518355249626 427.70163008762876 L306.77894773964294 83.20467836838252 " stroke="rgb(187, 163, 255)" stroke-width="0.2px" fill="none"/>
<path d="M283.0040466585141 429.4260668982638 L303.5728574862934 80.8971218905003 " stroke="rgb(187, 163, 255)" stroke-width="0.2px" fill="none"/>
<path d="M283.32290976453186 431.15050370889884 L300.3666678918732 78.58951574208278 " stroke="rgb(187, 163, 255)" stroke-width="0.2px" fill="none"/>
<path d="M283.64176666173273 432.8749156842663 L297.1605745341152 76.28195926420057 " stroke="rgb(187, 163, 255)" stroke-width="0.2px" fill="none"/>
<path d="M283.96062666334205 434.5993649125351 L293.9544811763572 73.9744152039522 " stroke="rgb(187, 163, 255)" stroke-width="0.2px" fill="none"/>
<path d="M284.2794866649514 436.32378930553637 L290.7483909230077 71.66685872606998 " stroke="rgb(187, 163, 255)" stroke-width="0.2px" fill="none"/>
<path d="M284.59834977096915 438.0482136985376 L287.54229756524967 69.35931466582163 " stroke="rgb(187, 163, 255)" stroke-width="0.2px" fill="none"/>
<path d="M283.366306290376 431.34343648578977 L284.33620420749173 67.05177060557321 " stroke="rgb(187, 163, 255)" stroke-width="0.2px" fill="none"/>
<path d="M279.8079029298662 411.99482582033374 L281.13011084973374 64.74422654532486 " stroke="rgb(187, 163, 255)" stroke-width="0.2px" fill="none"/>
<path d="M276.2494995693565 392.64619031961 L277.9240174919757 62.4366824850765 " stroke="rgb(187, 163, 255)" stroke-width="0.2px" fill="none"/>
<path d="M272.69107292578326 373.2974678954495 L274.71792413421775 60.12912600719428 " stroke="rgb(187, 163, 255)" stroke-width="0.2px" fill="none"/>
<path d="M269.1326680130693 353.94885102117655 L271.51183077645976 57.82158194694592 " stroke="rgb(187, 163, 255)" stroke-width="0.2px" fill="none"/>
<path d="M265.5742631003554 334.6002155204528 L268.30573897090596 55.51403788669751 " stroke="rgb(187, 163, 255)" stroke-width="0.2px" fill="none"/>
<path d="M262.01585663543716 315.2515986461799 L265.09964561314797 53.20648140881534 " stroke="rgb(187, 163, 255)" stroke-width="0.2px" fill="none"/>
<path d="M258.45745482713164 295.9029817719069 L261.89355225539003 50.89893734856693 " stroke="rgb(187, 163, 255)" stroke-width="0.2px" fill="none"/>
<path d="M254.89904797416241 276.5543493755917 L258.6874596737341 48.59139328831857 " stroke="rgb(187, 163, 255)" stroke-width="0.2px" fill="none"/>
<path d="M251.340643643525 257.2057325013187 L255.48136631597612 46.28384922807022 " stroke="rgb(187, 163, 255)" stroke-width="0.2px" fill="none"/>
<path d="M247.78221641787525 237.85698834629898 L252.27527334626922 43.976292750187994 " stroke="rgb(187, 163, 255)" stroke-width="0.2px" fill="none"/>
<path d="M244.22381266931444 218.5083683676176 L249.06918037656226 41.66874868993964 " stroke="rgb(187, 163, 255)" stroke-width="0.2px" fill="none"/>
<path d="M240.1617943182868 196.42323716786552 L245.88383998935066 44.00486572564183 " stroke="rgb(187, 163, 255)" stroke-width="0.2px" fill="none"/>
<path d="M237.64371470908463 182.74068727132925 L242.69849339332208 46.340970343710154 " stroke="rgb(187, 163, 255)" stroke-width="0.2px" fill="none"/>
<path d="M235.1256350998825 169.05813737479298 L239.51314679729356 48.67707496177853 " stroke="rgb(187, 163, 255)" stroke-width="0.2px" fill="none"/>
<path d="M232.60755781898663 155.37559368707366 L236.327800201265 51.013179579846856 " stroke="rgb(187, 163, 255)" stroke-width="0.2px" fill="none"/>
<path d="M230.08947898588661 141.69303758172046 L233.14245360523648 53.34928419791524 " stroke="rgb(187, 163, 255)" stroke-width="0.2px" fill="none"/>
<path d="M227.57140325719502 128.01048147636723 L229.95711942684179 55.68538881598356 " stroke="rgb(187, 163, 255)" stroke-width="0.2px" fill="none"/>
<path d="M225.05332287189074 114.32793778864792 L226.7717728308132 58.02149343405194 " stroke="rgb(187, 163, 255)" stroke-width="0.2px" fill="none"/>
<path d="M222.53524559099495 100.64538168329473 L223.58642623478468 60.35759805212027 " stroke="rgb(187, 163, 255)" stroke-width="0.2px" fill="none"/>
<path d="M220.01716365348642 86.96280074267382 L220.40107963875613 62.69370267018864 " stroke="rgb(187, 163, 255)" stroke-width="0.2px" fill="none"/>
<path d="M217.49909102920327 73.28028189022217 L217.21568337219225 65.02983212352464 " stroke="rgb(187, 163, 255)" stroke-width="0.2px" fill="none"/>
<path d="M214.98100598728635 59.59771336723513 L214.0303367761637 67.36593674159302 " stroke="rgb(187, 163, 255)" stroke-width="0.2px" fill="none"/>
<path d="M212.46293646741165 45.91519451478343 L210.84499018013517 69.70204135966135 " stroke="rgb(187, 163, 255)" stroke-width="0.2px" fill="none"/>
<path d="M209.94485142549468 32.23260115652876 L207.65964358410662 72.03814597772973 " stroke="rgb(187, 163, 255)" stroke-width="0.2px" fill="none"/>
<path d="M211.04295520313758 38.209978214503224 L204.4742969880781 74.37425059579806 " stroke="rgb(187, 163, 255)" stroke-width="0.2px" fill="none"/>
<path d="M213.04510929007893 49.10234166771804 L201.28895039204951 76.71035521386644 " stroke="rgb(187, 163, 255)" stroke-width="0.2px" fill="none"/>
<path d="M215.04726027261177 59.99471753856667 L198.10361621365482 79.04645983193475 " stroke="rgb(187, 163, 255)" stroke-width="0.2px" fill="none"/>
<path d="M217.04940815073618 70.88705615651386 L194.9182696176263 81.38256445000313 " stroke="rgb(187, 163, 255)" stroke-width="0.2px" fill="none"/>
<path d="M219.05155602886057 81.77940719209481 L191.73292302159774 83.71866906807146 " stroke="rgb(187, 163, 255)" stroke-width="0.2px" fill="none"/>
<path d="M221.0537101158019 92.67179548057736 L188.54757642556922 86.05477368613984 " stroke="rgb(187, 163, 255)" stroke-width="0.2px" fill="none"/>
<path d="M223.0558579939263 103.56413409852449 L185.36222982954064 88.39087830420816 " stroke="rgb(187, 163, 255)" stroke-width="0.2px" fill="none"/>
<path d="M225.05800897645915 114.45649755173932 L182.17688323351211 90.72698292227655 " stroke="rgb(187, 163, 255)" stroke-width="0.2px" fill="none"/>
<path d="M227.06015995899202 125.34887342258799 L178.99148696694823 93.06311237561255 " stroke="rgb(187, 163, 255)" stroke-width="0.2px" fill="none"/>
<path d="M229.0623124937291 136.24122445816894 L175.80614037091968 95.39921699368092 " stroke="rgb(187, 163, 255)" stroke-width="0.2px" fill="none"/>
<path d="M231.06446192405772 147.1335941202007 L172.62079377489115 97.73532161174924 " stroke="rgb(187, 163, 255)" stroke-width="0.2px" fill="none"/>
<path d="M233.06661135438637 158.02595757341552 L169.4354471788626 100.07142622981763 " stroke="rgb(187, 163, 255)" stroke-width="0.2px" fill="none"/>
<path d="M235.77009011725227 172.7271197646014 L166.2501130004679 102.40753084788595 " stroke="rgb(187, 163, 255)" stroke-width="0.2px" fill="none"/>
<path d="M239.52556055061774 193.14148627156075 L163.06476640443935 104.74363546595433 " stroke="rgb(187, 163, 255)" stroke-width="0.2px" fill="none"/>
<path d="M243.28104340161707 213.55594280636535 L159.8794198084108 107.07974008402266 " stroke="rgb(187, 163, 255)" stroke-width="0.2px" fill="none"/>
<path d="M247.03651305888044 233.9703077611205 L156.69407321238228 109.41584470209104 " stroke="rgb(187, 163, 255)" stroke-width="0.2px" fill="none"/>
<path d="M250.79198460789272 254.38468746181576 L153.50872661635373 111.75194932015935 " stroke="rgb(187, 163, 255)" stroke-width="0.2px" fill="none"/>
<path d="M254.5474690596027 274.79914011610987 L150.3233800203252 114.08805393822774 " stroke="rgb(187, 163, 255)" stroke-width="0.2px" fill="none"/>
<path d="M258.3029406571213 295.2135205929073 L147.13803342429662 116.42415855629606 " stroke="rgb(187, 163, 255)" stroke-width="0.2px" fill="none"/>
<path d="M262.0584118665889 315.6279026219089 L143.9526868282681 118.76026317436444 " stroke="rgb(187, 163, 255)" stroke-width="0.2px" fill="none"/>
<path d="M265.8138923892819 336.0423374258543 L140.76734023223955 121.09636779243277 " stroke="rgb(187, 163, 255)" stroke-width="0.2px" fill="none"/>
<path d="M269.5693667031579 356.4567225592644 L137.58199363621102 123.43247241050115 " stroke="rgb(187, 163, 255)" stroke-width="0.2px" fill="none"/>
<path d="M273.3248332560129 376.87108906622376 L134.39664704018247 125.76857702856947 " stroke="rgb(187, 163, 255)" stroke-width="0.2px" fill="none"/>
<path d="M277.0803199875227 397.2855300789861 L131.21130044415395 128.10468164663786 " stroke="rgb(187, 163, 255)" stroke-width="0.2px" fill="none"/>
<path d="M280.8357911969904 417.6999214212131 L128.02595384812537 130.4407862647062 " stroke="rgb(187, 163, 255)" stroke-width="0.2px" fill="none"/>
<path d="M281.15465119859965 419.42435823184815 L124.84060725209683 132.77689088277455 " stroke="rgb(187, 163, 255)" stroke-width="0.2px" fill="none"/>
<path d="M281.47351120020903 421.1487826248494 L121.6552234031668 135.11303275374442 " stroke="rgb(187, 163, 255)" stroke-width="0.2px" fill="none"/>
<path d="M281.7923712018183 422.8732070178506 L118.46987680713825 137.44913737181275 " stroke="rgb(187, 163, 255)" stroke-width="0.2px" fill="none"/>
<path d="M282.1112343078361 424.5976438284856 L115.28453021110971 139.78524198988111 " stroke="rgb(187, 163, 255)" stroke-width="0.2px" fill="none"/>
<path d="M282.43010051826235 426.32209305675457 L112.09918361508117 142.12134660794945 " stroke="rgb(187, 163, 255)" stroke-width="0.2px" fill="none"/>
<path d="M282.7489574154632 428.04650503212196 L108.91384943668646 144.45745122601784 " stroke="rgb(187, 163, 255)" stroke-width="0.2px" fill="none"/>
<path d="M283.06781741707255 429.7709294251232 L105.72850284065792 146.79355584408614 " stroke="rgb(187, 163, 255)" stroke-width="0.2px" fill="none"/>
<path d="M283.38667741868187 431.49539107102584 L102.54315624462937 149.12966046215453 " stroke="rgb(187, 163, 255)" stroke-width="0.2px" fill="none"/>
<path d="M283.7055374202912 433.2198154640271 L99.35780964860083 151.46576508022287 " stroke="rgb(187, 163, 255)" stroke-width="0.2px" fill="none"/>
<path d="M284.024400526309 434.9442398570283 L96.1724630525723 153.80186969829123 " stroke="rgb(187, 163, 255)" stroke-width="0.2px" fill="none"/>
<path d="M284.34325742350984 436.6686766676634 L92.98711645654375 156.13797431635956 " stroke="rgb(187, 163, 255)" stroke-width="0.2px" fill="none"/>
<path d="M284.6621236339361 438.39311347829846 L89.80176986051521 158.47407893442795 " stroke="rgb(187, 163, 255)" stroke-width="0.2px" fill="none"/>
<path d="M282.6546268600374 427.47370441859147 L86.61642326448667 160.81018355249626 " stroke="rgb(187, 163, 255)" stroke-width="0.2px" fill="none"/>
<path d="M279.09621729071074 408.12509375313545 L83.43107666845812 163.14628817056465 " stroke="rgb(187, 163, 255)" stroke-width="0.2px" fill="none"/>
<path d="M275.53781858681367 388.7764830876794 L80.24573007242958 165.48239278863298 " stroke="rgb(187, 163, 255)" stroke-width="0.2px" fill="none"/>
<path d="M271.9793872866278 369.4277234106174 L77.06033380586568 167.81852845078592 " stroke="rgb(187, 163, 255)" stroke-width="0.2px" fill="none"/>
<path d="M268.42098082170963 350.07911274516135 L73.87498720983714 170.1546330688543 " stroke="rgb(187, 163, 255)" stroke-width="0.2px" fill="none"/>
<path d="M264.8625790134041 330.7304896620715 L70.6896406138086 172.49073768692264 " stroke="rgb(187, 163, 255)" stroke-width="0.2px" fill="none"/>
<path d="M261.3041756528944 311.3818665789816 L67.5043064354139 174.826842304991 " stroke="rgb(187, 163, 255)" stroke-width="0.2px" fill="none"/>
<path d="M257.7457707401804 292.0332403914833 L64.31895983938536 177.16294692305934 " stroke="rgb(187, 163, 255)" stroke-width="0.2px" fill="none"/>
<path d="M254.18736621551747 272.68462351721035 L61.13361324335682 179.49905154112773 " stroke="rgb(187, 163, 255)" stroke-width="0.2px" fill="none"/>
<path d="M250.62894160921235 253.33589255592653 L57.948266647328275 181.83515615919603 " stroke="rgb(187, 163, 255)" stroke-width="0.2px" fill="none"/>
<path d="M247.07053504728137 233.98726248791763 L54.76292005129973 184.17126077726442 " stroke="rgb(187, 163, 255)" stroke-width="0.2px" fill="none"/>
<path d="M243.5121293584653 214.6386363004193 L51.577573455271185 186.50736539533276 " stroke="rgb(187, 163, 255)" stroke-width="0.2px" fill="none"/>
<path d="M239.65817622336044 193.68672594679492 L52.81501550217408 190.2587139503672 " stroke="rgb(187, 163, 255)" stroke-width="0.2px" fill="none"/>
<path d="M237.14009894246462 180.00417605025865 L54.05245754907697 194.01005629658474 " stroke="rgb(187, 163, 255)" stroke-width="0.2px" fill="none"/>
<path d="M234.6220208854667 166.32161994490545 L55.28989959597987 197.76139864280228 " stroke="rgb(187, 163, 255)" stroke-width="0.2px" fill="none"/>
<path d="M232.10394205236665 152.6390762571861 L56.52734164288275 201.51274098901985 " stroke="rgb(187, 163, 255)" stroke-width="0.2px" fill="none"/>
<path d="M229.58586632367505 138.956513943016 L57.76478368978565 205.2640584999697 " stroke="rgb(187, 163, 255)" stroke-width="0.2px" fill="none"/>
<path d="M227.06778283396233 125.27397025529663 L59.00221331905471 209.01540084618725 " stroke="rgb(187, 163, 255)" stroke-width="0.2px" fill="none"/>
<path d="M224.5497055530665 111.59142656757726 L60.2396553659576 212.7667431924048 " stroke="rgb(187, 163, 255)" stroke-width="0.2px" fill="none"/>
<path d="M222.0316298243749 97.9088580445902 L61.477097412860495 216.51808553862233 " stroke="rgb(187, 163, 255)" stroke-width="0.2px" fill="none"/>
<path d="M219.51355099127488 84.22630193923702 L62.714539459763394 220.26942788483984 " stroke="rgb(187, 163, 255)" stroke-width="0.2px" fill="none"/>
<path d="M216.99546905376639 70.54374583388385 L63.952006341933945 224.02081990159272 " stroke="rgb(187, 163, 255)" stroke-width="0.2px" fill="none"/>
<path d="M214.4773902206663 56.861202146164466 L65.18944838883685 227.7721622478103 " stroke="rgb(187, 163, 255)" stroke-width="0.2px" fill="none"/>
<path d="M211.9593144919747 43.17865845844515 L66.42689043573974 231.52350459402783 " stroke="rgb(187, 163, 255)" stroke-width="0.2px" fill="none"/>
<path d="M209.4412356588747 29.49610235309197 L67.66433248264262 235.27484694024537 " stroke="rgb(187, 163, 255)" stroke-width="0.2px" fill="none"/>
<path d="M211.4433835369991 40.388453388672914 L68.90177452954553 239.02617686882905 " stroke="rgb(187, 163, 255)" stroke-width="0.2px" fill="none"/>
<path d="M213.44553451953195 51.28080442425392 L70.13921657644842 242.7775192150466 " stroke="rgb(187, 163, 255)" stroke-width="0.2px" fill="none"/>
<path d="M215.44768550206481 62.173180295102604 L71.3766586233513 246.52886156126414 " stroke="rgb(187, 163, 255)" stroke-width="0.2px" fill="none"/>
<path d="M217.44983648459768 73.06553133068356 L72.6141006702542 250.28020390748168 " stroke="rgb(187, 163, 255)" stroke-width="0.2px" fill="none"/>
<path d="M219.45198436272207 83.95790720153224 L73.8515427171571 254.03153383606536 " stroke="rgb(187, 163, 255)" stroke-width="0.2px" fill="none"/>
<path d="M221.4541384496634 94.85027065474705 L75.08898476405999 257.7828761822829 " stroke="rgb(187, 163, 255)" stroke-width="0.2px" fill="none"/>
<path d="M223.45628632778778 105.74258443742657 L76.32642681096289 261.53421852850045 " stroke="rgb(187, 163, 255)" stroke-width="0.2px" fill="none"/>
<path d="M225.4584404147291 116.63498514354286 L77.56386885786577 265.285560874718 " stroke="rgb(187, 163, 255)" stroke-width="0.2px" fill="none"/>
<path d="M227.4605945016704 127.52736101439154 L78.8013233224025 269.0369528914709 " stroke="rgb(187, 163, 255)" stroke-width="0.2px" fill="none"/>
<path d="M229.46274082759058 138.41968721470488 L80.03876536930541 272.78829523768843 " stroke="rgb(187, 163, 255)" stroke-width="0.2px" fill="none"/>
<path d="M231.464888705715 149.3120630855535 L81.2762074162083 276.53963758390597 " stroke="rgb(187, 163, 255)" stroke-width="0.2px" fill="none"/>
<path d="M233.4670412404521 160.2044265387684 L82.51364946311118 280.29096751248966 " stroke="rgb(187, 163, 255)" stroke-width="0.2px" fill="none"/>
<path d="M236.52118156517818 176.80998189012283 L83.75109151001408 284.04230985870714 " stroke="rgb(187, 163, 255)" stroke-width="0.2px" fill="none"/>
<path d="M240.27665277464578 197.22436702353292 L84.98853355691698 287.7936522049247 " stroke="rgb(187, 163, 255)" stroke-width="0.2px" fill="none"/>
<path d="M244.03213717784934 217.63881734952062 L86.22597560381986 291.5449945511422 " stroke="rgb(187, 163, 255)" stroke-width="0.2px" fill="none"/>
<path d="M247.7876083873169 238.0531892891948 L87.46340523308892 295.29632447972597 " stroke="rgb(187, 163, 255)" stroke-width="0.2px" fill="none"/>
<path d="M251.54309065623966 258.46762797365074 L88.70084727999182 299.0476668259435 " stroke="rgb(187, 163, 255)" stroke-width="0.2px" fill="none"/>
<path d="M255.29856322388594 278.88201621146936 L89.9382893268947 302.79900917216105 " stroke="rgb(187, 163, 255)" stroke-width="0.2px" fill="none"/>
<path d="M259.0540352094557 299.2963982404709 L91.1757313737976 306.5503515183786 " stroke="rgb(187, 163, 255)" stroke-width="0.2px" fill="none"/>
<path d="M262.80950409061694 319.71076474743035 L92.41317342070049 310.3016938645962 " stroke="rgb(187, 163, 255)" stroke-width="0.2px" fill="none"/>
<path d="M266.5649869416162 340.12520576019267 L93.65061546760339 314.0530237931798 " stroke="rgb(187, 163, 255)" stroke-width="0.2px" fill="none"/>
<path d="M270.32045815108387 360.5395908936028 L94.88805751450629 317.80436613939736 " stroke="rgb(187, 163, 255)" stroke-width="0.2px" fill="none"/>
<path d="M274.07594177818527 380.95403190636506 L96.12549956140917 321.5557084856149 " stroke="rgb(187, 163, 255)" stroke-width="0.2px" fill="none"/>
<path d="M277.8314129876529 401.3683859956906 L97.36294160831206 325.30704462301554 " stroke="rgb(187, 163, 255)" stroke-width="0.2px" fill="none"/>
<path d="M280.8995681643658 418.0448087833401 L98.60038365521497 329.0583869692331 " stroke="rgb(187, 163, 255)" stroke-width="0.2px" fill="none"/>
<path d="M281.21842195715817 419.76924559397514 L99.83782570211785 332.8097231066337 " stroke="rgb(187, 163, 255)" stroke-width="0.2px" fill="none"/>
<path d="M281.53728506317594 421.4936699869764 L101.07529258428842 336.5611213322035 " stroke="rgb(187, 163, 255)" stroke-width="0.2px" fill="none"/>
<path d="M281.8561481691937 423.2181067976115 L102.3127346311913 340.31245746960417 " stroke="rgb(187, 163, 255)" stroke-width="0.2px" fill="none"/>
<path d="M282.17500817080304 424.9425436082465 L103.5501766780942 344.0637998158217 " stroke="rgb(187, 163, 255)" stroke-width="0.2px" fill="none"/>
<path d="M282.4938681724124 426.66698041888156 L104.78760630736326 347.8151421620392 " stroke="rgb(187, 163, 255)" stroke-width="0.2px" fill="none"/>
<path d="M282.8127281740217 428.39140481188275 L106.02504835426616 351.56647829943984 " stroke="rgb(187, 163, 255)" stroke-width="0.2px" fill="none"/>
<path d="M283.13158817563107 430.115829204884 L107.26249040116905 355.3178268544743 " stroke="rgb(187, 163, 255)" stroke-width="0.2px" fill="none"/>
<path d="M283.45044817724033 431.84025359788524 L108.49993244807193 359.06915678305796 " stroke="rgb(187, 163, 255)" stroke-width="0.2px" fill="none"/>
<path d="M283.7693081788497 433.5646904085203 L109.73737449497484 362.8204991292755 " stroke="rgb(187, 163, 255)" stroke-width="0.2px" fill="none"/>
<path d="M284.0881712848675 435.2891272191554 L110.97481654187773 366.57182905785925 " stroke="rgb(187, 163, 255)" stroke-width="0.2px" fill="none"/>
<path d="M284.40703439088526 437.01355161215656 L112.21225858878061 370.3231714040768 " stroke="rgb(187, 163, 255)" stroke-width="0.2px" fill="none"/>
<path d="M284.7258943924946 438.7379884227916 L113.44970063568351 374.07451375029433 " stroke="rgb(187, 163, 255)" stroke-width="0.2px" fill="none"/>
<path d="M281.9429412208819 423.6039847690271 L114.68714268258641 377.82585609651187 " stroke="rgb(187, 163, 255)" stroke-width="0.2px" fill="none"/>
<path d="M278.3845378603722 404.25537410357106 L115.9245847294893 381.57719844272935 " stroke="rgb(187, 163, 255)" stroke-width="0.2px" fill="none"/>
<path d="M274.8261360520666 384.9067386028473 L117.1620267763922 385.3285407889469 " stroke="rgb(187, 163, 255)" stroke-width="0.2px" fill="none"/>
<path d="M271.26770319967653 365.558003761053 L118.39948124092892 389.0799328056998 " stroke="rgb(187, 163, 255)" stroke-width="0.2px" fill="none"/>
<path d="M267.70930294357527 346.20938688678 L119.6369232878318 392.83127515191734 " stroke="rgb(187, 163, 255)" stroke-width="0.2px" fill="none"/>
<path d="M264.15089958306555 326.86077001250703 L120.8743653347347 396.582605080501 " stroke="rgb(187, 163, 255)" stroke-width="0.2px" fill="none"/>
<path d="M260.5924954464537 307.5121531382341 L122.1118073816376 400.33394742671857 " stroke="rgb(187, 163, 255)" stroke-width="0.2px" fill="none"/>
<path d="M257.0340913098418 288.16353005514424 L123.34924942854049 404.0852897729361 " stroke="rgb(187, 163, 255)" stroke-width="0.2px" fill="none"/>
<path d="M253.47568562102575 268.8149023154417 L124.58669147544337 407.83663211915365 " stroke="rgb(187, 163, 255)" stroke-width="0.2px" fill="none"/>
<path d="M249.91726003246637 249.46616490280903 L125.82413352234629 411.58796204773734 " stroke="rgb(187, 163, 255)" stroke-width="0.2px" fill="none"/>
<path d="M246.35885484084068 230.1175397339447 L127.06157556924916 415.3393043939549 " stroke="rgb(187, 163, 255)" stroke-width="0.2px" fill="none"/>
<path d="M242.8004530325352 210.76892596408027 L128.29901761615207 419.0906467401724 " stroke="rgb(187, 163, 255)" stroke-width="0.2px" fill="none"/>
<path d="M239.15456123284255 190.95022714335812 L132.24914144479666 419.07300128249324 " stroke="rgb(187, 163, 255)" stroke-width="0.2px" fill="none"/>
<path d="M236.63648395194673 177.26767724682185 L136.19926527344126 419.0553434071802 " stroke="rgb(187, 163, 255)" stroke-width="0.2px" fill="none"/>
<path d="M234.11840511884668 163.58511493265172 L140.14938910208585 419.03769794950097 " stroke="rgb(187, 163, 255)" stroke-width="0.2px" fill="none"/>
<path d="M231.60032628574663 149.90257124493235 L144.09951293073047 419.02005249182173 " stroke="rgb(187, 163, 255)" stroke-width="0.2px" fill="none"/>
<path d="M229.0822474526466 136.22002755721303 L148.0496615946427 419.0023946165087 " stroke="rgb(187, 163, 255)" stroke-width="0.2px" fill="none"/>
<path d="M226.56417327615924 122.53747145185983 L151.999810258555 418.9847491588295 " stroke="rgb(187, 163, 255)" stroke-width="0.2px" fill="none"/>
<path d="M224.0460897864465 108.85490292887279 L155.94993408719958 418.9671037011503 " stroke="rgb(187, 163, 255)" stroke-width="0.2px" fill="none"/>
<path d="M221.52801405775492 95.1723468235196 L159.90005791584423 418.9494582434711 " stroke="rgb(187, 163, 255)" stroke-width="0.2px" fill="none"/>
<path d="M219.00993832906332 81.48980313580023 L163.85018174448882 418.931800368158 " stroke="rgb(187, 163, 255)" stroke-width="0.2px" fill="none"/>
<path d="M216.49185328714634 67.80724703044704 L167.8003428260349 418.91415491047877 " stroke="rgb(187, 163, 255)" stroke-width="0.2px" fill="none"/>
<path d="M213.97378066286325 54.12470334272768 L171.7504666546795 418.89650945279953 " stroke="rgb(187, 163, 255)" stroke-width="0.2px" fill="none"/>
<path d="M211.45569562094627 40.44214723737449 L175.70059048332413 418.8788515774865 " stroke="rgb(187, 163, 255)" stroke-width="0.2px" fill="none"/>
<path d="M209.8416702015531 31.67457752726166 L179.65071431196873 418.8612061198073 " stroke="rgb(187, 163, 255)" stroke-width="0.2px" fill="none"/>
<path d="M211.84381497526905 42.56692856284266 L183.60085055824715 418.84356066212814 " stroke="rgb(187, 163, 255)" stroke-width="0.2px" fill="none"/>
<path d="M213.8459659578019 53.459304433691344 L187.55097438689174 418.8259027868151 " stroke="rgb(187, 163, 255)" stroke-width="0.2px" fill="none"/>
<path d="M215.84811694033476 64.35164305163849 L191.50109821553636 418.80825732913587 " stroke="rgb(187, 163, 255)" stroke-width="0.2px" fill="none"/>
<path d="M217.85026792286763 75.24403134012097 L195.45122204418095 418.79061187145663 " stroke="rgb(187, 163, 255)" stroke-width="0.2px" fill="none"/>
<path d="M219.85241890540047 86.13638237570198 L199.40135829045937 418.77295399614354 " stroke="rgb(187, 163, 255)" stroke-width="0.2px" fill="none"/>
<path d="M221.85456988793334 97.02872099364912 L203.35148211910396 418.75530853846436 " stroke="rgb(187, 163, 255)" stroke-width="0.2px" fill="none"/>
<path d="M223.85671466164928 107.9210968644978 L207.30160594774858 418.7376630807851 " stroke="rgb(187, 163, 255)" stroke-width="0.2px" fill="none"/>
<path d="M225.85886564418215 118.81346031771261 L211.25172977639318 418.72001762310595 " stroke="rgb(187, 163, 255)" stroke-width="0.2px" fill="none"/>
<path d="M227.86101973112346 129.70581135329363 L215.20189085793928 418.7023597477929 " stroke="rgb(187, 163, 255)" stroke-width="0.2px" fill="none"/>
<path d="M229.86316760924785 140.59816238887458 L219.15201468658387 418.6847142901137 " stroke="rgb(187, 163, 255)" stroke-width="0.2px" fill="none"/>
<path d="M231.86532169618917 151.49053205090635 L223.1021385152285 418.66706883243444 " stroke="rgb(187, 163, 255)" stroke-width="0.2px" fill="none"/>
<path d="M233.8674695743136 162.38288929530427 L227.0522623438731 418.6494109571214 " stroke="rgb(187, 163, 255)" stroke-width="0.2px" fill="none"/>
<path d="M237.27227611751252 180.89286885091187 L231.00242342541918 418.6317654994422 " stroke="rgb(187, 163, 255)" stroke-width="0.2px" fill="none"/>
<path d="M241.02775974461397 201.30730675926577 L234.95254725406377 418.61412004176304 " stroke="rgb(187, 163, 255)" stroke-width="0.2px" fill="none"/>
<path d="M244.7832325062858 221.7216981014928 L238.9026710827084 418.59646216644995 " stroke="rgb(187, 163, 255)" stroke-width="0.2px" fill="none"/>
<path d="M248.53870381276616 242.13607081726906 L242.85280732898684 418.5788167087707 " stroke="rgb(187, 163, 255)" stroke-width="0.2px" fill="none"/>
<path d="M252.2941861787017 262.55050872562293 L246.80293115763143 418.5611712510915 " stroke="rgb(187, 163, 255)" stroke-width="0.2px" fill="none"/>
<path d="M256.0496570001182 282.9648876502161 L250.75305498627603 418.5435257934123 " stroke="rgb(187, 163, 255)" stroke-width="0.2px" fill="none"/>
<path d="M259.8051266573816 303.37926036599237 L254.70317881492062 418.52586791809927 " stroke="rgb(187, 163, 255)" stroke-width="0.2px" fill="none"/>
<path d="M263.5605994190534 323.7936517082194 L258.6533026435652 418.50822246042003 " stroke="rgb(187, 163, 255)" stroke-width="0.2px" fill="none"/>
<path d="M267.3160845983591 344.20809272098177 L262.6034388898437 418.49057700274085 " stroke="rgb(187, 163, 255)" stroke-width="0.2px" fill="none"/>
<path d="M271.07155425562246 364.6224592279411 L266.5535627184883 418.4729191274278 " stroke="rgb(187, 163, 255)" stroke-width="0.2px" fill="none"/>
<path d="M274.82704098713236 385.03691265833726 L270.5037175912174 418.4552736697486 " stroke="rgb(187, 163, 255)" stroke-width="0.2px" fill="none"/>
<path d="M278.5825090921915 405.4512791652966 L274.45384141986204 418.4376282120693 " stroke="rgb(187, 163, 255)" stroke-width="0.2px" fill="none"/>
<path d="M280.96333892292427 418.3896961454671 L278.4039714573236 418.41997033675625 " stroke="rgb(187, 163, 255)" stroke-width="0.2px" fill="none"/>
<path d="M281.28219892453353 420.1141329561022 L282.3540952859682 418.40232487907707 " stroke="rgb(187, 163, 255)" stroke-width="0.2px" fill="none"/>
<path d="M281.6010589261429 421.83856976673724 L286.3042253234297 418.3846794213979 " stroke="rgb(187, 163, 255)" stroke-width="0.2px" fill="none"/>
<path d="M281.9199189277522 423.5629817421046 L290.25434915207427 418.36702154608486 " stroke="rgb(187, 163, 255)" stroke-width="0.2px" fill="none"/>
<path d="M282.23878513817846 425.2874309703735 L294.2045040248035 418.3493760884056 " stroke="rgb(187, 163, 255)" stroke-width="0.2px" fill="none"/>
<path d="M282.55764203537933 427.01186778100856 L298.154634062265 418.3317306307264 " stroke="rgb(187, 163, 255)" stroke-width="0.2px" fill="none"/>
<path d="M282.8765051413971 428.73630459164366 L302.1047578909096 418.3140851730472 " stroke="rgb(187, 163, 255)" stroke-width="0.2px" fill="none"/>
<path d="M283.195362038598 430.460716567011 L306.0548817195542 418.29642729773417 " stroke="rgb(187, 163, 255)" stroke-width="0.2px" fill="none"/>
<path d="M283.51421893579885 432.1851285423784 L310.0050117570157 418.2787818400549 " stroke="rgb(187, 163, 255)" stroke-width="0.2px" fill="none"/>
<path d="M283.8330851462251 433.90957777064733 L313.9551355856603 418.2611363823757 " stroke="rgb(187, 163, 255)" stroke-width="0.2px" fill="none"/>
<path d="M284.15194514783445 435.6340021636485 L317.9052656231218 418.24347850706266 " stroke="rgb(187, 163, 255)" stroke-width="0.2px" fill="none"/>
<path d="M284.4708051494437 437.35842655664976 L321.8553894517664 418.2258330493834 " stroke="rgb(187, 163, 255)" stroke-width="0.2px" fill="none"/>
<path d="M284.7896651510531 439.08288820255245 L325.80551948922795 418.2081875917042 " stroke="rgb(187, 163, 255)" stroke-width="0.2px" fill="none"/>
<path d="M281.23126179054333 419.7342527018287 L329.7556681531402 418.19052971639115 " stroke="rgb(187, 163, 255)" stroke-width="0.2px" fill="none"/>
<path d="M277.6728584300336 400.3856420363727 L333.70579819060174 418.172884258712 " stroke="rgb(187, 163, 255)" stroke-width="0.2px" fill="none"/>
<path d="M274.1144581739323 381.03703137091674 L337.6559282280632 418.1552388010328 " stroke="rgb(187, 163, 255)" stroke-width="0.2px" fill="none"/>
<path d="M270.5560299781549 361.68828411148843 L341.6060520567079 418.1375809257197 " stroke="rgb(187, 163, 255)" stroke-width="0.2px" fill="none"/>
<path d="M266.99762040882825 342.3396548195817 L345.5561758853525 418.11993546804047 " stroke="rgb(187, 163, 255)" stroke-width="0.2px" fill="none"/>
<path d="M263.43921704831854 322.9910441541257 L349.50630592281397 418.10229001036123 " stroke="rgb(187, 163, 255)" stroke-width="0.2px" fill="none"/>
<path d="M259.88081368780877 303.64241486221886 L353.4564297514586 418.08464455268205 " stroke="rgb(187, 163, 255)" stroke-width="0.2px" fill="none"/>
<path d="M256.3224087750948 284.2937948835375 L357.40658462418776 418.066986677369 " stroke="rgb(187, 163, 255)" stroke-width="0.2px" fill="none"/>
<path d="M252.76400580263615 264.9451811136731 L361.3567084528324 418.0493412196898 " stroke="rgb(187, 163, 255)" stroke-width="0.2px" fill="none"/>
<path d="M249.20557847997358 245.59643734670433 L365.3068446991108 418.0316957620106 " stroke="rgb(187, 163, 255)" stroke-width="0.2px" fill="none"/>
<path d="M245.64717424634895 226.24782008438032 L369.2569685277554 418.01403788669757 " stroke="rgb(187, 163, 255)" stroke-width="0.2px" fill="none"/>
<path d="M242.08876894558395 206.89919079247355 L373.2070923564 417.99639242901833 " stroke="rgb(187, 163, 255)" stroke-width="0.2px" fill="none"/>
<path d="M238.65094469012044 188.2137035046536 L374.4109571214137 414.23413498266007 " stroke="rgb(187, 163, 255)" stroke-width="0.2px" fill="none"/>
<path d="M236.1328666331225 174.5311598169343 L375.61484672169496 410.47186511866784 " stroke="rgb(187, 163, 255)" stroke-width="0.2px" fill="none"/>
<path d="M233.6147893522267 160.84860371158112 L376.81871148670865 406.70962008994337 " stroke="rgb(187, 163, 255)" stroke-width="0.2px" fill="none"/>
<path d="M231.09670741471817 147.16604760622786 L378.0225762517223 402.9473750612189 " stroke="rgb(187, 163, 255)" stroke-width="0.2px" fill="none"/>
<path d="M228.57863479043505 133.4834915008747 L379.226441016736 399.18513003249444 " stroke="rgb(187, 163, 255)" stroke-width="0.2px" fill="none"/>
<path d="M226.06055440513077 119.80094781315536 L380.4303306170173 395.4228601685023 " stroke="rgb(187, 163, 255)" stroke-width="0.2px" fill="none"/>
<path d="M223.5424740198265 106.11839170780213 L381.63419538203095 391.66061513977786 " stroke="rgb(187, 163, 255)" stroke-width="0.2px" fill="none"/>
<path d="M221.02439518672645 92.43583560244895 L382.83806014704464 387.8983701110534 " stroke="rgb(187, 163, 255)" stroke-width="0.2px" fill="none"/>
<path d="M218.50631635362637 78.75330433236344 L384.0419373296922 384.13612508232893 " stroke="rgb(187, 163, 255)" stroke-width="0.2px" fill="none"/>
<path d="M215.98824372934328 65.07074822701026 L385.2458145123396 380.37388005360447 " stroke="rgb(187, 163, 255)" stroke-width="0.2px" fill="none"/>
<path d="M213.4701648962432 51.38820453929088 L386.4496792773533 376.6116101896123 " stroke="rgb(187, 163, 255)" stroke-width="0.2px" fill="none"/>
<path d="M210.95208606314316 37.70567326920538 L387.65354404236695 372.8493651608878 " stroke="rgb(187, 163, 255)" stroke-width="0.2px" fill="none"/>
<path d="M210.24209543100613 33.85302786616373 L388.8574212250145 369.08712013216336 " stroke="rgb(187, 163, 255)" stroke-width="0.2px" fill="none"/>
<path d="M212.244246413539 44.74540373701241 L390.061298407662 365.3248751034389 " stroke="rgb(187, 163, 255)" stroke-width="0.2px" fill="none"/>
<path d="M214.24639739607184 55.63776719022723 L391.2651631726756 361.56263007471443 " stroke="rgb(187, 163, 255)" stroke-width="0.2px" fill="none"/>
<path d="M216.2485483786047 66.53013064344205 L392.46904035532316 357.80036021072226 " stroke="rgb(187, 163, 255)" stroke-width="0.2px" fill="none"/>
<path d="M218.25069315232065 77.42248167902305 L393.67291753797065 354.0381213908147 " stroke="rgb(187, 163, 255)" stroke-width="0.2px" fill="none"/>
<path d="M220.25285034367042 88.31485754987173 L394.8767823029843 350.27586394445643 " stroke="rgb(187, 163, 255)" stroke-width="0.2px" fill="none"/>
<path d="M222.25499822179484 99.20719616781886 L396.0806594856318 346.51361891573197 " stroke="rgb(187, 163, 255)" stroke-width="0.2px" fill="none"/>
<path d="M224.25714920432767 110.09957203866749 L397.28452425064546 342.7513738870075 " stroke="rgb(187, 163, 255)" stroke-width="0.2px" fill="none"/>
<path d="M226.25930018686054 120.99193549188236 L398.48840143329295 338.9891164406492 " stroke="rgb(187, 163, 255)" stroke-width="0.2px" fill="none"/>
<path d="M228.2614511693934 131.88429894509719 L399.6922661983066 335.2268589942908 " stroke="rgb(187, 163, 255)" stroke-width="0.2px" fill="none"/>
<path d="M230.26359749531358 142.77662514541052 L400.89614338095413 331.46461396556634 " stroke="rgb(187, 163, 255)" stroke-width="0.2px" fill="none"/>
<path d="M232.2657515822549 153.66901343389299 L402.1000205636016 327.7023689368419 " stroke="rgb(187, 163, 255)" stroke-width="0.2px" fill="none"/>
<path d="M234.26789790817506 164.561364469474 L403.30388532861525 323.9401114904836 " stroke="rgb(187, 163, 255)" stroke-width="0.2px" fill="none"/>
<path d="M238.02337377425536 184.975755811701 L404.5077625112628 320.17785404412535 " stroke="rgb(187, 163, 255)" stroke-width="0.2px" fill="none"/>
<path d="M241.7788527447441 205.3901781980126 L405.7116272762765 316.41560901540083 " stroke="rgb(187, 163, 255)" stroke-width="0.2px" fill="none"/>
<path d="M245.53432628251807 225.80456488362688 L406.9155044589239 312.65336398667637 " stroke="rgb(187, 163, 255)" stroke-width="0.2px" fill="none"/>
<path d="M249.28979637633887 246.21893876355634 L408.1193692239376 308.8911189579519 " stroke="rgb(187, 163, 255)" stroke-width="0.2px" fill="none"/>
<path d="M253.04528034298497 266.6333848209824 L409.32324640658516 305.1288490939598 " stroke="rgb(187, 163, 255)" stroke-width="0.2px" fill="none"/>
<path d="M256.8007515524526 287.04776219337134 L410.5271235892326 301.3666040652353 " stroke="rgb(187, 163, 255)" stroke-width="0.2px" fill="none"/>
<path d="M260.55622120971594 307.46213490914766 L411.7309883542463 297.604346618877 " stroke="rgb(187, 163, 255)" stroke-width="0.2px" fill="none"/>
<path d="M264.311695523592 327.8765262513746 L412.9348531192599 293.8421015901525 " stroke="rgb(187, 163, 255)" stroke-width="0.2px" fill="none"/>
<path d="M268.067176046285 348.29095484650315 L414.13873030190746 290.07984414379416 " stroke="rgb(187, 163, 255)" stroke-width="0.2px" fill="none"/>
<path d="M271.8226488079568 368.7053399799132 L415.34260748455495 286.3175991150697 " stroke="rgb(187, 163, 255)" stroke-width="0.2px" fill="none"/>
<path d="M275.5781355394667 389.11979341030946 L416.5464722495686 282.55534787752833 " stroke="rgb(187, 163, 255)" stroke-width="0.2px" fill="none"/>
<path d="M279.33359898791315 409.53415991726877 L417.7503494322161 278.79309663998697 " stroke="rgb(187, 163, 255)" stroke-width="0.2px" fill="none"/>
<path d="M281.0271096814827 418.73457108996024 L418.9542266148636 275.0308454024456 " stroke="rgb(187, 163, 255)" stroke-width="0.2px" fill="none"/>
<path d="M281.34596968309205 420.4590079005954 L420.15809137987725 271.26859416490424 " stroke="rgb(187, 163, 255)" stroke-width="0.2px" fill="none"/>
<path d="M281.6648296847014 422.1834322935966 L421.3619685625248 267.5063429273628 " stroke="rgb(187, 163, 255)" stroke-width="0.2px" fill="none"/>
<path d="M281.98369279071915 423.9078691042316 L422.5658333275384 263.74409789863836 " stroke="rgb(187, 163, 255)" stroke-width="0.2px" fill="none"/>
<path d="M282.3025558967369 425.6323307501344 L423.7697105101859 259.98184045228004 " stroke="rgb(187, 163, 255)" stroke-width="0.2px" fill="none"/>
<path d="M282.62140968952934 427.3567427255017 L424.97357527519955 256.2195954235556 " stroke="rgb(187, 163, 255)" stroke-width="0.2px" fill="none"/>
<path d="M282.94027589995557 429.08119195377066 L426.1774524578471 252.45733797719728 " stroke="rgb(187, 163, 255)" stroke-width="0.2px" fill="none"/>
<path d="M283.2591327971565 430.80561634677184 L427.3813172228608 248.69509294847282 " stroke="rgb(187, 163, 255)" stroke-width="0.2px" fill="none"/>
<path d="M283.57799279876576 432.5300407397731 L428.5851944055082 244.93283550211447 " stroke="rgb(187, 163, 255)" stroke-width="0.2px" fill="none"/>
<path d="M283.8968559047836 434.2544775504081 L429.78907158815576 241.1705842645731 " stroke="rgb(187, 163, 255)" stroke-width="0.2px" fill="none"/>
<path d="M284.2157128019844 435.9788895257755 L430.99293635316945 237.4083330270317 " stroke="rgb(187, 163, 255)" stroke-width="0.2px" fill="none"/>
<path d="M284.53457590800224 437.70332633641056 L432.1968135358169 233.64608489389877 " stroke="rgb(187, 163, 255)" stroke-width="0.2px" fill="none"/>
<path d="M284.077988825123 435.213168552988 L433.4006783008306 229.88383365635738 " stroke="rgb(187, 163, 255)" stroke-width="0.2px" fill="none"/>
<path d="M280.51958236020477 415.86453305226433 L434.60455548347807 226.12158241881596 " stroke="rgb(187, 163, 255)" stroke-width="0.2px" fill="none"/>
<path d="M276.96117589528654 396.5159223868083 L435.80842024849176 222.3593311812746 " stroke="rgb(187, 163, 255)" stroke-width="0.2px" fill="none"/>
<path d="M273.40277253477683 377.1672744684508 L437.01229743113925 218.59707994373323 " stroke="rgb(187, 163, 255)" stroke-width="0.2px" fill="none"/>
<path d="M269.84434589120366 357.81856446192404 L438.2161621961529 214.83482870619181 " stroke="rgb(187, 163, 255)" stroke-width="0.2px" fill="none"/>
<path d="M266.28594253069394 338.46994137883416 L439.4200393788004 211.07257746865042 " stroke="rgb(187, 163, 255)" stroke-width="0.2px" fill="none"/>
<path d="M262.72753761798 319.1213120869274 L440.6239165614479 207.3103293355175 " stroke="rgb(187, 163, 255)" stroke-width="0.2px" fill="none"/>
<path d="M259.169132705266 299.77269831706286 L441.82778132646155 203.54807809797614 " stroke="rgb(187, 163, 255)" stroke-width="0.2px" fill="none"/>
<path d="M255.61072856865414 280.4240721295646 L443.0316585091091 199.78582686043472 " stroke="rgb(187, 163, 255)" stroke-width="0.2px" fill="none"/>
<path d="M252.0523034772852 261.0753419443829 L444.2355232741227 196.02357562289336 " stroke="rgb(187, 163, 255)" stroke-width="0.2px" fill="none"/>
<path d="M248.49389807950737 241.7267157568846 L445.4394004567702 192.261324385352 " stroke="rgb(187, 163, 255)" stroke-width="0.2px" fill="none"/>
<path d="M244.93549442795933 222.37809733040743 L446.6432652217839 188.49907314781055 " stroke="rgb(187, 163, 255)" stroke-width="0.2px" fill="none"/>
<path d="M241.37708718693904 203.02946493409218 L447.8471424044314 184.73682191026919 " stroke="rgb(187, 163, 255)" stroke-width="0.2px" fill="none"/>
</svg>