<?xml version="1.0" standalone="no"?>
<!DOCTYPE svg PUBLIC "-//W3C//DTD SVG 1.1//EN" "http://www.w3.org/Graphics/SVG/1.1/DTD/svg11.dtd">
<svg width="500.0px" height="500px" version="1.1" xmlns="http://www.w3.org/2000/svg">
<path d="M211.40071965155127 289.8033127515192 L444.64104594226495 182.42928405883774 " stroke="rgb(187, 163, 255)" stroke-width="0.2px" fill="none"/>
<path d="M223.7055392829363 277.11498381237254 L441.43496189773236 180.1217275809555 " stroke="rgb(187, 163, 255)" stroke-width="0.2px" fill="none"/>
<path d="M236.01036046652555 264.4266610820428 L438.22885301793207 177.81418352070716 " stroke="rgb(187, 163, 255)" stroke-width="0.2px" fill="none"/>
<path d="M248.31518009791057 251.73833447120253 L435.0227689733994 175.5066394604588 " stroke="rgb(187, 163, 255)" stroke-width="0.2px" fill="none"/>
<path d="M260.6200012814998 239.05000786036223 L431.8166600935991 173.19909540021038 " stroke="rgb(187, 163, 255)" stroke-width="0.2px" fill="none"/>
<path d="M272.9248240172933 226.36167892121557 L428.61057604906654 170.8915389223282 " stroke="rgb(187, 163, 255)" stroke-width="0.2px" fill="none"/>
<path d="M285.2296436486783 213.67335463868164 L425.40449200453395 168.5839948620798 " stroke="rgb(187, 163, 255)" stroke-width="0.2px" fill="none"/>
<path d="M297.53446948888023 200.98502569953496 L422.1983831247336 166.27645080183146 " stroke="rgb(187, 163, 255)" stroke-width="0.2px" fill="none"/>
<path d="M309.8392860158568 188.29670296920526 L418.992299080201 163.9689067415831 " stroke="rgb(187, 163, 255)" stroke-width="0.2px" fill="none"/>
<path d="M322.14411806487567 175.60836471683322 L415.7862150356684 161.66135026370088 " stroke="rgb(187, 163, 255)" stroke-width="0.2px" fill="none"/>
<path d="M334.44892527862686 162.92005750854582 L412.5801061558682 159.3538062034525 " stroke="rgb(187, 163, 255)" stroke-width="0.2px" fill="none"/>
<path d="M346.75373249237805 150.2317254649907 L409.3740221113355 157.0462621432041 " stroke="rgb(187, 163, 255)" stroke-width="0.2px" fill="none"/>
<path d="M359.0585521237631 137.54339963025254 L406.1679380668029 154.73870566532193 " stroke="rgb(187, 163, 255)" stroke-width="0.2px" fill="none"/>
<path d="M363.7416019542375 132.71434326114877 L402.96182918700265 152.43116160507353 " stroke="rgb(187, 163, 255)" stroke-width="0.2px" fill="none"/>
<path d="M363.34341810769166 133.1248205651911 L399.75564580139934 150.12354303902214 " stroke="rgb(187, 163, 255)" stroke-width="0.2px" fill="none"/>
<path d="M362.94523426114586 133.5353102868672 L396.5496362626697 147.8160734845768 " stroke="rgb(187, 163, 255)" stroke-width="0.2px" fill="none"/>
<path d="M362.54707524986765 133.94576275564185 L393.3434528770664 145.50845491852544 " stroke="rgb(187, 163, 255)" stroke-width="0.2px" fill="none"/>
<path d="M362.1488914033218 134.3562400596841 L390.1373688325338 143.20089844064321 " stroke="rgb(187, 163, 255)" stroke-width="0.2px" fill="none"/>
<path d="M361.7507075567759 134.76671736372643 L386.9312847880012 140.89335438039484 " stroke="rgb(187, 163, 255)" stroke-width="0.2px" fill="none"/>
<path d="M361.35252371023 135.17720708540253 L383.72517590820087 138.58581032014644 " stroke="rgb(187, 163, 255)" stroke-width="0.2px" fill="none"/>
<path d="M360.954352281318 135.5876843894448 L380.5190918636683 136.2782662598981 " stroke="rgb(187, 163, 255)" stroke-width="0.2px" fill="none"/>
<path d="M360.5561684347722 135.99814927585325 L377.312982983868 133.9707221996497 " stroke="rgb(187, 163, 255)" stroke-width="0.2px" fill="none"/>
<path d="M360.1579970058601 136.40862657989555 L374.1068989393354 131.6631657217675 " stroke="rgb(187, 163, 255)" stroke-width="0.2px" fill="none"/>
<path d="M359.75981315931426 136.81911630157168 L370.90081489480275 129.35562166151914 " stroke="rgb(187, 163, 255)" stroke-width="0.2px" fill="none"/>
<path d="M359.36164173040225 137.22958118798013 L367.6947060150025 127.04806518363692 " stroke="rgb(187, 163, 255)" stroke-width="0.2px" fill="none"/>
<path d="M356.5329171604746 140.14635919943018 L364.48862197046986 124.74052112338858 " stroke="rgb(187, 163, 255)" stroke-width="0.2px" fill="none"/>
<path d="M343.98201727938584 153.08836487577898 L361.2825379259372 122.43297706314021 " stroke="rgb(187, 163, 255)" stroke-width="0.2px" fill="none"/>
<path d="M331.43109877184634 166.0303953873954 L358.076429046137 120.1254330028918 " stroke="rgb(187, 163, 255)" stroke-width="0.2px" fill="none"/>
<path d="M318.8801988907576 178.97240727256107 L354.87034500160433 117.81788894264345 " stroke="rgb(187, 163, 255)" stroke-width="0.2px" fill="none"/>
<path d="M306.329292800852 191.91440674009297 L351.6642485394379 115.51034488239509 " stroke="rgb(187, 163, 255)" stroke-width="0.2px" fill="none"/>
<path d="M293.7783649800871 204.85644346052635 L348.4581582860884 113.20278840451287 " stroke="rgb(187, 163, 255)" stroke-width="0.2px" fill="none"/>
<path d="M281.22746820340683 217.79845224128357 L345.25206803273886 110.89523192663064 " stroke="rgb(187, 163, 255)" stroke-width="0.2px" fill="none"/>
<path d="M268.6765683223181 230.74045326101967 L342.04597157057236 108.58768786638228 " stroke="rgb(187, 163, 255)" stroke-width="0.2px" fill="none"/>
<path d="M256.12564011350213 243.6824911456062 L338.8398813172229 106.28014380613394 " stroke="rgb(187, 163, 255)" stroke-width="0.2px" fill="none"/>
<path d="M243.57474178461763 256.6244956578018 L335.63378485505643 103.97259974588552 " stroke="rgb(187, 163, 255)" stroke-width="0.2px" fill="none"/>
<path d="M231.02384539598842 269.5664982297421 L332.4276946017069 101.66505568563716 " stroke="rgb(187, 163, 255)" stroke-width="0.2px" fill="none"/>
<path d="M218.47290670979393 282.5085458156051 L329.22159813954045 99.35751162538881 " stroke="rgb(187, 163, 255)" stroke-width="0.2px" fill="none"/>
<path d="M205.92201614193056 295.4505359699115 L326.0155078861909 97.04995514750658 " stroke="rgb(187, 163, 255)" stroke-width="0.2px" fill="none"/>
<path d="M197.52486755351754 304.10943586192786 L322.80941142402446 94.74241108725823 " stroke="rgb(187, 163, 255)" stroke-width="0.2px" fill="none"/>
<path d="M190.16614669894588 311.69758491923074 L319.6033211706749 92.434854609376 " stroke="rgb(187, 163, 255)" stroke-width="0.2px" fill="none"/>
<path d="M182.80744447082503 319.28570293244906 L316.3972309173254 90.12731054912764 " stroke="rgb(187, 163, 255)" stroke-width="0.2px" fill="none"/>
<path d="M175.44874845152106 326.87382094566743 L313.19113445515893 87.81976648887924 " stroke="rgb(187, 163, 255)" stroke-width="0.2px" fill="none"/>
<path d="M168.0900089704987 334.4619762117872 L309.9850442018094 85.51222242863088 " stroke="rgb(187, 163, 255)" stroke-width="0.2px" fill="none"/>
<path d="M160.73131295119472 342.0501004338224 L306.77894773964294 83.20467836838252 " stroke="rgb(187, 163, 255)" stroke-width="0.2px" fill="none"/>
<path d="M153.37261072307385 349.6382122382239 L303.5728574862934 80.8971218905003 " stroke="rgb(187, 163, 255)" stroke-width="0.2px" fill="none"/>
<path d="M146.01390849495297 357.22633025144216 L300.3666678918732 78.58951574208278 " stroke="rgb(187, 163, 255)" stroke-width="0.2px" fill="none"/>
<path d="M138.65518764038134 364.814485517562 L297.1605745341152 76.28195926420057 " stroke="rgb(187, 163, 255)" stroke-width="0.2px" fill="none"/>
<path d="M131.29648541226047 372.4025911131465 L293.9544811763572 73.9744152039522 " stroke="rgb(187, 163, 255)" stroke-width="0.2px" fill="none"/>
<path d="M123.93775834887192 379.99074637926634 L290.7483909230077 71.66685872606998 " stroke="rgb(187, 163, 255)" stroke-width="0.2px" fill="none"/>
<path d="M116.57905612075106 387.57886439248466 L287.54229756524967 69.35931466582163 " stroke="rgb(187, 163, 255)" stroke-width="0.2px" fill="none"/>
<path d="M115.36502131362673 388.8308102357065 L284.33620420749173 67.05177060557321 " stroke="rgb(187, 163, 255)" stroke-width="0.2px" fill="none"/>
<path d="M123.36798763799717 380.57853507683535 L281.13011084973374 64.74422654532486 " stroke="rgb(187, 163, 255)" stroke-width="0.2px" fill="none"/>
<path d="M131.37095396236762 372.32625991796414 L277.9240174919757 62.4366824850765 " stroke="rgb(187, 163, 255)" stroke-width="0.2px" fill="none"/>
<path d="M139.3739699572734 364.07392267092376 L274.71792413421775 60.12912600719428 " stroke="rgb(187, 163, 255)" stroke-width="0.2px" fill="none"/>
<path d="M147.37693628164385 355.8216475120526 L271.51183077645976 57.82158194694592 " stroke="rgb(187, 163, 255)" stroke-width="0.2px" fill="none"/>
<path d="M155.37990881483123 347.5693537267306 L268.30573897090596 55.51403788669751 " stroke="rgb(187, 163, 255)" stroke-width="0.2px" fill="none"/>
<path d="M163.3828751392017 339.3170537325917 L265.09964561314797 53.20648140881534 " stroke="rgb(187, 163, 255)" stroke-width="0.2px" fill="none"/>
<path d="M171.38582283712137 331.0647847825374 L261.89355225539003 50.89893734856693 " stroke="rgb(187, 163, 255)" stroke-width="0.2px" fill="none"/>
<path d="M179.3888077879426 322.8124972060324 L258.6874596737341 48.59139328831857 " stroke="rgb(187, 163, 255)" stroke-width="0.2px" fill="none"/>
<path d="M187.39177411231304 314.5602158383443 L255.48136631597612 46.28384922807022 " stroke="rgb(187, 163, 255)" stroke-width="0.2px" fill="none"/>
<path d="M195.39479010721882 306.30787859130385 L252.27527334626922 43.976292750187994 " stroke="rgb(187, 163, 255)" stroke-width="0.2px" fill="none"/>
<path d="M203.39775953599772 298.0555879103904 L249.06918037656226 41.66874868993964 " stroke="rgb(187, 163, 255)" stroke-width="0.2px" fill="none"/>
<path d="M213.86168357782825 287.2656482054532 L245.88383998935066 44.00486572564183 " stroke="rgb(187, 163, 255)" stroke-width="0.2px" fill="none"/>
<path d="M226.16650631362177 274.5773192663066 L242.69849339332208 46.340970343710154 " stroke="rgb(187, 163, 255)" stroke-width="0.2px" fill="none"/>
<path d="M238.47132439280256 261.8889934315684 L239.51314679729356 48.67707496177853 " stroke="rgb(187, 163, 255)" stroke-width="0.2px" fill="none"/>
<path d="M250.77614402418757 249.2006692945536 L236.327800201265 51.013179579846856 " stroke="rgb(187, 163, 255)" stroke-width="0.2px" fill="none"/>
<path d="M263.0809698643895 236.51233865768356 L233.14245360523648 53.34928419791524 " stroke="rgb(187, 163, 255)" stroke-width="0.2px" fill="none"/>
<path d="M275.3857863913661 223.8240128229454 L229.95711942684179 55.68538881598356 " stroke="rgb(187, 163, 255)" stroke-width="0.2px" fill="none"/>
<path d="M287.6906075749553 211.13568698820723 L226.7717728308132 58.02149343405194 " stroke="rgb(187, 163, 255)" stroke-width="0.2px" fill="none"/>
<path d="M299.99542720634037 198.44736115346905 L223.58642623478468 60.35759805212027 " stroke="rgb(187, 163, 255)" stroke-width="0.2px" fill="none"/>
<path d="M312.30024994213386 185.75903531873084 L220.40107963875613 62.69370267018864 " stroke="rgb(187, 163, 255)" stroke-width="0.2px" fill="none"/>
<path d="M324.60506957351885 173.07070948399266 L217.21568337219225 65.02983212352464 " stroke="rgb(187, 163, 255)" stroke-width="0.2px" fill="none"/>
<path d="M336.90988299608694 160.3823960668883 L214.0303367761637 67.36593674159302 " stroke="rgb(187, 163, 255)" stroke-width="0.2px" fill="none"/>
<path d="M349.2146902098381 147.69406402333323 L210.84499018013517 69.70204135966135 " stroke="rgb(187, 163, 255)" stroke-width="0.2px" fill="none"/>
<path d="M361.5195284676739 135.00573197977812 L207.65964358410662 72.03814597772973 " stroke="rgb(187, 163, 255)" stroke-width="0.2px" fill="none"/>
<path d="M363.6619552508213 132.7964486560643 L204.4742969880781 74.37425059579806 " stroke="rgb(187, 163, 255)" stroke-width="0.2px" fill="none"/>
<path d="M363.26378382190927 133.20690112483896 L201.28895039204951 76.71035521386644 " stroke="rgb(187, 163, 255)" stroke-width="0.2px" fill="none"/>
<path d="M362.86559997536347 133.6173908465151 L198.10361621365482 79.04645983193475 " stroke="rgb(187, 163, 255)" stroke-width="0.2px" fill="none"/>
<path d="M362.46742854645134 134.02786815055734 L194.9182696176263 81.38256445000313 " stroke="rgb(187, 163, 255)" stroke-width="0.2px" fill="none"/>
<path d="M362.06924469990554 134.43834545459964 L191.73292302159774 83.71866906807146 " stroke="rgb(187, 163, 255)" stroke-width="0.2px" fill="none"/>
<path d="M361.67107327099353 134.84882275864192 L188.54757642556922 86.05477368613984 " stroke="rgb(187, 163, 255)" stroke-width="0.2px" fill="none"/>
<path d="M361.2728894244476 135.25928764505042 L185.36222982954064 88.39087830420816 " stroke="rgb(187, 163, 255)" stroke-width="0.2px" fill="none"/>
<path d="M360.8747055779018 135.66977736672652 L182.17688323351211 90.72698292227655 " stroke="rgb(187, 163, 255)" stroke-width="0.2px" fill="none"/>
<path d="M360.4765465666236 136.0802546707688 L178.99148696694823 93.06311237561255 " stroke="rgb(187, 163, 255)" stroke-width="0.2px" fill="none"/>
<path d="M360.0783627200777 136.49071955717724 L175.80614037091968 95.39921699368092 " stroke="rgb(187, 163, 255)" stroke-width="0.2px" fill="none"/>
<path d="M359.68019129116567 136.90120927885334 L172.62079377489115 97.73532161174924 " stroke="rgb(187, 163, 255)" stroke-width="0.2px" fill="none"/>
<path d="M359.28200744461986 137.3116741652618 L169.4354471788626 100.07142622981763 " stroke="rgb(187, 163, 255)" stroke-width="0.2px" fill="none"/>
<path d="M354.02272973367656 142.7347653017535 L166.2501130004679 102.40753084788595 " stroke="rgb(187, 163, 255)" stroke-width="0.2px" fill="none"/>
<path d="M341.4718422702216 155.6767647692853 L163.06476640443935 104.74363546595433 " stroke="rgb(187, 163, 255)" stroke-width="0.2px" fill="none"/>
<path d="M328.9209113450483 168.6188014897187 L159.8794198084108 107.07974008402266 " stroke="rgb(187, 163, 255)" stroke-width="0.2px" fill="none"/>
<path d="M316.37001146395954 181.5608071660675 L156.69407321238228 109.41584470209104 " stroke="rgb(187, 163, 255)" stroke-width="0.2px" fill="none"/>
<path d="M303.81911158287085 194.5028066335993 L153.50872661635373 111.75194932015935 " stroke="rgb(187, 163, 255)" stroke-width="0.2px" fill="none"/>
<path d="M291.2681806576975 207.4448526672581 L150.3233800203252 114.08805393822774 " stroke="rgb(187, 163, 255)" stroke-width="0.2px" fill="none"/>
<path d="M278.7172838810172 220.38685213478993 L147.13803342429662 116.42415855629606 " stroke="rgb(187, 163, 255)" stroke-width="0.2px" fill="none"/>
<path d="M266.1663886565412 233.3288578111387 L143.9526868282681 118.76026317436444 " stroke="rgb(187, 163, 255)" stroke-width="0.2px" fill="none"/>
<path d="M253.6154581194189 246.27089491962312 L140.76734023223955 121.09636779243277 " stroke="rgb(187, 163, 255)" stroke-width="0.2px" fill="none"/>
<path d="M241.06456095468755 259.2128971035124 L137.58199363621102 123.43247241050115 " stroke="rgb(187, 163, 255)" stroke-width="0.2px" fill="none"/>
<path d="M228.51366262580305 272.154901227657 L134.39664704018247 125.76857702856947 " stroke="rgb(187, 163, 255)" stroke-width="0.2px" fill="none"/>
<path d="M215.96272238740434 285.09694881351993 L131.21130044415395 128.10468164663786 " stroke="rgb(187, 163, 255)" stroke-width="0.2px" fill="none"/>
<path d="M203.41183181954096 298.0389420722349 L128.02595384812537 130.4407862647062 " stroke="rgb(187, 163, 255)" stroke-width="0.2px" fill="none"/>
<path d="M196.0531295914201 305.62706318986164 L124.84060725209683 132.77689088277455 " stroke="rgb(187, 163, 255)" stroke-width="0.2px" fill="none"/>
<path d="M188.69440252803156 313.2152060383476 L121.6552234031668 135.11303275374442 " stroke="rgb(187, 163, 255)" stroke-width="0.2px" fill="none"/>
<path d="M181.33571271754454 320.803324051566 L118.46987680713825 137.44913737181275 " stroke="rgb(187, 163, 255)" stroke-width="0.2px" fill="none"/>
<path d="M173.97700428060674 328.3914482736012 L115.28453021110971 139.78524198988111 " stroke="rgb(187, 163, 255)" stroke-width="0.2px" fill="none"/>
<path d="M166.6182834260351 335.9795911220872 L112.09918361508117 142.12134660794945 " stroke="rgb(187, 163, 255)" stroke-width="0.2px" fill="none"/>
<path d="M159.2595687802804 343.56772776175626 L108.91384943668646 144.45745122601784 " stroke="rgb(187, 163, 255)" stroke-width="0.2px" fill="none"/>
<path d="M151.90087896979338 351.1558395661577 L105.72850284065792 146.79355584408614 " stroke="rgb(187, 163, 255)" stroke-width="0.2px" fill="none"/>
<path d="M144.54216432403865 358.74396378819296 L102.54315624462937 149.12966046215453 " stroke="rgb(187, 163, 255)" stroke-width="0.2px" fill="none"/>
<path d="M137.18344967828395 366.33209421904513 L99.35780964860083 151.46576508022287 " stroke="rgb(187, 163, 255)" stroke-width="0.2px" fill="none"/>
<path d="M129.82474745016307 373.92022464989725 L96.1724630525723 153.80186969829123 " stroke="rgb(187, 163, 255)" stroke-width="0.2px" fill="none"/>
<path d="M122.46603280440836 381.50835508074937 L92.98711645654375 156.13797431635956 " stroke="rgb(187, 163, 255)" stroke-width="0.2px" fill="none"/>
<path d="M115.10731815865364 389.0964979292354 L89.80176986051521 158.47407893442795 " stroke="rgb(187, 163, 255)" stroke-width="0.2px" fill="none"/>
<path d="M116.96561706202758 387.18037010509295 L86.61642326448667 160.81018355249626 " stroke="rgb(187, 163, 255)" stroke-width="0.2px" fill="none"/>
<path d="M124.96857096876418 378.9280825285879 L83.43107666845812 163.14628817056465 " stroke="rgb(187, 163, 255)" stroke-width="0.2px" fill="none"/>
<path d="M132.97154971076847 370.6757949520828 L80.24573007242958 165.48239278863298 " stroke="rgb(187, 163, 255)" stroke-width="0.2px" fill="none"/>
<path d="M140.97456570567425 362.4234701226763 L77.06033380586568 167.81852845078592 " stroke="rgb(187, 163, 255)" stroke-width="0.2px" fill="none"/>
<path d="M148.9775320300447 354.1711825461712 L73.87498720983714 170.1546330688543 " stroke="rgb(187, 163, 255)" stroke-width="0.2px" fill="none"/>
<path d="M156.98049835441515 345.9188949696662 L70.6896406138086 172.49073768692264 " stroke="rgb(187, 163, 255)" stroke-width="0.2px" fill="none"/>
<path d="M164.98347709641945 337.66660118434424 L67.5043064354139 174.826842304991 " stroke="rgb(187, 163, 255)" stroke-width="0.2px" fill="none"/>
<path d="M172.98643100315604 329.41432602547303 L64.31895983938536 177.16294692305934 " stroke="rgb(187, 163, 255)" stroke-width="0.2px" fill="none"/>
<path d="M180.9893911187096 321.1620446577849 L61.13361324335682 179.49905154112773 " stroke="rgb(187, 163, 255)" stroke-width="0.2px" fill="none"/>
<path d="M188.9924133224323 312.90970741074455 L57.948266647328275 181.83515615919603 " stroke="rgb(187, 163, 255)" stroke-width="0.2px" fill="none"/>
<path d="M196.99538585561967 304.6574198342395 L54.76292005129973 184.17126077726442 " stroke="rgb(187, 163, 255)" stroke-width="0.2px" fill="none"/>
<path d="M204.99834907558167 296.4051353621429 L51.577573455271185 186.50736539533276 " stroke="rgb(187, 163, 255)" stroke-width="0.2px" fill="none"/>
<path d="M216.32264750410528 284.72798055497884 L52.81501550217408 190.2587139503672 " stroke="rgb(187, 163, 255)" stroke-width="0.2px" fill="none"/>
<path d="M228.62746868769452 272.0396547202406 L54.05245754907697 194.01005629658474 " stroke="rgb(187, 163, 255)" stroke-width="0.2px" fill="none"/>
<path d="M240.93228831907953 259.35132966160455 L55.28989959597987 197.76139864280228 " stroke="rgb(187, 163, 255)" stroke-width="0.2px" fill="none"/>
<path d="M253.23711221902616 246.6629995583048 L56.52734164288275 201.51274098901985 " stroke="rgb(187, 163, 255)" stroke-width="0.2px" fill="none"/>
<path d="M265.541930686258 233.97467566382184 L57.76478368978565 205.2640584999697 " stroke="rgb(187, 163, 255)" stroke-width="0.2px" fill="none"/>
<path d="M277.8467518698473 221.2863482768795 L59.00221331905471 209.01540084618725 " stroke="rgb(187, 163, 255)" stroke-width="0.2px" fill="none"/>
<path d="M290.1515652924154 208.59802865095816 L60.2396553659576 212.7667431924048 " stroke="rgb(187, 163, 255)" stroke-width="0.2px" fill="none"/>
<path d="M302.4563942370258 195.90969971181156 L61.477097412860495 216.51808553862233 " stroke="rgb(187, 163, 255)" stroke-width="0.2px" fill="none"/>
<path d="M314.76122007722773 183.22136145943952 L62.714539459763394 220.26942788483984 " stroke="rgb(187, 163, 255)" stroke-width="0.2px" fill="none"/>
<path d="M327.0660334997958 170.53304183351824 L63.952006341933945 224.02081990159272 " stroke="rgb(187, 163, 255)" stroke-width="0.2px" fill="none"/>
<path d="M339.3708655488147 157.844722207597 L65.18944838883685 227.7721622478103 " stroke="rgb(187, 163, 255)" stroke-width="0.2px" fill="none"/>
<path d="M351.6756727625659 145.1563901640419 L66.42689043573974 231.52350459402783 " stroke="rgb(187, 163, 255)" stroke-width="0.2px" fill="none"/>
<path d="M363.9804923939509 132.46805191166987 L67.66433248264262 235.27484694024537 " stroke="rgb(187, 163, 255)" stroke-width="0.2px" fill="none"/>
<path d="M363.5823333826727 132.878541633346 L68.90177452954553 239.02617686882905 " stroke="rgb(187, 163, 255)" stroke-width="0.2px" fill="none"/>
<path d="M363.1841495361269 133.2890189373883 L70.13921657644842 242.7775192150466 " stroke="rgb(187, 163, 255)" stroke-width="0.2px" fill="none"/>
<path d="M362.785965689581 133.69948382379675 L71.3766586233513 246.52886156126414 " stroke="rgb(187, 163, 255)" stroke-width="0.2px" fill="none"/>
<path d="M362.3878066783028 134.10997354547288 L72.6141006702542 250.28020390748168 " stroke="rgb(187, 163, 255)" stroke-width="0.2px" fill="none"/>
<path d="M361.98961041412315 134.52043843188133 L73.8515427171571 254.03153383606536 " stroke="rgb(187, 163, 255)" stroke-width="0.2px" fill="none"/>
<path d="M361.59143898521114 134.93091573592363 L75.08898476405999 257.7828761822829 " stroke="rgb(187, 163, 255)" stroke-width="0.2px" fill="none"/>
<path d="M361.1932551386652 135.34138062233208 L76.32642681096289 261.53421852850045 " stroke="rgb(187, 163, 255)" stroke-width="0.2px" fill="none"/>
<path d="M360.79507129211936 135.751882761642 L77.56386885786577 265.285560874718 " stroke="rgb(187, 163, 255)" stroke-width="0.2px" fill="none"/>
<path d="M360.3969122808412 136.16234764805046 L78.8013233224025 269.0369528914709 " stroke="rgb(187, 163, 255)" stroke-width="0.2px" fill="none"/>
<path d="M359.9987284342953 136.5728249520928 L80.03876536930541 272.78829523768843 " stroke="rgb(187, 163, 255)" stroke-width="0.2px" fill="none"/>
<path d="M359.6005445877495 136.9832898385012 L81.2762074162083 276.53963758390597 " stroke="rgb(187, 163, 255)" stroke-width="0.2px" fill="none"/>
<path d="M359.2023607412036 137.39377956017734 L82.51364946311118 280.29096751248966 " stroke="rgb(187, 163, 255)" stroke-width="0.2px" fill="none"/>
<path d="M351.5125671421461 145.32314656880908 L83.75109151001408 284.04230985870714 " stroke="rgb(187, 163, 255)" stroke-width="0.2px" fill="none"/>
<path d="M338.9616610522405 158.26517087160863 L84.98853355691698 287.7936522049247 " stroke="rgb(187, 163, 255)" stroke-width="0.2px" fill="none"/>
<path d="M326.41073012706715 171.207207592042 L86.22597560381986 291.5449945511422 " stroke="rgb(187, 163, 255)" stroke-width="0.2px" fill="none"/>
<path d="M313.8598364547953 184.14920705957383 L87.46340523308892 295.29632447972597 " stroke="rgb(187, 163, 255)" stroke-width="0.2px" fill="none"/>
<path d="M301.3088993208051 197.0912499888241 L88.70084727999182 299.0476668259435 " stroke="rgb(187, 163, 255)" stroke-width="0.2px" fill="none"/>
<path d="M288.7579963353079 210.03325876958135 L89.9382893268947 302.79900917216105 " stroke="rgb(187, 163, 255)" stroke-width="0.2px" fill="none"/>
<path d="M276.2071026630361 222.97525513270477 L91.1757313737976 306.5503515183786 " stroke="rgb(187, 163, 255)" stroke-width="0.2px" fill="none"/>
<path d="M263.6562167517854 235.91725149582814 L92.41317342070049 310.3016938645962 " stroke="rgb(187, 163, 255)" stroke-width="0.2px" fill="none"/>
<path d="M251.10527699845053 248.8592970444231 L93.65061546760339 314.0530237931798 " stroke="rgb(187, 163, 255)" stroke-width="0.2px" fill="none"/>
<path d="M238.55437973670644 261.80130087752934 L94.88805751450629 317.80436613939736 " stroke="rgb(187, 163, 255)" stroke-width="0.2px" fill="none"/>
<path d="M226.00345036373733 274.74333682186057 L96.12549956140917 321.5557084856149 " stroke="rgb(187, 163, 255)" stroke-width="0.2px" fill="none"/>
<path d="M213.45255979587395 287.6853300805755 L97.36294160831206 325.30704462301554 " stroke="rgb(187, 163, 255)" stroke-width="0.2px" fill="none"/>
<path d="M201.94008764862667 299.5565756089856 L98.60038365521497 329.0583869692331 " stroke="rgb(187, 163, 255)" stroke-width="0.2px" fill="none"/>
<path d="M194.5813854205058 307.1446843089786 L99.83782570211785 332.8097231066337 " stroke="rgb(187, 163, 255)" stroke-width="0.2px" fill="none"/>
<path d="M187.22267077475107 314.73282715746456 L101.07529258428842 336.5611213322035 " stroke="rgb(187, 163, 255)" stroke-width="0.2px" fill="none"/>
<path d="M179.8639623378133 322.3209513794998 L102.3127346311913 340.31245746960417 " stroke="rgb(187, 163, 255)" stroke-width="0.2px" fill="none"/>
<path d="M172.50526010969241 329.90907560153505 L103.5501766780942 344.0637998158217 " stroke="rgb(187, 163, 255)" stroke-width="0.2px" fill="none"/>
<path d="M165.14653304630386 337.497218450021 L104.78760630736326 347.8151421620392 " stroke="rgb(187, 163, 255)" stroke-width="0.2px" fill="none"/>
<path d="M157.78783081818298 345.0853550896901 L106.02504835426616 351.56647829943984 " stroke="rgb(187, 163, 255)" stroke-width="0.2px" fill="none"/>
<path d="M150.4291285900621 352.6734668940915 L107.26249040116905 355.3178268544743 " stroke="rgb(187, 163, 255)" stroke-width="0.2px" fill="none"/>
<path d="M143.0704139443074 360.2615973249437 L108.49993244807193 359.06915678305796 " stroke="rgb(187, 163, 255)" stroke-width="0.2px" fill="none"/>
<path d="M135.71171171618653 367.8497277557958 L109.73737449497484 362.8204991292755 " stroke="rgb(187, 163, 255)" stroke-width="0.2px" fill="none"/>
<path d="M128.35300948806565 375.43783335138033 L110.97481654187773 366.57182905785925 " stroke="rgb(187, 163, 255)" stroke-width="0.2px" fill="none"/>
<path d="M120.99428242467712 383.02598861750016 L112.21225858878061 370.3231714040768 " stroke="rgb(187, 163, 255)" stroke-width="0.2px" fill="none"/>
<path d="M113.63559261419009 390.6141066307184 L113.44970063568351 374.07451375029433 " stroke="rgb(187, 163, 255)" stroke-width="0.2px" fill="none"/>
<path d="M118.5662003927946 385.52990513921156 L114.68714268258641 377.82585609651187 " stroke="rgb(187, 163, 255)" stroke-width="0.2px" fill="none"/>
<path d="M126.56919155243271 377.2776299803404 L115.9245847294893 381.57719844272935 " stroke="rgb(187, 163, 255)" stroke-width="0.2px" fill="none"/>
<path d="M134.5721330415355 369.02532998620154 L117.1620267763922 385.3285407889469 " stroke="rgb(187, 163, 255)" stroke-width="0.2px" fill="none"/>
<path d="M142.57514903644127 360.7730175744288 L118.39948124092892 389.0799328056998 " stroke="rgb(187, 163, 255)" stroke-width="0.2px" fill="none"/>
<path d="M150.5781339872625 352.5207175802899 L119.6369232878318 392.83127515191734 " stroke="rgb(187, 163, 255)" stroke-width="0.2px" fill="none"/>
<path d="M158.58109410281602 344.26843621260184 L120.8743653347347 396.582605080501 " stroke="rgb(187, 163, 255)" stroke-width="0.2px" fill="none"/>
<path d="M166.58406042718647 336.0161486360968 L122.1118073816376 400.33394742671857 " stroke="rgb(187, 163, 255)" stroke-width="0.2px" fill="none"/>
<path d="M174.58702054274 327.76387347722556 L123.34924942854049 404.0852897729361 " stroke="rgb(187, 163, 255)" stroke-width="0.2px" fill="none"/>
<path d="M182.58998065829354 319.5115859007205 L124.58669147544337 407.83663211915365 " stroke="rgb(187, 163, 255)" stroke-width="0.2px" fill="none"/>
<path d="M190.59299665319935 311.2592548624971 L125.82413352234629 411.58796204773734 " stroke="rgb(187, 163, 255)" stroke-width="0.2px" fill="none"/>
<path d="M198.59597539520362 303.00695486835815 L127.06157556924916 415.3393043939549 " stroke="rgb(187, 163, 255)" stroke-width="0.2px" fill="none"/>
<path d="M206.5989386151656 294.75468281389544 L128.29901761615207 419.0906467401724 " stroke="rgb(187, 163, 255)" stroke-width="0.2px" fill="none"/>
<path d="M218.78360832597383 282.1903191133214 L132.24914144479666 419.07300128249324 " stroke="rgb(187, 163, 255)" stroke-width="0.2px" fill="none"/>
<path d="M231.08843261397152 269.5019886219705 L136.19926527344126 419.0553434071802 " stroke="rgb(187, 163, 255)" stroke-width="0.2px" fill="none"/>
<path d="M243.39325379756076 256.81366278723226 L140.14938910208585 419.03769794950097 " stroke="rgb(187, 163, 255)" stroke-width="0.2px" fill="none"/>
<path d="M255.69807265284368 244.1253385046983 L144.09951293073047 419.02005249182173 " stroke="rgb(187, 163, 255)" stroke-width="0.2px" fill="none"/>
<path d="M268.0028930603308 231.43701266996015 L148.0496615946427 419.0023946165087 " stroke="rgb(187, 163, 255)" stroke-width="0.2px" fill="none"/>
<path d="M280.3077095873074 218.74869304403887 L151.999810258555 418.9847491588295 " stroke="rgb(187, 163, 255)" stroke-width="0.2px" fill="none"/>
<path d="M292.61254474073473 206.06034858284994 L155.94993408719958 418.9671037011503 " stroke="rgb(187, 163, 255)" stroke-width="0.2px" fill="none"/>
<path d="M304.9173643721197 193.3720258525202 L159.90005791584423 418.9494582434711 " stroke="rgb(187, 163, 255)" stroke-width="0.2px" fill="none"/>
<path d="M317.22218400350476 180.68370622659896 L163.85018174448882 418.931800368158 " stroke="rgb(187, 163, 255)" stroke-width="0.2px" fill="none"/>
<path d="M329.5270098437067 167.99536797422692 L167.8003428260349 418.91415491047877 " stroke="rgb(187, 163, 255)" stroke-width="0.2px" fill="none"/>
<path d="M341.8318294750917 155.30704834830567 L171.7504666546795 418.89650945279953 " stroke="rgb(187, 163, 255)" stroke-width="0.2px" fill="none"/>
<path d="M354.136630480026 142.61873493120137 L175.70059048332413 418.8788515774865 " stroke="rgb(187, 163, 255)" stroke-width="0.2px" fill="none"/>
<path d="M363.9008581081685 132.55014488895156 L179.65071431196873 418.8612061198073 " stroke="rgb(187, 163, 255)" stroke-width="0.2px" fill="none"/>
<path d="M363.5026866792565 132.96062219299387 L183.60085055824715 418.84356066212814 " stroke="rgb(187, 163, 255)" stroke-width="0.2px" fill="none"/>
<path d="M363.1045152503445 133.37111191467 L187.55097438689174 418.8259027868151 " stroke="rgb(187, 163, 255)" stroke-width="0.2px" fill="none"/>
<path d="M362.7063314037986 133.78157680107844 L191.50109821553636 418.80825732913587 " stroke="rgb(187, 163, 255)" stroke-width="0.2px" fill="none"/>
<path d="M362.30814755725277 134.19205410512075 L195.45122204418095 418.79061187145663 " stroke="rgb(187, 163, 255)" stroke-width="0.2px" fill="none"/>
<path d="M361.9099761283407 134.60253140916302 L199.40135829045937 418.77295399614354 " stroke="rgb(187, 163, 255)" stroke-width="0.2px" fill="none"/>
<path d="M361.5118046994287 135.01300871320532 L203.35148211910396 418.75530853846436 " stroke="rgb(187, 163, 255)" stroke-width="0.2px" fill="none"/>
<path d="M361.113608435249 135.42349843488145 L207.30160594774858 418.7376630807851 " stroke="rgb(187, 163, 255)" stroke-width="0.2px" fill="none"/>
<path d="M360.7154494239708 135.83395090365607 L211.25172977639318 418.72001762310595 " stroke="rgb(187, 163, 255)" stroke-width="0.2px" fill="none"/>
<path d="M360.31726557742496 136.2444406253322 L215.20189085793928 418.7023597477929 " stroke="rgb(187, 163, 255)" stroke-width="0.2px" fill="none"/>
<path d="M359.9190941485129 136.65490551174065 L219.15201468658387 418.6847142901137 " stroke="rgb(187, 163, 255)" stroke-width="0.2px" fill="none"/>
<path d="M359.52091030196704 137.06539523341675 L223.1021385152285 418.66706883243444 " stroke="rgb(187, 163, 255)" stroke-width="0.2px" fill="none"/>
<path d="M359.12272645542123 137.47587253745903 L227.0522623438731 418.6494109571214 " stroke="rgb(187, 163, 255)" stroke-width="0.2px" fill="none"/>
<path d="M349.00237971534807 147.91157129758315 L231.00242342541918 418.6317654994422 " stroke="rgb(187, 163, 255)" stroke-width="0.2px" fill="none"/>
<path d="M336.45144879017477 160.8536080180165 L234.95254725406377 418.61412004176304 " stroke="rgb(187, 163, 255)" stroke-width="0.2px" fill="none"/>
<path d="M323.9005427002691 173.79561369436524 L238.9026710827084 418.59646216644995 " stroke="rgb(187, 163, 255)" stroke-width="0.2px" fill="none"/>
<path d="M311.3496552368142 186.73760695308022 L242.85280732898684 418.5788167087707 " stroke="rgb(187, 163, 255)" stroke-width="0.2px" fill="none"/>
<path d="M298.798718102824 199.67964677792204 L246.80293115763143 418.5611712510915 " stroke="rgb(187, 163, 255)" stroke-width="0.2px" fill="none"/>
<path d="M286.24783063936906 212.6216493498624 L250.75305498627603 418.5435257934123 " stroke="rgb(187, 163, 255)" stroke-width="0.2px" fill="none"/>
<path d="M273.69693231048456 225.56365036959846 L254.70317881492062 418.52586791809927 " stroke="rgb(187, 163, 255)" stroke-width="0.2px" fill="none"/>
<path d="M261.1460347577021 238.50565294153876 L258.6533026435652 418.50822246042003 " stroke="rgb(187, 163, 255)" stroke-width="0.2px" fill="none"/>
<path d="M248.59509616852046 251.44769897519748 L262.6034388898437 418.49057700274085 " stroke="rgb(187, 163, 255)" stroke-width="0.2px" fill="none"/>
<path d="M236.04420627974645 264.3896953383209 L266.5535627184883 418.4729191274278 " stroke="rgb(187, 163, 255)" stroke-width="0.2px" fill="none"/>
<path d="M223.49326914575622 277.3317398197754 L270.5037175912174 418.4552736697486 " stroke="rgb(187, 163, 255)" stroke-width="0.2px" fill="none"/>
<path d="M210.94237857789284 290.27373618289886 L274.45384141986204 418.4376282120693 " stroke="rgb(187, 163, 255)" stroke-width="0.2px" fill="none"/>
<path d="M200.46834968652925 301.0741967281025 L278.4039714573236 418.41997033675625 " stroke="rgb(187, 163, 255)" stroke-width="0.2px" fill="none"/>
<path d="M193.10964124959145 308.66231163691236 L282.3540952859682 418.40232487907707 " stroke="rgb(187, 163, 255)" stroke-width="0.2px" fill="none"/>
<path d="M185.75092039501985 316.25045448539834 L286.3042253234297 418.3846794213979 " stroke="rgb(187, 163, 255)" stroke-width="0.2px" fill="none"/>
<path d="M178.39222437571587 323.8385787074336 L290.25434915207427 418.36702154608486 " stroke="rgb(187, 163, 255)" stroke-width="0.2px" fill="none"/>
<path d="M171.03352214759502 331.42669672065193 L294.2045040248035 418.3493760884056 " stroke="rgb(187, 163, 255)" stroke-width="0.2px" fill="none"/>
<path d="M163.67480129302336 339.0148457779548 L298.154634062265 418.3317306307264 " stroke="rgb(187, 163, 255)" stroke-width="0.2px" fill="none"/>
<path d="M156.3160928560856 346.6029699999901 L302.1047578909096 418.3140851730472 " stroke="rgb(187, 163, 255)" stroke-width="0.2px" fill="none"/>
<path d="M148.9573844191478 354.1910880132084 L306.0548817195542 418.29642729773417 " stroke="rgb(187, 163, 255)" stroke-width="0.2px" fill="none"/>
<path d="M141.59867598220998 361.7792184440606 L310.0050117570157 418.2787818400549 " stroke="rgb(187, 163, 255)" stroke-width="0.2px" fill="none"/>
<path d="M134.23994891882145 369.36734887491275 L313.9551355856603 418.2611363823757 " stroke="rgb(187, 163, 255)" stroke-width="0.2px" fill="none"/>
<path d="M126.88127152596826 376.955466888131 L317.9052656231218 418.24347850706266 " stroke="rgb(187, 163, 255)" stroke-width="0.2px" fill="none"/>
<path d="M119.5225444625797 384.54360973661704 L321.8553894517664 418.2258330493834 " stroke="rgb(187, 163, 255)" stroke-width="0.2px" fill="none"/>
<path d="M112.163829816825 392.1317401674692 L325.80551948922795 418.2081875917042 " stroke="rgb(187, 163, 255)" stroke-width="0.2px" fill="none"/>
<path d="M120.16679614119545 383.879465008598 L329.7556681531402 418.19052971639115 " stroke="rgb(187, 163, 255)" stroke-width="0.2px" fill="none"/>
<path d="M128.16977488319975 375.6271650144591 L333.70579819060174 418.172884258712 " stroke="rgb(187, 163, 255)" stroke-width="0.2px" fill="none"/>
<path d="M136.1727412075702 367.37487743795407 L337.6559282280632 418.1552388010328 " stroke="rgb(187, 163, 255)" stroke-width="0.2px" fill="none"/>
<path d="M144.17575720247598 359.12254019091364 L341.6060520567079 418.1375809257197 " stroke="rgb(187, 163, 255)" stroke-width="0.2px" fill="none"/>
<path d="M152.17872352684643 350.8702526144086 L345.5561758853525 418.11993546804047 " stroke="rgb(187, 163, 255)" stroke-width="0.2px" fill="none"/>
<path d="M160.18167743358305 342.61798366435437 L349.50630592281397 418.10229001036123 " stroke="rgb(187, 163, 255)" stroke-width="0.2px" fill="none"/>
<path d="M168.1846437579535 334.36570850548316 L353.4564297514586 418.08464455268205 " stroke="rgb(187, 163, 255)" stroke-width="0.2px" fill="none"/>
<path d="M176.18763491759162 326.11340230252733 L357.40658462418776 418.066986677369 " stroke="rgb(187, 163, 255)" stroke-width="0.2px" fill="none"/>
<path d="M184.19059503314514 317.8611209348392 L361.3567084528324 418.0493412196898 " stroke="rgb(187, 163, 255)" stroke-width="0.2px" fill="none"/>
<path d="M192.19360481923403 309.6087898966158 L365.3068446991108 418.0316957620106 " stroke="rgb(187, 163, 255)" stroke-width="0.2px" fill="none"/>
<path d="M200.19656493478755 301.3565054245192 L369.2569685277554 418.01403788669757 " stroke="rgb(187, 163, 255)" stroke-width="0.2px" fill="none"/>
<path d="M208.199531259158 293.1042271612395 L373.2070923564 417.99639242901833 " stroke="rgb(187, 163, 255)" stroke-width="0.2px" fill="none"/>
<path d="M221.24457846106773 279.6526514628469 L374.4109571214137 414.23413498266007 " stroke="rgb(187, 163, 255)" stroke-width="0.2px" fill="none"/>
<path d="M233.54939654024852 266.9643256281088 L375.61484672169496 410.47186511866784 " stroke="rgb(187, 163, 255)" stroke-width="0.2px" fill="none"/>
<path d="M245.85421539553144 254.2760001814216 L376.81871148670865 406.70962008994337 " stroke="rgb(187, 163, 255)" stroke-width="0.2px" fill="none"/>
<path d="M258.15904123573335 241.58766852591756 L378.0225762517223 402.9473750612189 " stroke="rgb(187, 163, 255)" stroke-width="0.2px" fill="none"/>
<path d="M270.4638569866079 228.89934657169 L379.226441016736 399.18513003249444 " stroke="rgb(187, 163, 255)" stroke-width="0.2px" fill="none"/>
<path d="M282.7686797224013 216.21101918474756 L380.4303306170173 395.4228601685023 " stroke="rgb(187, 163, 255)" stroke-width="0.2px" fill="none"/>
<path d="M295.07350556260326 203.52268714119248 L381.63419538203095 391.66061513977786 " stroke="rgb(187, 163, 255)" stroke-width="0.2px" fill="none"/>
<path d="M307.3783220895798 190.83436441086278 L382.83806014704464 387.8983701110534 " stroke="rgb(187, 163, 255)" stroke-width="0.2px" fill="none"/>
<path d="M319.68313551214794 178.1460447849415 L384.0419373296922 384.13612508232893 " stroke="rgb(187, 163, 255)" stroke-width="0.2px" fill="none"/>
<path d="M331.9879613523499 165.4577127413864 L385.2458145123396 380.37388005360447 " stroke="rgb(187, 163, 255)" stroke-width="0.2px" fill="none"/>
<path d="M344.29278719255177 152.7693806978313 L386.4496792773533 376.6116101896123 " stroke="rgb(187, 163, 255)" stroke-width="0.2px" fill="none"/>
<path d="M356.59758819748606 140.08106728072696 L387.65354404236695 372.8493651608878 " stroke="rgb(187, 163, 255)" stroke-width="0.2px" fill="none"/>
<path d="M363.8212362400199 132.6322502838671 L388.8574212250145 369.08712013216336 " stroke="rgb(187, 163, 255)" stroke-width="0.2px" fill="none"/>
<path d="M363.4230523934741 133.04271517027556 L390.061298407662 365.3248751034389 " stroke="rgb(187, 163, 255)" stroke-width="0.2px" fill="none"/>
<path d="M363.02486854692825 133.45321730958554 L391.2651631726756 361.56263007471443 " stroke="rgb(187, 163, 255)" stroke-width="0.2px" fill="none"/>
<path d="M362.6266847003823 133.863682195994 L392.46904035532316 357.80036021072226 " stroke="rgb(187, 163, 255)" stroke-width="0.2px" fill="none"/>
<path d="M362.2285256891042 134.27414708240244 L393.67291753797065 354.0381213908147 " stroke="rgb(187, 163, 255)" stroke-width="0.2px" fill="none"/>
<path d="M361.8303418425583 134.68463680407854 L394.8767823029843 350.27586394445643 " stroke="rgb(187, 163, 255)" stroke-width="0.2px" fill="none"/>
<path d="M361.4321704136463 135.09510169048698 L396.0806594856318 346.51361891573197 " stroke="rgb(187, 163, 255)" stroke-width="0.2px" fill="none"/>
<path d="M361.0339865671004 135.5055914121631 L397.28452425064546 342.7513738870075 " stroke="rgb(187, 163, 255)" stroke-width="0.2px" fill="none"/>
<path d="M360.6358027205546 135.91605629857156 L398.48840143329295 338.9891164406492 " stroke="rgb(187, 163, 255)" stroke-width="0.2px" fill="none"/>
<path d="M360.2376312916426 136.32653360261386 L399.6922661983066 335.2268589942908 " stroke="rgb(187, 163, 255)" stroke-width="0.2px" fill="none"/>
<path d="M359.83944744509665 136.73701090665614 L400.89614338095413 331.46461396556634 " stroke="rgb(187, 163, 255)" stroke-width="0.2px" fill="none"/>
<path d="M359.44126359855085 137.14748821069844 L402.1000205636016 327.7023689368419 " stroke="rgb(187, 163, 255)" stroke-width="0.2px" fill="none"/>
<path d="M359.04309216963884 137.5579655147407 L403.30388532861525 323.9401114904836 " stroke="rgb(187, 163, 255)" stroke-width="0.2px" fill="none"/>
<path d="M346.4922047061839 150.4999649822726 L404.5077625112628 320.17785404412535 " stroke="rgb(187, 163, 255)" stroke-width="0.2px" fill="none"/>
<path d="M333.9412675721936 163.44200170270597 L405.7116272762765 316.41560901540083 " stroke="rgb(187, 163, 255)" stroke-width="0.2px" fill="none"/>
<path d="M321.3903676911049 176.38400737905474 L406.9155044589239 312.65336398667637 " stroke="rgb(187, 163, 255)" stroke-width="0.2px" fill="none"/>
<path d="M308.83947401883313 189.32600684658658 L408.1193692239376 308.8911189579519 " stroke="rgb(187, 163, 255)" stroke-width="0.2px" fill="none"/>
<path d="M296.28853688484287 202.26804977583691 L409.32324640658516 305.1288490939598 " stroke="rgb(187, 163, 255)" stroke-width="0.2px" fill="none"/>
<path d="M283.73764942138797 215.21004924336873 L410.5271235892326 301.3666040652353 " stroke="rgb(187, 163, 255)" stroke-width="0.2px" fill="none"/>
<path d="M271.1867495402992 228.15205491971753 L411.7309883542463 297.604346618877 " stroke="rgb(187, 163, 255)" stroke-width="0.2px" fill="none"/>
<path d="M258.63585431582317 241.09405516335147 L412.9348531192599 293.8421015901525 " stroke="rgb(187, 163, 255)" stroke-width="0.2px" fill="none"/>
<path d="M246.08492300259877 254.03609304793807 L414.13873030190746 290.07984414379416 " stroke="rgb(187, 163, 255)" stroke-width="0.2px" fill="none"/>
<path d="M233.53402506176533 266.9780967840315 L415.34260748455495 286.3175991150697 " stroke="rgb(187, 163, 255)" stroke-width="0.2px" fill="none"/>
<path d="M220.98308792777507 279.9201428176903 L416.5464722495686 282.55534787752833 " stroke="rgb(187, 163, 255)" stroke-width="0.2px" fill="none"/>
<path d="M208.4321973599117 292.8621360764052 L417.7503494322161 278.79309663998697 " stroke="rgb(187, 163, 255)" stroke-width="0.2px" fill="none"/>
<path d="M198.99661172443183 302.5918209516278 L418.9542266148636 275.0308454024456 " stroke="rgb(187, 163, 255)" stroke-width="0.2px" fill="none"/>
<path d="M191.63790328749405 310.1799389648462 L420.15809137987725 271.26859416490424 " stroke="rgb(187, 163, 255)" stroke-width="0.2px" fill="none"/>
<path d="M184.27918864173935 317.7680756045153 L421.3619685625248 267.5063429273628 " stroke="rgb(187, 163, 255)" stroke-width="0.2px" fill="none"/>
<path d="M176.92048020480155 325.3562060353674 L422.5658333275384 263.74409789863836 " stroke="rgb(187, 163, 255)" stroke-width="0.2px" fill="none"/>
<path d="M169.56175935022995 332.94434888385337 L423.7697105101859 259.98184045228004 " stroke="rgb(187, 163, 255)" stroke-width="0.2px" fill="none"/>
<path d="M162.20304470447522 340.53247931470554 L424.97357527519955 256.2195954235556 " stroke="rgb(187, 163, 255)" stroke-width="0.2px" fill="none"/>
<path d="M154.84435489398817 348.12058491029006 L426.1774524578471 252.45733797719728 " stroke="rgb(187, 163, 255)" stroke-width="0.2px" fill="none"/>
<path d="M147.4856526658673 355.7087091323253 L427.3813172228608 248.69509294847282 " stroke="rgb(187, 163, 255)" stroke-width="0.2px" fill="none"/>
<path d="M140.12692560247874 363.2968519808113 L428.5851944055082 244.93283550211447 " stroke="rgb(187, 163, 255)" stroke-width="0.2px" fill="none"/>
<path d="M132.7682357919917 370.8849699940296 L429.78907158815576 241.1705842645731 " stroke="rgb(187, 163, 255)" stroke-width="0.2px" fill="none"/>
<path d="M125.40952114623701 378.4731128425156 L430.99293635316945 237.4083330270317 " stroke="rgb(187, 163, 255)" stroke-width="0.2px" fill="none"/>
<path d="M118.05079408284847 386.0612432733678 L432.1968135358169 233.64608489389877 " stroke="rgb(187, 163, 255)" stroke-width="0.2px" fill="none"/>
<path d="M113.76441314759202 390.48130003685554 L433.4006783008306 229.88383365635738 " stroke="rgb(187, 163, 255)" stroke-width="0.2px" fill="none"/>
<path d="M121.76740430723014 382.2289876250828 L434.60455548347807 226.12158241881596 " stroke="rgb(187, 163, 255)" stroke-width="0.2px" fill="none"/>
<path d="M129.7703706316006 373.9767124662116 L435.80842024849176 222.3593311812746 " stroke="rgb(187, 163, 255)" stroke-width="0.2px" fill="none"/>
<path d="M137.77333695597105 365.72441247207274 L437.01229743113925 218.59707994373323 " stroke="rgb(187, 163, 255)" stroke-width="0.2px" fill="none"/>
<path d="M145.776340533243 357.4721000603001 L438.2161621961529 214.83482870619181 " stroke="rgb(187, 163, 255)" stroke-width="0.2px" fill="none"/>
<path d="M153.77930685761345 349.21980627497805 L439.4200393788004 211.07257746865042 " stroke="rgb(187, 163, 255)" stroke-width="0.2px" fill="none"/>
<path d="M161.7822793908008 340.96752490729 L440.6239165614479 207.3103293355175 " stroke="rgb(187, 163, 255)" stroke-width="0.2px" fill="none"/>
<path d="M169.78523950635434 332.7152373307849 L441.82778132646155 203.54807809797614 " stroke="rgb(187, 163, 255)" stroke-width="0.2px" fill="none"/>
<path d="M177.78821824835865 324.46294975427986 L443.0316585091091 199.78582686043472 " stroke="rgb(187, 163, 255)" stroke-width="0.2px" fill="none"/>
<path d="M185.79123424326443 316.2106125072395 L444.2355232741227 196.02357562289336 " stroke="rgb(187, 163, 255)" stroke-width="0.2px" fill="none"/>
<path d="M193.79419435881795 307.95833734836833 L445.4394004567702 192.261324385352 " stroke="rgb(187, 163, 255)" stroke-width="0.2px" fill="none"/>
<path d="M201.7971606831884 299.7060497718632 L446.6432652217839 188.49907314781055 " stroke="rgb(187, 163, 255)" stroke-width="0.2px" fill="none"/>
<path d="M209.80013321637577 291.45376529976664 L447.8471424044314 184.73682191026919 " stroke="rgb(187, 163, 255)" stroke-width="0.2px" fill="none"/>
</svg>