<?xml version="1.0" encoding="UTF-8"?>
<svg id="Layer_1" data-name="Layer 1" xmlns="http://www.w3.org/2000/svg" viewBox="0 0 1920 1920">
  <defs>
    <style>
      .cls-1 {
        fill: none;
        stroke: #baa1fd;
        stroke-miterlimit: 10;
      }
    </style>
  </defs>
  <path class="cls-1" d="M1604.57,1667.09c149.65-320.06,185.88-515.52,108.71-586.46"/>
  <path class="cls-1" d="M1570.41,1632.93c159.58-283.97,202.16-461.12,127.74-531.46"/>
  <path class="cls-1" d="M1533.42,1595.94c170.45-244.83,220.34-402.69,149.61-473.67"/>
  <path class="cls-1" d="M1493.8,1556.32c181.67-202.42,239.67-340.17,174.1-413.22"/>
  <path class="cls-1" d="M1451.7,1514.21c192.28-156.62,259.31-273.4,201.09-350.27"/>
  <path class="cls-1" d="M1407.31,1469.83c201.13-107.63,277.91-202.68,230.35-285.09"/>
  <path class="cls-1" d="M1360.86,1423.38c206.8-56.63,294.02-129.2,261.63-217.8"/>
  <path class="cls-1" d="M1312.48,1375c209.04-5.89,307.34-55.43,294.88-148.58"/>
  <path class="cls-1" d="M1262.47,1324.99c209.47,41.85,319.38,15.94,329.77-77.77"/>
  <path class="cls-1" d="M1211.04,1273.55c211.23,85.63,333.25,83.79,366.08-5.5"/>
  <path class="cls-1" d="M1158.4,1220.92c216.64,126.54,351.17,149.18,403.59,67.97"/>
  <path class="cls-1" d="M1104.74,1167.25c226.27,166.2,373.64,213.68,442.13,142.44"/>
  <path class="cls-1" d="M1050.38,1112.9c239.37,205.68,399.85,278.26,481.36,217.63"/>
  <path class="cls-1" d="M995.51,1058.03c255.18,245.56,428.9,343.35,521.06,293.34"/>
  <path class="cls-1" d="M940.43,1002.95c272.84,285.86,459.84,408.96,561.02,369.22"/>
  <path class="cls-1" d="M885.34,947.86c291.7,326.55,492.06,474.96,600.98,445.14"/>
  <path class="cls-1" d="M830.48,892.99c311.34,367.5,524.93,541.13,640.73,520.85"/>
  <path class="cls-1" d="M776.12,838.64c331.28,408.49,557.97,607.17,679.96,596"/>
  <path class="cls-1" d="M722.46,784.97c351.34,449.35,590.84,672.87,718.5,670.5"/>
  <path class="cls-1" d="M669.82,732.34c371.15,489.83,623.15,737.83,756.01,743.98"/>
  <path class="cls-1" d="M618.39,680.91c390.53,529.83,654.61,801.9,792.27,816.21"/>
  <path class="cls-1" d="M568.38,630.89c409.31,569.14,685.03,864.84,827.16,887.06"/>
  <path class="cls-1" d="M519.99,582.51c427.31,607.69,714.12,926.42,860.42,956.28"/>
  <path class="cls-1" d="M473.55,536.06c444.32,645.15,741.57,986.36,891.74,1023.57"/>
  <path class="cls-1" d="M429.16,491.68c460.22,681.55,767.22,1044.49,921,1088.75"/>
  <path class="cls-1" d="M387.05,449.57c474.96,716.74,790.94,1100.65,947.99,1151.69"/>
  <path class="cls-1" d="M347.44,409.96c488.28,750.51,812.42,1154.57,972.48,1212.15"/>
  <path class="cls-1" d="M310.44,372.96c500.18,782.86,831.59,1206.18,994.35,1269.94"/>
  <path class="cls-1" d="M276.28,338.8c510.45,813.58,848.26,1255.2,1013.34,1324.94"/>
  <path class="cls-1" d="M245.05,307.56c519.13,842.67,862.27,1301.65,1029.45,1377.01"/>
  <path class="cls-1" d="M216.99,279.51c525.96,869.91,873.39,1345.22,1042.38,1425.87"/>
  <path class="cls-1" d="M192.11,254.63c530.99,895.35,881.69,1385.86,1052.14,1471.58"/>
  <path class="cls-1" d="M170.58,233.1c534.13,918.85,886.97,1423.5,1058.54,1513.95"/>
  <path class="cls-1" d="M152.5,215.01c535.29,940.42,889.12,1458.01,1061.51,1552.84"/>
  <path class="cls-1" d="M137.93,200.45c534.43,959.93,888.09,1489.33,1060.95,1588.24"/>
  <path class="cls-1" d="M126.93,189.45c531.55,977.38,883.79,1517.39,1056.78,1620.08"/>
  <path class="cls-1" d="M119.58,182.1c524.46,986.18,872.88,1531.74,1045.26,1636.71"/>
  <path class="cls-1" d="M115.93,178.45c512.13,983.13,853.63,1527.27,1024.42,1632.41"/>
  <path class="cls-1" d="M115.93,178.45c497.69,977.89,831.03,1519.41,999.98,1624.46"/>
  <path class="cls-1" d="M119.58,182.1c481.15,970.54,805.08,1508.15,971.83,1612.86"/>
  <path class="cls-1" d="M126.93,189.45c462.41,960.96,775.73,1493.5,939.99,1597.56"/>
  <path class="cls-1" d="M137.93,200.45c441.53,949.23,743.03,1475.41,904.5,1578.62"/>
  <path class="cls-1" d="M152.5,215.01c418.59,935.31,707.11,1454.01,865.49,1556.1"/>
  <path class="cls-1" d="M170.58,233.1c393.58,919.28,667.88,1429.3,822.91,1530.02"/>
  <path class="cls-1" d="M192.11,254.63c366.55,901.15,625.52,1401.33,776.89,1500.54"/>
  <path class="cls-1" d="M216.99,279.51c337.55,880.91,580.06,1370.18,727.52,1467.72"/>
  <path class="cls-1" d="M245.05,307.56c306.7,858.74,531.68,1335.94,675.02,1431.71"/>
  <path class="cls-1" d="M276.28,338.8c273.92,834.47,480.33,1298.64,619.29,1392.52"/>
  <path class="cls-1" d="M310.44,372.96c239.41,808.3,426.32,1258.42,560.64,1350.42"/>
  <path class="cls-1" d="M347.44,409.96c203.23,780.16,369.65,1215.33,499.15,1305.47"/>
  <path class="cls-1" d="M387.05,449.57c165.51,750.21,310.52,1169.52,435.09,1257.91"/>
  <path class="cls-1" d="M429.16,491.68c126.32,718.41,249.17,1121.01,368.49,1207.81"/>
  <path class="cls-1" d="M473.55,536.06c85.81,684.77,185.7,1069.93,299.61,1155.47"/>
  <path class="cls-1" d="M519.99,582.51c44.17,649.36,120.39,1016.39,228.67,1101.08"/>
  <path class="cls-1" d="M568.38,630.89c1.5,612.07,53.45,960.32,155.8,1044.75"/>
  <path class="cls-1" d="M618.39,680.91c-41.89,573.05-14.78,901.97,81.34,986.79"/>
  <path class="cls-1" d="M669.82,732.34c-85.68,532.23-83.87,841.34,5.41,927.4"/>
  <path class="cls-1" d="M722.46,784.97c-129.59,489.65-153.52,778.57-71.71,866.82"/>
  <path class="cls-1" d="M776.12,838.64c-173.24,445.4-223.17,713.77-149.87,805.21"/>
  <path class="cls-1" d="M830.48,892.99c-216,399.81-292.22,647.43-228.67,742.86"/>
  <path class="cls-1" d="M885.34,947.86c-257.5,353.23-360.19,579.93-308.03,680.04"/>
  <path class="cls-1" d="M940.43,1002.95c-297.42,306.53-426.62,512.21-387.61,617.01"/>
  <path class="cls-1" d="M995.51,1058.03c-335.7,260.38-491.46,445.01-467.18,553.98"/>
  <path class="cls-1" d="M1050.38,1112.9c-372.7,215.57-554.88,379.27-546.5,491.16"/>
  <path class="cls-1" d="M1104.74,1167.25c-408.75,172.64-617.22,315.59-625.34,428.86"/>
  <path class="cls-1" d="M1158.4,1220.92c-444.45,131.82-678.93,254.24-703.5,367.24"/>
  <path class="cls-1" d="M1211.04,1273.55c-480.03,93.15-740.24,195.37-780.63,306.61"/>
  <path class="cls-1" d="M1262.47,1324.99c-515.69,56.46-801.21,138.87-856.55,247.23"/>
  <path class="cls-1" d="M1312.48,1375c-551.48,21.53-861.84,84.6-931.01,189.27"/>
  <path class="cls-1" d="M1360.86,1423.38c-587.23-11.82-921.86,32.53-1003.89,132.94"/>
  <path class="cls-1" d="M1407.31,1469.83c-622.68-43.53-980.98-17.36-1074.83,78.54"/>
  <path class="cls-1" d="M1451.7,1514.21c-657.74-73.73-1038.99-65.01-1143.7,26.21"/>
  <path class="cls-1" d="M1493.8,1556.32c-692.16-102.48-1095.58-110.43-1210.26-23.85"/>
  <path class="cls-1" d="M1533.42,1595.94c-725.67-129.59-1150.45-153.44-1274.36-71.41"/>
  <path class="cls-1" d="M1570.41,1632.93c-758.16-155.2-1203.47-194-1335.85-116.4"/>
  <path class="cls-1" d="M1604.57,1667.09c-789.48-179.09-1254.3-231.94-1394.5-158.51"/>
  <path class="cls-1" d="M1635.81,1698.33c-819.47-201.34-1302.85-267.21-1450.19-197.69"/>
  <path class="cls-1" d="M1663.87,1726.38c-847.92-221.71-1348.83-299.61-1502.74-233.7"/>
  <path class="cls-1" d="M1688.75,1751.26c-862.65-248.31-1373.49-341.89-1532.51-280.75"/>
  <path class="cls-1" d="M1710.27,1772.79c-872.66-274.95-1390.68-384.3-1554.04-328.01"/>
  <path class="cls-1" d="M1728.36,1790.88c-880.91-299.61-1404.94-423.57-1572.13-371.84"/>
  <path class="cls-1" d="M1742.93,1805.44c-887.4-322.25-1416.29-459.62-1586.69-412.14"/>
  <path class="cls-1" d="M1753.93,1816.44c-892-342.88-1424.58-492.49-1597.69-448.92"/>
  <path class="cls-1" d="M1761.27,1823.79C866.57,1462.39,331.58,1301.74,156.23,1341.79"/>
  <path class="cls-1" d="M1764.93,1827.44C869.53,1449.63,333.26,1279.18,156.23,1316.05"/>
  <path class="cls-1" d="M1764.93,1827.44C870.74,1435.28,334.5,1256.24,156.23,1290.31"/>
  <path class="cls-1" d="M1761.27,1823.79C870.26,1419.3,335.24,1232.91,156.23,1264.57"/>
  <path class="cls-1" d="M1753.93,1816.44C868.11,1401.77,335.54,1209.23,156.23,1238.84"/>
  <path class="cls-1" d="M1742.93,1805.44C864.29,1382.65,335.36,1185.17,156.23,1213.1"/>
  <path class="cls-1" d="M1728.36,1790.88C858.83,1361.94,334.76,1160.76,156.23,1187.36"/>
  <path class="cls-1" d="M1710.27,1772.79C851.79,1339.72,333.77,1136.02,156.23,1161.62"/>
  <path class="cls-1" d="M1688.75,1751.26C843.19,1316.05,332.36,1110.92,156.23,1135.89"/>
  <path class="cls-1" d="M1663.87,1726.38C833.1,1290.87,330.55,1085.44,156.23,1110.15"/>
  <path class="cls-1" d="M1635.81,1698.33C821.54,1264.32,328.36,1059.66,156.23,1084.37"/>
  <path class="cls-1" d="M1604.57,1667.09C808.6,1236.39,325.78,1033.58,156.23,1058.63"/>
  <path class="cls-1" d="M1570.41,1632.93C794.3,1207.17,322.9,1007.16,156.23,1032.89"/>
  <path class="cls-1" d="M1604.57,1667.09C811.01,1207.94,328.23,987.95,156.23,1007.16"/>
  <path class="cls-1" d="M1570.41,1632.93C796.79,1178.77,325.35,961.57,156.23,981.42"/>
  <path class="cls-1" d="M1533.42,1595.94C781.28,1148.35,322.22,934.93,156.23,955.68"/>
  <path class="cls-1" d="M1493.8,1556.32C764.61,1116.77,318.74,907.99,156.23,929.94"/>
  <path class="cls-1" d="M1451.7,1514.21C746.78,1084.15,314.95,880.79,156.23,904.21"/>
  <path class="cls-1" d="M1407.31,1469.83C727.96,1050.51,310.96,853.38,156.23,878.47"/>
  <path class="cls-1" d="M1360.86,1423.38C708.23,1015.92,306.66,825.75,156.23,852.73"/>
  <path class="cls-1" d="M1312.48,1375C687.61,980.56,302.19,797.86,156.23,826.99"/>
  <path class="cls-1" d="M1262.47,1324.99C666.21,944.47,297.47,769.85,156.23,801.21"/>
  <path class="cls-1" d="M1211.04,1273.55C644.21,907.69,292.61,741.66,156.23,775.48"/>
  <path class="cls-1" d="M1158.4,1220.92C621.61,870.43,287.54,713.35,156.23,749.74"/>
  <path class="cls-1" d="M1104.74,1167.25c-506.2-334.59-822.39-482.31-948.5-443.25"/>
  <path class="cls-1" d="M1050.38,1112.9c-475.3-318.26-773.32-456.48-894.15-414.63"/>
  <path class="cls-1" d="M995.51,1058.03c-444.11-301.72-723.87-430.23-839.28-385.5"/>
  <path class="cls-1" d="M940.43,1002.95c-412.87-285.04-674.28-403.76-784.19-356.16"/>
  <path class="cls-1" d="M885.34,947.86C503.62,679.45,260.6,570.52,156.23,621.05"/>
  <path class="cls-1" d="M830.48,892.99C479.78,641.08,255.02,541.86,156.23,595.32"/>
  <path class="cls-1" d="M776.12,838.64C456.06,602.92,249.43,513.21,156.23,569.58"/>
  <path class="cls-1" d="M722.46,784.97c-289.81-219.95-478.57-300.34-566.22-241.13"/>
  <path class="cls-1" d="M669.82,732.34c-260.25-204.78-431.48-276.19-513.59-214.28"/>
  <path class="cls-1" d="M618.39,680.91c-231.42-190.34-385.5-253.21-462.16-188.58"/>
  <path class="cls-1" d="M568.38,630.89c-203.41-176.68-340.82-231.46-412.14-164.31"/>
  <path class="cls-1" d="M519.99,582.51c-176.34-163.96-297.59-211.18-363.76-141.66"/>
  <path class="cls-1" d="M473.55,536.06c-147.89-150.43-252.05-189.57-312.41-117.39"/>
  <path class="cls-1" d="M429.16,491.68c-111.63-130.71-192.84-157.69-243.54-80.95"/>
  <path class="cls-1" d="M387.05,449.57c-78.76-112.7-137.75-128.3-176.98-46.79"/>
  <path class="cls-1" d="M347.44,409.96c-52.94-96.72-90.53-101.75-112.87-15.12"/>
  <path class="cls-1" d="M310.44,372.96c-52.68-77.77-69.78-73.13-51.39,13.88"/>
  <path class="cls-1" d="M276.28,338.8c-83.23,38.8-80.82,52.16,7.26,40.09"/>
  <path class="cls-1" d="M245.05,307.56c-26.9,98.91-5.93,120.05,62.95,63.38"/>
  <path class="cls-1" d="M216.99,279.51c14.18,119.84,52.72,147.68,115.5,83.49"/>
  <path class="cls-1" d="M192.11,254.63c48.34,133.41,103.29,166.88,164.87,100.41"/>
  <path class="cls-1" d="M170.58,233.1c78.67,143.47,148.97,181.45,210.88,113.99"/>
  <path class="cls-1" d="M152.5,215.01c106.26,150.9,190.73,192.28,253.42,124.13"/>
  <path class="cls-1" d="M137.93,200.45c131.48,156.01,228.97,199.58,292.48,130.75"/>
  <path class="cls-1" d="M126.93,189.45c154.51,158.94,263.82,203.49,327.97,133.76"/>
  <path class="cls-1" d="M119.58,182.1c175.48,159.62,295.4,204.01,359.81,133.16"/>
  <path class="cls-1" d="M115.93,178.45c194.43,158.16,323.72,201.09,387.95,128.86"/>
  <path class="cls-1" d="M115.93,178.45c211.44,154.51,348.94,194.86,412.4,120.91"/>
  <path class="cls-1" d="M119.58,182.1c226.7,148.8,371.11,185.19,433.24,109.31"/>
  <path class="cls-1" d="M126.93,189.45c240.1,140.85,390.19,172.17,450.38,94.01"/>
  <path class="cls-1" d="M137.93,200.45c251.74,130.71,406.38,155.71,463.87,75.06"/>
  <path class="cls-1" d="M152.5,215.01c261.84,118.37,419.79,135.86,473.76,52.51"/>
  <path class="cls-1" d="M170.58,233.1c270.39,103.85,430.45,112.66,480.16,26.47"/>
  <path class="cls-1" d="M192.11,254.63c277.53,87.09,438.57,86.06,483.12-3.01"/>
  <path class="cls-1" d="M216.99,279.51c283.33,68.02,444.24,56.07,482.74-35.83"/>
  <path class="cls-1" d="M245.05,307.56c287.88,46.62,447.59,22.69,479.13-71.84"/>
  <path class="cls-1" d="M276.28,338.8c291.15,22.77,448.62-14.22,472.38-111.03"/>
  <path class="cls-1" d="M310.44,372.96c293.21-3.52,447.42-54.57,462.71-153.14"/>
  <path class="cls-1" d="M347.44,409.96c293.85-32.31,443.94-98.31,450.21-198.08"/>
  <path class="cls-1" d="M387.05,449.57c293.08-63.51,438.14-145.4,435.09-245.69"/>
  <path class="cls-1" d="M429.16,491.68c290.67-97.11,429.8-195.67,417.43-295.74"/>
  <path class="cls-1" d="M473.55,536.06c286.42-132.77,418.93-248.78,397.53-348.08"/>
  <path class="cls-1" d="M519.99,582.51c280.28-170.15,405.44-304.34,375.58-402.47"/>
  <path class="cls-1" d="M568.38,630.89c272.11-209.04,389.33-361.96,351.69-458.8"/>
  <path class="cls-1" d="M618.39,680.91c262.06-248.91,370.81-421.16,326.12-516.77"/>
  <path class="cls-1" d="M669.82,732.34c250.33-289.43,350.05-481.45,299.18-576.15"/>
  <path class="cls-1" d="M722.46,784.97c237.09-330.29,327.45-542.55,271.04-636.73"/>
  <path class="cls-1" d="M776.12,838.64c222.57-371.37,303.18-604.12,241.86-698.39"/>
  <path class="cls-1" d="M830.48,892.99c207.06-412.27,277.74-665.86,211.96-760.69"/>
  <path class="cls-1" d="M885.34,947.86c190.82-453.05,251.36-727.52,181.58-823.51"/>
  <path class="cls-1" d="M940.43,1002.95c174.1-493.39,224.42-788.88,150.99-886.54"/>
  <path class="cls-1" d="M995.51,1058.03c157.13-533.27,197.26-849.76,120.39-949.58"/>
  <path class="cls-1" d="M1050.38,1112.9c140.03-572.58,170.06-910.05,89.97-1012.39"/>
  <path class="cls-1" d="M1104.74,1167.25c123.14-611.21,143.17-969.43,60.11-1074.7"/>
  <path class="cls-1" d="M1158.4,1220.92c103.29-639.61,111.76-1012.61,25.31-1119.08"/>
  <path class="cls-1" d="M1211.04,1273.55c81.81-660.79,77.77-1044.4-12.16-1150.88"/>
  <path class="cls-1" d="M1262.47,1324.99c60.93-681.03,44.77-1074.87-48.47-1181.47"/>
  <path class="cls-1" d="M1312.48,1375c40.82-700.19,13.02-1103.79-83.36-1210.69"/>
  <path class="cls-1" d="M1360.86,1423.38c21.53-718.24-17.32-1130.98-116.61-1238.23"/>
  <path class="cls-1" d="M1407.31,1469.83c3.39-734.91-45.93-1156.21-147.94-1263.84"/>
  <path class="cls-1" d="M1451.7,1514.21c-13.62-750.21-72.66-1179.36-177.2-1287.43"/>
  <path class="cls-1" d="M1493.8,1556.32c-29.3-764-97.36-1200.25-204.18-1308.7"/>
  <path class="cls-1" d="M1533.42,1595.94c-43.57-776.16-119.79-1218.64-228.63-1327.47"/>
  <path class="cls-1" d="M1570.41,1632.93c-56.33-786.64-139.86-1234.53-250.5-1343.67"/>
  <path class="cls-1" d="M1604.57,1667.09c-67.42-795.28-157.3-1247.64-269.53-1356.99"/>
  <path class="cls-1" d="M1635.81,1698.33c-76.87-802.16-172.08-1257.95-285.65-1367.39"/>
  <path class="cls-1" d="M1663.87,1726.38c-84.39-806.97-183.94-1265.17-298.58-1374.65"/>
  <path class="cls-1" d="M1688.75,1751.26c-90.1-809.8-192.88-1269.38-308.33-1378.69"/>
  <path class="cls-1" d="M1710.27,1772.79c-93.88-810.62-198.77-1270.41-314.73-1379.38"/>
  <path class="cls-1" d="M1728.36,1790.88c-95.6-809.24-201.52-1268.13-317.7-1376.63"/>
  <path class="cls-1" d="M1742.93,1805.44c-95.3-805.72-201-1262.51-317.1-1370.4"/>
  <path class="cls-1" d="M1753.93,1816.44c-92.9-799.96-197.22-1253.48-312.97-1360.56"/>
  <path class="cls-1" d="M1761.27,1823.79c-88.38-791.97-190.13-1240.98-305.2-1347.07"/>
  <path class="cls-1" d="M1764.93,1827.44c-81.68-781.62-179.6-1224.95-293.72-1329.92"/>
  <path class="cls-1" d="M1764.93,1827.44c-72.87-769.03-165.72-1205.4-278.6-1309.08"/>
  <path class="cls-1" d="M1761.27,1823.79c-61.92-754.12-148.54-1182.33-259.82-1284.59"/>
  <path class="cls-1" d="M1753.93,1816.44c-48.81-736.84-127.91-1155.65-237.35-1256.45"/>
  <path class="cls-1" d="M1742.93,1805.44c-33.6-717.21-103.98-1125.4-211.18-1224.61"/>
  <path class="cls-1" d="M1728.36,1790.88c-16.28-695.21-76.78-1091.63-181.49-1189.2"/>
  <path class="cls-1" d="M1710.27,1772.79c3.05-670.85-46.36-1054.29-148.28-1150.32"/>
  <path class="cls-1" d="M1688.75,1751.26c24.36-644.12-12.85-1013.47-111.63-1107.95"/>
  <path class="cls-1" d="M1663.87,1726.38c47.52-614.99,23.67-969.08-71.63-1062.24"/>
  <path class="cls-1" d="M1635.81,1698.33c72.44-583.49,62.99-921.26-28.44-1013.38"/>
  <path class="cls-1" d="M1604.57,1667.09c99.08-549.51,105.05-869.91,17.92-961.31"/>
  <path class="cls-1" d="M1570.41,1632.93c127.1-513.07,149.53-815.17,67.24-906.31"/>
  <path class="cls-1" d="M1604.57,1667.09c116.31-522.61,132.38-829.18,48.21-919.67"/>
  <path class="cls-1" d="M1570.41,1632.93c144.11-485.79,176.64-774.01,97.49-864.67"/>
  <path class="cls-1" d="M1533.42,1595.94c173.11-446.39,222.96-715.36,149.61-806.84"/>
  <path class="cls-1" d="M1493.8,1556.32c202.81-404.49,270.91-653.32,204.35-746.43"/>
  <path class="cls-1" d="M1451.7,1514.21c232.93-360.11,320.11-587.96,261.58-683.48"/>
  <path class="cls-1" d="M1407.31,1469.83c262.92-313.53,369.95-519.65,321.09-618.26"/>
  <path class="cls-1" d="M1360.86,1423.38c292.35-265.24,419.92-448.92,382.67-551.01"/>
  <path class="cls-1" d="M1312.48,1375c320.97-215.87,469.72-376.48,446.21-481.79"/>
  <path class="cls-1" d="M1262.47,1324.99c348.81-166.41,519.26-303.39,511.35-410.94"/>
  <path class="cls-1" d="M1211.04,1273.55c376.22-117.56,568.89-230.48,577.91-338.71"/>
  <path class="cls-1" d="M1158.4,1220.92c403.93-69.95,619.16-158.33,645.67-265.24"/>
  <path class="cls-1" d="M1104.74,1167.25c416.14-23.8,644.21-87.4,684.21-190.73"/>
  <path class="cls-1" d="M1050.38,1112.9c428.77,21.44,669.9-17.1,723.44-115.58"/>
  <path class="cls-1" d="M995.51,1058.03c442.18,65.83,696.58,52.55,763.18-39.87"/>
  <path class="cls-1" d="M940.43,1002.95c456.48,109.35,724.17,121.38,803.1,36.05"/>
  <path class="cls-1" d="M885.34,947.86c471.65,152.19,752.7,189.53,843.06,111.93"/>
</svg>