<?xml version="1.0" encoding="UTF-8"?>
<svg id="Layer_1" data-name="Layer 1" xmlns="http://www.w3.org/2000/svg" xmlns:xlink="http://www.w3.org/1999/xlink" viewBox="0 0 1920 620">
  <defs>
    <style>
      .cls-1, .cls-2 {
        fill: none;
      }

      .cls-3 {
        clip-path: url(#clippath);
      }

      .cls-2 {
        stroke: #b6a4f8;
        stroke-miterlimit: 10;
      }
    </style>
    <clipPath id="clippath">
      <rect class="cls-1" width="1920" height="620"/>
    </clipPath>
  </defs>
  <g class="cls-3">
    <g>
      <path class="cls-2" d="M674.33,12.12c547.41,286.49,881.9,408.6,1003.47,366.35"/>
      <path class="cls-2" d="M628.49-33.72c562.34,322.4,907.5,466.13,1035.44,431.28"/>
      <path class="cls-2" d="M584.15-78.06c576.87,357.45,932.19,522.37,1065.92,494.68"/>
      <path class="cls-2" d="M541.58-120.63C1132.27,270.88,1497.16,456.36,1636.21,435.73"/>
      <path class="cls-2" d="M500.9-161.31C1104.67,263.24,1478.5,468.65,1622.35,454.82"/>
      <path class="cls-2" d="M462.31-199.9C1078.2,256.59,1460.26,481.17,1608.49,473.88"/>
      <path class="cls-2" d="M426-236.21C1052.92,250.92,1442.46,493.97,1594.59,492.98"/>
      <path class="cls-2" d="M392.09-270.11C1028.86,246.31,1425.06,507.04,1580.72,512.08"/>
      <path class="cls-2" d="M360.79-301.42C1006.02,242.88,1408.05,520.43,1566.86,531.14"/>
      <path class="cls-2" d="M332.16-330.05C984.52,240.68,1391.47,534.1,1553,550.24"/>
      <path class="cls-2" d="M306.44-355.76C964.32,239.69,1375.24,548.08,1539.14,569.34"/>
      <path class="cls-2" d="M283.64-378.56C945.49,240.05,1359.37,562.37,1525.28,588.4"/>
      <path class="cls-2" d="M263.91-398.29C928.05,241.7,1343.9,576.98,1511.42,607.5"/>
      <path class="cls-2" d="M247.34-414.87C912.02,244.77,1328.78,591.9,1497.52,626.6"/>
      <path class="cls-2" d="M233.99-428.22C897.41,249.22,1313.97,607.18,1483.65,645.66"/>
      <path class="cls-2" d="M223.91-438.3C884.26,255.05,1299.56,622.74,1469.79,664.76"/>
      <path class="cls-2" d="M217.17-445.04C872.6,262.34,1285.5,638.65,1455.93,683.86"/>
      <path class="cls-2" d="M213.82-448.38C862.36,271.08,1271.75,654.87,1442.07,702.92"/>
      <path class="cls-2" d="M213.82-448.38C853.58,281.24,1258.36,671.37,1428.21,722.01"/>
      <path class="cls-2" d="M217.17-445.04C846.26,292.86,1245.33,688.23,1414.35,741.11"/>
      <path class="cls-2" d="M223.91-438.3C840.39,305.85,1232.57,705.36,1400.45,760.17"/>
      <path class="cls-2" d="M233.99-428.22C835.94,320.27,1220.17,722.76,1386.58,779.27"/>
      <path class="cls-2" d="M247.34-414.87C832.91,336.06,1208.04,740.48,1372.72,798.37"/>
      <path class="cls-2" d="M263.91-398.29C831.22,353.19,1196.18,758.44,1358.86,817.47"/>
      <path class="cls-2" d="M283.64-378.56C830.86,371.62,1184.65,776.67,1345,836.53"/>
      <path class="cls-2" d="M306.44-355.76C831.81,391.31,1173.34,795.1,1331.14,855.63"/>
      <path class="cls-2" d="M332.16-330.05C833.97,412.22,1162.32,813.77,1317.28,874.73"/>
      <path class="cls-2" d="M360.79-301.42C837.32,434.23,1151.53,832.63,1303.41,893.79"/>
      <path class="cls-2" d="M392.09-270.11C841.77,457.31,1140.93,851.65,1289.51,912.89"/>
      <path class="cls-2" d="M426-236.21C847.32,481.41,1130.54,870.79,1275.65,931.99"/>
      <path class="cls-2" d="M462.31-199.9C853.86,506.41,1120.34,890.05,1261.79,951.05"/>
      <path class="cls-2" d="M500.9-161.31c360.36,693.55,609.4,1070.69,747.03,1131.45"/>
      <path class="cls-2" d="M541.58-120.63c327.99,679.41,558.79,1049.34,692.49,1109.87"/>
      <path class="cls-2" d="M584.15-78.06c294.44,663.98,506.46,1026.11,636.06,1086.36"/>
      <path class="cls-2" d="M628.49-33.72c259.83,647.28,452.43,1000.99,577.85,1061.12"/>
      <path class="cls-2" d="M674.33,12.12c224.31,629.48,397.02,974.29,518.12,1034.38"/>
      <path class="cls-2" d="M721.46,59.26c186.07,604.63,337.29,936.56,453.69,995.75"/>
      <path class="cls-2" d="M769.7,107.5c144.25,569.78,271.92,883.16,383,940.22"/>
      <path class="cls-2" d="M818.89,156.68c101.76,533.71,205.56,828.31,311.41,883.75"/>
      <path class="cls-2" d="M868.7,206.5c58.95,496.58,138.66,772.11,239.15,826.65"/>
      <path class="cls-2" d="M918.99,256.79c15.87,458.14,71.36,714.5,166.42,769.08"/>
      <path class="cls-2" d="M969.48,307.27c-27.09,418.41,4.1,655.51,93.49,711.31"/>
      <path class="cls-2" d="M1019.96,357.75c-69.54,377.26-62.69,595.1,20.6,653.54"/>
      <path class="cls-2" d="M1070.25,408.04c-110.97,334.57-128.34,533.24-52.14,595.93"/>
      <path class="cls-2" d="M1120.06,457.86c-150.63,290.62-192.09,470.23-124.4,538.83"/>
      <path class="cls-2" d="M1169.25,507.04c-187.8,245.92-253.13,406.71-196.03,482.36"/>
      <path class="cls-2" d="M1217.49,555.28c-221.9,201.58-310.82,343.86-266.68,426.83"/>
      <path class="cls-2" d="M1264.63,602.42c-253.17,158.97-365.28,283.1-336.26,372.41"/>
      <path class="cls-2" d="M1310.46,648.26c-608.85-71.75-962.08-66.2-1059.7,16.78"/>
      <path class="cls-2" d="M1264.63,602.42c-584.39-58.95-922.39-45.96-1013.86,38.99"/>
      <path class="cls-2" d="M1217.49,555.28c-559.5-45.37-881.75-24.49-966.73,62.53"/>
      <path class="cls-2" d="M1169.25,507.04c-534.3-31.03-840.48-1.97-918.49,87.19"/>
      <path class="cls-2" d="M1120.06,457.86c-508.86-16.03-798.66,21.54-869.3,112.78"/>
      <path class="cls-2" d="M1070.25,408.04c-483.46-.55-756.6,45.8-819.49,139.01"/>
      <path class="cls-2" d="M1019.96,357.75c-458.14,15.44-714.54,70.69-769.2,165.71"/>
      <path class="cls-2" d="M969.48,307.27c-433.13,31.82-672.72,96.01-718.71,192.6"/>
      <path class="cls-2" d="M918.99,256.79c-408.52,48.52-631.25,121.68-668.23,219.5"/>
      <path class="cls-2" d="M868.7,206.5c-384.42,65.53-590.38,147.59-617.94,246.2"/>
      <path class="cls-2" d="M818.89,156.68C457.98,239.46,268.6,330.27,250.76,429.11"/>
      <path class="cls-2" d="M769.7,107.5C431.67,207.8,258.68,307.11,250.76,405.52"/>
      <path class="cls-2" d="M721.46,59.26C405.56,177.12,248.67,284.67,250.76,381.89"/>
      <path class="cls-2" d="M674.33,12.12C379.97,147.59,238.79,263.01,250.76,358.31"/>
      <path class="cls-2" d="M628.49-33.72C355.08,119.27,229.18,242.1,250.76,334.72"/>
      <path class="cls-2" d="M674.33,12.12C384.53,117.07,243.36,216.74,250.76,311.13"/>
      <path class="cls-2" d="M628.49-33.72C359.17,88.48,233.28,195.55,250.76,287.54"/>
      <path class="cls-2" d="M584.15-78.06C334.72,61.23,223.59,175.23,250.76,263.95"/>
      <path class="cls-2" d="M541.58-120.63C311.45,35.28,214.53,155.62,250.76,240.36"/>
      <path class="cls-2" d="M500.9-161.31C289.59,10.55,206.22,136.56,250.76,216.78"/>
      <path class="cls-2" d="M462.31-199.9C269.35-13.12,198.82,117.93,250.76,193.19"/>
      <path class="cls-2" d="M426-236.21C250.8-35.8,192.4,99.46,250.76,169.6"/>
      <path class="cls-2" d="M392.09-270.11C233.99-57.74,186.89,81,250.76,146.01"/>
      <path class="cls-2" d="M360.79-301.42C218.9-78.89,182.24,62.41,250.76,122.38"/>
      <path class="cls-2" d="M332.16-330.05C205.55-99.32,178.38,43.59,250.76,98.8"/>
      <path class="cls-2" d="M306.44-355.76C193.78-119.09,175.23,24.56,250.76,75.21"/>
      <path class="cls-2" d="M283.64-378.56C183.62-138.11,172.67,5.27,250.76,51.62"/>
      <path class="cls-2" d="M263.91-398.29C175.04-156.38,170.62-14.26,250.76,28.03"/>
      <path class="cls-2" d="M247.34-414.87C167.91-173.79,169.05-34.03,250.76,4.44"/>
      <path class="cls-2" d="M674.33,12.12c-11.89-221.79-61.83-331.06-149.84-327.83"/>
      <path class="cls-2" d="M721.46,59.26c-26.03-252.97-84.23-380.37-174.53-382.26"/>
      <path class="cls-2" d="M769.7,107.5c-40.84-284.87-107.62-430.77-200.32-437.78"/>
      <path class="cls-2" d="M818.89,156.68c-56.23-317.36-131.96-482.08-227.1-494.25"/>
      <path class="cls-2" d="M868.7,206.5c-71.99-350.2-156.81-533.99-254.47-551.35"/>
      <path class="cls-2" d="M918.99,256.79c-88.05-383.36-182.13-586.32-282.31-608.92"/>
      <path class="cls-2" d="M969.48,307.27c-104.16-416.6-207.61-638.81-310.35-666.69"/>
      <path class="cls-2" d="M1019.96,357.75c-120.26-449.79-233.09-691.31-338.43-724.5"/>
      <path class="cls-2" d="M1070.25,408.04C933.96-74.87,811.88-335.56,703.98-374.03"/>
      <path class="cls-2" d="M1120.06,457.86C968.06-57.82,836.85-337.57,726.43-381.32"/>
      <path class="cls-2" d="M1169.25,507.04C1001.89-41.04,861.77-339.58,748.87-388.6"/>
      <path class="cls-2" d="M1217.49,555.28C1035.36-24.62,886.62-341.66,771.28-395.89"/>
      <path class="cls-2" d="M1264.63,602.42C1068.36-8.63,911.39-343.83,793.73-403.18"/>
      <path class="cls-2" d="M1310.46,648.26C1100.81,6.84,936.04-346.07,816.17-410.46"/>
      <path class="cls-2" d="M1354.8,692.6C1132.67,21.69,960.58-348.44,838.62-417.75"/>
      <path class="cls-2" d="M1397.37,735.17C1163.74,35.83,984.99-350.92,861.07-425.07"/>
      <path class="cls-2" d="M1438.05,775.85C1194.06,49.22,1009.21-353.52,883.47-432.36"/>
      <path class="cls-2" d="M1476.64,814.44C1223.51,61.74,1033.27-356.31,905.92-439.64"/>
      <path class="cls-2" d="M1512.95,850.75C1251.99,73.32,1057.14-359.23,928.36-446.93"/>
      <path class="cls-2" d="M1546.86,884.65C1279.47,83.95,1080.76-362.34,950.81-454.21"/>
      <path class="cls-2" d="M1578.17,915.96C1305.86,93.48,1104.19-365.65,973.22-461.5"/>
      <path class="cls-2" d="M1606.79,944.59C1331.1,101.95,1127.39-369.19,995.66-468.78"/>
      <path class="cls-2" d="M1632.51,970.3C1355.16,109.23,1150.35-372.89,1018.11-476.07"/>
      <path class="cls-2" d="M1655.31,993.1C1377.96,115.3,1173.07-376.87,1040.56-483.39"/>
      <path class="cls-2" d="M1675.04,1012.83C1399.5,120.14,1195.48-381,1062.96-490.68"/>
      <path class="cls-2" d="M1691.62,1029.41C1419.7,123.68,1217.65-385.41,1085.41-497.96"/>
      <path class="cls-2" d="M1704.97,1042.76C1438.56,125.97,1239.5-390.06,1107.86-505.25"/>
      <path class="cls-2" d="M1715.05,1052.84C1456.01,126.87,1261.12-394.91,1130.3-512.53"/>
      <path class="cls-2" d="M1721.78,1059.58C1472.08,126.44,1282.39-399.99,1152.71-519.82"/>
      <path class="cls-2" d="M1725.13,1062.92C1486.73,124.71,1303.41-405.3,1175.16-527.1"/>
      <path class="cls-2" d="M1725.13,1062.92c-228.28-932.7-405.81-1459.88-532.69-1581.52"/>
      <path class="cls-2" d="M1721.78,1059.58C1503.5,140.14,1331.69-379.55,1206.34-499.5"/>
      <path class="cls-2" d="M1715.05,1052.84c-206.27-904.07-371.23-1415.14-494.84-1533.24"/>
      <path class="cls-2" d="M1704.97,1042.76c-192.33-886.67-349.3-1388.01-470.9-1504.1"/>
      <path class="cls-2" d="M1691.62,1029.41c-176.46-867.25-324.37-1357.8-443.69-1471.65"/>
      <path class="cls-2" d="M1675.04,1012.83c-158.7-845.79-296.45-1324.45-413.25-1435.97"/>
      <path class="cls-2" d="M1655.31,993.1c-139.13-822.36-265.69-1288.1-379.66-1397.18"/>
      <path class="cls-2" d="M1632.51,970.3c-117.74-797-232.06-1248.76-343-1355.28"/>
      <path class="cls-2" d="M1606.79,944.59c-94.67-769.71-195.79-1206.51-303.38-1310.47"/>
      <path class="cls-2" d="M1578.17,915.96c-69.86-740.45-156.85-1161.38-260.89-1262.78"/>
      <path class="cls-2" d="M1546.86,884.65c-43.55-709.34-115.46-1113.45-215.72-1212.38"/>
      <path class="cls-2" d="M1512.95,850.75c-15.75-676.38-71.75-1062.85-167.95-1159.37"/>
      <path class="cls-2" d="M1476.64,814.44c13.39-641.57-25.87-1009.57-117.78-1104"/>
      <path class="cls-2" d="M1438.05,775.85c43.79-604.95,22.01-953.73-65.33-1046.31"/>
      <path class="cls-2" d="M1397.37,735.17c75.21-566.51,71.59-895.37-10.79-986.53"/>
      <path class="cls-2" d="M1354.8,692.6c107.47-526.27,122.67-834.57,45.64-924.87"/>
      <path class="cls-2" d="M1310.46,648.26c140.35-484.17,174.96-771.33,103.88-861.47"/>
      <path class="cls-2" d="M1264.63,602.42c173.51-440.3,228.05-705.84,163.58-796.53"/>
      <path class="cls-2" d="M1217.49,555.28c206.55-394.78,281.41-638.22,224.58-730.29"/>
      <path class="cls-2" d="M1169.25,507.04C1408.32,159.24,1503.86-61.76,1455.93-155.95"/>
      <path class="cls-2" d="M1120.06,457.86C1390.76,158.14,1507.32-40.1,1469.79-136.85"/>
      <path class="cls-2" d="M1070.25,408.04C1371.27,156.88,1509.05-18.4,1483.65-117.75"/>
      <path class="cls-2" d="M1019.96,357.75C1350,154.91,1509.21,2.75,1497.52-98.69"/>
      <path class="cls-2" d="M969.48,307.27C1327.48,151.72,1508.11,22.75,1511.42-79.59"/>
      <path class="cls-2" d="M918.99,256.79C1304.32,146.96,1506.42,41.22,1525.28-60.49"/>
      <path class="cls-2" d="M868.7,206.5c412.62-65.8,636.1-148.46,670.44-247.93"/>
      <path class="cls-2" d="M818.89,156.68c440.14-23.59,684.89-83.25,734.11-179.02"/>
      <path class="cls-2" d="M769.7,107.5c468.26,17.13,733.95-19.81,797.16-110.74"/>
      <path class="cls-2" d="M721.46,59.26c496.77,56.39,783.18,41.9,859.26-43.44"/>
      <path class="cls-2" d="M674.33,12.12c525.6,94.43,832.36,102.03,920.26,22.8"/>
      <path class="cls-2" d="M628.49-33.72C1183.07,97.61,1509.76,126.87,1608.49,54.02"/>
      <path class="cls-2" d="M674.33,12.12c538.28,116.17,854.3,136.49,948.02,60.96"/>
      <path class="cls-2" d="M628.49-33.72c567.66,152.91,903.56,194.89,1007.72,125.9"/>
      <path class="cls-2" d="M584.15-78.06C1181.06,110.61,1536.34,173.73,1650.07,111.28"/>
      <path class="cls-2" d="M541.58-120.63C1167.32,102.69,1541.42,186.34,1663.93,130.34"/>
      <path class="cls-2" d="M500.9-161.31C1154.88,95.53,1547.17,199.13,1677.8,149.44"/>
      <path class="cls-2" d="M462.31-199.9C1143.77,89.3,1553.55,212.09,1691.66,168.54"/>
      <path class="cls-2" d="M426-236.21C1134,84.03,1560.52,225.32,1705.52,187.6"/>
      <path class="cls-2" d="M392.09-270.11C1125.58,79.85,1568.01,238.79,1719.42,206.69"/>
      <path class="cls-2" d="M360.79-301.42C1118.49,76.82,1576,252.53,1733.28,225.79"/>
      <path class="cls-2" d="M332.16-330.05C1112.78,74.97,1584.43,266.59,1747.14,244.85"/>
      <path class="cls-2" d="M306.44-355.76C1108.49,74.42,1593.33,280.96,1761,263.95"/>
      <path class="cls-2" d="M283.64-378.56C1089.19,74.89,1577.02,295.46,1747.14,283.05"/>
      <path class="cls-2" d="M263.91-398.29C1071.31,76.74,1561.11,310.22,1733.28,302.11"/>
      <path class="cls-2" d="M247.34-414.87C1054.93,79.93,1545.6,325.31,1719.42,321.21"/>
      <path class="cls-2" d="M233.99-428.22C1040.01,84.54,1530.52,340.7,1705.52,340.31"/>
      <path class="cls-2" d="M223.91-438.3C1026.58,90.56,1515.83,356.45,1691.66,359.37"/>
    </g>
  </g>
</svg>