<?xml version="1.0" encoding="UTF-8"?>
<svg id="Layer_1" data-name="Layer 1" xmlns="http://www.w3.org/2000/svg" xmlns:xlink="http://www.w3.org/1999/xlink" viewBox="0 0 365 480">
  <defs>
    <style>
      .cls-1, .cls-2 {
        fill: none;
      }

      .cls-3 {
        clip-path: url(#clippath);
      }

      .cls-4 {
        clip-path: url(#clippath-1);
      }

      .cls-5 {
        clip-path: url(#clippath-3);
      }

      .cls-6 {
        clip-path: url(#clippath-2);
      }

      .cls-7 {
        opacity: .6;
      }

      .cls-2 {
        stroke: #bba3ff;
        stroke-miterlimit: 10;
        stroke-width: .5px;
      }
    </style>
    <clipPath id="clippath">
      <rect class="cls-1" x="615" y="-730" width="365" height="480"/>
    </clipPath>
    <clipPath id="clippath-1">
      <rect class="cls-1" y="-730" width="365" height="480"/>
    </clipPath>
    <clipPath id="clippath-2">
      <rect class="cls-1" width="365" height="480"/>
    </clipPath>
    <clipPath id="clippath-3">
      <rect class="cls-1" x="615" width="365" height="480"/>
    </clipPath>
  </defs>
  <g class="cls-3">
    <g class="cls-7">
      <path class="cls-2" d="M360.46-664.1C450.64-227.03,544.37,10.82,641.57,49.47"/>
      <path class="cls-2" d="M322.4-702.16C429.75-235.66,533.26,18.87,632.93,61.39"/>
      <path class="cls-2" d="M283.49-741.07C408.49-244.71,522.07,26.76,624.26,73.31"/>
      <path class="cls-2" d="M243.96-780.6C386.93-254.08,510.78,34.52,615.58,85.24"/>
      <path class="cls-2" d="M204.16-820.4C363.41-269.26,496.6,33.3,603.69,87.27"/>
      <path class="cls-2" d="M164.37-860.19C338.68-288.23,480.43,26.1,589.67,82.73"/>
      <path class="cls-2" d="M124.83-899.73C314.02-307.13,464.3,18.83,575.68,78.19"/>
      <path class="cls-2" d="M85.92-938.64C289.62-325.85,448.21,11.59,561.65,73.61"/>
      <path class="cls-2" d="M47.86-976.7C265.55-344.23,432.15,4.36,547.62,69.07"/>
      <path class="cls-2" d="M10.95-1013.61C241.96-362.21,416.17-2.84,533.59,64.49"/>
      <path class="cls-2" d="M-24.56-1049.12C218.93-379.67,400.29-9.97,519.56,59.95"/>
      <path class="cls-2" d="M-58.38-1082.94C196.59-396.43,384.57-16.98,505.54,55.37"/>
      <path class="cls-2" d="M-90.27-1114.83C175.04-412.45,368.95-23.88,491.51,50.83"/>
      <path class="cls-2" d="M-119.99-1144.55C154.36-427.59,353.56-30.64,477.52,46.29"/>
      <path class="cls-2" d="M-147.34-1171.9C134.73-441.8,338.31-37.25,463.49,41.72"/>
      <path class="cls-2" d="M-172.15-1196.71C116.12-454.94,323.32-43.67,449.46,37.17"/>
      <path class="cls-2" d="M-194.15-1218.71C98.66-467.01,308.52-49.91,435.44,32.6"/>
      <path class="cls-2" d="M-213.24-1237.8C82.42-477.86,293.98-55.89,421.41,28.06"/>
      <path class="cls-2" d="M-229.26-1253.82C67.47-487.46,279.69-61.68,407.38,23.48"/>
      <path class="cls-2" d="M-242.14-1266.7C53.84-495.8,265.66-67.26,393.39,18.94"/>
      <path class="cls-2" d="M-251.7-1276.26C41.55-502.78,251.93-72.57,379.36,14.4"/>
      <path class="cls-2" d="M-257.94-1282.5C30.7-508.43,238.46-77.63,365.33,9.82"/>
      <path class="cls-2" d="M-260.78-1285.34C21.21-512.71,225.24-82.5,351.31,5.28"/>
      <path class="cls-2" d="M-260.19-1284.75C13.16-515.59,212.32-87.12,337.28,.7"/>
    </g>
  </g>
  <g class="cls-4">
    <g class="cls-7">
      <path class="cls-2" d="M200.21-1244.33C-82.21-414.37-203.31,78.72-163.16,234.99"/>
      <path class="cls-2" d="M204.01-1250.51C-88.17-421.07-215.11,72.2-176.76,229.35"/>
      <path class="cls-2" d="M205.27-1252.56C-95.25-425.95-227.14,66.14-190.37,223.67"/>
      <path class="cls-2" d="M204.01-1250.51C-103.41-428.98-239.41,60.52-203.98,217.99"/>
      <path class="cls-2" d="M200.21-1244.33C-112.66-430.23-251.91,55.34-217.59,212.31"/>
      <path class="cls-2" d="M193.94-1234.15C-122.96-429.68-264.69,50.6-231.19,206.67"/>
      <path class="cls-2" d="M185.21-1219.97C-134.33-427.39-277.71,46.26-244.79,200.99"/>
      <path class="cls-2" d="M174.1-1201.92C-146.74-423.41-290.93,42.35-258.4,195.31"/>
      <path class="cls-2" d="M160.69-1180.13C-160.13-417.79-304.37,38.83-272.05,189.64"/>
      <path class="cls-2" d="M145.1-1154.79C-174.47-410.59-318.06,35.68-285.65,184"/>
      <path class="cls-2" d="M127.39-1126.03C-189.71-401.91-331.93,32.87-299.25,178.32"/>
      <path class="cls-2" d="M107.74-1094.11C-205.79-391.86-346,30.38-312.86,172.64"/>
      <path class="cls-2" d="M86.26-1059.21C-222.68-380.52-360.25,28.19-326.47,166.96"/>
      <path class="cls-2" d="M63.14-1021.64C-240.27-368.02-374.68,26.27-340.07,161.32"/>
      <path class="cls-2" d="M38.53-981.67C-258.48-354.47-389.22,24.61-353.68,155.64"/>
      <path class="cls-2" d="M12.59-939.52C-277.24-340.02-403.87,23.17-367.29,149.96"/>
      <path class="cls-2" d="M-480.83-137.89C-122.21,3.68,94.05,42.29,168.04-21.99"/>
      <path class="cls-2" d="M-483.76-133.13C-129.83,11.98,84.25,52.75,158.45-10.79"/>
      <path class="cls-2" d="M-484.2-132.42C-136.92,18.41,74.09,62.68,148.86,.41"/>
      <path class="cls-2" d="M-482.09-135.85C-143.47,22.93,63.65,72.07,139.27,11.61"/>
      <path class="cls-2" d="M-477.47-143.36C-149.54,25.48,52.84,80.87,129.67,22.78"/>
      <path class="cls-2" d="M-470.38-154.87C-155.09,26.08,41.69,89.02,120.04,33.98"/>
      <path class="cls-2" d="M-460.83-170.39C-160.22,24.6,30.21,96.42,110.45,45.18"/>
      <path class="cls-2" d="M-448.95-189.68C-164.91,21.01,18.38,103.03,100.86,56.38"/>
      <path class="cls-2" d="M-434.8-212.67C-169.07,15.32,6.31,108.75,91.26,67.55"/>
      <path class="cls-2" d="M-418.49-239.17C-172.64,7.49-5.93,113.45,81.67,78.75"/>
      <path class="cls-2" d="M-400.1-269.04C-175.58-2.48-18.17,117.16,72.08,89.95"/>
      <path class="cls-2" d="M-379.83-301.99C-177.64-14.47-30.19,119.9,62.49,101.15"/>
      <path class="cls-2" d="M-357.8-337.78C-178.69-28.3-41.82,121.76,52.89,112.31"/>
      <path class="cls-2" d="M-334.15-376.19C-178.64-43.72-52.83,122.86,43.26,123.52"/>
      <path class="cls-2" d="M-309.09-416.91C-177.37-60.38-63.11,123.49,33.67,134.72"/>
      <path class="cls-2" d="M-282.76-459.68C-174.89-78-72.62,123.85,24.08,145.92"/>
      <path class="cls-2" d="M-255.4-504.14C-171.29-96.2-81.34,124.22,14.48,157.08"/>
      <path class="cls-2" d="M-227.18-549.98C-166.74-114.7-89.38,124.73,4.89,168.28"/>
      <path class="cls-2" d="M3.7-925.08C-115.76-251.75-140.96,142.55-71.9,257.82"/>
      <path class="cls-2" d="M30.02-967.84C-109.9-265.56-147.06,146.73-81.49,269.02"/>
      <path class="cls-2" d="M55.09-1008.57C-106.77-288.27-156.85,135.7-95.1,263.34"/>
      <path class="cls-2" d="M78.73-1046.98C-104.23-309.82-166.74,125.08-108.7,257.66"/>
      <path class="cls-2" d="M100.76-1082.77C-102.37-330.07-176.73,114.86-122.3,252.02"/>
      <path class="cls-2" d="M121.04-1115.71C-101.25-348.97-186.91,105.06-135.91,246.34"/>
      <path class="cls-2" d="M139.43-1145.59C-100.95-366.35-197.26,95.72-149.55,240.67"/>
    </g>
  </g>
  <g class="cls-6">
    <g class="cls-7">
      <path class="cls-2" d="M701.38-15.01C418.96,814.96,297.86,1308.05,338.01,1464.32"/>
      <path class="cls-2" d="M705.19-21.19C413.01,808.25,286.06,1301.52,324.41,1458.67"/>
      <path class="cls-2" d="M706.45-23.23C405.92,803.38,274.03,1295.47,310.8,1453"/>
      <path class="cls-2" d="M705.19-21.19C397.77,800.35,261.77,1289.85,297.2,1447.32"/>
      <path class="cls-2" d="M701.38-15.01C388.51,799.1,249.27,1284.66,283.59,1441.64"/>
      <path class="cls-2" d="M695.12-4.83C378.21,799.65,236.49,1279.93,269.99,1435.99"/>
      <path class="cls-2" d="M686.39,9.36C366.84,801.94,223.47,1275.59,256.38,1430.32"/>
      <path class="cls-2" d="M675.28,27.41C354.43,805.92,210.24,1271.68,242.77,1424.64"/>
      <path class="cls-2" d="M661.87,49.19C341.04,811.53,196.8,1268.16,229.13,1418.97"/>
      <path class="cls-2" d="M646.27,74.53C326.71,818.74,183.11,1265,215.53,1413.32"/>
      <path class="cls-2" d="M628.56,103.3C311.47,827.41,169.24,1262.2,201.92,1407.65"/>
      <path class="cls-2" d="M608.92,135.22C295.38,837.46,155.18,1259.7,188.31,1401.97"/>
      <path class="cls-2" d="M587.43,170.12C278.5,848.8,140.92,1257.52,174.7,1396.29"/>
      <path class="cls-2" d="M564.31,207.69C260.91,861.3,126.5,1255.6,161.11,1390.64"/>
      <path class="cls-2" d="M539.71,247.65C242.69,874.86,111.95,1253.94,147.5,1384.97"/>
      <path class="cls-2" d="M513.77,289.8C223.93,889.3,97.3,1252.49,133.89,1379.29"/>
      <path class="cls-2" d="M486.73,333.73C204.69,904.58,82.5,1251.23,120.25,1373.62"/>
      <path class="cls-2" d="M458.79,379.12C185.01,920.46,67.65,1250.06,106.65,1367.97"/>
      <path class="cls-2" d="M430.11,425.71C165.09,936.85,52.72,1249.02,93.04,1362.3"/>
      <path class="cls-2" d="M400.94,473.1C144.93,953.56,37.74,1248.07,79.43,1356.62"/>
      <path class="cls-2" d="M420.45,441.4C-112.24,762.65-394.55,984.32-426.51,1106.41"/>
      <path class="cls-2" d="M449.29,394.54C-99.69,734.58-391.24,966.98-425.31,1091.7"/>
      <path class="cls-2" d="M477.51,348.71C-87.37,706.91-387.92,949.69-424.14,1077"/>
      <path class="cls-2" d="M504.87,304.25C-75.35,679.8-384.62,932.47-422.93,1062.3"/>
      <path class="cls-2" d="M531.2,261.48C-63.69,653.35-381.36,915.38-421.76,1047.6"/>
      <path class="cls-2" d="M556.27,220.76C-52.56,627.74-378.18,898.46-420.56,1032.89"/>
      <path class="cls-2" d="M579.91,182.34C-41.96,603.06-375.08,881.67-419.39,1018.19"/>
      <path class="cls-2" d="M601.94,146.55C-32.03,579.45-372.07,865.13-418.21,1003.53"/>
      <path class="cls-2" d="M622.22,113.61C-22.75,557.05-369.17,848.77-417.01,988.83"/>
      <path class="cls-2" d="M640.61,83.73C-14.27,535.91-366.39,832.7-415.84,974.13"/>
      <path class="cls-2" d="M656.92,57.24C-6.57,516.13-363.75,816.85-414.63,959.42"/>
      <path class="cls-2" d="M671.06,34.25C.23,497.81-361.3,801.32-413.46,944.72"/>
      <path class="cls-2" d="M682.94,14.96C6.1,481.05-358.97,786.08-412.26,930.02"/>
      <path class="cls-2" d="M692.49-.56C11.07,465.86-356.8,771.14-411.08,915.36"/>
      <path class="cls-2" d="M699.58-12.07C15.01,452.29-354.8,756.55-409.91,900.66"/>
      <path class="cls-2" d="M704.2-19.59C17.99,440.42-353,742.28-408.7,885.95"/>
      <path class="cls-2" d="M706.31-23.01C19.96,430.2-351.32,728.29-407.53,871.25"/>
      <path class="cls-2" d="M705.87-22.3C20.9,421.71-349.83,714.65-406.33,856.55"/>
      <path class="cls-2" d="M702.94-17.54C20.88,414.92-348.47,701.35-405.16,841.85"/>
      <path class="cls-2" d="M697.5-8.7C19.88,409.77-347.27,688.39-403.98,827.19"/>
      <path class="cls-2" d="M689.56,4.2C17.91,406.29-346.2,675.69-402.78,812.48"/>
      <path class="cls-2" d="M679.25,20.96C15.03,404.4-345.23,663.32-401.61,797.78"/>
      <path class="cls-2" d="M701.38-15.01C24.92,380.75-342.33,646.81-400.4,783.08"/>
      <path class="cls-2" d="M705.19-21.19C27.62,369.45-340.51,632.63-399.23,768.38"/>
      <path class="cls-2" d="M706.45-23.23C29.31,359.79-338.84,618.77-398.03,753.67"/>
      <path class="cls-2" d="M705.19-21.19C30.03,351.84-337.31,605.24-396.86,738.98"/>
      <path class="cls-2" d="M701.38-15.01C29.76,345.6-335.9,592.04-395.68,724.31"/>
      <path class="cls-2" d="M695.12-4.83C28.59,340.99-334.61,579.13-394.47,709.61"/>
      <path class="cls-2" d="M686.39,9.36C26.47,338-333.43,566.52-393.3,694.91"/>
      <path class="cls-2" d="M675.28,27.41C23.52,336.58-332.31,554.18-392.1,680.2"/>
      <path class="cls-2" d="M661.87,49.19C19.72,336.72-331.19,542.15-390.93,665.51"/>
      <path class="cls-2" d="M646.27,74.53C15.19,338.26-330.12,530.37-389.76,650.81"/>
      <path class="cls-2" d="M628.56,103.3C10.01,341.2-329.04,518.8-388.55,636.14"/>
      <path class="cls-2" d="M608.92,135.22C4.26,345.41-327.83,507.47-387.38,621.44"/>
      <path class="cls-2" d="M587.43,170.12C-2,350.85-326.52,496.38-386.17,606.73"/>
      <path class="cls-2" d="M564.31,207.69C-8.58,357.31-325.03,485.44-385,592.03"/>
      <path class="cls-2" d="M539.71,247.65C-15.45,364.82-323.25,474.73-383.8,577.33"/>
      <path class="cls-2" d="M513.77,289.8C-22.36,373.22-321.17,464.18-382.63,562.63"/>
      <path class="cls-2" d="M486.73,333.73C-29.31,382.47-318.69,453.88-381.46,547.93"/>
      <path class="cls-2" d="M458.79,379.12c-494.83,13.34-774.52,64.72-839.03,154.14"/>
      <path class="cls-2" d="M430.11,425.71c-472.64-22.57-742.35,8.38-809.19,92.85"/>
      <path class="cls-2" d="M400.94,473.1c-449.53-58.61-709.15-48.36-778.81,30.76"/>
      <path class="cls-2" d="M371.49,520.94c-425.73-94.45-675.12-105.03-748.19-31.78"/>
      <path class="cls-2" d="M341.97,568.91C-59.43,439.12-298.58,407.65-375.49,474.45"/>
      <path class="cls-2" d="M312.58,616.66C-64.25,452.33-293.22,400.04-374.32,459.76"/>
      <path class="cls-2" d="M283.54,663.83C-68.85,466.02-287.73,393.12-373.15,445.09"/>
      <path class="cls-2" d="M255.08,710.07C-73.33,480.03-282.37,386.8-371.94,430.39"/>
      <path class="cls-2" d="M227.42,755.02C-77.91,494.1-277.3,381-370.77,415.69"/>
      <path class="cls-2" d="M200.73,798.36C-82.63,507.93-272.73,375.47-369.57,400.98"/>
      <path class="cls-2" d="M175.23,839.8C-87.59,521.22-268.78,370.05-368.4,386.29"/>
      <path class="cls-2" d="M151.09,879.01C-92.69,533.59-265.45,364.44-367.23,371.59"/>
      <path class="cls-2" d="M128.49,915.73C-97.88,544.76-262.73,358.48-366.02,356.88"/>
      <path class="cls-2" d="M107.61,949.66C-103.03,554.53-260.5,352.07-364.84,342.22"/>
      <path class="cls-2" d="M88.59,980.55C-107.95,562.72-258.73,345.01-363.64,327.51"/>
      <path class="cls-2" d="M71.57,1008.21C-112.54,569.12-257.22,337.32-362.47,312.82"/>
      <path class="cls-2" d="M56.68,1032.39C-116.66,573.67-255.96,328.9-361.26,298.11"/>
      <path class="cls-2" d="M44.04,1052.93C-120.13,576.28-254.83,319.76-360.09,283.41"/>
      <path class="cls-2" d="M33.72,1069.69C-122.87,576.89-253.76,309.9-358.93,268.71"/>
      <path class="cls-2" d="M25.79,1082.59C-124.83,575.5-252.68,299.32-357.71,254.04"/>
      <path class="cls-2" d="M20.34,1091.43C-125.97,572.01-251.58,287.98-356.54,239.35"/>
      <path class="cls-2" d="M17.41,1096.19C-124.62,567.94-247.97,278.13-352.71,226.9"/>
      <path class="cls-2" d="M16.98,1096.9C-116.1,567.39-234.53,276.26-338.38,223.49"/>
      <path class="cls-2" d="M19.08,1093.48C-106.62,564.83-220.99,273.68-324.02,220.07"/>
      <path class="cls-2" d="M23.71,1085.97C-96.21,560.23-207.33,270.47-309.69,216.66"/>
      <path class="cls-2" d="M30.79,1074.45C-84.84,553.65-193.57,266.59-295.36,213.25"/>
      <path class="cls-2" d="M40.35,1058.94C-72.57,545.11-179.66,262.06-281,209.83"/>
      <path class="cls-2" d="M52.22,1039.64C-59.35,534.64-165.67,256.91-266.67,206.42"/>
      <path class="cls-2" d="M66.37,1016.65C-45.31,522.35-151.53,251.12-252.3,203"/>
      <path class="cls-2" d="M82.68,990.16C-30.46,508.23-137.34,244.71-237.97,199.59"/>
      <path class="cls-2" d="M101.07,960.28C-14.88,492.38-123.12,237.64-223.64,196.18"/>
      <path class="cls-2" d="M121.35,927.34C1.34,474.89-108.85,229.99-209.28,192.76"/>
      <path class="cls-2" d="M143.38,891.55C18.13,455.83-94.65,221.76-194.95,189.35"/>
      <path class="cls-2" d="M167.02,853.14C35.37,435.34-80.5,212.96-180.59,185.93"/>
      <path class="cls-2" d="M192.09,812.41C52.95,413.55-66.49,203.6-166.26,182.52"/>
      <path class="cls-2" d="M218.41,769.64C70.7,390.54-52.72,193.68-151.93,179.11"/>
      <path class="cls-2" d="M245.78,725.18C88.54,366.49-39.21,183.33-137.56,175.7"/>
      <path class="cls-2" d="M273.99,679.35C106.29,341.58-26.11,172.55-123.23,172.29"/>
      <path class="cls-2" d="M302.83,632.49C123.81,316.01-13.41,161.48-108.87,168.87"/>
      <path class="cls-2" d="M332.14,584.87C140.99,289.99-1.26,150.2-94.54,165.46"/>
      <path class="cls-2" d="M361.64,536.95C157.68,263.82,10.39,138.85-80.21,162.05"/>
      <path class="cls-2" d="M391.14,489.02C173.84,237.78,21.49,127.64-65.85,158.63"/>
      <path class="cls-2" d="M420.45,441.4C189.43,212.09,32.09,116.69-51.52,155.22"/>
      <path class="cls-2" d="M449.29,394.54C204.47,187.11,42.3,106.18-37.19,151.81"/>
      <path class="cls-2" d="M477.51,348.71C219,163.01,52.24,96.26-22.82,148.39"/>
      <path class="cls-2" d="M504.87,304.25C233.15,140.06,62.02,86.99-8.5,144.98"/>
      <path class="cls-2" d="M531.2,261.48C247,118.36,71.89,78.38,5.87,141.56"/>
      <path class="cls-2" d="M556.27,220.76C260.55,97.99,81.84,70.47,20.2,138.15"/>
      <path class="cls-2" d="M579.91,182.34C273.88,79.03,92.06,63.18,34.53,134.74"/>
      <path class="cls-2" d="M601.94,146.55C286.94,61.54,102.6,56.46,48.89,131.32"/>
      <path class="cls-2" d="M622.22,113.61C299.79,45.54,113.44,50.31,63.22,127.91"/>
      <path class="cls-2" d="M640.61,83.73C312.28,31.03,124.6,44.59,77.59,124.49"/>
      <path class="cls-2" d="M656.92,57.24C324.4,18.02,136.09,39.31,91.91,121.08"/>
      <path class="cls-2" d="M671.06,34.25c-334.97-27.67-523.24,.14-564.82,83.42"/>
      <path class="cls-2" d="M682.94,14.96C347.26-3.25,159.83,29.86,120.61,114.25"/>
      <path class="cls-2" d="M692.49-.56C357.9-11.51,172.03,25.63,134.94,110.84"/>
      <path class="cls-2" d="M699.58-12.07C367.89-18.14,184.46,21.72,149.3,107.43"/>
      <path class="cls-2" d="M704.2-19.59C377.26-23.1,197.07,18.12,163.63,104.02"/>
      <path class="cls-2" d="M706.31-23.01C386.03-26.44,209.9,14.76,177.96,100.61"/>
      <path class="cls-2" d="M705.87-22.3C394.17-28.11,222.95,11.73,192.32,97.19"/>
      <path class="cls-2" d="M702.94-17.54C401.71-28.16,236.29,8.93,206.65,93.78"/>
      <path class="cls-2" d="M697.5-8.7C408.8-26.58,249.95,6.4,221.02,90.36"/>
      <path class="cls-2" d="M689.56,4.2c-274.09-27.62-425.5-.05-454.21,82.75"/>
      <path class="cls-2" d="M679.25,20.96C421.95-18.67,278.78,2.2,249.68,83.54"/>
      <path class="cls-2" d="M701.38-15.01C434.41-35.03,288.62-3.29,264.04,80.12"/>
      <path class="cls-2" d="M705.19-21.19C443.42-39.41,301.15-6.8,278.37,76.71"/>
      <path class="cls-2" d="M706.45-23.23c-254.54-18.96-392.44,13.22-413.75,96.53"/>
      <path class="cls-2" d="M705.19-21.19c-245.28-22.15-377.97,8.18-398.12,91.07"/>
      <path class="cls-2" d="M701.38-15.01c-233.86-27.9-360.51-.72-379.99,81.48"/>
      <path class="cls-2" d="M695.12-4.83c-220.2-36.05-340-13.42-359.36,67.88"/>
      <path class="cls-2" d="M686.39,9.36c-204.09-46.64-316.18-29.86-336.3,50.29"/>
      <path class="cls-2" d="M675.28,27.41c-185.25-59.47-288.87-49.83-310.86,28.83"/>
      <path class="cls-2" d="M341.97,568.91C534.01,292.27,604.42,115.04,553.23,37.25"/>
      <path class="cls-2" d="M312.58,616.66C524.84,322.3,607.59,133.33,560.93,49.8"/>
      <path class="cls-2" d="M283.54,663.83C515.89,351.68,610.94,151.21,568.59,62.4"/>
      <path class="cls-2" d="M255.08,710.07C507.32,380.39,614.37,168.68,576.26,74.99"/>
      <path class="cls-2" d="M227.42,755.02C499.13,408.3,617.96,185.81,583.96,87.58"/>
      <path class="cls-2" d="M200.73,798.36C491.41,435.33,621.73,202.6,591.62,100.17"/>
      <path class="cls-2" d="M175.23,839.8C484.25,461.4,625.64,219.04,599.32,112.76"/>
      <path class="cls-2" d="M151.09,879.01C477.76,486.39,629.7,235.15,606.98,125.32"/>
      <path class="cls-2" d="M128.49,915.73C471.93,510.21,633.99,250.94,614.68,137.91"/>
      <path class="cls-2" d="M107.61,949.66C466.86,532.78,638.43,266.39,622.34,150.5"/>
      <path class="cls-2" d="M88.59,980.55C462.62,554.01,643.09,281.52,630.01,163.1"/>
      <path class="cls-2" d="M71.57,1008.21C459.24,573.79,647.93,296.27,637.71,175.68"/>
      <path class="cls-2" d="M56.68,1032.39C456.76,592.06,653.03,310.69,645.37,188.28"/>
      <path class="cls-2" d="M44.04,1052.93C455.27,608.77,658.27,324.74,653.08,200.87"/>
      <path class="cls-2" d="M33.72,1069.69C454.76,623.84,663.76,338.42,660.73,213.43"/>
      <path class="cls-2" d="M25.79,1082.59C455.26,637.27,669.48,351.74,668.4,226.02"/>
      <path class="cls-2" d="M20.34,1091.43C456.8,648.97,675.37,364.72,676.1,238.61"/>
      <path class="cls-2" d="M17.41,1096.19C459.37,658.98,681.48,377.31,683.76,251.2"/>
      <path class="cls-2" d="M16.98,1096.9C462.96,667.24,687.81,389.54,691.46,263.79"/>
      <path class="cls-2" d="M19.08,1093.48C467.6,673.8,694.28,401.43,699.13,276.38"/>
      <path class="cls-2" d="M23.71,1085.97C473.27,678.67,700.98,413,706.82,288.94"/>
      <path class="cls-2" d="M30.79,1074.45C479.92,681.87,707.83,424.24,714.49,301.53"/>
      <path class="cls-2" d="M40.35,1058.94C487.54,683.43,714.8,435.18,722.15,314.13"/>
      <path class="cls-2" d="M52.22,1039.64C496.01,683.47,721.88,445.82,729.85,326.71"/>
      <path class="cls-2" d="M66.37,1016.65C505.37,682,729.06,456.22,737.52,339.31"/>
      <path class="cls-2" d="M82.68,990.16C515.47,679.14,736.31,466.41,745.22,351.9"/>
      <path class="cls-2" d="M101.07,960.28c425.18-285.26,642.43-483.89,651.81-595.79"/>
      <path class="cls-2" d="M121.35,927.34c416.26-257.68,629.32-441.08,639.23-550.3"/>
      <path class="cls-2" d="M143.38,891.55c406.04-228.27,614.31-395.58,624.86-501.91"/>
      <path class="cls-2" d="M167.02,853.14c394.49-197.21,597.48-347.52,608.88-450.9"/>
      <path class="cls-2" d="M192.09,812.41c381.68-164.64,578.87-297.18,591.52-397.59"/>
      <path class="cls-2" d="M218.41,769.64c367.55-130.73,558.52-244.79,572.86-342.23"/>
      <path class="cls-2" d="M245.78,725.18c352.09-95.71,536.51-190.75,553.19-285.18"/>
      <path class="cls-2" d="M273.99,679.35c335.25-59.82,512.83-135.4,532.64-226.79"/>
      <path class="cls-2" d="M302.83,632.49c316.96-23.45,487.46-79.2,511.46-167.33"/>
      <path class="cls-2" d="M332.14,584.87c297.13,13.11,460.41-22.6,489.85-107.13"/>
      <path class="cls-2" d="M601.94,146.55c-203.14,752.7-277.49,1197.63-223.07,1334.79"/>
      <path class="cls-2" d="M622.22,113.61c-222.29,766.74-307.95,1220.78-256.95,1362.06"/>
      <path class="cls-2" d="M640.61,83.73c-240.38,779.24-336.69,1241.31-288.99,1386.26"/>
    </g>
  </g>
  <g class="cls-5">
    <g class="cls-7">
      <path class="cls-2" d="M-131.13,680.87C723.53,485.51,1206.78,329.71,1318.7,213.49"/>
      <path class="cls-2" d="M-138.39,680.88C720.95,494.1,1207.41,343.18,1321.03,228.03"/>
      <path class="cls-2" d="M-140.79,680.88C720.51,502.69,1208.58,356.59,1323.35,242.6"/>
      <path class="cls-2" d="M-138.39,680.88c860.61-169.66,1348.62-310.9,1464.04-423.72"/>
      <path class="cls-2" d="M-131.13,680.87c857.14-161.12,1343.52-297.53,1459.1-409.15"/>
      <path class="cls-2" d="M-119.17,680.86c851.07-152.63,1334.24-284.16,1449.48-394.6"/>
      <path class="cls-2" d="M-102.52,680.85c842.33-144.14,1320.73-270.78,1435.14-380.02"/>
      <path class="cls-2" d="M-81.33,680.83c831.04-135.64,1303.15-257.45,1416.25-365.44"/>
      <path class="cls-2" d="M-55.74,680.8c817.26-127.17,1281.63-244.14,1393.01-350.83"/>
      <path class="cls-2" d="M-25.99,680.77c801.17-118.73,1256.37-230.81,1365.59-336.26"/>
      <path class="cls-2" d="M7.79,680.74c782.77-110.28,1227.49-217.49,1334.12-321.67"/>
      <path class="cls-2" d="M45.27,680.7c762.29-101.83,1195.26-204.17,1298.95-307.07"/>
      <path class="cls-2" d="M86.25,680.67c739.82-93.37,1159.91-190.85,1260.28-292.46"/>
      <path class="cls-2" d="M130.37,680.62c715.58-84.92,1121.73-177.53,1218.5-277.88"/>
      <path class="cls-2" d="M177.3,680.58c689.75-76.49,1081.02-164.23,1173.88-263.28"/>
      <path class="cls-2" d="M226.79,680.53c662.4-68.06,1037.99-150.96,1126.7-248.67"/>
      <path class="cls-2" d="M278.37,680.48c633.93-59.65,993.11-137.65,1077.46-234.03"/>
      <path class="cls-2" d="M331.67,680.43c604.47-51.19,946.61-124.35,1026.49-219.44"/>
      <path class="cls-2" d="M1129.95,679.66C575.59,496.2,244.98,433.11,138.1,490.4"/>
      <path class="cls-2" d="M1107.29,679.69C571.17,488.97,250.32,421.49,144.77,477.24"/>
      <path class="cls-2" d="M1080.3,679.71C565,481.77,255.4,409.92,151.46,464.11"/>
      <path class="cls-2" d="M1049.19,679.74C557.27,474.68,260.27,398.4,158.13,450.94"/>
      <path class="cls-2" d="M1014.11,679.78C548.1,467.67,264.99,387.05,164.83,437.81"/>
      <path class="cls-2" d="M975.42,679.81C537.57,460.81,269.62,375.76,171.47,424.67"/>
      <path class="cls-2" d="M933.4,679.85C525.95,454.11,274.21,364.69,178.17,411.53"/>
      <path class="cls-2" d="M888.29,679.9C513.34,447.68,278.84,353.83,184.86,398.4"/>
      <path class="cls-2" d="M840.47,679.94C499.96,441.53,283.63,343.28,191.53,385.24"/>
      <path class="cls-2" d="M790.25,679.99C486.02,435.8,288.69,333.15,198.23,372.1"/>
      <path class="cls-2" d="M738.04,680.04C471.74,430.62,294.03,323.56,204.9,358.94"/>
      <path class="cls-2" d="M684.22,680.09c-226.92-253.92-384.48-365.38-472.65-334.26"/>
      <path class="cls-2" d="M629.19,680.14C442.83,422.69,305.87,306.84,218.26,332.69"/>
      <path class="cls-2" d="M573.28,680.2C428.45,420.43,312.33,300.21,224.93,319.53"/>
      <path class="cls-2" d="M517,680.25c-102.96-260.64-198.1-385.27-285.38-373.86"/>
      <path class="cls-2" d="M460.73,680.31c-61.38-259.93-135.51-388.93-222.43-387.08"/>
      <path class="cls-2" d="M404.81,680.36c-20.76-257.77-74.06-391.18-159.82-400.26"/>
      <path class="cls-2" d="M349.79,680.41c17.98-254.68-14.73-392.47-98.13-413.48"/>
      <path class="cls-2" d="M295.97,680.46c54.42-251.32,41.88-393.54-37.63-426.64"/>
      <path class="cls-2" d="M243.76,680.51c88.38-248.51,95.5-395.11,21.27-439.83"/>
      <path class="cls-2" d="M193.54,680.56c119.99-246.79,146.06-397.79,78.16-453.04"/>
      <path class="cls-2" d="M145.72,680.61c149.46-246.42,193.66-401.8,132.68-466.22"/>
      <path class="cls-2" d="M100.61,680.65c176.95-247.47,238.45-407.28,184.45-479.43"/>
      <path class="cls-2" d="M58.59,680.69c202.63-249.79,280.34-413.97,233.17-492.6"/>
      <path class="cls-2" d="M19.9,680.73C246.41,427.55,339.26,258.97,298.43,174.98"/>
      <path class="cls-2" d="M-15.18,680.76C233.38,423.31,340.14,250.3,305.1,161.82"/>
      <path class="cls-2" d="M-46.3,680.79C222.31,418.31,341.67,240.93,311.8,148.68"/>
      <path class="cls-2" d="M-73.29,680.82C213.28,412.68,343.88,230.93,318.47,135.52"/>
      <path class="cls-2" d="M-95.94,680.84C206.4,406.6,346.76,220.46,325.16,122.38"/>
      <path class="cls-2" d="M-114.16,680.86C201.7,400.08,350.36,209.54,331.83,109.22"/>
      <path class="cls-2" d="M-127.68,680.87C199.27,393.16,354.65,198.24,338.5,96.11"/>
      <path class="cls-2" d="M-136.51,680.88C199.08,385.93,359.65,186.64,345.2,82.97"/>
      <path class="cls-2" d="M-140.53,680.88C201.18,378.39,365.31,174.71,351.87,69.81"/>
      <path class="cls-2" d="M-139.69,680.88C205.59,370.58,371.69,162.51,358.56,56.68"/>
      <path class="cls-2" d="M-134.11,680.88C212.24,362.51,378.7,150.05,365.23,43.51"/>
      <path class="cls-2" d="M-123.72,680.87C221.15,354.15,386.33,137.33,371.93,30.38"/>
      <path class="cls-2" d="M-108.58,680.85C232.21,345.52,394.62,124.33,378.6,17.22"/>
      <path class="cls-2" d="M-88.9,680.83C245.44,336.61,403.51,111.03,385.27,4.11"/>
      <path class="cls-2" d="M-131.13,680.87C229.56,331.4,403.92,101.42,391.96-9.03"/>
      <path class="cls-2" d="M-138.39,680.88C231.62,328.08,411.67,95.75,401.8-16.01"/>
      <path class="cls-2" d="M-140.79,680.88C238.15,330.38,423.86,98.85,416.36-13.73"/>
      <path class="cls-2" d="M-138.39,680.88C246.95,332.43,436.7,101.65,430.93-11.44"/>
      <path class="cls-2" d="M-131.13,680.87C257.99,334.17,450.2,104.17,445.47-9.13"/>
      <path class="cls-2" d="M-119.17,680.86C271.25,335.72,464.33,106.48,460.04-6.85"/>
      <path class="cls-2" d="M-102.52,680.85C286.73,337.04,479.1,108.56,474.61-4.57"/>
      <path class="cls-2" d="M-81.33,680.83C304.3,338.09,494.48,110.4,489.2-2.26"/>
      <path class="cls-2" d="M-55.74,680.8C323.96,338.93,510.46,112,503.74,.05"/>
      <path class="cls-2" d="M-25.99,680.77C345.57,339.54,527.01,113.39,518.31,2.33"/>
      <path class="cls-2" d="M7.79,680.74C369.09,339.91,544.13,114.52,532.88,4.62"/>
      <path class="cls-2" d="M45.27,680.7C394.36,339.99,561.72,115.4,547.45,6.9"/>
      <path class="cls-2" d="M86.25,680.67C421.25,339.81,579.87,115.98,561.99,9.21"/>
      <path class="cls-2" d="M130.37,680.62C449.64,339.31,598.4,116.27,576.56,11.49"/>
      <path class="cls-2" d="M177.3,680.58C479.4,338.5,617.32,116.23,591.12,13.77"/>
      <path class="cls-2" d="M226.79,680.53C510.31,337.37,636.59,115.9,605.69,16.06"/>
      <path class="cls-2" d="M278.37,680.48C542.15,335.88,656.14,115.17,620.26,18.39"/>
      <path class="cls-2" d="M331.67,680.43C574.8,333.99,675.85,114.09,634.83,20.68"/>
      <path class="cls-2" d="M349.79,680.41C912.27,423.65,1216.03,236.56,1261.1,119.24"/>
      <path class="cls-2" d="M295.97,680.46C895.46,426.27,1222.01,239.98,1275.64,121.55"/>
      <path class="cls-2" d="M243.76,680.51C879.54,428.69,1228.36,243.13,1290.21,123.83"/>
      <path class="cls-2" d="M193.54,680.56C864.72,430.95,1235.12,246.13,1304.78,126.12"/>
      <path class="cls-2" d="M145.72,680.61C843.74,440.21,1230.88,260.25,1307.09,140.68"/>
      <path class="cls-2" d="M100.61,680.65C824.07,449.36,1227.03,274.25,1309.4,155.24"/>
      <path class="cls-2" d="M58.59,680.69C805.85,458.41,1223.57,288.11,1311.74,169.78"/>
      <path class="cls-2" d="M19.9,680.73C789.18,467.38,1220.58,301.92,1314.05,184.34"/>
      <path class="cls-2" d="M-15.18,680.76C774.23,476.25,1218.06,315.63,1316.39,198.93"/>
    </g>
  </g>
</svg>