<?xml version="1.0" encoding="UTF-8"?>
<svg id="Layer_1" data-name="Layer 1" xmlns="http://www.w3.org/2000/svg" xmlns:xlink="http://www.w3.org/1999/xlink" viewBox="0 0 365 480">
  <defs>
    <style>
      .cls-1, .cls-2, .cls-3 {
        fill: none;
      }

      .cls-4 {
        clip-path: url(#clippath-1);
      }

      .cls-5 {
        clip-path: url(#clippath-4);
      }

      .cls-6 {
        clip-path: url(#clippath-3);
      }

      .cls-7 {
        clip-path: url(#clippath-2);
      }

      .cls-8 {
        clip-path: url(#clippath-5);
      }

      .cls-9, .cls-2 {
        opacity: .6;
      }

      .cls-2, .cls-3 {
        stroke: #bba3ff;
        stroke-miterlimit: 10;
        stroke-width: .5px;
      }
    </style>
    <clipPath id="clippath">
      <rect class="cls-1" x="-615" width="365" height="480"/>
    </clipPath>
    <clipPath id="clippath-1">
      <rect class="cls-1" width="365" height="480"/>
    </clipPath>
    <clipPath id="clippath-2">
      <rect class="cls-1" y="-730" width="365" height="480"/>
    </clipPath>
    <clipPath id="clippath-3">
      <rect class="cls-1" y="730" width="365" height="480"/>
    </clipPath>
    <clipPath id="clippath-4">
      <rect class="cls-1" x="-615" y="730" width="365" height="480"/>
    </clipPath>
    <clipPath id="clippath-5">
      <rect class="cls-1" x="615" y="730" width="365" height="480"/>
    </clipPath>
  </defs>
  <g class="cls-4">
    <g>
      <path class="cls-2" d="M-139.34-611.59C311.04-202.67,596.31,2.52,716.51,3.92"/>
      <path class="cls-2" d="M-163.59-650.02C293.41-215.12,583.45,5.77,706.47,12.71"/>
      <path class="cls-2" d="M-186.68-686.62C276.46-226.76,570.84,9.29,696.43,21.51"/>
      <path class="cls-2" d="M-208.46-721.13C260.21-237.43,558.52,13.04,686.43,30.3"/>
      <path class="cls-2" d="M-228.75-753.3C244.71-247.06,546.44,17.09,676.39,39.1"/>
      <path class="cls-2" d="M-247.43-782.9C230.01-255.49,534.63,21.44,666.36,47.89"/>
      <path class="cls-2" d="M-264.37-809.75C216.19-262.69,523.1,26.09,656.31,56.71"/>
      <path class="cls-2" d="M-279.4-833.56C203.24-268.57,511.79,31.1,646.31,65.51"/>
      <path class="cls-2" d="M-292.43-854.21C191.21-273.04,500.79,36.46,636.27,74.3"/>
      <path class="cls-2" d="M-303.37-871.55C180.14-276.05,490.02,42.14,626.23,83.09"/>
      <path class="cls-2" d="M-312.17-885.49C170.04-277.59,479.5,48.22,616.2,91.88"/>
      <path class="cls-2" d="M-318.7-895.84C160.96-277.55,469.24,54.63,606.19,100.68"/>
      <path class="cls-2" d="M-322.96-902.59C152.88-275.92,459.24,61.44,596.15,109.47"/>
      <path class="cls-2" d="M-324.9-905.67C145.86-272.71,449.51,68.59,586.12,118.26"/>
      <path class="cls-2" d="M-324.5-905.03C139.81-267.92,440.03,76.14,576.07,127.09"/>
      <path class="cls-2" d="M-321.8-900.75C134.8-261.52,430.77,84.04,566.07,135.89"/>
      <path class="cls-2" d="M-316.78-892.8C130.8-253.55,421.75,92.28,556.03,144.68"/>
      <path class="cls-2" d="M-309.47-881.22C127.79-244.03,412.96,100.87,545.99,153.47"/>
      <path class="cls-2" d="M-299.97-866.16C125.74-232.98,404.39,109.82,535.96,162.26"/>
      <path class="cls-2" d="M-288.32-847.7C124.59-220.5,396.03,119.1,525.95,171.06"/>
      <path class="cls-2" d="M-274.61-825.97C124.33-206.62,387.84,128.65,515.92,179.85"/>
      <path class="cls-2" d="M-258.93-801.12C124.94-191.45,379.86,138.49,505.88,188.64"/>
      <path class="cls-2" d="M-241.41-773.35C126.32-175.01,372.06,148.61,495.84,197.43"/>
      <path class="cls-2" d="M-222.17-742.87C128.41-157.45,364.41,158.93,485.83,206.26"/>
      <path class="cls-2" d="M-201.35-709.87C131.18-138.81,356.89,169.49,475.79,215.05"/>
      <path class="cls-2" d="M-179.12-674.63C134.53-119.25,349.49,180.25,465.76,223.85"/>
      <path class="cls-2" d="M-155.62-637.4C138.42-98.88,342.2,191.13,455.72,232.64"/>
      <path class="cls-2" d="M-131.04-598.45C142.73-77.83,334.95,202.13,445.72,241.44"/>
      <path class="cls-2" d="M-105.56-558.06C147.4-56.23,327.78,213.21,435.68,250.23"/>
      <path class="cls-2" d="M-79.34-516.51C152.34-34.19,320.65,224.31,425.64,259.02"/>
      <path class="cls-2" d="M-52.59-474.12C157.47-11.9,313.52,235.4,415.6,267.81"/>
      <path class="cls-2" d="M-25.52-431.21C162.67,10.51,306.39,246.46,405.57,276.6"/>
      <path class="cls-2" d="M1.68-388.11C167.92,32.9,299.19,257.4,395.56,285.43"/>
      <path class="cls-2" d="M28.81-345.12C173.04,55.09,291.95,268.19,385.52,294.22"/>
      <path class="cls-2" d="M55.68-302.53C178,76.89,284.6,278.72,375.48,303.01"/>
      <path class="cls-2" d="M82.1-260.66C182.68,98.16,277.15,288.99,365.44,311.81"/>
      <path class="cls-2" d="M107.84-219.87C187.02,118.77,269.56,298.91,355.44,320.6"/>
      <path class="cls-2" d="M132.75-180.4c58.21,318.86,129.08,488.8,212.65,509.8"/>
      <path class="cls-2" d="M156.65-142.53c37.75,299.68,97.33,459.91,178.72,480.72"/>
      <path class="cls-2" d="M179.31-106.62c18.02,281.24,66.7,432.43,146.02,453.59"/>
      <path class="cls-2" d="M200.61-72.86c-.93,263.6,37.29,406.49,114.71,428.67"/>
      <path class="cls-2" d="M220.4-41.5c-18.91,246.93,9.37,382.3,84.88,406.1"/>
      <path class="cls-2" d="M238.5-12.81c-35.76,231.47-16.86,360.17,56.74,386.2"/>
      <path class="cls-2" d="M254.81,13.04c-51.36,217.33-41.25,340.37,30.39,369.15"/>
      <path class="cls-2" d="M269.18,35.81c-65.58,204.79-63.56,323.2,6.02,355.17"/>
      <path class="cls-2" d="M281.53,55.38c-78.34,194.16-83.8,308.96-16.37,344.39"/>
      <path class="cls-2" d="M291.77,71.6c-89.62,185.72-101.85,298.06-36.64,336.96"/>
      <path class="cls-2" d="M299.81,84.35c-99.5,179.72-117.73,290.74-54.72,333.01"/>
      <path class="cls-2" d="M305.58,93.5c-107.96,176.4-131.47,287.29-70.5,332.66"/>
      <path class="cls-2" d="M309.09,99.05c-115.16,175.84-143.16,287.79-84.05,335.93"/>
      <path class="cls-2" d="M310.25,100.89c-121.12,178.12-152.86,292.38-95.24,342.88"/>
      <path class="cls-2" d="M309.09,99.05c-125.93,183.16-160.6,301-104.12,353.51"/>
      <path class="cls-2" d="M305.58,93.5c-129.52,191.01-166.4,313.63-110.62,367.86"/>
      <path class="cls-2" d="M299.81,84.35c-132.03,201.51-170.33,330.1-114.88,385.8"/>
      <path class="cls-2" d="M291.77,71.6c-133.36,214.49-172.33,350.27-116.88,407.34"/>
      <path class="cls-2" d="M281.53,55.38c-133.9,224.03-173.06,365.04-117.54,422.97"/>
      <path class="cls-2" d="M269.18,35.81c-133.55,231.99-172.43,377.23-116.66,435.74"/>
      <path class="cls-2" d="M254.81,13.04C122.64,255.16,84.74,405.7,141.08,464.75"/>
      <path class="cls-2" d="M238.5-12.81C108.8,241.52,72.52,398.42,129.61,457.91"/>
      <path class="cls-2" d="M220.4-41.5C94.17,226.87,60.1,391.09,118.14,451.1"/>
      <path class="cls-2" d="M200.61-72.86C78.83,211.28,47.51,383.65,106.67,444.26"/>
      <path class="cls-2" d="M179.31-106.62C62.88,194.76,34.82,376.12,95.2,437.45"/>
      <path class="cls-2" d="M156.65-142.53C46.37,177.36,22.05,368.4,83.73,430.61"/>
      <path class="cls-2" d="M132.75-180.4C29.39,159.13,9.24,360.54,72.26,423.8"/>
      <path class="cls-2" d="M107.84-219.87C12.04,140.17-3.66,352.45,60.82,417"/>
      <path class="cls-2" d="M82.1-260.66C-5.62,120.56-16.55,344.19,49.35,410.16"/>
      <path class="cls-2" d="M55.68-302.53C-23.53,100.45-29.46,335.72,37.88,403.35"/>
      <path class="cls-2" d="M28.81-345.12C-41.58,79.86-42.4,327.07,26.41,396.51"/>
      <path class="cls-2" d="M1.68-388.11C-59.74,59-55.32,318.3,14.94,389.7"/>
      <path class="cls-2" d="M-25.52-431.21C-77.89,37.98-68.22,309.35,3.47,382.86"/>
      <path class="cls-2" d="M1.68-388.11C-333.72-168.53-501.28-11.57-501.02,82.77"/>
      <path class="cls-2" d="M28.81-345.12C-323.9-158.19-504.35-17.85-512.49,75.96"/>
      <path class="cls-2" d="M55.68-302.53C-313.91-147.54-507.11-23.68-523.92,69.13"/>
      <path class="cls-2" d="M82.1-260.66C-303.94-136.66-509.77-29.01-535.4,62.32"/>
      <path class="cls-2" d="M107.84-219.87C-292.65-126.33-509.9-34.96-543.98,54.25"/>
      <path class="cls-2" d="M132.75-180.4C-275.11-118.9-499.74-45.03-541.04,41.25"/>
      <path class="cls-2" d="M156.65-142.53C-258.15-111.68-489.73-54.75-538.09,28.22"/>
      <path class="cls-2" d="M179.31-106.62c-421.24,1.79-659.4,42.4-714.46,121.83"/>
      <path class="cls-2" d="M200.61-72.86c-427.19-25.65-671.45-.63-732.82,75.07"/>
      <path class="cls-2" d="M254.81,13.04C-186.95-84.44-446.34-101.07-523.37-36.85"/>
      <path class="cls-2" d="M269.18,35.81C-176.08-81.91-439.29-110.46-520.43-49.85"/>
      <path class="cls-2" d="M281.53,55.38C-166.46-80.69-432.83-120.1-517.49-62.85"/>
      <path class="cls-2" d="M291.77,71.6C-158.1-80.86-426.88-130.02-514.54-75.88"/>
      <path class="cls-2" d="M299.81,84.35C-150.99-82.47-421.46-140.23-511.6-88.88"/>
      <path class="cls-2" d="M305.58,93.5C-145.13-85.66-416.56-150.8-508.66-101.91"/>
      <path class="cls-2" d="M309.09,99.05C-140.54-90.38-412.14-161.72-505.71-114.91"/>
      <path class="cls-2" d="M310.25,100.89C-137.18-96.74-408.18-173.02-502.77-127.91"/>
      <path class="cls-2" d="M309.09,99.05C-135.06-104.72-404.71-184.73-499.83-140.94"/>
      <path class="cls-2" d="M305.58,93.5C-134.15-114.34-401.64-196.81-496.88-153.94"/>
      <path class="cls-2" d="M299.81,84.35C-134.43-125.54-399.02-209.3-493.94-166.97"/>
      <path class="cls-2" d="M291.77,71.6C-135.89-138.33-396.82-222.19-491-179.97"/>
      <path class="cls-2" d="M281.53,55.38C-138.49-152.69-395.04-235.49-488.05-192.97"/>
      <path class="cls-2" d="M269.18,35.81C-142.2-168.56-393.63-249.14-485.11-206"/>
      <path class="cls-2" d="M254.81,13.04C-146.99-185.84-392.64-263.2-482.17-219"/>
      <path class="cls-2" d="M254.81,13.04C163.64-467.74,72.67-734.28-18.13-786.61"/>
      <path class="cls-2" d="M269.18,35.81C177.58-458.21,86.23-732.76-4.84-787.85"/>
      <path class="cls-2" d="M281.53,55.38C190.65-449.98,99.61-731.48,8.45-789.05"/>
      <path class="cls-2" d="M291.77,71.6C202.82-443.19,112.81-730.48,21.71-790.3"/>
      <path class="cls-2" d="M299.81,84.35C214.06-437.77,125.79-729.73,35-791.5"/>
      <path class="cls-2" d="M305.58,93.5C224.36-433.83,138.59-729.27,48.29-792.71"/>
      <path class="cls-2" d="M309.09,99.05C233.7-431.37,151.22-729.05,61.58-793.95"/>
      <path class="cls-2" d="M310.25,100.89C242.04-430.38,163.59-729.09,74.87-795.16"/>
      <path class="cls-2" d="M309.09,99.05C249.44-430.86,175.8-729.34,88.16-796.4"/>
      <path class="cls-2" d="M305.58,93.5c-49.74-526.3-117.81-823.35-204.17-891.11"/>
      <path class="cls-2" d="M299.81,84.35c-38.55-520.51-100.24-814.89-185.11-883.17"/>
      <path class="cls-2" d="M291.77,71.6c-26.05-512.48-80.62-803.05-163.77-871.66"/>
      <path class="cls-2" d="M281.53,55.38c-12.29-502.31-59.03-787.86-140.25-856.65"/>
      <path class="cls-2" d="M269.18,35.81c2.7-489.98-35.53-769.43-114.6-838.31"/>
      <path class="cls-2" d="M254.81,13.04c18.79-475.59-10.2-747.84-86.95-816.74"/>
      <path class="cls-2" d="M254.81,13.04c294.83-114.74,443.88-214.79,447.12-300.12"/>
      <path class="cls-2" d="M269.18,35.81c291.09-121.79,437.08-225.34,438.03-310.64"/>
      <path class="cls-2" d="M281.53,55.38c288.07-126.75,431.7-232.72,430.95-317.96"/>
      <path class="cls-2" d="M291.77,71.6C577.61-57.88,719.6-165.21,717.76-250.32"/>
      <path class="cls-2" d="M299.81,84.35C584.28-45.58,725.34-153.05,723-238.07"/>
      <path class="cls-2" d="M305.58,93.5c283.96-127.99,424.85-234.41,422.69-319.28"/>
      <path class="cls-2" d="M309.09,99.05C593.37-24.59,734.85-128.78,733.54-213.53"/>
      <path class="cls-2" d="M310.25,100.89C595.72-15.94,738.58-116.67,738.82-201.27"/>
      <path class="cls-2" d="M309.09,99.05C596.59-8.55,741.6-104.58,744.06-189.03"/>
      <path class="cls-2" d="M305.58,93.5C595.94-2.5,743.86-92.6,749.34-176.77"/>
      <path class="cls-2" d="M299.81,84.35C593.7,2.24,745.32-80.73,754.61-164.52"/>
      <path class="cls-2" d="M291.77,71.6C589.94,5.53,745.97-69.07,759.89-152.26"/>
      <path class="cls-2" d="M281.53,55.38C584.66,7.38,745.87-57.76,765.13-140.01"/>
      <path class="cls-2" d="M269.18,35.81C577.98,7.69,745.05-46.85,770.41-127.76"/>
      <path class="cls-2" d="M254.81,13.04c315.18-6.64,488.78-49.5,520.87-128.51"/>
    </g>
  </g>
  <g class="cls-7">
    <g class="cls-9">
      <path class="cls-3" d="M225.76-362.04C413.11-99.57,548.7,23.72,632.49,7.88"/>
      <path class="cls-3" d="M257.89-329.92C421.32-80.76,543.62,35.39,624.74,18.52"/>
      <path class="cls-3" d="M288.6-299.21C428.73-62.77,538.22,46.69,617,29.16"/>
      <path class="cls-3" d="M317.66-270.15C435.25-45.77,532.45,57.56,609.26,39.8"/>
      <path class="cls-3" d="M344.87-242.93C440.79-29.88,526.33,67.91,601.55,50.48"/>
      <path class="cls-3" d="M353.47-234.33c-8.7,293.12,24.98,455.46,101.09,487.09"/>
      <path class="cls-3" d="M326.95-260.86c2.34,315.75,42.31,490.51,119.9,524.25"/>
      <path class="cls-3" d="M298.48-289.33c14.56,339.47,61.42,527.28,140.63,563.36"/>
      <path class="cls-3" d="M268.3-319.51c27.74,364.15,82.11,565.54,163.07,604.19"/>
      <path class="cls-3" d="M236.6-351.2C276.77,33.31,338.15,245.87,420.76,286.49"/>
      <path class="cls-3" d="M203.65-384.15C255.85,18.02,324.05,240.2,408.24,282.44"/>
      <path class="cls-3" d="M169.68-418.12C234.53,2.21,309.88,234.4,395.75,278.39"/>
      <path class="cls-3" d="M134.96-452.85C212.85-13.94,295.62,228.44,383.23,274.3"/>
      <path class="cls-3" d="M99.67-488.14C190.94-30.41,281.28,222.37,370.71,270.25"/>
      <path class="cls-3" d="M64.15-523.66C168.93-47.05,266.92,216.21,358.19,266.16"/>
      <path class="cls-3" d="M28.63-559.18C146.88-63.79,252.55,209.99,345.67,262.11"/>
      <path class="cls-3" d="M-6.66-594.47C124.91-80.49,238.19,203.69,333.14,258.03"/>
      <path class="cls-3" d="M-41.39-629.2C103.16-97.03,223.85,197.37,320.62,253.97"/>
      <path class="cls-3" d="M-75.36-663.17C81.71-113.31,209.55,191.04,308.14,249.92"/>
      <path class="cls-3" d="M-108.31-696.12C60.69-129.23,195.32,184.75,295.62,245.83"/>
      <path class="cls-3" d="M-140-727.81C40.16-144.68,181.18,178.52,283.09,241.78"/>
      <path class="cls-3" d="M-170.19-757.99C20.26-159.57,167.18,172.32,270.57,237.7"/>
      <path class="cls-3" d="M-198.65-786.46C1.05-173.77,153.28,166.26,258.05,233.64"/>
      <path class="cls-3" d="M-225.18-812.99C-17.37-187.25,139.54,160.3,245.53,229.56"/>
      <path class="cls-3" d="M-249.59-837.4C-34.9-199.87,125.99,154.47,233.05,225.5"/>
      <path class="cls-3" d="M-271.74-859.54C-51.47-211.57,112.62,148.77,220.52,221.45"/>
      <path class="cls-3" d="M-291.37-879.18C-67.02-222.27,99.44,143.26,208,217.37"/>
      <path class="cls-3" d="M-308.41-896.22C-81.52-231.93,86.45,137.89,195.48,213.31"/>
      <path class="cls-3" d="M-322.71-910.52C-94.86-240.5,73.7,132.75,182.96,209.23"/>
      <path class="cls-3" d="M-334.21-922.01C-107.02-247.94,61.22,127.81,170.44,205.17"/>
      <path class="cls-3" d="M-342.74-930.55C-117.96-254.17,48.93,123.03,157.95,201.12"/>
      <path class="cls-3" d="M-348.31-936.12C-127.65-259.24,36.9,118.49,145.43,197.04"/>
      <path class="cls-3" d="M-350.85-938.65C-136.12-263.1,25.14,114.14,132.91,192.98"/>
      <path class="cls-3" d="M-278.56-866.36C-113.51-237.27,19.47,114.5,120.39,188.9"/>
      <path class="cls-3" d="M-297.34-885.14C-128.7-247.58,6.39,109.1,107.87,184.85"/>
      <path class="cls-3" d="M-313.48-901.29C-142.77-256.84-6.49,103.86,95.35,180.76"/>
      <path class="cls-3" d="M-326.86-914.67C-155.72-265.01-19.15,98.78,82.83,176.71"/>
      <path class="cls-3" d="M-337.37-925.18C-167.45-272.06-31.57,93.87,70.34,172.65"/>
      <path class="cls-3" d="M-344.92-932.72C-177.96-277.93-43.73,89.16,57.82,168.57"/>
      <path class="cls-3" d="M-349.5-937.3C-187.25-282.64-55.66,84.65,45.3,164.52"/>
      <path class="cls-3" d="M-351.01-938.82C-195.26-286.13-67.32,80.3,32.78,160.43"/>
      <path class="cls-3" d="M-349.5-937.3C-202.02-288.44-78.75,76.11,20.26,156.38"/>
      <path class="cls-3" d="M-344.92-932.72C-207.48-289.59-89.92,72.09,7.74,152.32"/>
      <path class="cls-3" d="M16.83-570.97C-161.29-210.68-226.89,10.08-179.97,91.3"/>
      <path class="cls-3" d="M52.29-535.52C-151.44-203.36-233.02,4.22-192.49,87.25"/>
      <path class="cls-3" d="M87.84-499.97C-140.89-196.18-238.52-1.81-205.01,83.16"/>
      <path class="cls-3" d="M123.23-464.58C-129.82-189.03-243.43-7.81-217.53,79.11"/>
      <path class="cls-3" d="M158.18-429.62C-118.39-181.81-247.78-13.57-230.05,75.06"/>
      <path class="cls-3" d="M192.45-395.36C-106.76-174.43-251.77-19.01-242.58,70.97"/>
      <path class="cls-3" d="M225.76-362.04C-95.26-166.92-255.52-23.95-255.06,66.92"/>
      <path class="cls-3" d="M257.89-329.92C-84.16-159.28-259.31-28.37-267.58,62.83"/>
      <path class="cls-3" d="M288.6-299.21C-73.74-151.6-263.3-32.26-280.1,58.78"/>
      <path class="cls-3" d="M317.66-270.15C-64.22-143.99-267.65-35.72-292.63,54.7"/>
      <path class="cls-3" d="M344.87-242.93C-55.82-136.67-272.49-38.81-305.15,50.64"/>
      <path class="cls-3" d="M370.01-217.79C-48.67-129.79-277.9-41.65-317.67,46.59"/>
      <path class="cls-3" d="M392.91-194.89C-42.9-123.49-283.93-44.35-330.15,42.5"/>
      <path class="cls-3" d="M413.41-174.4C-38.55-117.92-290.58-46.95-342.67,38.45"/>
      <path class="cls-3" d="M431.33-156.47C-34.14-114.3-295.49-51.27-352.69,32.55"/>
      <path class="cls-3" d="M446.56-141.25C-25.11-115.91-291.5-62.34-352.69,19.41"/>
      <path class="cls-3" d="M458.98-128.83C-17.57-118.55-288.11-73.54-352.69,6.23"/>
    </g>
  </g>
  <g class="cls-6">
    <g class="cls-9">
      <path class="cls-3" d="M-491.1,661.01C-169.88,619.96,3.73,558.74,29.69,477.38"/>
      <path class="cls-3" d="M-515.52,636.59C-176.64,608.32,9.26,553.89,42.21,473.3"/>
      <path class="cls-3" d="M-537.66,614.45C-181.81,597.35,15.66,548.95,54.7,469.25"/>
      <path class="cls-3" d="M-557.3,594.82c371.9-7.64,580.07-50.87,624.52-129.62"/>
      <path class="cls-3" d="M-574.33,577.78c386.95,.13,604.98-38.75,654.07-116.67"/>
      <path class="cls-3" d="M-588.63,563.48c400.89,6.26,627.85-29.23,680.89-106.43"/>
      <path class="cls-3" d="M-600.13,551.98c413.61,10.68,648.6-22.34,704.91-99.01"/>
      <path class="cls-3" d="M-608.67,543.45c425.01,13.31,666.99-18.19,725.97-94.53"/>
      <path class="cls-3" d="M-614.23,537.88c435.03,14.23,683.04-16.77,744.06-93.05"/>
      <path class="cls-3" d="M-616.77,535.34c443.63,13.34,696.68-18.16,759.08-94.56"/>
      <path class="cls-3" d="M-544.48,607.63c417.1-31.83,650.22-88.83,699.31-170.91"/>
      <path class="cls-3" d="M-563.26,588.85c431.53-19.51,674.44-69.59,728.7-150.31"/>
      <path class="cls-3" d="M-579.41,572.71c442.51-3.62,693.38-44.81,752.59-123.53"/>
      <path class="cls-3" d="M-592.78,559.33c452.26,10.48,710.19-22.67,773.71-99.51"/>
      <path class="cls-3" d="M-603.29,548.82c460.76,22.83,724.72-3.26,791.93-78.35"/>
    </g>
  </g>
  <g class="cls-5">
    <g class="cls-9">
      <path class="cls-3" d="M21.24,718.67C-470.42,366.95-773.49,192.31-887.93,194.8"/>
      <path class="cls-3" d="M41.94,722.11C-455.26,366.44-761.57,189.54-877.01,191.33"/>
      <path class="cls-3" d="M59.31,724.99C-441.47,365.75-749.93,186.72-866.07,187.89"/>
      <path class="cls-3" d="M73.28,727.32C-429.08,364.87-738.58,183.9-855.15,184.41"/>
      <path class="cls-3" d="M83.65,729.04C-418.18,363.74-727.46,181.06-844.25,180.96"/>
      <path class="cls-3" d="M90.41,730.16C-408.74,362.43-716.63,178.19-833.31,177.51"/>
      <path class="cls-3" d="M93.5,730.68C-400.79,360.87-706.1,175.31-822.38,174.04"/>
      <path class="cls-3" d="M5.67,716.08C-429.89,354.02-702.27,172.18-811.45,170.59"/>
      <path class="cls-3" d="M28.49,719.87C-413.91,353.63-690.26,169.38-800.52,167.12"/>
      <path class="cls-3" d="M48.1,723.13C-399.25,353.06-678.48,166.57-789.58,163.68"/>
      <path class="cls-3" d="M64.35,725.83C-385.94,352.29-666.95,163.76-778.66,160.21"/>
      <path class="cls-3" d="M77.12,727.96C-374.06,351.35-655.66,160.94-767.76,156.75"/>
      <path class="cls-3" d="M86.29,729.48C-363.64,350.18-644.66,158.12-756.82,153.3"/>
      <path class="cls-3" d="M91.85,730.4C-354.67,348.81-633.93,155.28-745.9,149.83"/>
      <path class="cls-3" d="M93.7,730.71C-347.23,347.23-623.46,152.45-734.96,146.39"/>
      <path class="cls-3" d="M91.85,730.4C-341.28,345.44-613.24,149.62-724.04,142.91"/>
      <path class="cls-3" d="M86.29,729.48C-336.82,343.49-603.29,146.81-713.12,139.44"/>
      <path class="cls-3" d="M77.12,727.96C-333.81,341.33-593.58,144.03-702.2,136.01"/>
      <path class="cls-3" d="M64.35,725.83C-332.23,339.05-584.11,141.28-691.28,132.54"/>
      <path class="cls-3" d="M48.1,723.13C-332.05,336.59-574.88,138.56-680.34,129.09"/>
      <path class="cls-3" d="M28.49,719.87C-333.19,334.01-565.82,135.93-669.42,125.62"/>
      <path class="cls-3" d="M5.67,716.08C-335.58,331.35-556.97,133.41-658.48,122.18"/>
      <path class="cls-3" d="M21.24,718.67C-28.49,495.49-87.96,381.72-157.17,377.33"/>
      <path class="cls-3" d="M41.94,722.11C-16.96,500.26-81.1,388.45-150.51,386.65"/>
      <path class="cls-3" d="M59.31,724.99C-6.69,505.2-74.42,395.53-143.83,395.98"/>
      <path class="cls-3" d="M73.28,727.32C2.25,510.27-67.87,402.91-137.17,405.3"/>
      <path class="cls-3" d="M83.65,729.04C9.88,515.4-61.5,410.59-130.5,414.63"/>
      <path class="cls-3" d="M90.41,730.16C16.17,520.6-55.25,418.54-123.84,423.95"/>
      <path class="cls-3" d="M93.5,730.68C21.11,525.88-49.11,426.74-117.18,433.26"/>
      <path class="cls-3" d="M5.67,716.08c-12.03-179.97-50.76-271.15-116.17-273.49"/>
      <path class="cls-3" d="M28.49,719.87C5.79,539.98-38.31,450.66-103.85,451.91"/>
      <path class="cls-3" d="M48.1,723.13C16.69,544.21-31.76,456.91-97.19,461.22"/>
      <path class="cls-3" d="M64.35,725.83C26.26,548.73-25.35,463.62-90.51,470.56"/>
      <path class="cls-3" d="M77.12,727.96C34.57,553.44-19.09,470.74-83.85,479.87"/>
    </g>
  </g>
  <g class="cls-8">
    <g class="cls-9">
      <path class="cls-3" d="M590.44,451.82C301.38,1223.04,186.82,1684.68,246.77,1836.79"/>
      <path class="cls-3" d="M581.91,390C291.59,1188.63,176.37,1665.88,236.28,1821.77"/>
      <path class="cls-3" d="M573.79,331.13C282.02,1155.37,166.03,1647.23,225.82,1806.71"/>
      <path class="cls-3" d="M566.13,275.6C272.64,1123.46,155.7,1628.81,215.33,1791.68"/>
      <path class="cls-3" d="M558.99,223.86C263.53,1093.02,145.47,1610.64,204.87,1776.62"/>
      <path class="cls-3" d="M552.42,176.24C254.69,1064.28,135.34,1592.79,194.42,1761.63"/>
      <path class="cls-3" d="M546.47,133.05C246.13,1037.36,125.29,1575.21,183.93,1746.6"/>
      <path class="cls-3" d="M541.18,94.75C237.87,1012.4,115.29,1558.03,173.47,1731.54"/>
      <path class="cls-3" d="M536.6,61.52C229.9,989.5,105.39,1541.15,162.98,1716.52"/>
      <path class="cls-3" d="M532.75,33.63C222.29,968.77,95.56,1524.73,152.52,1701.46"/>
      <path class="cls-3" d="M529.66,11.2C215.06,950.29,85.86,1508.74,142.04,1686.43"/>
      <path class="cls-3" d="M527.36-5.45C208.16,934.18,76.24,1493.11,131.58,1671.43"/>
      <path class="cls-3" d="M525.86-16.31C201.67,920.4,66.71,1477.95,121.12,1656.37"/>
      <path class="cls-3" d="M525.18-21.26C195.52,909.01,57.32,1463.23,110.64,1641.35"/>
      <path class="cls-3" d="M544.63,119.75C198.88,956.68,50.72,1458.87,100.18,1626.29"/>
      <path class="cls-3" d="M539.58,83.12C190.7,932.46,40.75,1441.88,89.69,1611.26"/>
      <path class="cls-3" d="M535.23,51.62C182.87,910.36,30.85,1425.23,79.23,1596.2"/>
      <path class="cls-3" d="M531.63,25.53C175.37,890.4,21.08,1408.96,68.74,1581.18"/>
      <path class="cls-3" d="M528.81,5.03C168.28,872.72,11.42,1393.07,58.29,1566.18"/>
      <path class="cls-3" d="M526.78-9.69C161.54,857.37,1.89,1377.62,47.83,1551.12"/>
      <path class="cls-3" d="M525.54-18.62C155.19,844.33-7.55,1362.58,37.34,1536.1"/>
      <path class="cls-3" d="M525.14-21.58C149.24,833.72-16.84,1347.95,26.88,1521.04"/>
      <path class="cls-3" d="M525.54-18.62C143.68,825.48-26.01,1333.69,16.39,1506.01"/>
      <path class="cls-3" d="M526.78-9.69C138.58,819.6-35.03,1319.84,5.9,1490.99"/>
      <path class="cls-3" d="M528.81,5.03C133.87,816.03-43.9,1306.33-4.52,1475.95"/>
      <path class="cls-3" d="M531.63,25.53C129.63,814.72-52.59,1293.18-15.01,1460.93"/>
      <path class="cls-3" d="M535.23,51.62C125.79,815.61-61.13,1280.38-25.47,1445.87"/>
      <path class="cls-3" d="M539.58,83.12C122.4,818.56-69.45,1267.81-35.96,1430.84"/>
      <path class="cls-3" d="M544.63,119.75C119.47,823.48-77.5,1255.49-46.42,1415.78"/>
      <path class="cls-3" d="M550.37,161.33C117.06,830.24-85.36,1243.38-56.91,1400.76"/>
      <path class="cls-3" d="M556.73,207.48C115.14,838.62-92.91,1231.39-67.39,1385.73"/>
      <path class="cls-3" d="M563.69,257.93C113.73,848.54-100.12,1219.48-77.82,1370.7"/>
      <path class="cls-3" d="M571.18,312.23C112.92,859.79-106.9,1207.61-88.31,1355.68"/>
      <path class="cls-3" d="M579.15,370.01C112.77,872.22-113.22,1195.74-98.77,1340.62"/>
      <path class="cls-3" d="M587.55,430.94C113.27,885.61-119.02,1183.81-109.25,1325.59"/>
      <path class="cls-3" d="M590.44,451.82C238.83,464.53,51.14,524.41,27.44,631.52"/>
      <path class="cls-3" d="M581.91,390C233.84,432.61,52.68,508.25,38.52,616.89"/>
      <path class="cls-3" d="M573.79,331.13C229.67,402.4,54.96,492.78,49.57,602.3"/>
      <path class="cls-3" d="M566.13,275.6C226.49,373.86,58.01,477.88,60.62,587.71"/>
      <path class="cls-3" d="M558.99,223.86C224.39,347,61.95,463.42,71.7,573.09"/>
      <path class="cls-3" d="M552.42,176.24C223.31,321.84,66.74,449.27,82.76,558.5"/>
      <path class="cls-3" d="M546.47,133.05C223.22,298.41,72.35,435.33,93.84,543.87"/>
      <path class="cls-3" d="M541.18,94.75C224.12,276.7,78.7,421.56,104.89,529.28"/>
      <path class="cls-3" d="M536.6,61.52C225.93,256.84,85.72,407.88,115.94,514.69"/>
      <path class="cls-3" d="M532.75,33.63C228.59,238.82,93.35,394.32,127.02,500.06"/>
      <path class="cls-3" d="M529.66,11.2C232.07,222.75,101.51,380.82,138.08,485.47"/>
      <path class="cls-3" d="M527.36-5.45C236.28,208.68,110.2,367.44,149.16,470.84"/>
      <path class="cls-3" d="M525.86-16.31C241.23,196.6,119.37,354.12,160.21,456.25"/>
      <path class="cls-3" d="M525.18-21.26C246.95,186.55,128.97,340.85,171.26,441.66"/>
      <path class="cls-3" d="M544.63,119.75C275.61,223.63,154.83,326.08,182.34,427.04"/>
      <path class="cls-3" d="M539.58,83.12C275.74,203.24,160.36,313,193.4,412.45"/>
      <path class="cls-3" d="M535.23,51.62C277.04,184.59,166.79,300.03,204.45,397.86"/>
      <path class="cls-3" d="M531.63,25.53C279.37,167.83,173.97,287.06,215.53,383.23"/>
      <path class="cls-3" d="M528.81,5.03C282.62,152.91,181.88,274.11,226.58,368.64"/>
      <path class="cls-3" d="M526.78-9.69C286.78,139.83,190.43,261.08,237.67,354.01"/>
      <path class="cls-3" d="M525.54-18.62C291.82,128.69,199.53,248,248.72,339.42"/>
      <path class="cls-3" d="M525.14-21.58C297.74,119.36,209.27,234.84,259.77,324.83"/>
      <path class="cls-3" d="M525.54-18.62C304.56,111.86,219.64,221.46,270.85,310.21"/>
      <path class="cls-3" d="M526.78-9.69c-214.34,115.72-295.98,217.49-244.87,305.3"/>
      <path class="cls-3" d="M528.81,5.03c-207.28,96.6-285.92,188.63-235.82,275.96"/>
      <path class="cls-3" d="M531.63,25.53c-199.41,72.99-275.24,153.26-227.6,240.87"/>
      <path class="cls-3" d="M535.23,51.62c-189.99,44.61-263.38,111.32-220.14,200.19"/>
      <path class="cls-3" d="M539.58,83.12c-177.87,11.44-249.01,62.8-213.4,154.07"/>
      <path class="cls-3" d="M544.63,119.75c-161.03-25.99-230.17,8.3-207.4,102.84"/>
      <path class="cls-3" d="M550.37,161.33c-137.19-65.66-204.53-50.08-202.06,46.63"/>
      <path class="cls-3" d="M556.73,207.48c-106.4-102.65-172.19-107.36-197.37-14.1"/>
    </g>
  </g>
</svg>